<svg xmlns="http://www.w3.org/2000/svg" viewBox="0 -0.5 1200 600" shape-rendering="crispEdges">
<metadata>Made with Pixels to Svg https://codepen.io/shshaw/pen/XbxvNj</metadata>
<path stroke="rgba(76,90,116,0.43137254901960786)" d="M1134 180h53M1134 181h53M1134 182h53M1134 183h53M1134 184h53M1134 185h53M1134 186h53M1134 187h53M1134 188h7M1181 188h6M1134 189h7M1181 189h6M1134 190h7M1181 190h6M1134 191h7M1181 191h6M1134 192h7M1181 192h6M1134 193h53M1134 194h53M1134 195h53M1134 196h53M1134 197h53M1134 198h53M1134 199h53M1134 200h53M1134 201h8M1162 201h4M1179 201h8M1134 202h8M1162 202h4M1179 202h8M1134 203h8M1162 203h4M1179 203h8M1134 204h8M1162 204h4M1179 204h8M1134 205h8M1162 205h4M1179 205h8M1134 206h53M1134 207h53M1134 208h53M1134 209h53M1134 210h53M1134 211h53M1134 212h53M1134 213h53M1134 214h8M1179 214h8M1134 215h8M1179 215h8M1134 216h8M1179 216h8M1134 217h8M1179 217h8M1134 218h8M1179 218h8M1134 219h53M1134 220h53M1134 221h53M1134 222h53M1134 223h53M1134 224h53M1134 225h53M1134 226h53M1134 227h9M1158 227h5M1180 227h7M1134 228h9M1158 228h5M1180 228h7M1134 229h9M1158 229h5M1180 229h7M1134 230h9M1158 230h5M1180 230h7M1134 231h9M1158 231h5M1180 231h7M1134 232h53M1134 233h53M1134 234h53M1134 235h53M1134 236h53M1134 237h53M1134 238h53M1134 239h9M1153 239h2M1182 239h5M1134 240h9M1153 240h2M1182 240h5M1134 241h9M1153 241h2M1182 241h5M1134 242h9M1153 242h2M1182 242h5M1134 243h9M1153 243h2M1182 243h5M1134 244h53M1134 245h53M1134 246h53M1134 247h53M1134 248h53M1134 249h53M1134 250h53M1134 251h53M1134 252h53M1134 253h53M1134 254h53M1134 255h53M1134 256h53M1134 257h53M1134 258h53M1134 259h53M1134 260h53M1134 261h53M1134 262h53M1134 263h53M1134 264h53M1134 265h53M1134 266h53M1134 267h53M1134 268h53M1134 269h53M1134 270h53M1134 271h53M1134 272h53M1134 273h53M1134 274h53M1134 275h53M1134 276h53M1134 277h53M1134 278h53M1134 279h53M1134 280h53M1134 281h53M1134 282h53M1134 283h53M1134 284h53M1134 285h53M1134 286h53M1134 287h53M1134 288h53M1134 289h53M416 290h3M1134 290h53M416 291h3M1134 291h53M416 292h3M1134 292h53M416 293h3M1134 293h53M416 294h3M1134 294h53M416 295h3M1134 295h53M416 296h3M1134 296h53M416 297h3M1134 297h53M416 298h3M1134 298h53M416 299h3M1134 299h53M416 300h3M1134 300h53M416 301h3M1134 301h53M416 302h3M1134 302h53M416 303h3M1134 303h53M416 304h3M1134 304h53M416 305h3M1134 305h53M416 306h3M1134 306h53M416 307h3M1134 307h53M416 308h3M1134 308h53M416 309h3M1134 309h53M416 310h3M1134 310h53M1134 311h53M404 312h27M1134 312h53M404 313h27M1134 313h53M404 314h27M1134 314h53M404 315h27M1134 315h53M404 316h27M1134 316h53M404 317h27M1134 317h53M194 318h5M404 318h27M1134 318h53M194 319h5M404 319h27M1134 319h53M194 320h5M404 320h27M1134 320h53M194 321h5M404 321h27M1134 321h53M194 322h5M404 322h27M1134 322h53M194 323h5M1134 323h53M194 324h5M396 324h43M1134 324h53M194 325h5M396 325h43M1134 325h53M194 326h5M396 326h43M1134 326h53M194 327h5M396 327h43M1134 327h53M192 328h43M396 328h3M402 328h37M1134 328h53M192 329h43M396 329h3M402 329h7M412 329h7M422 329h8M433 329h6M1134 329h53M192 330h43M396 330h3M402 330h7M412 330h7M422 330h8M433 330h6M1134 330h53M192 331h43M396 331h3M402 331h7M412 331h7M422 331h8M433 331h6M1134 331h53M192 332h43M396 332h3M402 332h7M412 332h7M422 332h8M433 332h6M1134 332h53M192 333h43M396 333h3M402 333h7M412 333h7M422 333h8M433 333h6M1134 333h53M192 334h43M396 334h3M402 334h7M412 334h7M422 334h8M433 334h6M1134 334h53M192 335h43M396 335h3M402 335h7M412 335h7M422 335h8M433 335h6M921 335h7M1134 335h53M192 336h43M396 336h3M402 336h7M412 336h7M422 336h8M433 336h6M921 336h11M1134 336h53M192 337h5M212 337h4M229 337h6M396 337h13M412 337h7M422 337h17M921 337h14M1134 337h53M192 338h5M212 338h4M229 338h6M396 338h13M412 338h7M422 338h17M921 338h17M1134 338h53M192 339h5M212 339h4M229 339h6M396 339h43M921 339h21M1134 339h53M192 340h5M212 340h4M229 340h6M396 340h43M921 340h24M1134 340h53M192 341h5M212 341h4M229 341h6M921 341h27M1134 341h53M192 342h5M212 342h4M229 342h6M390 342h59M921 342h31M1134 342h53M192 343h43M390 343h59M921 343h34M1134 343h53M192 344h43M270 344h5M390 344h59M921 344h37M1134 344h53M192 345h43M270 345h5M390 345h59M922 345h40M1134 345h53M192 346h43M270 346h5M390 346h59M922 346h43M1134 346h53M192 347h5M212 347h4M229 347h6M270 347h5M390 347h59M922 347h47M1134 347h53M192 348h5M212 348h4M229 348h6M270 348h5M390 348h59M922 348h50M1134 348h53M192 349h5M212 349h4M229 349h6M270 349h5M390 349h59M923 349h52M1134 349h53M192 350h5M212 350h4M229 350h6M270 350h5M390 350h59M923 350h56M1134 350h53M192 351h5M212 351h4M229 351h6M270 351h5M390 351h6M442 351h7M923 351h59M1134 351h53M172 352h3M192 352h5M212 352h4M229 352h6M270 352h5M390 352h6M442 352h7M923 352h62M1134 352h53M172 353h3M192 353h43M270 353h5M390 353h6M442 353h7M924 353h65M1134 353h53M172 354h3M192 354h43M270 354h5M390 354h6M442 354h7M772 354h61M924 354h68M1134 354h53M172 355h3M192 355h43M270 355h5M390 355h6M442 355h7M772 355h61M924 355h71M1134 355h53M172 356h3M192 356h5M212 356h4M229 356h6M270 356h5M390 356h6M442 356h7M772 356h61M924 356h75M1134 356h53M172 357h3M192 357h5M212 357h4M229 357h6M270 357h5M390 357h59M772 357h61M925 357h77M1134 357h53M172 358h3M192 358h5M212 358h4M229 358h6M270 358h5M390 358h59M772 358h61M925 358h15M949 358h6M964 358h6M979 358h26M1134 358h53M172 359h3M192 359h5M212 359h4M229 359h6M270 359h5M390 359h59M772 359h61M925 359h15M949 359h6M964 359h6M979 359h30M1134 359h53M2 360h181M192 360h5M212 360h4M229 360h6M236 360h47M390 360h59M772 360h61M925 360h15M949 360h6M964 360h6M979 360h33M1134 360h53M2 361h181M192 361h5M212 361h4M229 361h6M236 361h47M390 361h59M772 361h61M925 361h15M949 361h6M964 361h6M979 361h37M1134 361h53M2 362h181M192 362h43M236 362h47M390 362h6M442 362h7M772 362h61M926 362h14M949 362h6M964 362h6M979 362h40M1134 362h53M2 363h181M192 363h43M236 363h47M390 363h6M442 363h7M772 363h8M789 363h8M806 363h27M926 363h14M949 363h6M964 363h6M979 363h43M1134 363h53M2 364h181M192 364h43M236 364h47M390 364h6M442 364h7M772 364h8M789 364h8M806 364h27M926 364h14M949 364h6M964 364h6M979 364h47M1134 364h53M2 365h181M192 365h43M236 365h47M390 365h6M442 365h7M772 365h8M789 365h8M806 365h27M926 365h14M949 365h6M964 365h6M979 365h50M1134 365h53M2 366h181M192 366h5M212 366h4M229 366h6M236 366h47M390 366h6M442 366h7M772 366h8M789 366h8M806 366h27M927 366h13M949 366h6M964 366h6M979 366h53M1134 366h53M2 367h181M192 367h5M212 367h4M229 367h6M236 367h26M268 367h3M277 367h6M390 367h6M442 367h7M772 367h8M789 367h8M806 367h27M927 367h109M1134 367h53M2 368h181M192 368h5M212 368h4M229 368h6M236 368h26M268 368h3M277 368h6M390 368h59M772 368h8M789 368h8M806 368h27M927 368h112M1134 368h53M2 369h181M192 369h5M212 369h4M229 369h6M236 369h26M268 369h3M277 369h6M390 369h59M772 369h8M789 369h8M806 369h27M927 369h115M1134 369h53M2 370h7M15 370h3M24 370h3M33 370h4M42 370h101M148 370h4M158 370h3M167 370h3M176 370h7M192 370h5M212 370h4M229 370h6M236 370h26M268 370h3M277 370h6M390 370h59M772 370h8M789 370h8M806 370h27M928 370h118M1134 370h53M2 371h7M15 371h3M24 371h3M33 371h4M42 371h101M148 371h4M158 371h3M167 371h3M176 371h7M192 371h5M212 371h4M229 371h6M236 371h26M268 371h3M277 371h6M390 371h59M772 371h8M789 371h8M806 371h27M928 371h121M1134 371h53M2 372h7M15 372h3M24 372h3M33 372h4M42 372h101M148 372h4M158 372h3M167 372h3M176 372h7M192 372h43M236 372h26M268 372h3M277 372h6M390 372h59M772 372h61M928 372h13M950 372h6M965 372h6M980 372h5M994 372h5M1008 372h6M1023 372h30M1134 372h53M2 373h7M15 373h3M24 373h3M33 373h4M42 373h101M148 373h4M158 373h3M167 373h3M176 373h7M192 373h43M236 373h47M390 373h6M441 373h8M772 373h61M928 373h13M950 373h6M965 373h6M980 373h5M994 373h5M1008 373h6M1023 373h5M1037 373h19M1134 373h53M2 374h7M15 374h3M24 374h3M33 374h4M42 374h101M148 374h4M158 374h3M167 374h3M176 374h7M192 374h43M236 374h47M390 374h6M441 374h8M772 374h61M929 374h12M950 374h6M965 374h6M980 374h5M994 374h5M1008 374h6M1023 374h5M1037 374h22M1134 374h53M2 375h7M15 375h3M24 375h3M33 375h119M158 375h3M167 375h3M176 375h7M192 375h5M212 375h4M229 375h6M236 375h47M390 375h6M441 375h8M772 375h61M929 375h12M950 375h6M965 375h6M980 375h5M994 375h5M1008 375h6M1023 375h5M1037 375h26M1134 375h53M2 376h181M192 376h5M212 376h4M229 376h6M236 376h35M277 376h6M390 376h6M441 376h8M772 376h61M929 376h12M950 376h6M965 376h6M980 376h5M994 376h5M1008 376h6M1023 376h5M1037 376h29M1134 376h53M2 377h181M192 377h5M212 377h4M229 377h6M236 377h35M277 377h6M390 377h6M441 377h8M772 377h61M929 377h12M950 377h6M965 377h6M980 377h5M994 377h5M1008 377h6M1023 377h5M1037 377h32M1134 377h53M2 378h7M15 378h3M24 378h3M33 378h119M158 378h3M167 378h3M176 378h7M192 378h5M212 378h4M229 378h6M236 378h35M277 378h6M390 378h6M441 378h8M772 378h61M929 378h12M950 378h6M965 378h6M980 378h5M994 378h5M1008 378h6M1023 378h5M1037 378h36M1134 378h53M2 379h7M15 379h3M24 379h3M33 379h119M158 379h3M167 379h3M176 379h7M192 379h5M212 379h4M229 379h6M236 379h35M277 379h6M390 379h59M772 379h61M930 379h11M950 379h6M965 379h6M980 379h5M994 379h5M1008 379h6M1023 379h5M1037 379h39M1134 379h53M2 380h7M15 380h3M24 380h3M33 380h119M158 380h3M167 380h3M176 380h7M192 380h5M212 380h4M229 380h6M236 380h35M277 380h6M390 380h59M772 380h61M930 380h11M950 380h6M965 380h6M980 380h5M994 380h5M1008 380h6M1023 380h5M1037 380h42M1134 380h53M2 381h7M15 381h3M24 381h3M33 381h119M158 381h3M167 381h3M176 381h7M192 381h43M236 381h35M277 381h6M390 381h59M772 381h8M789 381h44M930 381h98M1037 381h46M1134 381h53M2 382h7M15 382h3M24 382h3M33 382h119M158 382h3M167 382h3M176 382h7M192 382h43M236 382h47M390 382h59M772 382h8M789 382h44M930 382h156M1134 382h53M2 383h7M15 383h3M24 383h3M33 383h119M158 383h3M167 383h3M176 383h7M192 383h43M236 383h47M390 383h6M441 383h8M772 383h8M789 383h44M931 383h158M1134 383h53M2 384h181M192 384h43M236 384h47M390 384h6M441 384h8M562 384h11M772 384h8M789 384h44M931 384h162M1134 384h53M2 385h181M192 385h5M212 385h4M229 385h6M236 385h35M277 385h6M390 385h6M441 385h8M562 385h11M772 385h8M789 385h44M931 385h83M1023 385h6M1038 385h4M1051 385h5M1065 385h30M1134 385h53M2 386h7M15 386h3M24 386h137M167 386h3M176 386h7M192 386h5M212 386h4M229 386h6M236 386h35M277 386h6M390 386h6M441 386h8M562 386h11M772 386h8M789 386h44M931 386h10M950 386h6M965 386h6M980 386h5M994 386h5M1008 386h6M1023 386h6M1038 386h4M1051 386h5M1065 386h30M1134 386h53M2 387h7M15 387h3M24 387h137M167 387h3M176 387h7M192 387h5M212 387h4M229 387h6M236 387h35M277 387h6M390 387h6M441 387h8M562 387h11M772 387h8M789 387h44M932 387h9M950 387h6M965 387h6M980 387h5M994 387h5M1008 387h6M1023 387h6M1038 387h4M1051 387h5M1065 387h30M1134 387h53M2 388h7M15 388h3M24 388h137M167 388h3M176 388h7M192 388h5M212 388h4M229 388h6M236 388h35M277 388h6M390 388h6M441 388h8M562 388h11M772 388h8M789 388h44M932 388h9M950 388h6M965 388h6M980 388h5M994 388h5M1008 388h6M1023 388h6M1038 388h4M1051 388h5M1065 388h30M1134 388h53M2 389h7M15 389h3M24 389h137M167 389h3M176 389h7M192 389h5M212 389h4M229 389h6M236 389h35M277 389h6M390 389h59M562 389h11M772 389h8M789 389h44M932 389h9M950 389h6M965 389h6M980 389h5M994 389h5M1008 389h6M1023 389h6M1038 389h4M1051 389h5M1065 389h30M1134 389h53M2 390h7M15 390h3M24 390h137M167 390h3M176 390h7M192 390h5M212 390h4M229 390h6M236 390h35M277 390h6M390 390h59M562 390h11M772 390h61M932 390h9M950 390h6M965 390h6M980 390h5M994 390h5M1008 390h6M1023 390h6M1038 390h4M1051 390h5M1065 390h30M1134 390h53M2 391h7M15 391h3M24 391h137M167 391h3M176 391h7M192 391h43M236 391h47M390 391h59M562 391h11M772 391h61M933 391h8M950 391h6M965 391h6M980 391h5M994 391h5M1008 391h6M1023 391h6M1038 391h4M1051 391h5M1065 391h30M1134 391h53M2 392h181M192 392h43M236 392h47M390 392h59M562 392h11M772 392h61M933 392h8M950 392h6M965 392h6M980 392h5M994 392h5M1008 392h6M1023 392h6M1038 392h4M1051 392h5M1065 392h30M1134 392h53M2 393h181M192 393h43M236 393h47M390 393h59M562 393h11M772 393h61M933 393h8M950 393h6M965 393h6M980 393h5M994 393h5M1008 393h6M1023 393h6M1038 393h4M1051 393h5M1065 393h30M1134 393h53M2 394h7M15 394h3M24 394h137M167 394h3M176 394h7M192 394h43M236 394h47M390 394h59M562 394h11M772 394h61M933 394h8M950 394h6M965 394h6M980 394h5M994 394h5M1008 394h87M1134 394h53M2 395h7M15 395h3M24 395h137M167 395h3M176 395h7M192 395h43M236 395h35M277 395h6M390 395h59M562 395h11M772 395h61M933 395h161M1134 395h53M2 396h7M15 396h3M24 396h137M167 396h3M176 396h7M192 396h43M236 396h35M277 396h6M390 396h59M562 396h11M772 396h61M934 396h160M1134 396h53M2 397h7M15 397h3M24 397h137M167 397h3M176 397h7M192 397h43M236 397h35M277 397h6M390 397h59M562 397h11M772 397h61M934 397h95M1038 397h5M1052 397h4M1065 397h4M1078 397h16M1134 397h53M2 398h7M15 398h3M24 398h137M167 398h3M176 398h7M192 398h43M236 398h35M277 398h6M390 398h59M562 398h11M772 398h61M934 398h65M1008 398h6M1023 398h6M1038 398h5M1052 398h4M1065 398h4M1078 398h16M1134 398h53M2 399h7M15 399h3M24 399h137M167 399h3M176 399h7M192 399h43M236 399h35M277 399h6M390 399h59M562 399h11M772 399h8M789 399h44M934 399h22M965 399h6M980 399h5M994 399h5M1008 399h6M1023 399h6M1038 399h5M1052 399h4M1065 399h4M1078 399h16M1134 399h53M2 400h181M192 400h43M236 400h35M277 400h6M292 400h49M390 400h59M562 400h11M772 400h8M789 400h44M935 400h21M965 400h6M980 400h5M994 400h5M1008 400h6M1023 400h6M1038 400h5M1052 400h4M1065 400h4M1078 400h15M1134 400h53M2 401h181M192 401h43M236 401h47M292 401h49M390 401h59M562 401h11M772 401h8M789 401h44M935 401h21M965 401h6M980 401h5M994 401h5M1008 401h6M1023 401h6M1038 401h5M1052 401h4M1065 401h4M1078 401h15M1134 401h53M2 402h7M15 402h155M176 402h7M192 402h43M236 402h47M292 402h49M390 402h59M562 402h11M772 402h8M789 402h44M935 402h21M965 402h6M980 402h5M994 402h5M1008 402h6M1023 402h6M1038 402h5M1052 402h4M1065 402h4M1078 402h15M1134 402h53M2 403h7M15 403h155M176 403h7M192 403h43M236 403h47M292 403h49M390 403h59M562 403h11M772 403h8M789 403h44M935 403h21M965 403h6M980 403h5M994 403h5M1008 403h6M1023 403h6M1038 403h5M1052 403h4M1065 403h4M1078 403h15M1134 403h53M2 404h7M15 404h155M176 404h7M192 404h43M236 404h47M292 404h49M390 404h59M528 404h83M772 404h8M789 404h44M936 404h20M965 404h6M980 404h5M994 404h5M1008 404h6M1023 404h6M1038 404h5M1052 404h4M1065 404h4M1078 404h14M1134 404h53M2 405h7M15 405h155M176 405h7M192 405h43M236 405h35M277 405h6M292 405h49M390 405h59M528 405h83M772 405h8M789 405h44M936 405h20M965 405h6M980 405h5M994 405h5M1008 405h6M1023 405h6M1038 405h5M1052 405h4M1065 405h4M1078 405h14M1134 405h53M2 406h7M15 406h155M176 406h7M192 406h43M236 406h35M277 406h6M292 406h49M390 406h59M528 406h83M772 406h8M789 406h44M936 406h20M965 406h6M980 406h5M994 406h5M1008 406h6M1023 406h69M1134 406h53M2 407h7M15 407h155M176 407h7M192 407h43M236 407h35M277 407h6M292 407h49M390 407h59M528 407h83M772 407h8M789 407h44M936 407h20M965 407h6M980 407h5M994 407h98M1134 407h53M2 408h181M192 408h43M236 408h35M277 408h6M292 408h49M390 408h59M528 408h5M606 408h5M772 408h61M937 408h155M1134 408h53M2 409h181M192 409h43M236 409h35M277 409h6M292 409h49M390 409h59M528 409h5M606 409h5M772 409h61M937 409h154M1134 409h53M2 410h181M192 410h43M236 410h35M277 410h6M292 410h49M390 410h59M528 410h5M606 410h5M772 410h61M937 410h154M1134 410h53M2 411h181M192 411h43M236 411h47M292 411h49M390 411h59M528 411h5M536 411h67M606 411h5M772 411h61M937 411h48M994 411h5M1008 411h6M1023 411h68M1134 411h53M2 412h181M192 412h43M236 412h47M292 412h49M390 412h59M528 412h5M536 412h67M606 412h5M772 412h61M938 412h18M965 412h6M980 412h5M994 412h5M1008 412h6M1023 412h68M1134 412h53M2 413h181M192 413h43M236 413h47M292 413h49M390 413h59M528 413h5M536 413h67M606 413h5M772 413h61M938 413h18M965 413h6M980 413h5M994 413h5M1008 413h6M1023 413h68M1134 413h53M2 414h181M192 414h43M236 414h47M292 414h49M390 414h59M528 414h5M536 414h67M606 414h5M772 414h61M938 414h18M965 414h6M980 414h5M994 414h5M1008 414h6M1023 414h67M1100 414h87M2 415h181M192 415h43M236 415h47M292 415h49M390 415h59M528 415h5M536 415h67M606 415h5M772 415h61M938 415h18M965 415h6M980 415h5M994 415h5M1008 415h6M1023 415h67M1100 415h87M2 416h181M192 416h43M236 416h119M390 416h59M528 416h5M536 416h67M606 416h5M772 416h61M938 416h18M965 416h6M980 416h5M994 416h5M1008 416h6M1023 416h67M1100 416h87M2 417h181M192 417h43M236 417h119M390 417h59M528 417h5M536 417h67M606 417h5M772 417h61M939 417h17M965 417h6M980 417h5M994 417h5M1008 417h6M1023 417h67M1100 417h87M2 418h181M192 418h43M236 418h119M390 418h59M528 418h5M536 418h67M606 418h5M772 418h61M844 418h67M939 418h17M965 418h6M980 418h5M994 418h5M1008 418h6M1023 418h66M1100 418h87M2 419h181M192 419h43M236 419h119M390 419h59M528 419h5M536 419h67M606 419h5M772 419h61M844 419h67M939 419h17M965 419h6M980 419h5M994 419h5M1008 419h6M1023 419h66M1100 419h87M2 420h181M192 420h43M236 420h119M390 420h59M528 420h5M536 420h67M606 420h5M772 420h61M844 420h67M939 420h17M965 420h6M980 420h109M1100 420h37M1140 420h47M2 421h181M192 421h43M236 421h119M390 421h59M528 421h5M536 421h67M606 421h5M772 421h61M844 421h67M940 421h149M1100 421h27M1130 421h7M1140 421h47M2 422h181M192 422h43M236 422h119M390 422h59M528 422h5M536 422h67M606 422h5M772 422h61M844 422h67M940 422h149M1100 422h17M1120 422h7M1130 422h7M1140 422h47M2 423h181M192 423h43M236 423h119M390 423h59M528 423h5M536 423h67M606 423h5M772 423h61M844 423h67M940 423h148M1100 423h7M1110 423h7M1120 423h7M1130 423h7M1140 423h47M2 424h181M192 424h43M236 424h119M390 424h59M528 424h5M536 424h67M606 424h5M772 424h61M844 424h67M940 424h148M1100 424h7M1110 424h7M1120 424h7M1130 424h7M1140 424h47M2 425h181M192 425h43M236 425h119M390 425h59M528 425h5M536 425h67M606 425h5M772 425h61M844 425h67M941 425h147M1100 425h7M1110 425h7M1120 425h7M1130 425h7M1140 425h47M2 426h181M192 426h43M236 426h53M295 426h3M304 426h3M313 426h3M322 426h3M331 426h3M340 426h15M390 426h59M528 426h5M536 426h67M606 426h5M772 426h61M844 426h67M941 426h147M1100 426h7M1110 426h7M1120 426h7M1130 426h7M1140 426h47M2 427h181M192 427h43M236 427h53M295 427h3M304 427h3M313 427h3M322 427h3M331 427h3M340 427h15M390 427h59M528 427h5M536 427h67M606 427h5M772 427h61M844 427h67M941 427h147M1100 427h7M1110 427h7M1120 427h7M1130 427h7M1140 427h47M2 428h181M192 428h43M236 428h53M295 428h3M304 428h3M313 428h3M322 428h3M331 428h3M340 428h15M390 428h59M528 428h5M536 428h67M606 428h5M772 428h61M844 428h8M861 428h6M876 428h6M891 428h5M906 428h5M941 428h146M1100 428h7M1110 428h7M1120 428h7M1130 428h7M1140 428h47M2 429h75M114 429h69M192 429h43M236 429h53M295 429h3M304 429h3M313 429h3M322 429h3M331 429h3M340 429h15M390 429h59M528 429h5M536 429h67M606 429h5M772 429h61M844 429h8M861 429h6M876 429h6M891 429h5M906 429h5M942 429h145M1100 429h7M1110 429h7M1120 429h7M1130 429h7M1140 429h47M2 430h75M114 430h69M192 430h43M236 430h53M295 430h3M304 430h3M313 430h3M322 430h3M331 430h3M340 430h15M390 430h59M528 430h5M536 430h67M606 430h5M772 430h61M844 430h8M861 430h6M876 430h6M891 430h5M906 430h5M942 430h145M1100 430h7M1110 430h7M1120 430h7M1130 430h7M1140 430h47M2 431h75M114 431h69M192 431h43M236 431h53M295 431h3M304 431h3M313 431h3M322 431h3M331 431h3M340 431h15M390 431h59M528 431h5M536 431h67M606 431h5M772 431h61M844 431h8M861 431h6M876 431h6M891 431h5M906 431h5M942 431h145M1100 431h7M1110 431h7M1120 431h7M1130 431h7M1140 431h47M2 432h75M114 432h69M192 432h43M236 432h53M295 432h3M304 432h3M313 432h3M322 432h3M331 432h3M340 432h15M390 432h59M528 432h5M536 432h67M606 432h5M772 432h61M844 432h8M861 432h6M876 432h6M891 432h5M906 432h5M942 432h144M1100 432h7M1110 432h7M1120 432h7M1130 432h7M1140 432h47M2 433h75M114 433h69M192 433h43M236 433h53M295 433h3M304 433h3M313 433h3M322 433h3M331 433h3M340 433h15M390 433h59M528 433h5M536 433h67M606 433h5M772 433h61M844 433h8M861 433h6M876 433h6M891 433h5M906 433h5M942 433h144M1100 433h7M1110 433h7M1120 433h7M1130 433h7M1140 433h47M2 434h75M114 434h69M192 434h43M236 434h53M295 434h3M304 434h3M313 434h3M322 434h3M331 434h3M340 434h15M390 434h59M528 434h5M536 434h67M606 434h5M772 434h61M844 434h8M861 434h6M876 434h6M891 434h5M906 434h5M943 434h143M1100 434h7M1110 434h7M1120 434h7M1130 434h7M1140 434h47M2 435h75M114 435h69M192 435h43M236 435h53M295 435h3M304 435h3M313 435h3M322 435h3M331 435h3M340 435h15M390 435h59M528 435h5M536 435h67M606 435h5M772 435h61M844 435h8M861 435h6M876 435h6M891 435h5M906 435h5M943 435h143M1100 435h7M1110 435h7M1120 435h7M1130 435h7M1140 435h47M2 436h75M114 436h69M192 436h43M236 436h53M295 436h3M304 436h3M313 436h3M322 436h3M331 436h3M340 436h15M390 436h59M528 436h5M606 436h5M772 436h61M844 436h8M861 436h6M876 436h6M891 436h5M906 436h5M943 436h143M1100 436h7M1110 436h7M1120 436h7M1130 436h7M1140 436h47M2 437h75M114 437h69M192 437h43M236 437h53M295 437h3M304 437h3M313 437h3M322 437h3M331 437h3M340 437h15M390 437h59M528 437h5M606 437h5M772 437h61M844 437h67M943 437h142M1100 437h7M1110 437h7M1120 437h7M1130 437h7M1140 437h47M2 438h75M114 438h69M192 438h43M236 438h119M390 438h59M528 438h5M606 438h5M772 438h61M844 438h67M944 438h141M1100 438h7M1110 438h7M1120 438h7M1130 438h7M1140 438h47M2 439h75M114 439h69M192 439h43M236 439h119M390 439h59M528 439h83M772 439h61M844 439h67M944 439h141M1100 439h7M1110 439h7M1120 439h7M1130 439h7M1140 439h47M2 440h75M114 440h69M192 440h43M236 440h119M390 440h59M452 440h243M772 440h61M844 440h67M944 440h141M1100 440h7M1110 440h7M1120 440h7M1130 440h7M1140 440h47M2 441h75M114 441h69M192 441h43M236 441h119M390 441h59M452 441h243M772 441h61M844 441h67M944 441h141M1100 441h7M1110 441h7M1120 441h7M1130 441h7M1140 441h47M2 442h75M114 442h69M192 442h43M236 442h119M390 442h59M452 442h243M772 442h61M844 442h67M945 442h139M1100 442h7M1110 442h7M1120 442h7M1130 442h7M1140 442h47M2 443h75M114 443h69M192 443h43M236 443h119M390 443h59M452 443h243M772 443h61M844 443h39M892 443h4M905 443h6M945 443h139M1100 443h7M1110 443h7M1120 443h7M1130 443h7M1140 443h47M2 444h75M114 444h69M192 444h43M236 444h119M390 444h59M452 444h3M458 444h3M464 444h3M470 444h3M476 444h3M482 444h3M488 444h3M494 444h3M500 444h3M506 444h3M512 444h3M518 444h3M524 444h3M530 444h3M536 444h3M542 444h3M548 444h3M554 444h3M560 444h3M566 444h3M572 444h3M578 444h3M584 444h3M590 444h3M596 444h3M602 444h3M608 444h3M614 444h3M620 444h3M626 444h3M632 444h3M638 444h3M644 444h3M650 444h3M656 444h3M662 444h3M668 444h3M674 444h3M680 444h3M686 444h3M692 444h3M772 444h61M844 444h8M861 444h7M877 444h6M892 444h4M905 444h6M945 444h139M1100 444h7M1110 444h7M1120 444h7M1130 444h7M1140 444h47M2 445h75M114 445h69M192 445h43M236 445h119M390 445h59M452 445h3M458 445h3M464 445h3M470 445h3M476 445h3M482 445h3M488 445h3M494 445h3M500 445h3M506 445h3M512 445h3M518 445h3M524 445h3M530 445h3M536 445h3M542 445h3M548 445h3M554 445h3M560 445h3M566 445h3M572 445h3M578 445h3M584 445h3M590 445h3M596 445h3M602 445h3M608 445h3M614 445h3M620 445h3M626 445h3M632 445h3M638 445h3M644 445h3M650 445h3M656 445h3M662 445h3M668 445h3M674 445h3M680 445h3M686 445h3M692 445h3M772 445h61M844 445h8M861 445h7M877 445h6M892 445h4M905 445h6M945 445h139M1100 445h7M1110 445h7M1120 445h7M1130 445h7M1140 445h47M2 446h75M114 446h69M192 446h43M236 446h119M390 446h59M452 446h3M458 446h3M464 446h3M470 446h3M476 446h3M482 446h3M488 446h3M494 446h3M500 446h3M506 446h3M512 446h3M518 446h3M524 446h3M530 446h3M536 446h3M542 446h3M548 446h3M554 446h3M560 446h3M566 446h3M572 446h3M578 446h3M584 446h3M590 446h3M596 446h3M602 446h3M608 446h3M614 446h3M620 446h3M626 446h3M632 446h3M638 446h3M644 446h3M650 446h3M656 446h3M662 446h3M668 446h3M674 446h3M680 446h3M686 446h3M692 446h3M772 446h61M844 446h8M861 446h7M877 446h6M892 446h4M905 446h6M946 446h137M1100 446h7M1110 446h7M1120 446h7M1130 446h7M1140 446h47M2 447h75M114 447h69M192 447h43M236 447h119M390 447h59M452 447h3M458 447h3M464 447h3M470 447h3M476 447h3M482 447h3M488 447h3M494 447h3M500 447h3M506 447h3M512 447h3M518 447h3M524 447h3M530 447h3M536 447h3M542 447h3M548 447h3M554 447h3M560 447h3M566 447h3M572 447h3M578 447h3M584 447h3M590 447h3M596 447h3M602 447h3M608 447h3M614 447h3M620 447h3M626 447h3M632 447h3M638 447h3M644 447h3M650 447h3M656 447h3M662 447h3M668 447h3M674 447h3M680 447h3M686 447h3M692 447h3M772 447h61M844 447h8M861 447h7M877 447h6M892 447h4M905 447h6M946 447h137M1100 447h7M1110 447h7M1120 447h7M1130 447h7M1140 447h47M2 448h75M114 448h69M192 448h43M236 448h119M390 448h59M452 448h3M458 448h3M464 448h3M470 448h3M476 448h3M482 448h3M488 448h3M494 448h3M500 448h3M506 448h3M512 448h3M518 448h3M524 448h3M530 448h3M536 448h3M542 448h3M548 448h3M554 448h3M560 448h3M566 448h3M572 448h3M578 448h3M584 448h3M590 448h3M596 448h3M602 448h3M608 448h3M614 448h3M620 448h3M626 448h3M632 448h3M638 448h3M644 448h3M650 448h3M656 448h3M662 448h3M668 448h3M674 448h3M680 448h3M686 448h3M692 448h3M772 448h61M844 448h8M861 448h7M877 448h6M892 448h4M905 448h6M946 448h137M1100 448h7M1110 448h7M1120 448h7M1130 448h7M1140 448h47M2 449h75M114 449h69M192 449h43M236 449h119M390 449h59M452 449h3M458 449h3M464 449h3M470 449h3M476 449h3M482 449h3M488 449h3M494 449h3M500 449h3M506 449h3M512 449h3M518 449h3M524 449h3M530 449h3M536 449h3M542 449h3M548 449h3M554 449h3M560 449h3M566 449h3M572 449h3M578 449h3M584 449h3M590 449h3M596 449h3M602 449h3M608 449h3M614 449h3M620 449h3M626 449h3M632 449h3M638 449h3M644 449h3M650 449h3M656 449h3M662 449h3M668 449h3M674 449h3M680 449h3M686 449h3M692 449h3M772 449h61M844 449h8M861 449h7M877 449h6M892 449h4M905 449h6M946 449h137M1100 449h7M1110 449h7M1120 449h7M1130 449h7M1140 449h47M2 450h75M114 450h69M192 450h43M236 450h119M390 450h59M452 450h3M458 450h3M464 450h3M470 450h3M476 450h3M482 450h3M488 450h3M494 450h3M500 450h3M506 450h3M512 450h3M518 450h3M524 450h3M530 450h3M536 450h3M542 450h3M548 450h3M554 450h3M560 450h3M566 450h3M572 450h3M578 450h3M584 450h3M590 450h3M596 450h3M602 450h3M608 450h3M614 450h3M620 450h3M626 450h3M632 450h3M638 450h3M644 450h3M650 450h3M656 450h3M662 450h3M668 450h3M674 450h3M680 450h3M686 450h3M692 450h3M772 450h61M844 450h8M861 450h7M877 450h6M892 450h4M905 450h6M946 450h137M1100 450h7M1110 450h7M1120 450h7M1130 450h7M1140 450h47M2 451h75M114 451h69M192 451h43M236 451h119M390 451h59M452 451h3M458 451h3M464 451h3M470 451h3M476 451h3M482 451h3M488 451h3M494 451h3M500 451h3M506 451h3M512 451h3M518 451h3M524 451h3M530 451h3M536 451h3M542 451h3M548 451h3M554 451h3M560 451h3M566 451h3M572 451h3M578 451h3M584 451h3M590 451h3M596 451h3M602 451h3M608 451h3M614 451h3M620 451h3M626 451h3M632 451h3M638 451h3M644 451h3M650 451h3M656 451h3M662 451h3M668 451h3M674 451h3M680 451h3M686 451h3M692 451h3M772 451h61M844 451h8M861 451h7M877 451h6M892 451h4M905 451h6M947 451h135M1100 451h7M1110 451h7M1120 451h7M1130 451h7M1140 451h47M2 452h75M114 452h69M192 452h43M236 452h119M390 452h59M452 452h3M458 452h3M464 452h3M470 452h3M476 452h3M482 452h3M488 452h3M494 452h3M500 452h3M506 452h3M512 452h3M518 452h3M524 452h3M530 452h3M536 452h3M542 452h3M548 452h3M554 452h3M560 452h3M566 452h3M572 452h3M578 452h3M584 452h3M590 452h3M596 452h3M602 452h3M608 452h3M614 452h3M620 452h3M626 452h3M632 452h3M638 452h3M644 452h3M650 452h3M656 452h3M662 452h3M668 452h3M674 452h3M680 452h3M686 452h3M692 452h3M772 452h61M844 452h8M861 452h7M877 452h34M947 452h135M1100 452h7M1110 452h7M1120 452h7M1130 452h7M1140 452h47M2 453h75M114 453h69M192 453h43M236 453h119M390 453h59M452 453h3M458 453h3M464 453h3M470 453h3M476 453h3M482 453h3M488 453h3M494 453h3M500 453h3M506 453h3M512 453h3M518 453h3M524 453h3M530 453h3M536 453h3M542 453h3M548 453h3M554 453h3M560 453h3M566 453h3M572 453h3M578 453h3M584 453h3M590 453h3M596 453h3M602 453h3M608 453h3M614 453h3M620 453h3M626 453h3M632 453h3M638 453h3M644 453h3M650 453h3M656 453h3M662 453h3M668 453h3M674 453h3M680 453h3M686 453h3M692 453h3M772 453h61M844 453h67M947 453h135M1100 453h7M1110 453h7M1120 453h7M1130 453h7M1140 453h47M2 454h75M114 454h69M192 454h43M236 454h119M390 454h59M452 454h3M458 454h3M464 454h3M470 454h3M476 454h3M482 454h3M488 454h3M494 454h3M500 454h3M506 454h3M512 454h3M518 454h3M524 454h3M530 454h3M536 454h3M542 454h3M548 454h3M554 454h3M560 454h3M566 454h3M572 454h3M578 454h3M584 454h3M590 454h3M596 454h3M602 454h3M608 454h3M614 454h3M620 454h3M626 454h3M632 454h3M638 454h3M644 454h3M650 454h3M656 454h3M662 454h3M668 454h3M674 454h3M680 454h3M686 454h3M692 454h3M772 454h61M844 454h67M947 454h135M1100 454h7M1110 454h7M1120 454h7M1130 454h7M1140 454h47M2 455h75M114 455h69M192 455h43M236 455h119M390 455h59M452 455h3M458 455h3M464 455h3M470 455h3M476 455h3M482 455h3M488 455h3M494 455h3M500 455h3M506 455h3M512 455h3M518 455h3M524 455h3M530 455h3M536 455h3M542 455h3M548 455h3M554 455h3M560 455h3M566 455h3M572 455h3M578 455h3M584 455h3M590 455h3M596 455h3M602 455h3M608 455h3M614 455h3M620 455h3M626 455h3M632 455h3M638 455h3M644 455h3M650 455h3M656 455h3M662 455h3M668 455h3M674 455h3M680 455h3M686 455h3M692 455h3M772 455h61M844 455h67M948 455h134M1100 455h7M1110 455h7M1120 455h7M1130 455h7M1140 455h47M2 456h75M114 456h69M192 456h43M236 456h119M390 456h59M452 456h3M458 456h3M464 456h3M470 456h3M476 456h3M482 456h3M488 456h3M494 456h3M500 456h3M506 456h3M512 456h3M518 456h3M524 456h3M530 456h3M536 456h3M542 456h3M548 456h3M554 456h3M560 456h3M566 456h3M572 456h3M578 456h3M584 456h3M590 456h3M596 456h3M602 456h3M608 456h3M614 456h3M620 456h3M626 456h3M632 456h3M638 456h3M644 456h3M650 456h3M656 456h3M662 456h3M668 456h3M674 456h3M680 456h3M686 456h3M692 456h3M772 456h61M844 456h67M948 456h133M1100 456h7M1110 456h7M1120 456h7M1130 456h7M1140 456h47M2 457h75M114 457h69M192 457h43M236 457h119M390 457h59M452 457h3M458 457h3M464 457h3M470 457h3M476 457h3M482 457h3M488 457h3M494 457h3M500 457h3M506 457h3M512 457h3M518 457h3M524 457h3M530 457h3M536 457h3M542 457h3M548 457h3M554 457h3M560 457h3M566 457h3M572 457h3M578 457h3M584 457h3M590 457h3M596 457h3M602 457h3M608 457h3M614 457h3M620 457h3M626 457h3M632 457h3M638 457h3M644 457h3M650 457h3M656 457h3M662 457h3M668 457h3M674 457h3M680 457h3M686 457h3M692 457h3M772 457h61M844 457h67M948 457h133M1100 457h7M1110 457h7M1120 457h7M1130 457h7M1140 457h47M2 458h75M114 458h69M192 458h43M236 458h119M390 458h59M452 458h243M772 458h61M844 458h67M948 458h133M1100 458h7M1110 458h7M1120 458h7M1130 458h7M1140 458h47M2 459h75M114 459h69M192 459h43M236 459h119M390 459h59M452 459h243M772 459h61M844 459h67M949 459h132M1100 459h7M1110 459h7M1120 459h7M1130 459h7M1140 459h47M2 460h75M114 460h69M192 460h43M236 460h119M390 460h59M452 460h243M772 460h61M844 460h67M949 460h131M1100 460h7M1110 460h7M1120 460h7M1130 460h7M1140 460h47M2 461h75M114 461h69M192 461h43M236 461h119M390 461h59M452 461h243M772 461h61M844 461h67M949 461h131M1100 461h7M1110 461h7M1120 461h7M1130 461h7M1140 461h47M2 462h75M114 462h69M192 462h43M236 462h119M390 462h59M452 462h243M772 462h61M844 462h67M949 462h131M1100 462h7M1110 462h7M1120 462h7M1130 462h7M1140 462h47M2 463h75M114 463h69M192 463h43M236 463h119M390 463h59M452 463h3M468 463h7M488 463h7M508 463h10M531 463h9M553 463h8M574 463h8M595 463h10M619 463h9M641 463h11M665 463h10M688 463h7M772 463h61M844 463h67M950 463h130M1100 463h7M1110 463h7M1120 463h7M1130 463h7M1140 463h47M2 464h75M114 464h69M192 464h43M236 464h119M390 464h59M452 464h3M468 464h7M488 464h7M508 464h10M531 464h9M553 464h8M574 464h8M595 464h10M619 464h9M641 464h11M665 464h10M688 464h7M772 464h61M844 464h67M950 464h130M1100 464h7M1110 464h7M1120 464h7M1130 464h7M1140 464h47M2 465h75M114 465h69M192 465h43M236 465h119M390 465h59M452 465h3M468 465h7M488 465h7M508 465h10M531 465h9M553 465h8M574 465h8M595 465h10M619 465h9M641 465h11M665 465h10M688 465h7M772 465h61M844 465h67M950 465h129M1100 465h7M1110 465h7M1120 465h7M1130 465h7M1140 465h47M2 466h75M114 466h69M192 466h43M236 466h119M390 466h59M452 466h3M468 466h7M488 466h7M508 466h10M531 466h9M553 466h8M574 466h8M595 466h10M619 466h9M641 466h11M665 466h10M688 466h7M772 466h61M844 466h67M950 466h129M1100 466h7M1110 466h7M1120 466h7M1130 466h7M1140 466h47M2 467h75M114 467h69M192 467h43M236 467h119M390 467h59M452 467h3M468 467h7M488 467h7M508 467h10M531 467h9M553 467h8M574 467h8M595 467h10M619 467h9M641 467h11M665 467h10M688 467h7M772 467h61M844 467h67M950 467h129M1100 467h7M1110 467h7M1120 467h7M1130 467h7M1140 467h47M2 468h75M114 468h69M192 468h43M236 468h119M390 468h59M452 468h3M468 468h7M488 468h7M508 468h10M531 468h9M553 468h8M574 468h8M595 468h10M619 468h9M641 468h11M665 468h10M688 468h7M772 468h61M844 468h67M951 468h128M1100 468h7M1110 468h7M1120 468h7M1130 468h7M1140 468h47M2 469h75M114 469h69M192 469h43M236 469h119M390 469h59M452 469h3M468 469h7M488 469h7M508 469h10M531 469h9M553 469h8M574 469h8M595 469h10M619 469h9M641 469h11M665 469h10M688 469h7M772 469h61M844 469h67M951 469h128M1100 469h7M1110 469h7M1120 469h7M1130 469h7M1140 469h47M2 470h75M114 470h69M192 470h43M236 470h119M390 470h59M452 470h3M468 470h7M488 470h7M508 470h10M531 470h9M553 470h8M574 470h8M595 470h10M619 470h9M641 470h11M665 470h10M688 470h7M772 470h61M844 470h67M951 470h127M1100 470h7M1110 470h7M1120 470h7M1130 470h7M1140 470h47M2 471h75M114 471h69M192 471h43M236 471h119M390 471h59M452 471h3M468 471h7M488 471h7M508 471h10M531 471h9M553 471h8M574 471h8M595 471h10M619 471h9M641 471h11M665 471h10M688 471h7M772 471h61M844 471h67M951 471h127M1100 471h7M1110 471h7M1120 471h7M1130 471h7M1140 471h47M2 472h75M114 472h69M192 472h43M236 472h119M390 472h59M452 472h3M468 472h7M488 472h7M508 472h10M531 472h9M553 472h8M574 472h8M595 472h10M619 472h9M641 472h11M665 472h10M688 472h7M772 472h61M844 472h67M952 472h126M1100 472h7M1110 472h7M1120 472h7M1130 472h7M1140 472h47M2 473h75M114 473h69M192 473h43M236 473h119M390 473h59M452 473h3M468 473h7M488 473h7M508 473h10M531 473h9M553 473h8M574 473h8M595 473h10M619 473h9M641 473h11M665 473h10M688 473h7M772 473h61M844 473h67M952 473h126M1100 473h7M1110 473h7M1120 473h7M1130 473h7M1140 473h47M2 474h75M114 474h69M192 474h43M236 474h119M390 474h59M452 474h3M468 474h7M488 474h7M508 474h10M531 474h9M553 474h8M574 474h8M595 474h10M619 474h9M641 474h11M665 474h10M688 474h7M772 474h61M844 474h67M952 474h125M1100 474h7M1110 474h7M1120 474h7M1130 474h7M1140 474h47M2 475h75M114 475h69M192 475h43M236 475h119M390 475h59M452 475h3M468 475h7M488 475h7M508 475h10M531 475h9M553 475h8M574 475h8M595 475h10M619 475h9M641 475h11M665 475h10M688 475h7M772 475h61M844 475h67M952 475h125M1100 475h7M1110 475h7M1120 475h7M1130 475h7M1140 475h47M2 476h75M114 476h69M192 476h43M236 476h119M390 476h59M452 476h243M772 476h61M844 476h67M953 476h124M1100 476h7M1110 476h7M1120 476h7M1130 476h7M1140 476h47M2 477h75M114 477h69M192 477h43M236 477h119M390 477h59M452 477h243M772 477h61M844 477h67M953 477h124M1100 477h7M1110 477h7M1120 477h7M1130 477h7M1140 477h47M2 478h75M114 478h69M192 478h43M236 478h119M390 478h59M452 478h243M772 478h61M844 478h67M953 478h124M1100 478h7M1110 478h7M1120 478h7M1130 478h7M1140 478h47M2 479h75M114 479h69M192 479h43M236 479h119M390 479h59M452 479h243M772 479h61M844 479h67M953 479h123M1100 479h7M1110 479h7M1120 479h7M1130 479h7M1140 479h47M2 480h75M114 480h69M192 480h43M236 480h119M390 480h59M452 480h243M772 480h61M844 480h67M954 480h122M1100 480h7M1110 480h7M1120 480h7M1130 480h7M1140 480h47M2 481h75M114 481h69M192 481h43M236 481h119M390 481h59M452 481h243M772 481h61M844 481h67M954 481h122M1100 481h7M1110 481h7M1120 481h7M1130 481h7M1140 481h47M2 482h75M114 482h69M192 482h43M236 482h119M390 482h59M452 482h243M772 482h61M844 482h67M954 482h122M1100 482h17M1120 482h7M1130 482h7M1140 482h47M2 483h75M114 483h69M192 483h43M236 483h119M390 483h59M452 483h243M772 483h61M844 483h67M954 483h122M1100 483h17M1120 483h7M1130 483h7M1140 483h47M2 484h75M114 484h69M192 484h43M236 484h119M390 484h59M452 484h243M772 484h61M844 484h67M954 484h121M1100 484h17M1120 484h7M1130 484h7M1140 484h47M2 485h75M114 485h69M192 485h43M236 485h119M390 485h59M452 485h243M772 485h61M844 485h67M955 485h120M1100 485h17M1120 485h7M1130 485h7M1140 485h47M2 486h75M114 486h69M192 486h43M236 486h119M390 486h59M452 486h243M772 486h61M844 486h67M955 486h120M1100 486h17M1120 486h7M1130 486h7M1140 486h47M2 487h75M114 487h69M192 487h43M236 487h119M390 487h59M452 487h243M772 487h61M844 487h67M955 487h120M1100 487h17M1120 487h7M1130 487h7M1140 487h47M2 488h75M114 488h69M192 488h43M236 488h119M390 488h59M452 488h243M772 488h61M844 488h67M955 488h119M1100 488h17M1120 488h7M1130 488h7M1140 488h47M2 489h75M114 489h69M192 489h43M236 489h119M390 489h59M452 489h243M772 489h61M844 489h67M956 489h118M1100 489h17M1120 489h7M1130 489h7M1140 489h47M2 490h75M114 490h69M192 490h43M236 490h119M390 490h59M452 490h243M772 490h61M844 490h67M956 490h118M1100 490h17M1120 490h7M1130 490h7M1140 490h47M2 491h75M114 491h69M192 491h43M236 491h119M390 491h59M452 491h243M772 491h61M844 491h67M956 491h118M1100 491h17M1120 491h7M1130 491h7M1140 491h47M2 492h75M114 492h69M192 492h43M236 492h119M390 492h59M452 492h243M772 492h61M844 492h67M956 492h118M1100 492h17M1120 492h7M1130 492h7M1140 492h47M2 493h75M114 493h69M192 493h43M236 493h119M390 493h59M452 493h243M772 493h61M844 493h67M957 493h116M1100 493h17M1120 493h7M1130 493h7M1140 493h47M2 494h75M114 494h69M192 494h43M236 494h119M390 494h59M452 494h243M772 494h61M844 494h67M957 494h116M1100 494h17M1120 494h7M1130 494h7M1140 494h47M2 495h75M114 495h69M192 495h43M236 495h119M390 495h59M452 495h243M772 495h61M844 495h67M957 495h116M1100 495h17M1120 495h7M1130 495h7M1140 495h47M2 496h75M114 496h69M192 496h43M236 496h119M390 496h59M452 496h243M772 496h61M844 496h67M957 496h116M1100 496h17M1120 496h7M1130 496h7M1140 496h47M2 497h75M114 497h69M192 497h43M236 497h119M390 497h59M452 497h243M772 497h61M844 497h67M958 497h115M1100 497h17M1120 497h7M1130 497h7M1140 497h47M2 498h75M114 498h69M192 498h43M236 498h119M390 498h59M452 498h243M772 498h61M844 498h67M958 498h114M1100 498h27M1130 498h7M1140 498h47M2 499h75M114 499h69M192 499h43M236 499h119M390 499h59M452 499h243M772 499h61M844 499h67M958 499h114M1100 499h27M1130 499h7M1140 499h47M2 500h75M114 500h69M192 500h43M236 500h119M390 500h59M452 500h243M772 500h61M844 500h67M958 500h114M1100 500h27M1130 500h7M1140 500h47M2 501h75M114 501h69M192 501h43M236 501h119M390 501h59M452 501h243M772 501h61M844 501h67M958 501h114M1100 501h27M1130 501h7M1140 501h47M2 502h75M114 502h69M192 502h43M236 502h119M390 502h59M452 502h243M772 502h61M844 502h67M959 502h112M1100 502h27M1130 502h7M1140 502h47M2 503h75M114 503h69M192 503h43M236 503h119M390 503h59M452 503h243M772 503h61M844 503h67M959 503h112M1100 503h27M1130 503h7M1140 503h47M2 504h75M114 504h69M192 504h43M236 504h119M390 504h59M452 504h243M772 504h61M844 504h67M959 504h112M1100 504h27M1130 504h7M1140 504h47M2 505h75M114 505h69M192 505h43M236 505h119M390 505h59M452 505h243M772 505h61M844 505h67M959 505h112M1100 505h27M1130 505h7M1140 505h47M2 506h75M114 506h69M192 506h43M236 506h119M390 506h59M452 506h243M772 506h61M844 506h67M960 506h111M1100 506h27M1130 506h7M1140 506h47M2 507h75M114 507h69M192 507h43M236 507h119M390 507h59M452 507h243M772 507h61M844 507h67M960 507h110M1100 507h27M1130 507h7M1140 507h47M2 508h75M114 508h69M192 508h43M236 508h119M390 508h59M452 508h243M772 508h61M844 508h67M960 508h110M1100 508h27M1130 508h7M1140 508h47M2 509h75M114 509h69M192 509h43M236 509h119M390 509h59M452 509h243M772 509h61M844 509h67M960 509h110M1100 509h27M1130 509h7M1140 509h47M2 510h75M114 510h69M192 510h43M236 510h119M390 510h59M452 510h243M772 510h61M844 510h67M961 510h109M1100 510h27M1130 510h7M1140 510h47M2 511h75M114 511h69M192 511h43M236 511h119M390 511h59M452 511h243M772 511h61M844 511h67M961 511h109M1100 511h27M1130 511h7M1140 511h47M2 512h75M114 512h69M192 512h43M236 512h119M390 512h59M452 512h243M772 512h61M844 512h67M961 512h108M1100 512h27M1130 512h7M1140 512h47M2 513h75M114 513h69M192 513h43M236 513h119M390 513h59M452 513h243M772 513h61M844 513h67M961 513h108M1100 513h27M1130 513h7M1140 513h47M2 514h75M114 514h69M192 514h43M236 514h119M390 514h59M452 514h243M772 514h61M844 514h67M962 514h107M1100 514h27M1130 514h7M1140 514h47M2 515h75M114 515h69M192 515h43M236 515h119M390 515h59M452 515h243M772 515h61M844 515h67M962 515h107M1100 515h37M1140 515h47M2 516h75M114 516h69M192 516h43M236 516h119M390 516h59M452 516h243M772 516h61M844 516h67M962 516h106M1100 516h37M1140 516h47M2 517h75M114 517h69M192 517h43M236 517h119M390 517h59M452 517h243M772 517h61M844 517h67M962 517h106M1100 517h37M1140 517h47M2 518h75M114 518h69M192 518h43M236 518h119M390 518h59M452 518h243M772 518h61M844 518h67M962 518h106M1100 518h37M1140 518h47M2 519h75M114 519h69M192 519h43M236 519h119M390 519h59M452 519h243M772 519h61M844 519h67M963 519h105M1100 519h37M1140 519h47M2 520h75M114 520h69M192 520h43M236 520h119M390 520h59M452 520h243M772 520h61M844 520h67M963 520h105M1100 520h37M1140 520h47M2 521h75M114 521h69M192 521h43M236 521h119M390 521h59M452 521h243M772 521h61M844 521h67M963 521h104M1100 521h37M1140 521h47M2 522h75M114 522h69M192 522h43M236 522h119M390 522h59M452 522h243M772 522h61M844 522h67M963 522h104M1100 522h37M1140 522h47M2 523h75M114 523h69M192 523h43M236 523h119M390 523h59M452 523h243M772 523h61M844 523h67M964 523h103M1100 523h37M1140 523h47M2 524h75M114 524h69M192 524h43M236 524h119M390 524h59M452 524h243M772 524h61M844 524h67M964 524h103M1100 524h37M1140 524h47M2 525h75M114 525h69M192 525h43M236 525h119M390 525h59M452 525h243M772 525h61M844 525h67M964 525h103M1100 525h37M1140 525h47M2 526h75M114 526h69M192 526h43M236 526h119M390 526h59M452 526h243M772 526h61M844 526h67M964 526h102M1100 526h37M1140 526h47M2 527h75M114 527h69M192 527h43M236 527h119M390 527h59M452 527h243M772 527h61M844 527h67M965 527h101M1100 527h37M1140 527h47M2 528h75M114 528h69M192 528h43M236 528h119M390 528h59M452 528h243M772 528h61M844 528h67M965 528h101M1100 528h37M1140 528h47M2 529h75M114 529h69M192 529h43M236 529h119M390 529h59M452 529h243M772 529h61M844 529h67M965 529h101M1100 529h37M1140 529h47M2 530h75M114 530h69M192 530h43M236 530h119M390 530h59M452 530h243M772 530h61M844 530h67M965 530h100M1100 530h37M1140 530h47M2 531h75M114 531h69M192 531h43M236 531h119M390 531h59M452 531h243M772 531h61M844 531h67M966 531h99M1100 531h37M1140 531h47M2 532h75M114 532h69M192 532h43M236 532h119M390 532h59M452 532h243M772 532h61M844 532h67M966 532h99M1100 532h37M1140 532h47M2 533h75M114 533h69M192 533h43M236 533h119M390 533h59M452 533h243M772 533h61M844 533h67M966 533h99M1100 533h37M1140 533h47M2 534h75M114 534h69M192 534h43M236 534h119M390 534h59M452 534h243M772 534h61M844 534h67M966 534h99M1100 534h37M1140 534h47M2 535h75M114 535h69M192 535h43M236 535h119M390 535h59M452 535h243M772 535h61M844 535h67M967 535h97M1100 535h37M1140 535h47M2 536h75M114 536h69M192 536h43M236 536h119M390 536h59M452 536h243M772 536h61M844 536h67M967 536h97M1100 536h37M1140 536h47M2 537h75M114 537h69M192 537h43M236 537h119M390 537h59M452 537h243M772 537h61M844 537h67M967 537h97M1100 537h37M1140 537h47M2 538h75M114 538h69M192 538h43M236 538h119M390 538h59M452 538h243M772 538h61M844 538h67M967 538h97M1100 538h37M1140 538h47M2 539h75M114 539h69M192 539h43M236 539h119M390 539h59M452 539h243M772 539h61M844 539h67M967 539h97M1100 539h37M1140 539h47M2 540h75M114 540h69M192 540h43M236 540h119M390 540h59M452 540h243M772 540h61M844 540h67M968 540h95M1100 540h37M1140 540h47M2 541h75M114 541h69M192 541h43M236 541h119M390 541h59M452 541h243M772 541h61M844 541h67M968 541h95M1100 541h37M1140 541h47M2 542h75M114 542h69M192 542h43M236 542h119M390 542h59M452 542h243M772 542h61M844 542h67M968 542h95M1100 542h87M2 543h75M114 543h69M192 543h43M236 543h119M390 543h59M452 543h243M772 543h61M844 543h67M968 543h95M1100 543h87M2 544h75M114 544h69M192 544h43M236 544h119M390 544h59M452 544h243M772 544h61M844 544h67M969 544h93M1100 544h87M2 545h75M114 545h29M192 545h43M236 545h119M390 545h59M452 545h243M772 545h61M844 545h67M969 545h93M1100 545h87M2 546h75M114 546h29M192 546h43M236 546h119M390 546h59M452 546h243M772 546h61M844 546h67M969 546h93M1100 546h87M2 547h75M114 547h29M192 547h43M236 547h119M390 547h59M452 547h243M772 547h61M844 547h67M969 547h93M1100 547h87M2 548h75M114 548h29M192 548h43M236 548h119M390 548h59M452 548h243M772 548h61M844 548h67M970 548h92M1100 548h87M2 549h75M114 549h29M192 549h43M236 549h119M390 549h59M452 549h243M772 549h61M844 549h67M970 549h91M1100 549h87M2 550h75M114 550h29M192 550h43M236 550h119M390 550h59M452 550h243M772 550h61M844 550h67M970 550h91M1100 550h87M2 551h75M192 551h43M236 551h119M390 551h59M452 551h243M772 551h61M844 551h67M970 551h91M1100 551h87M2 552h75M192 552h43M236 552h119M390 552h59M452 552h243M772 552h61M844 552h67M971 552h90M1100 552h87M2 553h75M192 553h43M236 553h119M390 553h59M452 553h243M772 553h61M844 553h67M971 553h90M1100 553h87M2 554h75M192 554h43M236 554h119M390 554h59M452 554h243M772 554h61M844 554h67M971 554h89M1100 554h87M2 555h75M192 555h43M236 555h119M390 555h59M452 555h243M772 555h61M844 555h67M971 555h89M1100 555h87M2 556h75M192 556h43M236 556h119M390 556h59M452 556h243M772 556h61M844 556h67M971 556h89M1100 556h87M2 557h75M192 557h43M236 557h119M390 557h59M452 557h243M772 557h61M844 557h67M972 557h88M1100 557h87M2 558h75M192 558h43M236 558h119M390 558h59M452 558h243M772 558h61M844 558h67M972 558h87M1100 558h87M2 559h75M192 559h43M236 559h119M390 559h59M452 559h243M772 559h61M844 559h67M972 559h87M1100 559h87M2 560h75M192 560h43M236 560h119M390 560h59M452 560h243M772 560h61M844 560h67M972 560h87M1100 560h87M2 561h75M192 561h43M236 561h119M390 561h59M452 561h243M772 561h61M844 561h67M973 561h86M1134 561h53M2 562h75M192 562h43M236 562h119M390 562h59M452 562h243M772 562h61M844 562h67M973 562h86M1134 562h53M2 563h75M192 563h43M236 563h119M390 563h59M452 563h243M772 563h61M844 563h67M973 563h85M1134 563h53M2 564h75M192 564h43M236 564h119M390 564h59M452 564h243M772 564h61M844 564h67M973 564h85M1134 564h53M2 565h75M192 565h43M236 565h119M390 565h59M452 565h243M772 565h61M844 565h67M974 565h84M1134 565h53M2 566h75M192 566h43M236 566h119M390 566h59M452 566h243M772 566h61M844 566h67M974 566h84M1134 566h53M2 567h75M192 567h43M236 567h119M390 567h59M452 567h243M772 567h61M844 567h67M974 567h84M1134 567h53M2 568h75M192 568h43M236 568h119M390 568h59M452 568h243M772 568h61M844 568h67M974 568h83M1134 568h53M2 569h75M192 569h43M236 569h119M390 569h59M452 569h243M772 569h61M844 569h67M975 569h82M1134 569h53M2 570h75M192 570h43M236 570h119M390 570h59M452 570h243M772 570h61M844 570h67M975 570h82M1134 570h53M2 571h75M192 571h43M236 571h119M390 571h59M452 571h243M772 571h61M844 571h67M975 571h82M1134 571h53M2 572h75M192 572h43M236 572h119M390 572h59M452 572h243M772 572h61M844 572h67M975 572h81M1134 572h53M2 573h75M192 573h43M236 573h47M390 573h59M452 573h243M772 573h61M844 573h67M975 573h81M1134 573h53M2 574h75M192 574h43M236 574h47M390 574h59M452 574h243M772 574h61M844 574h67M976 574h80M1134 574h53M2 575h75M192 575h43M236 575h47M390 575h59M452 575h243M772 575h61M844 575h67M976 575h80M1134 575h53M2 576h75M192 576h43M236 576h47M390 576h59M452 576h243M772 576h61M844 576h67M976 576h80M1134 576h53M2 577h75M192 577h43M236 577h47M390 577h59M452 577h243M844 577h67M976 577h79M1134 577h53M2 578h75M192 578h43M236 578h47M390 578h59M452 578h243M844 578h67M977 578h78M1134 578h53M2 579h75M192 579h43M236 579h47M390 579h59M452 579h243M844 579h67M977 579h78M1134 579h53M2 580h75M192 580h43M236 580h47M390 580h59M452 580h243M844 580h67M977 580h78M1134 580h53M2 581h75M192 581h43M236 581h47M390 581h59M452 581h243M844 581h67M977 581h78M2 582h75M192 582h43M236 582h47M390 582h59M452 582h243M844 582h67M978 582h77M2 583h75M192 583h43M236 583h47M390 583h59M452 583h243M844 583h67M978 583h77M2 584h75M192 584h43M236 584h47M390 584h59M452 584h243M844 584h67M978 584h77M2 585h75M192 585h43M236 585h47M390 585h59M452 585h243M844 585h67M978 585h77M2 586h75M192 586h43M236 586h47M390 586h59M452 586h243M844 586h67M979 586h76M2 587h75M192 587h43M236 587h47M390 587h59M452 587h243M979 587h58M1047 587h7M2 588h75M192 588h43M236 588h47M390 588h59M452 588h243M979 588h23M1047 588h6M2 589h75M192 589h43M236 589h47M390 589h59M452 589h243M2 590h75M192 590h43M236 590h47M390 590h59M452 590h243M2 591h75M192 591h43M236 591h47M390 591h59M452 591h243M2 592h75M192 592h43M236 592h47M390 592h59M452 592h243M2 593h75M192 593h43M236 593h47M452 593h243M2 594h75M192 594h43M236 594h47M452 594h243M192 595h43M452 595h243M192 596h43M452 596h243M452 597h243M452 598h243M452 599h243" />
<path stroke="rgba(111,134,153,0.43137254901960786)" d="M1141 188h40M1141 189h40M1141 190h40M1141 191h40M1141 192h40M1142 201h20M1166 201h13M1142 202h20M1166 202h13M1142 203h20M1166 203h13M1142 204h20M1166 204h13M1142 205h20M1166 205h13M1142 214h37M1142 215h37M1142 216h37M1142 217h37M1142 218h37M1143 227h15M1163 227h17M1143 228h15M1163 228h17M1143 229h15M1163 229h17M1143 230h15M1163 230h17M1143 231h15M1163 231h17M1143 239h10M1155 239h27M1143 240h10M1155 240h27M1143 241h10M1155 241h27M1143 242h10M1155 242h27M1143 243h10M1155 243h27M399 328h3M399 329h3M409 329h3M419 329h3M430 329h3M399 330h3M409 330h3M419 330h3M430 330h3M399 331h3M409 331h3M419 331h3M430 331h3M399 332h3M409 332h3M419 332h3M430 332h3M399 333h3M409 333h3M419 333h3M430 333h3M399 334h3M409 334h3M419 334h3M430 334h3M399 335h3M409 335h3M419 335h3M430 335h3M399 336h3M409 336h3M419 336h3M430 336h3M197 337h15M216 337h13M409 337h3M419 337h3M197 338h15M216 338h13M409 338h3M419 338h3M197 339h15M216 339h13M197 340h15M216 340h13M197 341h15M216 341h13M197 342h15M216 342h13M197 347h15M216 347h13M197 348h15M216 348h13M197 349h15M216 349h13M197 350h15M216 350h13M197 351h15M216 351h13M396 351h46M197 352h15M216 352h13M396 352h46M396 353h46M396 354h46M396 355h46M197 356h15M216 356h13M396 356h46M197 357h15M216 357h13M197 358h15M216 358h13M940 358h9M955 358h9M970 358h9M197 359h15M216 359h13M940 359h9M955 359h9M970 359h9M197 360h15M216 360h13M940 360h9M955 360h9M970 360h9M197 361h15M216 361h13M940 361h9M955 361h9M970 361h9M396 362h46M940 362h9M955 362h9M970 362h9M396 363h46M780 363h9M797 363h9M940 363h9M955 363h9M970 363h9M396 364h46M780 364h9M797 364h9M940 364h9M955 364h9M970 364h9M396 365h46M780 365h9M797 365h9M940 365h9M955 365h9M970 365h9M197 366h15M216 366h13M396 366h46M780 366h9M797 366h9M940 366h9M955 366h9M970 366h9M197 367h15M216 367h13M262 367h6M271 367h6M396 367h46M780 367h9M797 367h9M197 368h15M216 368h13M262 368h6M271 368h6M780 368h9M797 368h9M197 369h15M216 369h13M262 369h6M271 369h6M780 369h9M797 369h9M9 370h6M18 370h6M27 370h6M37 370h5M143 370h5M152 370h6M161 370h6M170 370h6M197 370h15M216 370h13M262 370h6M271 370h6M780 370h9M797 370h9M9 371h6M18 371h6M27 371h6M37 371h5M143 371h5M152 371h6M161 371h6M170 371h6M197 371h15M216 371h13M262 371h6M271 371h6M780 371h9M797 371h9M9 372h6M18 372h6M27 372h6M37 372h5M143 372h5M152 372h6M161 372h6M170 372h6M262 372h6M271 372h6M941 372h9M956 372h9M971 372h9M985 372h9M999 372h9M1014 372h9M9 373h6M18 373h6M27 373h6M37 373h5M143 373h5M152 373h6M161 373h6M170 373h6M396 373h45M941 373h9M956 373h9M971 373h9M985 373h9M999 373h9M1014 373h9M1028 373h9M9 374h6M18 374h6M27 374h6M37 374h5M143 374h5M152 374h6M161 374h6M170 374h6M396 374h45M941 374h9M956 374h9M971 374h9M985 374h9M999 374h9M1014 374h9M1028 374h9M9 375h6M18 375h6M27 375h6M152 375h6M161 375h6M170 375h6M197 375h15M216 375h13M396 375h45M941 375h9M956 375h9M971 375h9M985 375h9M999 375h9M1014 375h9M1028 375h9M197 376h15M216 376h13M271 376h6M396 376h45M941 376h9M956 376h9M971 376h9M985 376h9M999 376h9M1014 376h9M1028 376h9M197 377h15M216 377h13M271 377h6M396 377h45M941 377h9M956 377h9M971 377h9M985 377h9M999 377h9M1014 377h9M1028 377h9M9 378h6M18 378h6M27 378h6M152 378h6M161 378h6M170 378h6M197 378h15M216 378h13M271 378h6M396 378h45M941 378h9M956 378h9M971 378h9M985 378h9M999 378h9M1014 378h9M1028 378h9M9 379h6M18 379h6M27 379h6M152 379h6M161 379h6M170 379h6M197 379h15M216 379h13M271 379h6M941 379h9M956 379h9M971 379h9M985 379h9M999 379h9M1014 379h9M1028 379h9M9 380h6M18 380h6M27 380h6M152 380h6M161 380h6M170 380h6M197 380h15M216 380h13M271 380h6M941 380h9M956 380h9M971 380h9M985 380h9M999 380h9M1014 380h9M1028 380h9M9 381h6M18 381h6M27 381h6M152 381h6M161 381h6M170 381h6M271 381h6M780 381h9M1028 381h9M9 382h6M18 382h6M27 382h6M152 382h6M161 382h6M170 382h6M780 382h9M9 383h6M18 383h6M27 383h6M152 383h6M161 383h6M170 383h6M396 383h45M780 383h9M396 384h45M780 384h9M197 385h15M216 385h13M271 385h6M396 385h45M780 385h9M1014 385h9M1029 385h9M1042 385h9M1056 385h9M9 386h6M18 386h6M161 386h6M170 386h6M197 386h15M216 386h13M271 386h6M396 386h45M780 386h9M941 386h9M956 386h9M971 386h9M985 386h9M999 386h9M1014 386h9M1029 386h9M1042 386h9M1056 386h9M9 387h6M18 387h6M161 387h6M170 387h6M197 387h15M216 387h13M271 387h6M396 387h45M780 387h9M941 387h9M956 387h9M971 387h9M985 387h9M999 387h9M1014 387h9M1029 387h9M1042 387h9M1056 387h9M9 388h6M18 388h6M161 388h6M170 388h6M197 388h15M216 388h13M271 388h6M396 388h45M780 388h9M941 388h9M956 388h9M971 388h9M985 388h9M999 388h9M1014 388h9M1029 388h9M1042 388h9M1056 388h9M9 389h6M18 389h6M161 389h6M170 389h6M197 389h15M216 389h13M271 389h6M780 389h9M941 389h9M956 389h9M971 389h9M985 389h9M999 389h9M1014 389h9M1029 389h9M1042 389h9M1056 389h9M9 390h6M18 390h6M161 390h6M170 390h6M197 390h15M216 390h13M271 390h6M941 390h9M956 390h9M971 390h9M985 390h9M999 390h9M1014 390h9M1029 390h9M1042 390h9M1056 390h9M9 391h6M18 391h6M161 391h6M170 391h6M941 391h9M956 391h9M971 391h9M985 391h9M999 391h9M1014 391h9M1029 391h9M1042 391h9M1056 391h9M941 392h9M956 392h9M971 392h9M985 392h9M999 392h9M1014 392h9M1029 392h9M1042 392h9M1056 392h9M941 393h9M956 393h9M971 393h9M985 393h9M999 393h9M1014 393h9M1029 393h9M1042 393h9M1056 393h9M9 394h6M18 394h6M161 394h6M170 394h6M941 394h9M956 394h9M971 394h9M985 394h9M999 394h9M9 395h6M18 395h6M161 395h6M170 395h6M271 395h6M9 396h6M18 396h6M161 396h6M170 396h6M271 396h6M9 397h6M18 397h6M161 397h6M170 397h6M271 397h6M1029 397h9M1043 397h9M1056 397h9M1069 397h9M9 398h6M18 398h6M161 398h6M170 398h6M271 398h6M999 398h9M1014 398h9M1029 398h9M1043 398h9M1056 398h9M1069 398h9M9 399h6M18 399h6M161 399h6M170 399h6M271 399h6M780 399h9M956 399h9M971 399h9M985 399h9M999 399h9M1014 399h9M1029 399h9M1043 399h9M1056 399h9M1069 399h9M271 400h6M780 400h9M956 400h9M971 400h9M985 400h9M999 400h9M1014 400h9M1029 400h9M1043 400h9M1056 400h9M1069 400h9M780 401h9M956 401h9M971 401h9M985 401h9M999 401h9M1014 401h9M1029 401h9M1043 401h9M1056 401h9M1069 401h9M9 402h6M170 402h6M780 402h9M956 402h9M971 402h9M985 402h9M999 402h9M1014 402h9M1029 402h9M1043 402h9M1056 402h9M1069 402h9M9 403h6M170 403h6M780 403h9M956 403h9M971 403h9M985 403h9M999 403h9M1014 403h9M1029 403h9M1043 403h9M1056 403h9M1069 403h9M9 404h6M170 404h6M780 404h9M956 404h9M971 404h9M985 404h9M999 404h9M1014 404h9M1029 404h9M1043 404h9M1056 404h9M1069 404h9M9 405h6M170 405h6M271 405h6M780 405h9M956 405h9M971 405h9M985 405h9M999 405h9M1014 405h9M1029 405h9M1043 405h9M1056 405h9M1069 405h9M9 406h6M170 406h6M271 406h6M780 406h9M956 406h9M971 406h9M985 406h9M999 406h9M1014 406h9M9 407h6M170 407h6M271 407h6M780 407h9M956 407h9M971 407h9M985 407h9M271 408h6M533 408h73M271 409h6M533 409h73M271 410h6M533 410h73M533 411h3M603 411h3M985 411h9M999 411h9M1014 411h9M533 412h3M603 412h3M956 412h9M971 412h9M985 412h9M999 412h9M1014 412h9M533 413h3M603 413h3M956 413h9M971 413h9M985 413h9M999 413h9M1014 413h9M533 414h3M603 414h3M956 414h9M971 414h9M985 414h9M999 414h9M1014 414h9M533 415h3M603 415h3M956 415h9M971 415h9M985 415h9M999 415h9M1014 415h9M533 416h3M603 416h3M956 416h9M971 416h9M985 416h9M999 416h9M1014 416h9M533 417h3M603 417h3M956 417h9M971 417h9M985 417h9M999 417h9M1014 417h9M533 418h3M603 418h3M956 418h9M971 418h9M985 418h9M999 418h9M1014 418h9M533 419h3M603 419h3M956 419h9M971 419h9M985 419h9M999 419h9M1014 419h9M533 420h3M603 420h3M956 420h9M971 420h9M1137 420h3M533 421h3M603 421h3M1127 421h3M1137 421h3M533 422h3M603 422h3M1117 422h3M1127 422h3M1137 422h3M533 423h3M603 423h3M1107 423h3M1117 423h3M1127 423h3M1137 423h3M533 424h3M603 424h3M1107 424h3M1117 424h3M1127 424h3M1137 424h3M533 425h3M603 425h3M1107 425h3M1117 425h3M1127 425h3M1137 425h3M289 426h6M298 426h6M307 426h6M316 426h6M325 426h6M334 426h6M533 426h3M603 426h3M1107 426h3M1117 426h3M1127 426h3M1137 426h3M289 427h6M298 427h6M307 427h6M316 427h6M325 427h6M334 427h6M533 427h3M603 427h3M1107 427h3M1117 427h3M1127 427h3M1137 427h3M289 428h6M298 428h6M307 428h6M316 428h6M325 428h6M334 428h6M533 428h3M603 428h3M852 428h9M867 428h9M882 428h9M896 428h10M1107 428h3M1117 428h3M1127 428h3M1137 428h3M289 429h6M298 429h6M307 429h6M316 429h6M325 429h6M334 429h6M533 429h3M603 429h3M852 429h9M867 429h9M882 429h9M896 429h10M1107 429h3M1117 429h3M1127 429h3M1137 429h3M289 430h6M298 430h6M307 430h6M316 430h6M325 430h6M334 430h6M533 430h3M603 430h3M852 430h9M867 430h9M882 430h9M896 430h10M1107 430h3M1117 430h3M1127 430h3M1137 430h3M289 431h6M298 431h6M307 431h6M316 431h6M325 431h6M334 431h6M533 431h3M603 431h3M852 431h9M867 431h9M882 431h9M896 431h10M1107 431h3M1117 431h3M1127 431h3M1137 431h3M289 432h6M298 432h6M307 432h6M316 432h6M325 432h6M334 432h6M533 432h3M603 432h3M852 432h9M867 432h9M882 432h9M896 432h10M1107 432h3M1117 432h3M1127 432h3M1137 432h3M289 433h6M298 433h6M307 433h6M316 433h6M325 433h6M334 433h6M533 433h3M603 433h3M852 433h9M867 433h9M882 433h9M896 433h10M1107 433h3M1117 433h3M1127 433h3M1137 433h3M289 434h6M298 434h6M307 434h6M316 434h6M325 434h6M334 434h6M533 434h3M603 434h3M852 434h9M867 434h9M882 434h9M896 434h10M1107 434h3M1117 434h3M1127 434h3M1137 434h3M289 435h6M298 435h6M307 435h6M316 435h6M325 435h6M334 435h6M533 435h3M603 435h3M852 435h9M867 435h9M882 435h9M896 435h10M1107 435h3M1117 435h3M1127 435h3M1137 435h3M289 436h6M298 436h6M307 436h6M316 436h6M325 436h6M334 436h6M533 436h73M852 436h9M867 436h9M882 436h9M896 436h10M1107 436h3M1117 436h3M1127 436h3M1137 436h3M289 437h6M298 437h6M307 437h6M316 437h6M325 437h6M334 437h6M533 437h73M1107 437h3M1117 437h3M1127 437h3M1137 437h3M533 438h73M1107 438h3M1117 438h3M1127 438h3M1137 438h3M1107 439h3M1117 439h3M1127 439h3M1137 439h3M1107 440h3M1117 440h3M1127 440h3M1137 440h3M1107 441h3M1117 441h3M1127 441h3M1137 441h3M1107 442h3M1117 442h3M1127 442h3M1137 442h3M883 443h9M896 443h9M1107 443h3M1117 443h3M1127 443h3M1137 443h3M455 444h3M461 444h3M467 444h3M473 444h3M479 444h3M485 444h3M491 444h3M497 444h3M503 444h3M509 444h3M515 444h3M521 444h3M527 444h3M533 444h3M539 444h3M545 444h3M551 444h3M557 444h3M563 444h3M569 444h3M575 444h3M581 444h3M587 444h3M593 444h3M599 444h3M605 444h3M611 444h3M617 444h3M623 444h3M629 444h3M635 444h3M641 444h3M647 444h3M653 444h3M659 444h3M665 444h3M671 444h3M677 444h3M683 444h3M689 444h3M852 444h9M868 444h9M883 444h9M896 444h9M1107 444h3M1117 444h3M1127 444h3M1137 444h3M455 445h3M461 445h3M467 445h3M473 445h3M479 445h3M485 445h3M491 445h3M497 445h3M503 445h3M509 445h3M515 445h3M521 445h3M527 445h3M533 445h3M539 445h3M545 445h3M551 445h3M557 445h3M563 445h3M569 445h3M575 445h3M581 445h3M587 445h3M593 445h3M599 445h3M605 445h3M611 445h3M617 445h3M623 445h3M629 445h3M635 445h3M641 445h3M647 445h3M653 445h3M659 445h3M665 445h3M671 445h3M677 445h3M683 445h3M689 445h3M852 445h9M868 445h9M883 445h9M896 445h9M1107 445h3M1117 445h3M1127 445h3M1137 445h3M455 446h3M461 446h3M467 446h3M473 446h3M479 446h3M485 446h3M491 446h3M497 446h3M503 446h3M509 446h3M515 446h3M521 446h3M527 446h3M533 446h3M539 446h3M545 446h3M551 446h3M557 446h3M563 446h3M569 446h3M575 446h3M581 446h3M587 446h3M593 446h3M599 446h3M605 446h3M611 446h3M617 446h3M623 446h3M629 446h3M635 446h3M641 446h3M647 446h3M653 446h3M659 446h3M665 446h3M671 446h3M677 446h3M683 446h3M689 446h3M852 446h9M868 446h9M883 446h9M896 446h9M1107 446h3M1117 446h3M1127 446h3M1137 446h3M455 447h3M461 447h3M467 447h3M473 447h3M479 447h3M485 447h3M491 447h3M497 447h3M503 447h3M509 447h3M515 447h3M521 447h3M527 447h3M533 447h3M539 447h3M545 447h3M551 447h3M557 447h3M563 447h3M569 447h3M575 447h3M581 447h3M587 447h3M593 447h3M599 447h3M605 447h3M611 447h3M617 447h3M623 447h3M629 447h3M635 447h3M641 447h3M647 447h3M653 447h3M659 447h3M665 447h3M671 447h3M677 447h3M683 447h3M689 447h3M852 447h9M868 447h9M883 447h9M896 447h9M1107 447h3M1117 447h3M1127 447h3M1137 447h3M455 448h3M461 448h3M467 448h3M473 448h3M479 448h3M485 448h3M491 448h3M497 448h3M503 448h3M509 448h3M515 448h3M521 448h3M527 448h3M533 448h3M539 448h3M545 448h3M551 448h3M557 448h3M563 448h3M569 448h3M575 448h3M581 448h3M587 448h3M593 448h3M599 448h3M605 448h3M611 448h3M617 448h3M623 448h3M629 448h3M635 448h3M641 448h3M647 448h3M653 448h3M659 448h3M665 448h3M671 448h3M677 448h3M683 448h3M689 448h3M852 448h9M868 448h9M883 448h9M896 448h9M1107 448h3M1117 448h3M1127 448h3M1137 448h3M455 449h3M461 449h3M467 449h3M473 449h3M479 449h3M485 449h3M491 449h3M497 449h3M503 449h3M509 449h3M515 449h3M521 449h3M527 449h3M533 449h3M539 449h3M545 449h3M551 449h3M557 449h3M563 449h3M569 449h3M575 449h3M581 449h3M587 449h3M593 449h3M599 449h3M605 449h3M611 449h3M617 449h3M623 449h3M629 449h3M635 449h3M641 449h3M647 449h3M653 449h3M659 449h3M665 449h3M671 449h3M677 449h3M683 449h3M689 449h3M852 449h9M868 449h9M883 449h9M896 449h9M1107 449h3M1117 449h3M1127 449h3M1137 449h3M455 450h3M461 450h3M467 450h3M473 450h3M479 450h3M485 450h3M491 450h3M497 450h3M503 450h3M509 450h3M515 450h3M521 450h3M527 450h3M533 450h3M539 450h3M545 450h3M551 450h3M557 450h3M563 450h3M569 450h3M575 450h3M581 450h3M587 450h3M593 450h3M599 450h3M605 450h3M611 450h3M617 450h3M623 450h3M629 450h3M635 450h3M641 450h3M647 450h3M653 450h3M659 450h3M665 450h3M671 450h3M677 450h3M683 450h3M689 450h3M852 450h9M868 450h9M883 450h9M896 450h9M1107 450h3M1117 450h3M1127 450h3M1137 450h3M455 451h3M461 451h3M467 451h3M473 451h3M479 451h3M485 451h3M491 451h3M497 451h3M503 451h3M509 451h3M515 451h3M521 451h3M527 451h3M533 451h3M539 451h3M545 451h3M551 451h3M557 451h3M563 451h3M569 451h3M575 451h3M581 451h3M587 451h3M593 451h3M599 451h3M605 451h3M611 451h3M617 451h3M623 451h3M629 451h3M635 451h3M641 451h3M647 451h3M653 451h3M659 451h3M665 451h3M671 451h3M677 451h3M683 451h3M689 451h3M852 451h9M868 451h9M883 451h9M896 451h9M1107 451h3M1117 451h3M1127 451h3M1137 451h3M455 452h3M461 452h3M467 452h3M473 452h3M479 452h3M485 452h3M491 452h3M497 452h3M503 452h3M509 452h3M515 452h3M521 452h3M527 452h3M533 452h3M539 452h3M545 452h3M551 452h3M557 452h3M563 452h3M569 452h3M575 452h3M581 452h3M587 452h3M593 452h3M599 452h3M605 452h3M611 452h3M617 452h3M623 452h3M629 452h3M635 452h3M641 452h3M647 452h3M653 452h3M659 452h3M665 452h3M671 452h3M677 452h3M683 452h3M689 452h3M852 452h9M868 452h9M1107 452h3M1117 452h3M1127 452h3M1137 452h3M455 453h3M461 453h3M467 453h3M473 453h3M479 453h3M485 453h3M491 453h3M497 453h3M503 453h3M509 453h3M515 453h3M521 453h3M527 453h3M533 453h3M539 453h3M545 453h3M551 453h3M557 453h3M563 453h3M569 453h3M575 453h3M581 453h3M587 453h3M593 453h3M599 453h3M605 453h3M611 453h3M617 453h3M623 453h3M629 453h3M635 453h3M641 453h3M647 453h3M653 453h3M659 453h3M665 453h3M671 453h3M677 453h3M683 453h3M689 453h3M1107 453h3M1117 453h3M1127 453h3M1137 453h3M455 454h3M461 454h3M467 454h3M473 454h3M479 454h3M485 454h3M491 454h3M497 454h3M503 454h3M509 454h3M515 454h3M521 454h3M527 454h3M533 454h3M539 454h3M545 454h3M551 454h3M557 454h3M563 454h3M569 454h3M575 454h3M581 454h3M587 454h3M593 454h3M599 454h3M605 454h3M611 454h3M617 454h3M623 454h3M629 454h3M635 454h3M641 454h3M647 454h3M653 454h3M659 454h3M665 454h3M671 454h3M677 454h3M683 454h3M689 454h3M1107 454h3M1117 454h3M1127 454h3M1137 454h3M455 455h3M461 455h3M467 455h3M473 455h3M479 455h3M485 455h3M491 455h3M497 455h3M503 455h3M509 455h3M515 455h3M521 455h3M527 455h3M533 455h3M539 455h3M545 455h3M551 455h3M557 455h3M563 455h3M569 455h3M575 455h3M581 455h3M587 455h3M593 455h3M599 455h3M605 455h3M611 455h3M617 455h3M623 455h3M629 455h3M635 455h3M641 455h3M647 455h3M653 455h3M659 455h3M665 455h3M671 455h3M677 455h3M683 455h3M689 455h3M1107 455h3M1117 455h3M1127 455h3M1137 455h3M455 456h3M461 456h3M467 456h3M473 456h3M479 456h3M485 456h3M491 456h3M497 456h3M503 456h3M509 456h3M515 456h3M521 456h3M527 456h3M533 456h3M539 456h3M545 456h3M551 456h3M557 456h3M563 456h3M569 456h3M575 456h3M581 456h3M587 456h3M593 456h3M599 456h3M605 456h3M611 456h3M617 456h3M623 456h3M629 456h3M635 456h3M641 456h3M647 456h3M653 456h3M659 456h3M665 456h3M671 456h3M677 456h3M683 456h3M689 456h3M1107 456h3M1117 456h3M1127 456h3M1137 456h3M455 457h3M461 457h3M467 457h3M473 457h3M479 457h3M485 457h3M491 457h3M497 457h3M503 457h3M509 457h3M515 457h3M521 457h3M527 457h3M533 457h3M539 457h3M545 457h3M551 457h3M557 457h3M563 457h3M569 457h3M575 457h3M581 457h3M587 457h3M593 457h3M599 457h3M605 457h3M611 457h3M617 457h3M623 457h3M629 457h3M635 457h3M641 457h3M647 457h3M653 457h3M659 457h3M665 457h3M671 457h3M677 457h3M683 457h3M689 457h3M1107 457h3M1117 457h3M1127 457h3M1137 457h3M1107 458h3M1117 458h3M1127 458h3M1137 458h3M1107 459h3M1117 459h3M1127 459h3M1137 459h3M1107 460h3M1117 460h3M1127 460h3M1137 460h3M1107 461h3M1117 461h3M1127 461h3M1137 461h3M1107 462h3M1117 462h3M1127 462h3M1137 462h3M455 463h13M475 463h13M495 463h13M518 463h13M540 463h13M561 463h13M582 463h13M605 463h14M628 463h13M652 463h13M675 463h13M1107 463h3M1117 463h3M1127 463h3M1137 463h3M455 464h13M475 464h13M495 464h13M518 464h13M540 464h13M561 464h13M582 464h13M605 464h14M628 464h13M652 464h13M675 464h13M1107 464h3M1117 464h3M1127 464h3M1137 464h3M455 465h13M475 465h13M495 465h13M518 465h13M540 465h13M561 465h13M582 465h13M605 465h14M628 465h13M652 465h13M675 465h13M1107 465h3M1117 465h3M1127 465h3M1137 465h3M455 466h13M475 466h13M495 466h13M518 466h13M540 466h13M561 466h13M582 466h13M605 466h14M628 466h13M652 466h13M675 466h13M1107 466h3M1117 466h3M1127 466h3M1137 466h3M455 467h13M475 467h13M495 467h13M518 467h13M540 467h13M561 467h13M582 467h13M605 467h14M628 467h13M652 467h13M675 467h13M1107 467h3M1117 467h3M1127 467h3M1137 467h3M455 468h13M475 468h13M495 468h13M518 468h13M540 468h13M561 468h13M582 468h13M605 468h14M628 468h13M652 468h13M675 468h13M1107 468h3M1117 468h3M1127 468h3M1137 468h3M455 469h13M475 469h13M495 469h13M518 469h13M540 469h13M561 469h13M582 469h13M605 469h14M628 469h13M652 469h13M675 469h13M1107 469h3M1117 469h3M1127 469h3M1137 469h3M455 470h13M475 470h13M495 470h13M518 470h13M540 470h13M561 470h13M582 470h13M605 470h14M628 470h13M652 470h13M675 470h13M1107 470h3M1117 470h3M1127 470h3M1137 470h3M455 471h13M475 471h13M495 471h13M518 471h13M540 471h13M561 471h13M582 471h13M605 471h14M628 471h13M652 471h13M675 471h13M1107 471h3M1117 471h3M1127 471h3M1137 471h3M455 472h13M475 472h13M495 472h13M518 472h13M540 472h13M561 472h13M582 472h13M605 472h14M628 472h13M652 472h13M675 472h13M1107 472h3M1117 472h3M1127 472h3M1137 472h3M455 473h13M475 473h13M495 473h13M518 473h13M540 473h13M561 473h13M582 473h13M605 473h14M628 473h13M652 473h13M675 473h13M1107 473h3M1117 473h3M1127 473h3M1137 473h3M455 474h13M475 474h13M495 474h13M518 474h13M540 474h13M561 474h13M582 474h13M605 474h14M628 474h13M652 474h13M675 474h13M1107 474h3M1117 474h3M1127 474h3M1137 474h3M455 475h13M475 475h13M495 475h13M518 475h13M540 475h13M561 475h13M582 475h13M605 475h14M628 475h13M652 475h13M675 475h13M1107 475h3M1117 475h3M1127 475h3M1137 475h3M1107 476h3M1117 476h3M1127 476h3M1137 476h3M1107 477h3M1117 477h3M1127 477h3M1137 477h3M1107 478h3M1117 478h3M1127 478h3M1137 478h3M1107 479h3M1117 479h3M1127 479h3M1137 479h3M1107 480h3M1117 480h3M1127 480h3M1137 480h3M1107 481h3M1117 481h3M1127 481h3M1137 481h3M1117 482h3M1127 482h3M1137 482h3M1117 483h3M1127 483h3M1137 483h3M1117 484h3M1127 484h3M1137 484h3M1117 485h3M1127 485h3M1137 485h3M1117 486h3M1127 486h3M1137 486h3M1117 487h3M1127 487h3M1137 487h3M1117 488h3M1127 488h3M1137 488h3M1117 489h3M1127 489h3M1137 489h3M1117 490h3M1127 490h3M1137 490h3M1117 491h3M1127 491h3M1137 491h3M1117 492h3M1127 492h3M1137 492h3M1117 493h3M1127 493h3M1137 493h3M1117 494h3M1127 494h3M1137 494h3M1117 495h3M1127 495h3M1137 495h3M1117 496h3M1127 496h3M1137 496h3M1117 497h3M1127 497h3M1137 497h3M1127 498h3M1137 498h3M1127 499h3M1137 499h3M1127 500h3M1137 500h3M1127 501h3M1137 501h3M1127 502h3M1137 502h3M1127 503h3M1137 503h3M1127 504h3M1137 504h3M1127 505h3M1137 505h3M1127 506h3M1137 506h3M1127 507h3M1137 507h3M1127 508h3M1137 508h3M1127 509h3M1137 509h3M1127 510h3M1137 510h3M1127 511h3M1137 511h3M1127 512h3M1137 512h3M1127 513h3M1137 513h3M1127 514h3M1137 514h3M1137 515h3M1137 516h3M1137 517h3M1137 518h3M1137 519h3M1137 520h3M1137 521h3M1137 522h3M1137 523h3M1137 524h3M1137 525h3M1137 526h3M1137 527h3M1137 528h3M1137 529h3M1137 530h3M1137 531h3M1137 532h3M1137 533h3M1137 534h3M1137 535h3M1137 536h3M1137 537h3M1137 538h3M1137 539h3M1137 540h3M1137 541h3" />
</svg>