<svg xmlns="http://www.w3.org/2000/svg" viewBox="0 -0.5 1200 600" shape-rendering="crispEdges">
<metadata>Made with Pixels to Svg https://codepen.io/shshaw/pen/XbxvNj</metadata>
<path stroke="#3a4866" d="M0 0h1200M0 1h1200M0 2h1200M0 3h1200M0 4h1200M0 5h1200M0 6h1200M0 7h1200M0 8h1200M0 9h1200M0 10h1200M0 11h1200M0 12h1200M0 13h1200M0 14h1200M0 15h1200M0 16h1200M0 17h1200M0 18h1200M0 19h1200M0 20h1200M0 21h1200M0 22h1200M0 23h1200M0 24h1200M0 25h1200M0 26h1200M0 27h1200M0 28h1200M0 29h1200M0 30h1200M0 31h1200M0 32h1200M0 33h1200M0 34h1200M0 35h1200M0 36h1200M0 37h1200M0 38h1200M0 39h1200M0 40h1200M0 41h1200M0 42h1200M0 43h1200M0 44h1200M0 45h1200M0 46h1200M0 47h1200M0 48h1200M0 49h1200M0 50h1200M0 51h1200M0 52h1200M0 53h1200M0 54h1200M0 55h1200M0 56h1200M0 57h1200M0 58h1200M0 59h1200M0 60h1200M0 61h1200M0 62h1200M0 63h1200M0 64h1200M0 65h1200M0 66h1200M0 67h1200M0 68h1200M0 69h1200M0 70h1200M0 71h1200M0 72h1200M0 73h1200M0 74h1200M0 75h1200M0 76h1200M0 77h1200M0 78h1200M0 79h1200M0 80h1200M0 81h1200M0 82h1200M0 83h1200M0 84h1200M0 85h1200M0 86h1200M0 87h1200M0 88h1200M0 89h1200M0 90h1200M0 91h1200M0 92h1200M0 93h1200M0 94h1200M0 95h1200M0 96h1200M0 97h1200M0 98h1200M0 99h1200M0 100h1200M0 101h1200M0 102h1200M0 103h1200M0 104h1200M0 105h1200M0 106h1200M0 107h1200M0 108h1200M0 109h1200M0 110h1200M0 111h1200M0 112h1200M0 113h1200M0 114h1200M0 115h1200M0 116h1200M0 117h1200M0 118h1200M0 119h1200M0 120h1200M0 121h1200M0 122h1200M0 123h1200M0 124h1200M0 125h1200M0 126h1200M0 127h1200M0 128h1200M0 129h1200M0 130h1200M309 159h891M309 160h891M309 161h891M309 162h891M309 163h891M309 164h891M0 199h511M0 200h511M0 201h511M0 202h511M0 203h511M687 203h310M0 204h511M687 204h310M687 205h310M687 206h310M687 207h310M687 208h310" />
</svg>