<svg xmlns="http://www.w3.org/2000/svg" viewBox="0 -0.5 1200 600" shape-rendering="crispEdges">
<metadata>Made with Pixels to Svg https://codepen.io/shshaw/pen/XbxvNj</metadata>
<path stroke="#455679" d="M40 58h27M34 59h39M29 60h49M29 61h49M27 62h55M24 63h63M24 64h63M22 65h67M20 66h73M20 67h73M18 68h76M16 69h80M15 70h83M15 71h83M13 72h87M11 73h91M11 74h91M9 75h94M1145 75h18M7 76h96M1145 76h18M7 77h96M1138 77h32M7 78h98M1133 78h42M5 79h102M1133 79h42M4 80h103M1129 80h50M4 81h103M1126 81h56M4 82h103M1126 82h56M4 83h105M1124 83h60M4 84h105M1120 84h68M2 85h107M1120 85h68M2 86h107M1119 86h70M2 87h107M1117 87h74M2 88h109M1117 88h74M0 89h111M1115 89h78M0 90h111M1113 90h82M0 91h111M1111 91h85M0 92h111M1111 92h85M0 93h111M1110 93h88M0 94h111M1108 94h92M0 95h111M1108 95h92M0 96h111M1108 96h92M0 97h111M1106 97h94M0 98h111M1106 98h94M0 99h111M119 99h10M1104 99h96M0 100h112M116 100h16M1104 100h96M0 101h135M1104 101h96M0 102h139M1103 102h97M0 103h143M1103 103h97M0 104h143M1103 104h97M0 105h149M1101 105h99M0 106h154M1101 106h99M0 107h154M1101 107h99M0 108h96M110 108h46M1101 108h99M0 109h44M47 109h47M113 109h47M1099 109h101M0 110h44M47 110h47M117 110h43M1099 110h101M0 111h44M51 111h42M143 111h19M1076 111h19M1099 111h101M0 112h45M51 112h42M149 112h14M1071 112h129M0 113h47M54 113h37M152 113h13M1071 113h129M0 114h47M54 114h37M152 114h13M1065 114h135M0 115h49M56 115h33M156 115h11M1064 115h136M0 116h51M60 116h25M158 116h11M1060 116h140M0 117h51M60 117h25M158 117h11M1060 117h140M0 118h53M62 118h20M160 118h11M1058 118h142M0 119h53M162 119h10M1057 119h143M0 120h53M162 120h10M1057 120h143M0 121h53M163 121h9M1055 121h145M0 122h56M165 122h9M1053 122h147M0 123h56M165 123h9M1053 123h147M0 124h62M98 124h9M167 124h9M1051 124h149M0 125h67M85 125h38M167 125h9M1051 125h149M0 126h129M169 126h7M1051 126h149M0 127h129M169 127h7M1049 127h151M0 128h131M169 128h9M1048 128h23M1081 128h119M0 129h134M171 129h7M1048 129h23M1081 129h119M0 130h134M171 130h7M1048 130h19M1081 130h119M0 131h136M171 131h7M966 131h29M1048 131h17M1078 131h122M0 132h140M171 132h8M966 132h29M1048 132h17M1078 132h122M0 133h140M171 133h8M961 133h39M1046 133h18M1078 133h122M0 134h142M172 134h7M956 134h49M1046 134h16M1074 134h126M0 135h143M172 135h7M956 135h49M1046 135h16M1074 135h126M0 136h145M172 136h7M952 136h58M1046 136h14M1072 136h128M0 137h145M172 137h7M947 137h69M1044 137h16M1071 137h129M0 138h147M173 138h6M945 138h73M1044 138h16M1069 138h131M0 139h147M173 139h6M945 139h73M1044 139h16M1069 139h131M0 140h147M173 140h6M931 140h90M1044 140h18M1065 140h135M0 141h149M173 141h6M929 141h94M1044 141h156M0 142h151M173 142h6M929 142h94M1044 142h156M0 143h151M173 143h6M924 143h101M1044 143h156M0 144h151M173 144h6M922 144h104M1044 144h156M0 145h152M173 145h6M922 145h104M1044 145h156M0 146h152M174 146h5M920 146h108M1044 146h156M0 147h152M174 147h5M918 147h112M1044 147h156M0 148h152M174 148h5M918 148h112M1044 148h156M0 149h152M174 149h5M913 149h119M1044 149h156M0 150h152M175 150h4M911 150h122M1046 150h154M0 151h154M175 151h4M911 151h122M1046 151h154M0 152h156M906 152h131M1049 152h151M0 153h156M904 153h137M1051 153h149M0 154h78M89 154h69M904 154h137M1051 154h149M0 155h74M94 155h66M902 155h142M1053 155h4M1067 155h133M0 156h73M96 156h69M901 156h147M1069 156h131M0 157h73M96 157h69M901 157h147M1069 157h131M0 158h71M96 158h80M191 158h25M899 158h150M1058 158h7M1071 158h129M0 159h71M98 159h123M899 159h152M1058 159h9M1072 159h128M0 160h71M98 160h123M897 160h156M1058 160h11M1074 160h126M0 161h54M60 161h9M98 161h129M897 161h156M1058 161h11M1074 161h126M0 162h49M59 162h10M98 162h131M895 162h160M1058 162h13M1085 162h115M0 163h49M59 163h10M98 163h131M894 163h178M1085 163h115M0 164h47M58 164h13M98 164h134M894 164h178M1085 164h115M0 165h45M58 165h15M98 165h136M892 165h182M1078 165h122M0 166h45M56 166h17M98 166h136M892 166h308M0 167h41M55 167h21M98 167h101M204 167h32M892 167h308M0 168h39M54 168h26M100 168h98M205 168h33M892 168h308M0 169h39M53 169h34M100 169h98M207 169h33M890 169h310M0 170h39M52 170h35M100 170h99M207 170h33M890 170h310M0 171h36M51 171h42M105 171h95M212 171h24M888 171h16M908 171h10M923 171h6M940 171h260M0 172h36M50 172h46M107 172h94M216 172h13M243 172h27M888 172h14M909 172h8M924 172h3M940 172h260M0 173h35M49 173h47M107 173h98M216 173h13M243 173h27M888 173h14M909 173h7M924 173h3M940 173h260M0 174h34M48 174h54M105 174h100M218 174h9M241 174h35M888 174h13M911 174h5M938 174h262M0 175h31M48 175h158M241 175h40M886 175h15M936 175h264M0 176h31M45 176h162M241 176h40M886 176h15M936 176h264M0 177h31M42 177h165M234 177h49M885 177h17M934 177h266M0 178h29M38 178h160M227 178h60M885 178h23M931 178h269M0 179h27M36 179h145M212 179h77M885 179h23M931 179h269M0 180h27M36 180h145M212 180h77M885 180h26M931 180h99M1036 180h164M0 181h25M34 181h142M205 181h85M885 181h28M929 181h99M1038 181h162M0 182h22M31 182h140M198 182h94M885 182h85M972 182h54M1040 182h13M1069 182h131M0 183h22M31 183h140M198 183h94M885 183h85M973 183h53M1042 183h11M1069 183h131M0 184h16M29 184h140M198 184h96M885 184h85M973 184h52M1074 184h126M0 185h11M27 185h140M181 185h115M885 185h86M975 185h50M1030 185h8M1055 185h12M1078 185h122M0 186h11M27 186h140M181 186h115M885 186h86M976 186h24M1011 186h14M1029 186h10M1055 186h12M1078 186h122M22 187h145M172 187h124M305 187h7M872 187h101M977 187h21M1014 187h11M1029 187h12M1046 187h26M1081 187h119M18 188h280M303 188h11M871 188h104M981 188h11M1021 188h4M1029 188h47M1083 188h117M15 189h284M301 189h17M871 189h104M982 189h9M1021 189h3M1028 189h48M1083 189h117M15 190h284M301 190h17M863 190h114M1000 190h12M1028 190h52M1087 190h113M11 191h308M862 191h117M993 191h26M1028 191h52M1087 191h113M5 192h316M862 192h117M993 192h26M1026 192h54M1087 192h113M5 193h316M860 193h122M991 193h209M0 194h323M858 194h124M989 194h211M0 195h323M327 195h12M858 195h128M989 195h211M0 196h323M327 196h12M856 196h344M0 197h323M325 197h16M856 197h344M0 198h343M856 198h344M0 199h345M855 199h345M0 200h345M853 200h347M0 201h347M853 201h347M0 202h361M853 202h347M0 203h361M853 203h347M0 204h377M853 204h347M0 205h379M853 205h347M0 206h379M853 206h347M0 207h381M853 207h60M917 207h283M2 208h379M853 208h60M917 208h283M2 209h379M853 209h60M918 209h7M931 209h269M2 210h408M853 210h62M920 210h4M931 210h269M2 211h410M853 211h62M920 211h4M931 211h269M4 212h410M853 212h64M929 212h271M4 213h410M853 213h64M927 213h273M4 214h410M853 214h64M927 214h273M4 215h410M853 215h65M929 215h271M4 216h410M855 216h65M952 216h248M5 217h409M855 217h65M952 217h248M7 218h405M856 218h66M956 218h244M7 219h405M862 219h61M933 219h17M957 219h243M7 220h403M862 220h62M933 220h17M957 220h243M9 221h352M863 221h61M931 221h23M959 221h241M11 222h348M817 222h43M865 222h58M927 222h29M961 222h239M11 223h348M817 223h43M865 223h57M927 223h29M961 223h239M13 224h281M319 224h39M812 224h50M867 224h22M897 224h23M925 224h32M963 224h237M15 225h277M321 225h35M807 225h55M869 225h19M898 225h19M924 225h35M964 225h236M15 226h277M321 226h35M807 226h55M869 226h18M900 226h17M924 226h35M964 226h236M16 227h274M805 227h57M871 227h13M904 227h11M920 227h39M964 227h236M20 228h269M801 228h62M871 228h11M906 228h6M920 228h280M20 229h269M800 229h65M872 229h7M889 229h8M906 229h6M920 229h280M22 230h265M800 230h65M872 230h6M887 230h10M906 230h6M920 230h280M22 231h261M796 231h71M872 231h4M884 231h17M918 231h282M24 232h257M794 232h75M872 232h2M883 232h21M917 232h283M24 233h257M794 233h75M883 233h21M917 233h283M25 234h251M793 234h76M881 234h25M913 234h287M27 235h243M791 235h80M879 235h27M911 235h289M27 236h243M791 236h80M879 236h28M911 236h289M29 237h205M789 237h82M878 237h322M31 238h203M787 238h84M878 238h322M31 239h203M787 239h84M878 239h322M34 240h198M785 240h87M876 240h324M36 241h194M785 241h87M876 241h324M36 242h194M785 242h87M876 242h324M42 243h188M784 243h416M47 244h182M782 244h418M58 245h169M782 245h418M58 246h169M782 246h418M60 247h165M782 247h418M62 248h161M782 248h418M62 249h161M780 249h420M64 250h157M780 250h420M67 251h151M780 251h420M67 252h151M780 252h420M69 253h147M778 253h422M74 254h137M778 254h422M80 255h125M778 255h422M80 256h125M778 256h422M85 257h96M778 257h422M87 258h93M778 258h422M87 259h93M778 259h422M89 260h91M739 260h16M778 260h422M91 261h87M739 261h16M778 261h422M91 262h87M734 262h27M778 262h422M91 263h85M729 263h37M778 263h422M93 264h81M729 264h37M778 264h422M94 265h78M727 265h41M778 265h422M94 266h78M723 266h48M778 266h422M96 267h75M723 267h48M778 267h422M98 268h69M722 268h51M778 268h422M98 269h69M720 269h55M778 269h422M100 270h65M720 270h55M778 270h422M103 271h57M718 271h482M103 272h57M716 272h484M105 273h49M715 273h238M962 273h238M111 274h29M715 274h237M963 274h237M116 275h18M715 275h235M964 275h236M116 276h18M713 276h234M965 276h235M713 277h234M965 277h235M711 278h234M965 278h235M711 279h233M950 279h6M964 279h236M711 280h233M950 280h6M964 280h236M711 281h232M947 281h9M963 281h237M709 282h233M946 282h11M961 282h239M709 283h231M945 283h12M961 283h239M709 284h231M944 284h256M709 285h229M943 285h257M709 286h229M943 286h257M708 287h230M943 287h257M708 288h492M708 289h492M708 290h492M708 291h492M708 292h492M708 293h115M826 293h374M708 294h115M828 294h372M708 295h115M828 295h372M708 296h116M830 296h370M708 297h88M801 297h23M832 297h368M708 298h85M801 298h25M832 298h368M708 299h85M801 299h25M832 299h368M709 300h62M778 300h11M800 300h28M842 300h358M709 301h62M780 301h7M796 301h34M842 301h358M709 302h62M780 302h7M796 302h34M842 302h358M709 303h64M782 303h3M794 303h32M837 303h359M711 304h64M793 304h10M816 304h8M833 304h358M711 305h64M793 305h10M816 305h8M833 305h358M711 306h66M787 306h2M793 306h7M823 306h1M832 306h345M711 307h66M787 307h11M826 307h349M711 308h66M787 308h11M826 308h349M713 309h65M793 309h5M812 309h2M828 309h345M715 310h62M794 310h4M803 310h21M828 310h287M1126 310h46M715 311h62M794 311h4M803 311h21M828 311h287M1126 311h46M715 312h62M787 312h2M801 312h314M1129 312h39M716 313h59M782 313h11M800 313h310M1129 313h37M716 314h59M782 314h11M800 314h310M1129 314h37M718 315h55M780 315h14M798 315h285M1134 315h27M720 316h51M777 316h301M1140 316h16M720 317h51M777 317h301M1140 317h16M722 318h48M775 318h297M723 319h47M775 319h290M727 320h43M773 320h284M727 321h43M773 321h284M729 322h37M770 322h248M1030 322h19M734 323h27M771 323h241M734 324h27M771 324h241M739 325h16M773 325h232M777 326h219M777 327h219M778 328h211M784 329h72M877 329h82M784 330h69M880 330h79M789 331h64M880 331h74M801 332h49M883 332h39M801 333h49M883 333h39M810 334h37M888 334h21M816 335h31M821 336h21M821 337h21M825 338h13M825 339h13" />
</svg>