<svg xmlns="http://www.w3.org/2000/svg" viewBox="0 -0.5 1200 600" shape-rendering="crispEdges">
<metadata>Made with Pixels to Svg https://codepen.io/shshaw/pen/XbxvNj</metadata>
<path stroke="#c38890" d="M828 133h24M827 134h26M824 135h33M823 136h35M823 137h35M782 138h11M819 138h44M778 139h17M818 139h46M778 140h17M817 140h47M776 141h20M816 141h49M776 142h20M816 142h49M773 143h23M816 143h50M773 144h23M816 144h50M771 145h27M816 145h50M771 146h27M816 146h50M770 147h28M816 147h49M770 148h28M817 148h48M768 149h30M818 149h47M764 150h34M819 150h46M875 150h12M761 151h37M821 151h44M873 151h17M761 152h37M821 152h45M873 152h17M759 153h41M824 153h67M759 154h43M829 154h62M748 155h54M833 155h60M745 156h59M834 156h59M745 157h59M834 157h60M742 158h74M835 158h59M737 159h81M836 159h60M737 160h90M838 160h58M737 161h94M838 161h58M735 162h96M838 162h58M735 163h98M838 163h58M733 164h100M838 164h56M733 165h161M732 166h40M776 166h117M732 167h38M779 167h114M704 168h10M732 168h37M779 168h112M702 169h14M731 169h35M779 169h112M701 170h17M721 170h5M731 170h34M779 170h112M698 171h30M731 171h34M791 171h94M888 171h3M698 172h30M731 172h34M791 172h92M697 173h69M793 173h90M694 174h85M793 174h88M892 174h5M692 175h87M804 175h77M891 175h8M690 176h98M812 176h51M887 176h15M373 177h10M690 177h98M812 177h51M887 177h15M373 178h10M688 178h112M812 178h50M884 178h19M370 179h15M687 179h119M811 179h51M865 179h6M881 179h24M370 180h15M686 180h176M865 180h42M370 181h17M686 181h221M370 182h17M686 182h221M348 183h12M370 183h17M685 183h223M348 184h18M370 184h17M685 184h223M348 185h18M370 185h17M685 185h223M345 186h42M685 186h223M345 187h42M685 187h223M345 188h42M682 188h88M776 188h131M345 189h42M402 189h5M413 189h9M428 189h25M680 189h82M782 189h125M345 190h46M399 190h9M411 190h13M427 190h26M663 190h99M782 190h123M345 191h46M397 191h11M411 191h13M427 191h22M661 191h100M782 191h122M315 192h11M337 192h56M397 192h11M411 192h30M661 192h100M782 192h122M314 193h14M335 193h58M396 193h40M659 193h102M782 193h93M879 193h24M300 194h136M659 194h97M787 194h88M879 194h22M300 195h136M658 195h81M787 195h87M879 195h16M298 196h135M658 196h78M784 196h90M881 196h10M298 197h130M658 197h78M784 197h90M881 197h10M298 198h130M658 198h74M762 198h15M782 198h91M298 199h124M658 199h74M737 199h136M300 200h119M445 200h36M659 200h214M300 201h119M445 201h36M659 201h211M376 202h32M442 202h41M659 202h211M376 203h17M399 203h6M418 203h9M438 203h45M661 203h25M699 203h157M861 203h8M376 204h17M399 204h6M418 204h9M438 204h45M663 204h21M699 204h155M862 204h5M379 205h12M422 205h61M699 205h142M379 206h10M427 206h54M699 206h140M379 207h10M427 207h54M699 207h140M450 208h26M700 208h78M784 208h21M450 209h25M700 209h72M787 209h17M702 210h13M704 211h9M704 212h9M726 218h32M724 219h36M692 220h73M690 221h77M690 222h77M675 223h93M673 224h95M650 225h120M642 226h128M642 227h128M638 228h132M635 229h135M631 230h139M629 231h139M629 232h139M629 233h139M629 234h136M630 235h67M651 236h43M651 237h43M659 238h29M664 239h12M106 250h10M103 251h16M103 252h16M102 253h23M100 254h28M98 255h31M98 256h31M98 257h33M97 258h36M156 258h23M97 259h36M156 259h23M95 260h38M153 260h29M94 261h40M147 261h38M94 262h40M147 262h38M92 263h42M143 263h45M92 264h42M142 264h48M92 265h42M142 265h48M92 266h44M139 266h52M92 267h44M139 267h52M92 268h44M139 268h52M92 269h101M92 270h101M92 271h101M92 272h101M94 273h73M185 273h27M94 274h71M186 274h29M94 275h71M186 275h29M97 276h67M188 276h28M298 276h7M98 277h64M190 277h29M294 277h14M98 278h64M190 278h29M294 278h14M78 279h16M100 279h60M197 279h24M291 279h27M75 280h20M105 280h54M197 280h25M291 280h31M73 281h22M105 281h54M197 281h27M291 281h31M73 282h25M109 282h45M174 282h9M204 282h20M291 282h4M303 282h11M71 283h31M116 283h31M174 283h11M207 283h5M219 283h5M278 283h8M306 283h6M69 284h36M116 284h24M173 284h12M272 284h17M69 285h36M116 285h24M173 285h12M272 285h17M68 286h40M116 286h20M169 286h18M233 286h56M66 287h26M116 287h18M157 287h5M166 287h21M216 287h62M66 288h26M116 288h18M157 288h5M166 288h26M216 288h62M66 289h26M111 289h23M142 289h8M157 289h98M64 290h24M109 290h138M64 291h24M109 291h138M64 292h22M102 292h142M63 293h22M100 293h139M63 294h22M100 294h139M63 295h20M95 295h141M63 296h20M95 296h141M63 297h20M95 297h141M63 298h22M100 298h136M63 299h22M105 299h131M63 300h20M105 300h130M63 301h20M105 301h130M63 302h18M98 302h137M63 303h15M91 303h142M63 304h15M91 304h142M63 305h9M97 305h136M63 306h6M97 306h132M63 307h6M97 307h132M63 308h5M95 308h115M60 309h8M92 309h116M60 310h8M92 310h116M57 311h21M88 311h120M1036 311h5M54 312h119M177 312h28M1034 312h9M50 313h121M179 313h26M1032 313h12M50 314h121M179 314h26M1031 314h13M46 315h121M182 315h19M1031 315h14M46 316h113M1030 316h15M46 317h113M1029 317h17M43 318h113M1028 318h18M43 319h91M1028 319h18M43 320h91M1026 320h22M43 321h91M1025 321h23M41 322h62M109 322h22M1025 322h23M41 323h62M109 323h22M1023 323h28M41 324h62M109 324h22M1021 324h31M41 325h59M111 325h17M1021 325h31M41 326h59M111 326h17M999 326h10M1013 326h40M41 327h57M111 327h15M998 327h11M1013 327h40M41 328h54M111 328h15M998 328h30M1043 328h11M41 329h51M116 329h6M998 329h27M1045 329h11M41 330h51M116 330h6M992 330h13M1011 330h11M1045 330h11M41 331h47M988 331h12M1013 331h9M1046 331h10M43 332h40M988 332h5M1013 332h9M1046 332h10M43 333h40M988 333h5M1015 333h6M43 334h38M44 335h37M44 336h37M44 337h37M49 338h32M49 339h32M49 340h31M54 341h6M64 341h16M54 342h6M64 342h16M66 343h12M69 344h6M572 410h12M572 411h12M569 412h15M569 413h18M566 414h21M566 415h23M564 416h25M564 417h25M564 418h26M563 419h27M563 420h27M601 420h6M563 421h27M600 421h8M563 422h27M600 422h8M563 423h27M592 423h6M600 423h9M554 424h6M563 424h48M554 425h57M552 426h63M552 427h63M552 428h65M552 429h66M529 430h5M554 430h64M528 431h10M555 431h63M528 432h10M555 432h63M527 433h12M555 433h62M526 434h15M556 434h59M526 435h17M556 435h58M524 436h19M545 436h7M557 436h30M589 436h24M524 437h19M545 437h7M557 437h30M589 437h24M524 438h20M547 438h9M558 438h28M589 438h23M524 439h33M562 439h22M590 439h8M600 439h12M524 440h26M563 440h16M591 440h6M601 440h10M512 441h30M547 441h8M564 441h14M592 441h4M602 441h7M512 442h30M547 442h8M564 442h14M592 442h4M602 442h7M504 443h8M520 443h13M535 443h7M549 443h5M566 443h7M604 443h4M504 444h29M535 444h7M507 445h26M538 445h3M517 446h18M517 447h18M522 448h13M524 449h10M526 450h7M527 451h5M527 452h5" />
</svg>