<svg version="1.1" id="Layer_1" xmlns="http://www.w3.org/2000/svg" xmlns:xlink="http://www.w3.org/1999/xlink" x="0px" y="0px"
	 width="100%" viewBox="0 0 1200 600" enable-background="new 0 0 1200 600" xml:space="preserve">
<path fill="#000000" opacity="1.000000" stroke="none" 
	d="
M1201.000000,317.000000 
	C1201.000000,411.644104 1201.000000,506.288208 1201.000000,600.966187 
	C801.117859,600.966187 401.235748,600.966187 1.000000,600.966187 
	C1.000000,505.307800 1.000000,409.615143 1.335435,313.457184 
	C2.113769,312.939026 2.556667,312.886169 3.464360,312.897827 
	C42.372742,311.778473 80.863312,315.191925 119.313156,311.259125 
	C128.940399,310.274445 138.829651,310.645599 148.787430,312.578369 
	C158.578369,314.478729 169.027695,312.883484 179.184265,313.052582 
	C183.506104,313.124512 185.327972,311.304169 185.341095,307.060394 
	C186.156845,306.257843 186.673523,305.509827 187.482635,304.640259 
	C187.794098,303.896515 187.813110,303.274292 187.651794,302.350769 
	C186.661514,301.661163 185.851562,301.272888 184.769989,300.551453 
	C152.094238,300.218353 119.690109,300.218353 87.779396,300.218353 
	C89.804375,296.588531 91.409706,293.710938 93.257263,290.843536 
	C93.848999,290.675232 93.960289,290.400269 94.063652,289.697144 
	C99.417816,289.305603 104.575470,288.853729 109.656403,289.291748 
	C115.196899,289.769470 120.666283,291.072052 126.156464,292.257263 
	C126.146263,292.499481 126.486359,292.845093 126.486359,292.845093 
	C126.486359,292.845093 126.971092,292.833344 127.437683,292.897827 
	C140.274536,292.919312 152.644791,292.876343 165.257263,292.843567 
	C165.848984,292.675232 165.960281,292.400269 166.057831,291.690796 
	C168.331757,290.901886 170.376373,290.088959 172.431473,290.061584 
	C182.549591,289.926636 192.671387,290.072906 202.789719,289.946716 
	C205.202423,289.916595 207.606827,289.222198 210.257263,288.843567 
	C210.848984,288.675232 210.960281,288.400269 211.098083,287.675995 
	C213.177475,287.215393 214.993820,287.130249 216.806488,286.995636 
	C221.876816,286.619141 226.945633,286.222229 232.257263,285.843567 
	C232.848984,285.675232 232.960281,285.400269 232.986053,284.750305 
	C233.814728,284.652802 234.490692,284.833923 235.156464,285.257263 
	C235.146271,285.499481 235.486374,285.845062 235.486374,285.845062 
	C235.486374,285.845062 235.971085,285.833344 236.343613,286.027313 
	C241.482437,286.091980 246.248749,285.962646 251.257263,285.843567 
	C251.848984,285.675232 251.960281,285.400269 252.068375,284.692963 
	C257.873962,283.515808 263.444489,282.674561 269.257263,281.843536 
	C269.849060,281.675232 269.960327,281.400269 270.023346,280.720703 
	C272.147247,279.552765 274.081146,278.693054 276.257263,277.843567 
	C276.849060,277.675232 276.960327,277.400269 277.011017,276.730286 
	C278.181335,276.626129 279.174011,276.820587 280.156433,277.257263 
	C280.146240,277.499512 280.486359,277.845123 280.486359,277.845123 
	C280.486359,277.845123 280.971100,277.833344 281.334503,278.020630 
	C284.803619,278.083038 287.909332,277.958191 291.257263,277.843567 
	C291.849060,277.675232 291.960327,277.400269 291.998962,276.737549 
	C293.123718,276.002472 294.082825,275.558777 295.376709,275.053345 
	C296.085419,274.327972 296.459381,273.664307 297.036377,272.694183 
	C298.881805,272.930176 300.524231,273.472595 302.156433,274.257263 
	C302.146240,274.499512 302.486359,274.845123 302.486359,274.845123 
	C302.486359,274.845123 302.971100,274.833344 303.437683,274.897827 
	C312.274536,274.919312 320.644775,274.876343 329.257263,274.843567 
	C329.849060,274.675232 329.960327,274.400269 330.020874,273.718140 
	C332.504486,272.934784 334.800293,272.460785 337.096802,271.990082 
	C339.628571,271.471130 343.301239,273.672516 344.436951,269.010834 
	C345.119141,268.538879 345.473724,268.103058 345.828308,267.667236 
	C345.253326,267.427307 344.678284,267.187408 344.037262,266.553162 
	C341.899109,264.031555 331.158112,262.906891 328.843414,264.863312 
	C324.360992,268.651886 319.618347,267.118408 314.843567,265.742737 
	C314.675232,265.150940 314.400269,265.039673 313.699158,264.994080 
	C311.862854,262.139313 309.954102,260.518585 306.485931,260.858459 
	C305.010468,261.003082 303.388641,259.654785 301.843567,258.742737 
	C301.675232,258.150940 301.400269,258.039673 300.595001,258.102295 
	C296.051849,257.020294 291.942596,256.002625 287.843567,254.742737 
	C287.675232,254.151016 287.400269,254.039719 286.566254,254.102249 
	C281.735748,254.080780 277.367859,254.123718 272.662964,254.118317 
	C271.845520,254.699417 271.365082,255.328888 270.553253,256.121185 
	C266.211060,256.868073 266.211060,256.868073 265.843567,250.742737 
	C265.675232,250.151016 265.400269,250.039719 264.723358,250.015747 
	C263.889648,248.904892 263.361511,247.944916 262.843567,246.742737 
	C262.675232,246.151016 262.400269,246.039719 261.589966,246.102325 
	C258.045105,245.353668 254.939224,244.669327 251.843536,243.742767 
	C251.675217,243.150986 251.400284,243.039703 250.566254,243.102234 
	C245.735733,243.080765 241.367874,243.123718 236.664307,243.118027 
	C235.851990,243.694885 235.375366,244.320374 234.928574,244.953079 
	C234.958405,244.960297 234.943863,244.900696 234.594666,244.958527 
	C233.552521,246.344009 232.859589,247.671677 231.988129,249.286423 
	C230.484192,249.043991 229.158768,248.514496 227.843536,247.742767 
	C227.675217,247.150986 227.400284,247.039703 226.695175,246.935089 
	C225.852081,244.130692 225.342712,241.557831 224.843536,238.742767 
	C224.675217,238.150986 224.400284,238.039703 223.717743,237.972290 
	C221.882172,236.180267 220.357758,234.582626 218.843536,232.742767 
	C218.675217,232.150986 218.400284,232.039703 217.685287,232.090485 
	C216.172241,231.337860 215.002792,230.661423 213.843536,229.742767 
	C213.675217,229.150986 213.400284,229.039703 212.608887,229.102173 
	C207.737015,228.020111 203.285187,227.002548 198.843536,225.742767 
	C198.675217,225.150986 198.400284,225.039703 197.691162,224.998505 
	C194.846710,223.881912 192.340027,222.933456 189.843536,221.742767 
	C189.675217,221.150986 189.400284,221.039703 188.620605,221.079834 
	C184.752670,220.323685 181.292999,219.654343 177.843536,218.742767 
	C177.675217,218.150986 177.400284,218.039703 176.652283,217.969559 
	C173.202896,217.513885 170.134232,217.168655 167.056107,217.023117 
	C164.414581,216.898224 162.594437,216.819061 163.719574,213.059875 
	C164.343109,210.976624 163.187180,208.360779 162.843536,205.742767 
	C162.675217,205.150986 162.400284,205.039703 161.726608,204.985321 
	C160.893982,203.530991 160.363663,202.257996 159.843536,200.742767 
	C159.675217,200.150986 159.400284,200.039703 158.676575,200.084015 
	C157.493958,198.662582 156.663651,197.323776 155.843536,195.742767 
	C155.675217,195.150986 155.400284,195.039703 154.741852,195.032318 
	C153.914307,194.260315 153.373825,193.622650 152.843536,192.742767 
	C152.675217,192.150986 152.400284,192.039703 151.696381,192.091171 
	C150.520370,191.338776 149.676865,190.661880 148.843536,189.742767 
	C148.675217,189.150986 148.400284,189.039703 147.635498,189.083862 
	C139.827927,186.301086 132.403198,185.629974 124.576767,188.957382 
	C121.323013,192.241852 120.550285,195.495651 124.338821,199.010788 
	C129.832108,202.533249 135.460922,203.773117 141.561295,203.106293 
	C142.057373,203.052078 142.629745,203.695663 143.156464,204.257233 
	C143.146271,204.499466 143.486359,204.845093 143.486359,204.845093 
	C143.486359,204.845093 143.971100,204.833344 144.321808,204.918274 
	C145.040756,205.388977 145.409012,205.774750 145.777252,206.160522 
	C144.846497,206.495895 143.915741,206.831284 142.742767,207.156464 
	C142.150986,207.324783 142.039703,207.599716 141.970306,208.282700 
	C140.460403,208.391190 139.146881,208.188095 137.843536,207.742767 
	C137.675217,207.150986 137.400284,207.039703 136.586609,207.102295 
	C134.664139,207.023788 133.165314,207.156189 131.706970,206.970566 
	C124.633072,206.070160 118.766060,203.857681 117.843536,196.742752 
	C117.675224,196.150986 117.400276,196.039703 116.725235,195.987762 
	C114.892166,193.872849 113.362747,191.936813 111.791245,189.681183 
	C110.846642,188.869247 109.944130,188.376907 108.894714,187.614151 
	C108.109650,186.890823 107.471497,186.437897 106.843536,185.742752 
	C106.675224,185.150986 106.400276,185.039703 105.701279,185.099518 
	C104.930611,184.984192 104.487572,184.936020 103.914444,184.633163 
	C103.172760,184.550461 102.561150,184.722458 101.553635,184.935471 
	C100.100143,185.039871 99.042549,185.103256 97.742737,185.156464 
	C97.151001,185.324783 97.039719,185.599716 96.956863,186.291412 
	C94.484070,187.369461 92.221069,188.127197 89.624252,188.945892 
	C88.821815,189.657364 88.353195,190.307877 87.620956,191.067383 
	C86.899872,191.506470 86.442413,191.836563 85.742737,192.156464 
	C85.151001,192.324783 85.039719,192.599716 85.013954,193.249695 
	C84.185272,193.347198 83.509308,193.166077 82.843536,192.742752 
	C82.675224,192.150986 82.400276,192.039703 81.729691,191.988953 
	C81.300972,190.912506 81.171448,190.013794 81.375748,189.054108 
	C82.178185,188.342636 82.646805,187.692139 83.409889,186.858444 
	C86.135979,184.727966 88.567604,182.780655 91.345551,180.776566 
	C92.783218,180.236511 93.874573,179.753235 95.793587,178.903442 
	C93.623596,178.117355 92.311409,177.641998 90.600571,177.101288 
	C89.086037,176.550491 87.970146,176.065079 85.939606,175.181763 
	C91.982155,172.449249 96.588432,173.255463 101.156464,175.257248 
	C101.146271,175.499466 101.486359,175.845093 101.486359,175.845093 
	C101.486359,175.845093 101.971100,175.833344 102.372528,175.897522 
	C103.854317,175.918915 104.934677,175.876114 106.257263,175.843536 
	C106.848999,175.675217 106.960281,175.400284 106.897522,174.627502 
	C106.918922,173.145721 106.876129,172.065338 106.843536,170.742752 
	C106.675224,170.150986 106.400276,170.039703 105.740837,170.006699 
	C105.246292,169.231415 105.039818,168.616104 104.789467,167.679459 
	C103.830620,166.960983 102.915649,166.563828 101.718521,166.027740 
	C100.902031,165.254196 100.367683,164.619583 99.843536,163.742752 
	C99.675224,163.150986 99.400276,163.039703 98.656502,163.087830 
	C95.800514,162.000977 93.316925,160.992981 90.843536,159.742752 
	C90.675224,159.150986 90.400276,159.039703 89.584557,159.102310 
	C85.371254,158.353622 81.602295,157.669296 77.843536,156.742752 
	C77.675224,156.150986 77.400276,156.039703 76.576202,156.102280 
	C73.077324,156.080826 70.031136,156.123734 66.742737,156.156464 
	C66.151001,156.324783 66.039719,156.599716 65.986115,157.272827 
	C64.537018,158.105270 63.268475,158.635971 61.662903,159.118301 
	C60.845448,159.699417 60.365025,160.328873 59.580685,161.100204 
	C57.503700,162.789886 55.730633,164.337692 53.663406,166.028900 
	C52.878490,167.097610 52.387730,168.022919 51.926846,168.955200 
	C51.956722,168.962189 51.942062,168.902603 51.581955,168.962646 
	C50.447140,170.664108 49.672432,172.305557 48.927383,173.954773 
	C48.957043,173.962570 48.941410,173.903275 48.542095,173.979202 
	C47.643311,176.207245 47.143841,178.359375 46.644371,180.511490 
	C47.243275,180.737656 47.842175,180.963821 48.441078,181.189972 
	C48.977947,180.161392 49.514816,179.132797 50.470268,178.063950 
	C52.981453,178.354141 55.074059,178.684586 57.156464,179.257233 
	C57.146263,179.499466 57.486317,179.845078 57.486317,179.845078 
	C57.486317,179.845078 57.971027,179.833344 58.406830,179.897614 
	C60.321644,179.976196 61.887012,179.692825 63.255054,180.089691 
	C64.587814,180.476318 65.718681,181.558884 66.938194,182.335907 
	C65.663544,183.209747 64.388893,184.083572 63.010101,184.730652 
	C62.565731,184.655197 62.225506,184.806519 61.476364,184.974197 
	C59.706600,185.049271 58.345753,185.107971 56.742691,185.156464 
	C56.150990,185.324799 56.039719,185.599747 55.927166,186.309570 
	C53.472748,186.727402 51.257828,186.806717 49.003593,186.538696 
	C48.412228,185.972458 47.860184,185.753540 47.308136,185.534637 
	C47.857841,186.394470 48.407547,187.254318 48.834644,188.390259 
	C48.136326,188.833145 47.560616,188.999893 46.742691,189.156464 
	C46.150990,189.324799 46.039719,189.599747 45.973022,190.281738 
	C44.181221,191.117142 42.583065,191.641907 40.742691,192.156464 
	C40.150990,192.324799 40.039719,192.599747 39.989536,193.273529 
	C38.194294,194.345627 36.576180,195.115280 34.624245,195.945892 
	C33.821812,196.657349 33.353199,197.307861 32.624779,198.065613 
	C31.895981,198.743576 31.426992,199.314285 30.597755,199.950806 
	C29.457365,201.660324 28.677223,203.304016 27.927176,204.954193 
	C27.957270,204.960663 27.943975,204.900558 27.560806,204.968597 
	C23.935650,207.903137 24.561018,211.276947 26.009516,214.695312 
	C26.042362,214.772827 27.342579,214.313309 28.475090,214.063080 
	C32.937405,213.625702 36.976250,213.229523 41.257309,212.843536 
	C41.849010,212.675201 41.960281,212.400253 42.097557,211.676300 
	C47.891788,211.251816 53.421803,211.179947 58.999115,211.476212 
	C60.329819,212.247040 61.613224,212.649734 62.929905,213.467316 
	C62.140656,214.584991 61.402485,215.743866 60.481464,215.914246 
	C55.674866,216.803375 50.821800,217.441315 45.742691,218.156464 
	C45.150990,218.324799 45.039719,218.599747 45.001015,219.262451 
	C43.876244,219.997543 42.917126,220.441269 41.578568,220.956665 
	C40.098610,224.334656 38.998096,227.640961 37.927727,230.953629 
	C37.957874,230.959991 37.944939,230.899750 37.610550,230.955902 
	C36.906330,231.674484 36.536495,232.336929 35.976341,233.296844 
	C34.468452,232.729721 33.150894,231.865097 31.836861,230.763275 
	C31.522278,230.669754 31.204166,230.813416 30.464577,230.973602 
	C28.479019,230.917664 26.914938,230.845215 25.220432,230.766739 
	C25.440500,227.254486 25.636917,224.119736 25.843533,220.742752 
	C25.675245,220.151016 25.400320,220.039719 24.580772,220.102249 
	C21.421696,220.080780 18.710808,220.123718 15.627628,220.103180 
	C14.503811,220.082001 13.752287,220.124329 12.563388,220.102295 
	C9.084284,220.414169 6.042554,220.790405 2.671397,221.102234 
	C1.894647,221.025208 1.447323,221.012604 1.000000,221.000000 
	C1.000000,147.686676 1.000000,74.373360 1.000001,1.058098 
	C401.000000,1.056152 801.000000,1.056152 1201.000000,1.056152 
	C1201.000000,43.767365 1201.000000,86.422424 1200.585693,129.533020 
	C1193.892944,126.440598 1187.005249,127.450020 1180.617310,128.579819 
	C1175.384155,129.505356 1170.717773,133.275513 1165.514038,134.821564 
	C1159.684082,136.553619 1158.243774,141.633392 1154.286865,145.730606 
	C1161.185791,149.334045 1167.220703,152.450577 1173.219238,155.635727 
	C1175.869995,157.043304 1179.462402,157.990982 1180.786011,160.233994 
	C1182.258545,162.729492 1181.957275,166.485535 1181.730225,169.642624 
	C1181.660156,170.615967 1179.302124,171.424667 1178.190430,172.174683 
	C1176.958374,170.181915 1176.188232,168.856216 1175.341797,167.581177 
	C1171.562988,161.888290 1165.914795,162.795929 1160.346436,163.321548 
	C1157.338989,163.605453 1154.316650,163.732559 1151.301025,163.930420 
	C1151.336792,163.609970 1151.372437,163.289505 1151.408203,162.969055 
	C1154.634766,161.133469 1157.861450,159.297867 1161.371216,157.301193 
	C1156.890381,152.226883 1153.139160,147.410004 1146.075562,146.950745 
	C1129.837402,145.895020 1114.139771,147.589981 1099.878418,156.032639 
	C1092.803711,160.220825 1085.745972,164.805344 1081.162231,171.863892 
	C1074.667847,181.864822 1074.872437,181.824478 1063.304932,182.056244 
	C1054.254150,182.237595 1045.432739,181.693390 1036.392944,185.593048 
	C1024.975220,190.518524 1017.149841,198.361740 1010.602356,208.217789 
	C1010.219910,208.793488 1010.183899,209.787430 1010.349487,210.502792 
	C1010.796082,212.432327 1011.150330,214.469833 1012.063049,216.187164 
	C1014.066345,219.956512 1015.724121,224.308823 1018.774719,227.008911 
	C1021.774902,229.664307 1026.321655,230.572327 1030.400513,232.338348 
	C1029.794800,229.171539 1029.334717,226.765869 1028.874756,224.360214 
	C1029.372559,224.133163 1029.870483,223.906113 1030.368286,223.679062 
	C1032.704590,226.289856 1035.040771,228.900650 1037.714355,231.888382 
	C1047.284668,232.316895 1048.033447,232.773666 1046.829346,237.424149 
	C1052.668457,238.022446 1058.781494,237.867462 1064.394043,239.467865 
	C1068.992310,240.779007 1072.838989,244.523880 1077.309448,246.548035 
	C1080.973511,248.207031 1081.843994,250.304230 1080.356812,253.954056 
	C1079.329590,253.842041 1077.994873,254.107620 1077.454224,253.571869 
	C1073.482422,249.635971 1069.043457,246.909302 1063.488770,245.425812 
	C1057.285400,243.769089 1051.629272,242.186050 1045.928467,246.889252 
	C1043.301147,249.056702 1039.830078,250.201126 1036.640625,251.862061 
	C1033.216675,244.421265 1044.739746,245.535309 1043.878540,239.633163 
	C1043.382080,239.382324 1043.097656,239.217148 1042.797119,239.089874 
	C1035.711426,236.089371 1027.483154,240.354950 1020.550842,235.161362 
	C1015.826599,231.622055 1009.670227,229.850235 1005.350098,225.960144 
	C1001.727661,222.698288 999.178955,219.257599 993.882507,217.486908 
	C984.123230,214.224197 974.501770,213.004547 964.613159,214.843903 
	C955.974304,216.450806 948.252808,219.761780 941.912842,226.758316 
	C935.596130,233.729340 930.636658,240.674347 930.970947,250.439316 
	C931.008301,251.529739 930.689392,252.632370 930.515076,253.876831 
	C915.974670,253.953262 901.871460,255.092056 888.617065,260.976288 
	C883.020081,263.461060 876.927368,265.327637 872.086182,268.875488 
	C867.322754,272.366425 863.858826,277.630615 860.253845,281.639496 
	C861.709656,285.872864 871.586914,281.298035 867.499146,290.382111 
	C869.540649,293.772125 872.816711,294.099579 875.762634,291.442749 
	C879.967407,287.650787 883.984985,288.406219 888.484253,290.446808 
	C889.645447,290.973450 891.309631,290.670532 892.675476,290.403931 
	C894.987244,289.952606 897.245483,289.226685 900.423401,288.376038 
	C899.728027,290.746155 899.438721,291.732361 899.120300,292.817627 
	C902.666199,292.559143 906.221924,292.299927 909.777649,292.040741 
	C909.906006,292.595276 910.034363,293.149780 910.162720,293.704315 
	C909.347717,294.131287 908.547729,294.896667 907.715393,294.933533 
	C898.238647,295.353241 888.757629,295.683411 879.276245,295.990509 
	C874.775269,296.136292 870.440247,295.330292 866.558533,299.472290 
	C863.924377,302.283020 859.492981,303.567566 855.685486,305.082794 
	C850.190002,307.269775 844.569458,310.549438 838.934753,310.691803 
	C826.548035,311.004822 814.094055,309.919434 801.722412,308.798645 
	C797.983643,308.459961 793.078003,308.630737 791.187561,303.219025 
	C794.725708,303.060791 798.796936,304.085815 801.108215,302.517395 
	C805.555969,299.499329 805.735168,302.859344 807.009338,305.165436 
	C807.354614,305.790405 807.650208,306.442810 807.485352,306.111572 
	C810.237244,306.111572 812.541626,305.416565 813.968079,306.240845 
	C818.389160,308.795502 824.560547,308.631470 829.354370,305.705231 
	C830.430786,305.048126 832.489258,305.923248 834.077209,306.199066 
	C836.370422,306.597321 838.771057,307.775238 840.901855,307.388092 
	C844.199402,306.788971 847.307922,305.149292 849.684143,304.256226 
	C850.915283,301.941650 851.606567,299.207001 853.362244,297.810394 
	C854.687744,296.756042 857.380249,297.271790 859.453491,297.356323 
	C860.926575,297.416382 862.381470,297.922089 863.844482,298.228882 
	C863.256714,297.149780 862.630920,296.089294 862.090637,294.986938 
	C861.344421,293.464294 860.805542,291.822021 859.922974,290.387878 
	C858.123901,287.464508 856.585938,284.202057 852.059143,284.959595 
	C847.015320,285.803650 841.843872,285.989777 836.862122,287.076691 
	C828.324341,288.939392 819.381165,286.959198 810.934998,290.846222 
	C806.527405,292.874634 800.990662,292.429321 795.971680,293.154480 
	C789.570557,294.079315 783.197449,295.238068 776.774231,295.955750 
	C771.707886,296.521759 766.564087,296.382629 761.492493,296.916168 
	C757.731628,297.311798 754.041138,298.826874 750.302246,298.894073 
	C740.714111,299.066284 735.111328,305.031219 729.431702,312.000000 
	C726.269775,312.000000 722.605896,311.966339 718.943054,312.012787 
	C716.787903,312.040131 713.543030,311.340454 712.677490,312.446350 
	C709.642456,316.324310 705.769470,314.878632 702.226746,314.937561 
	C691.731873,315.112061 681.227783,315.180176 670.736084,314.927277 
	C665.149780,314.792633 661.794983,317.616150 658.870728,321.725067 
	C663.376221,325.459412 663.353943,325.398407 667.651428,323.826660 
	C669.000793,323.333130 670.502869,323.053436 671.939331,323.036591 
	C678.770264,322.956360 685.603271,323.046509 692.434448,322.975403 
	C694.824524,322.950562 696.631775,323.127625 698.092712,325.674530 
	C699.655457,328.398682 702.190308,329.051758 704.964600,326.380859 
	C705.938416,325.443329 707.804688,325.060089 709.265198,325.056030 
	C736.426025,324.980591 763.587158,324.994934 790.748230,325.018219 
	C792.059998,325.019348 793.414917,325.112457 794.674438,325.446564 
	C797.528076,326.203522 800.286194,327.580811 803.171814,327.897217 
	C807.616943,328.384644 812.741699,326.864380 816.495972,328.573242 
	C823.877747,331.933289 831.664490,331.425415 839.173340,333.042358 
	C840.771912,333.386597 842.579956,333.902679 843.736877,334.951416 
	C848.336304,339.121124 854.053711,340.453369 859.802734,340.899872 
	C881.586731,342.591797 903.488708,338.603119 925.335327,343.695435 
	C938.985229,346.877197 953.418884,341.657471 967.607666,346.587738 
	C975.860413,349.455322 985.504517,348.282898 994.511597,349.055481 
	C995.818359,349.167572 997.056030,350.013031 998.339294,350.481903 
	C1003.440979,352.345947 1008.432434,355.232819 1013.679077,355.817505 
	C1022.514160,356.802063 1030.288574,360.224030 1037.613892,364.523956 
	C1044.900635,368.801361 1052.406128,371.210327 1060.733643,370.910858 
	C1062.991577,370.829681 1065.193848,369.606476 1067.450562,369.018036 
	C1075.245239,366.985657 1083.053223,365.004059 1090.854492,362.996490 
	C1091.479126,362.835724 1092.082397,362.588562 1092.709961,362.443542 
	C1097.527832,361.330231 1102.430176,359.054749 1107.152588,359.378967 
	C1116.482910,360.019562 1125.546509,360.938995 1134.492432,357.039093 
	C1142.856201,353.393036 1151.541504,350.481354 1159.881226,346.785706 
	C1162.609985,345.576538 1164.890015,343.108307 1167.041504,340.891846 
	C1172.548950,335.218231 1175.290771,328.281921 1175.305420,321.427368 
	C1184.233521,319.888977 1192.616821,318.444519 1201.000000,317.000000 
M420.179565,296.935760 
	C417.909698,295.492798 415.595245,294.114685 413.380341,292.591736 
	C410.010101,290.274384 404.858582,291.099060 401.432678,292.584351 
	C398.483856,293.862732 393.956329,294.356903 391.423706,292.916901 
	C388.997711,291.537537 387.992279,288.384949 384.025391,289.795441 
	C380.989471,290.874908 375.819519,289.764801 374.645203,291.589325 
	C370.219452,298.465576 362.132446,296.003754 356.720123,299.803619 
	C356.301117,300.097809 354.445007,299.307129 354.109833,298.610352 
	C350.642914,291.403046 341.541504,290.876099 337.022308,298.886505 
	C339.975403,301.202667 342.887695,303.624054 345.955536,305.829010 
	C347.281891,306.782318 348.976410,307.989624 350.424072,307.892731 
	C371.407166,306.488037 392.544464,310.846832 413.501007,305.283600 
	C421.460358,303.170685 430.037811,304.570190 438.550903,302.514435 
	C449.760284,299.807617 461.829834,300.630371 473.534180,300.026123 
	C476.857208,299.854553 480.211029,299.803864 483.524353,300.051208 
	C487.000946,300.310730 488.716827,297.980865 488.723938,295.507965 
	C488.731049,293.029694 487.010162,290.841248 483.543823,290.936737 
	C475.886383,291.147705 468.219116,290.991486 460.555939,291.015961 
	C459.570587,291.019104 458.562317,291.104065 457.604889,291.325195 
	C453.911224,292.178497 450.275909,293.441071 446.538635,293.905243 
	C442.762390,294.374298 438.194794,292.796112 435.221191,294.411255 
	C430.506195,296.972168 425.895233,296.882233 420.179565,296.935760 
M305.807159,299.826324 
	C303.953644,296.229523 300.744171,296.927704 297.616058,297.147369 
	C296.484619,297.226837 295.084167,297.220795 294.210663,296.642883 
	C286.161407,291.317383 277.307281,294.592865 268.852783,294.384796 
	C264.535919,294.278595 260.188873,296.769165 255.826935,296.871613 
	C241.358643,297.211487 226.856476,297.454681 212.410721,296.790558 
	C206.061508,296.498688 202.740097,299.826660 198.939346,303.262634 
	C200.721603,307.559479 203.875061,308.203827 207.785126,308.066650 
	C214.598892,307.827545 221.427963,307.944244 228.248550,308.048096 
	C229.643433,308.069366 231.385971,308.274139 232.357498,309.106903 
	C236.605682,312.748138 241.279846,310.924835 245.769943,310.347290 
	C248.699051,309.970581 251.489502,308.296387 254.406738,308.081482 
	C277.338806,306.392212 300.546143,311.282104 323.327576,305.099274 
	C326.104980,304.345490 329.119904,303.657196 328.527771,300.703705 
	C328.213409,299.135895 324.756622,297.425690 322.564728,297.186249 
	C319.208466,296.819611 315.694977,297.515228 312.296295,298.059662 
	C310.358734,298.370087 308.516479,299.275360 305.807159,299.826324 
M729.500000,341.000000 
	C746.523315,340.599243 763.642395,342.379272 780.528015,338.947113 
	C783.886841,338.264404 787.107605,336.902557 790.392029,335.853882 
	C790.361267,335.087860 790.330505,334.321838 790.299744,333.555817 
	C787.839844,332.704773 785.435059,331.453705 782.905884,331.104736 
	C779.799194,330.676117 776.587585,330.949005 773.422974,331.007935 
	C738.286133,331.661957 703.150574,332.414703 668.011353,332.892426 
	C663.827942,332.949310 660.960022,334.048981 658.288635,338.655457 
	C661.422241,339.529388 664.017029,340.543365 666.703186,340.941986 
	C672.364258,341.782013 678.266052,339.526031 683.806091,343.531433 
	C685.811401,344.981201 690.664734,344.726135 692.823059,343.232544 
	C696.528931,340.668152 700.181458,341.047852 704.007446,341.018890 
	C712.171265,340.957092 720.335754,341.000000 729.500000,341.000000 
M621.385681,343.769226 
	C626.176880,343.846161 630.973206,343.812653 635.757629,344.035553 
	C639.478088,344.208893 642.952515,344.171844 644.794983,339.623291 
	C643.471802,338.543976 642.006836,336.329895 640.387939,336.210999 
	C634.464417,335.775909 628.479309,335.849609 622.541992,336.177551 
	C621.140381,336.255005 619.168945,337.838104 618.702454,339.165405 
	C618.350037,340.168121 619.977600,341.866791 621.385681,343.769226 
z"/>
<path fill="#8B5580" opacity="1.000000" stroke="none" 
	d="
M1201.000000,316.531372 
	C1192.616821,318.444519 1184.233521,319.888977 1175.305420,321.427368 
	C1175.290771,328.281921 1172.548950,335.218231 1167.041504,340.891846 
	C1164.890015,343.108307 1162.609985,345.576538 1159.881226,346.785706 
	C1151.541504,350.481354 1142.856201,353.393036 1134.492432,357.039093 
	C1125.546509,360.938995 1116.482910,360.019562 1107.152588,359.378967 
	C1102.430176,359.054749 1097.527832,361.330231 1092.709961,362.443542 
	C1092.082397,362.588562 1091.479126,362.835724 1090.854492,362.996490 
	C1083.053223,365.004059 1075.245239,366.985657 1067.450562,369.018036 
	C1065.193848,369.606476 1062.991577,370.829681 1060.733643,370.910858 
	C1052.406128,371.210327 1044.900635,368.801361 1037.613892,364.523956 
	C1030.288574,360.224030 1022.514160,356.802063 1013.679077,355.817505 
	C1008.432434,355.232819 1003.440979,352.345947 998.339294,350.481903 
	C997.056030,350.013031 995.818359,349.167572 994.511597,349.055481 
	C985.504517,348.282898 975.860413,349.455322 967.607666,346.587738 
	C953.418884,341.657471 938.985229,346.877197 925.335327,343.695435 
	C903.488708,338.603119 881.586731,342.591797 859.802734,340.899872 
	C854.053711,340.453369 848.336304,339.121124 843.736877,334.951416 
	C842.579956,333.902679 840.771912,333.386597 839.173340,333.042358 
	C831.664490,331.425415 823.877747,331.933289 816.495972,328.573242 
	C812.741699,326.864380 807.616943,328.384644 803.171814,327.897217 
	C800.286194,327.580811 797.528076,326.203522 794.674438,325.446564 
	C793.414917,325.112457 792.059998,325.019348 790.748230,325.018219 
	C763.587158,324.994934 736.426025,324.980591 709.265198,325.056030 
	C707.804688,325.060089 705.938416,325.443329 704.964600,326.380859 
	C702.190308,329.051758 699.655457,328.398682 698.092712,325.674530 
	C696.631775,323.127625 694.824524,322.950562 692.434448,322.975403 
	C685.603271,323.046509 678.770264,322.956360 671.939331,323.036591 
	C670.502869,323.053436 669.000793,323.333130 667.651428,323.826660 
	C663.353943,325.398407 663.376221,325.459412 658.870728,321.725067 
	C661.794983,317.616150 665.149780,314.792633 670.736084,314.927277 
	C681.227783,315.180176 691.731873,315.112061 702.226746,314.937561 
	C705.769470,314.878632 709.642456,316.324310 712.677490,312.446350 
	C713.543030,311.340454 716.787903,312.040131 718.943054,312.012787 
	C722.605896,311.966339 726.269775,312.000000 729.431702,312.000000 
	C735.111328,305.031219 740.714111,299.066284 750.302246,298.894073 
	C754.041138,298.826874 757.731628,297.311798 761.492493,296.916168 
	C766.564087,296.382629 771.707886,296.521759 776.774231,295.955750 
	C783.197449,295.238068 789.570557,294.079315 795.971680,293.154480 
	C800.990662,292.429321 806.527405,292.874634 810.934998,290.846222 
	C819.381165,286.959198 828.324341,288.939392 836.862122,287.076691 
	C841.843872,285.989777 847.015320,285.803650 852.059143,284.959595 
	C856.585938,284.202057 858.123901,287.464508 859.922974,290.387878 
	C860.805542,291.822021 861.344421,293.464294 862.090637,294.986938 
	C862.630920,296.089294 863.256714,297.149780 863.844482,298.228882 
	C862.381470,297.922089 860.926575,297.416382 859.453491,297.356323 
	C857.380249,297.271790 854.687744,296.756042 853.362244,297.810394 
	C851.606567,299.207001 850.915283,301.941650 849.684143,304.256226 
	C847.307922,305.149292 844.199402,306.788971 840.901855,307.388092 
	C838.771057,307.775238 836.370422,306.597321 834.077209,306.199066 
	C832.489258,305.923248 830.430786,305.048126 829.354370,305.705231 
	C824.560547,308.631470 818.389160,308.795502 813.968079,306.240845 
	C812.541626,305.416565 810.237244,306.111572 807.485352,306.111572 
	C807.650208,306.442810 807.354614,305.790405 807.009338,305.165436 
	C805.735168,302.859344 805.555969,299.499329 801.108215,302.517395 
	C798.796936,304.085815 794.725708,303.060791 791.187561,303.219025 
	C793.078003,308.630737 797.983643,308.459961 801.722412,308.798645 
	C814.094055,309.919434 826.548035,311.004822 838.934753,310.691803 
	C844.569458,310.549438 850.190002,307.269775 855.685486,305.082794 
	C859.492981,303.567566 863.924377,302.283020 866.558533,299.472290 
	C870.440247,295.330292 874.775269,296.136292 879.276245,295.990509 
	C888.757629,295.683411 898.238647,295.353241 907.715393,294.933533 
	C908.547729,294.896667 909.347717,294.131287 910.162720,293.704315 
	C910.034363,293.149780 909.906006,292.595276 909.777649,292.040741 
	C906.221924,292.299927 902.666199,292.559143 899.120300,292.817627 
	C899.438721,291.732361 899.728027,290.746155 900.423401,288.376038 
	C897.245483,289.226685 894.987244,289.952606 892.675476,290.403931 
	C891.309631,290.670532 889.645447,290.973450 888.484253,290.446808 
	C883.984985,288.406219 879.967407,287.650787 875.762634,291.442749 
	C872.816711,294.099579 869.540649,293.772125 867.499146,290.382111 
	C871.586914,281.298035 861.709656,285.872864 860.253845,281.639496 
	C863.858826,277.630615 867.322754,272.366425 872.086182,268.875488 
	C876.927368,265.327637 883.020081,263.461060 888.617065,260.976288 
	C901.871460,255.092056 915.974670,253.953262 930.515076,253.876831 
	C930.689392,252.632370 931.008301,251.529739 930.970947,250.439316 
	C930.636658,240.674347 935.596130,233.729340 941.912842,226.758316 
	C948.252808,219.761780 955.974304,216.450806 964.613159,214.843903 
	C974.501770,213.004547 984.123230,214.224197 993.882507,217.486908 
	C999.178955,219.257599 1001.727661,222.698288 1005.350098,225.960144 
	C1009.670227,229.850235 1015.826599,231.622055 1020.550842,235.161362 
	C1027.483154,240.354950 1035.711426,236.089371 1042.797119,239.089874 
	C1043.097656,239.217148 1043.382080,239.382324 1043.878540,239.633163 
	C1044.739746,245.535309 1033.216675,244.421265 1036.640625,251.862061 
	C1039.830078,250.201126 1043.301147,249.056702 1045.928467,246.889252 
	C1051.629272,242.186050 1057.285400,243.769089 1063.488770,245.425812 
	C1069.043457,246.909302 1073.482422,249.635971 1077.454224,253.571869 
	C1077.994873,254.107620 1079.329590,253.842041 1080.356812,253.954056 
	C1081.843994,250.304230 1080.973511,248.207031 1077.309448,246.548035 
	C1072.838989,244.523880 1068.992310,240.779007 1064.394043,239.467865 
	C1058.781494,237.867462 1052.668457,238.022446 1046.829346,237.424149 
	C1048.033447,232.773666 1047.284668,232.316895 1037.714355,231.888382 
	C1035.040771,228.900650 1032.704590,226.289856 1030.368286,223.679062 
	C1029.870483,223.906113 1029.372559,224.133163 1028.874756,224.360214 
	C1029.334717,226.765869 1029.794800,229.171539 1030.400513,232.338348 
	C1026.321655,230.572327 1021.774902,229.664307 1018.774719,227.008911 
	C1015.724121,224.308823 1014.066345,219.956512 1012.063049,216.187164 
	C1011.150330,214.469833 1010.796082,212.432327 1010.349487,210.502792 
	C1010.183899,209.787430 1010.219910,208.793488 1010.602356,208.217789 
	C1017.149841,198.361740 1024.975220,190.518524 1036.392944,185.593048 
	C1045.432739,181.693390 1054.254150,182.237595 1063.304932,182.056244 
	C1074.872437,181.824478 1074.667847,181.864822 1081.162231,171.863892 
	C1085.745972,164.805344 1092.803711,160.220825 1099.878418,156.032639 
	C1114.139771,147.589981 1129.837402,145.895020 1146.075562,146.950745 
	C1153.139160,147.410004 1156.890381,152.226883 1161.371216,157.301193 
	C1157.861450,159.297867 1154.634766,161.133469 1151.408203,162.969055 
	C1151.372437,163.289505 1151.336792,163.609970 1151.301025,163.930420 
	C1154.316650,163.732559 1157.338989,163.605453 1160.346436,163.321548 
	C1165.914795,162.795929 1171.562988,161.888290 1175.341797,167.581177 
	C1176.188232,168.856216 1176.958374,170.181915 1178.190430,172.174683 
	C1179.302124,171.424667 1181.660156,170.615967 1181.730225,169.642624 
	C1181.957275,166.485535 1182.258545,162.729492 1180.786011,160.233994 
	C1179.462402,157.990982 1175.869995,157.043304 1173.219238,155.635727 
	C1167.220703,152.450577 1161.185791,149.334045 1154.286865,145.730606 
	C1158.243774,141.633392 1159.684082,136.553619 1165.514038,134.821564 
	C1170.717773,133.275513 1175.384155,129.505356 1180.617310,128.579819 
	C1187.005249,127.450020 1193.892944,126.440598 1200.585693,129.994263 
	C1201.000000,162.354233 1201.000000,194.708450 1200.588867,227.536880 
	C1198.795288,228.666977 1197.429077,229.851028 1196.027710,229.894257 
	C1185.910034,230.206253 1176.016846,231.765900 1166.467651,235.091446 
	C1161.549072,236.804321 1155.571411,237.285278 1154.209106,244.455414 
	C1145.384399,241.544083 1139.350830,247.578674 1132.134033,249.875916 
	C1133.148926,250.777069 1133.954346,250.954773 1134.764526,250.979752 
	C1146.198364,251.332428 1157.634033,251.630753 1169.065552,252.045822 
	C1170.422729,252.095108 1171.757812,252.754913 1173.103271,253.131714 
	C1172.986572,253.507660 1172.869873,253.883621 1172.753052,254.259567 
	C1163.844116,256.821167 1154.935181,259.382782 1146.026123,261.944397 
	C1145.976196,262.540771 1145.926147,263.137115 1145.876099,263.733490 
	C1150.512207,264.363953 1155.148193,264.994385 1159.784302,265.624817 
	C1155.420288,268.241425 1150.861572,269.729675 1146.339478,271.321564 
	C1145.109619,271.754486 1144.003296,272.528442 1142.816284,273.095734 
	C1140.095825,274.395966 1137.476318,276.115814 1134.607056,276.851868 
	C1128.913696,278.312378 1123.105469,279.385406 1117.297119,280.323151 
	C1108.849365,281.687103 1100.333008,282.634064 1091.900024,284.076050 
	C1088.205933,284.707703 1084.645752,286.122894 1081.024780,287.182281 
	C1081.141479,287.695221 1081.258179,288.208130 1081.374756,288.721069 
	C1089.086548,288.721069 1096.834839,289.194031 1104.500732,288.600891 
	C1113.998291,287.866058 1123.420898,286.191742 1132.895386,285.090515 
	C1133.923950,284.971008 1135.097534,285.922821 1136.173462,286.440613 
	C1137.162842,286.916840 1138.055176,287.738831 1139.086670,287.961517 
	C1150.126099,290.344604 1160.064209,288.129181 1169.061890,281.119293 
	C1171.719238,279.048920 1174.428833,277.941895 1168.535400,276.361237 
	C1169.778076,275.822083 1170.740601,274.984222 1171.514038,275.132507 
	C1181.677734,277.081055 1191.547729,276.600220 1201.000000,272.000000 
	C1201.000000,286.687561 1201.000000,301.375122 1201.000000,316.531372 
M958.792419,323.078918 
	C954.954285,322.593628 948.984802,325.207031 950.851685,316.605286 
	C948.705444,317.653320 947.261475,318.358429 945.770447,319.086548 
	C944.300476,314.627075 939.586914,311.239807 935.309998,310.968903 
	C927.744385,310.489716 922.277466,314.356689 917.067566,319.257965 
	C920.312988,319.859955 923.323364,319.504333 926.343689,319.367004 
	C928.783508,319.256042 932.488831,318.397736 933.469727,319.614594 
	C938.325745,325.638794 945.553223,325.391205 952.052917,327.707581 
	C951.208679,328.172089 950.530457,328.838684 949.799377,328.902802 
	C941.228088,329.654236 932.655334,330.418579 924.068970,330.955383 
	C919.919922,331.214752 915.736084,331.131683 911.577820,330.962372 
	C908.060974,330.819214 906.999756,332.448456 907.321411,335.983185 
	C914.526733,335.983185 921.506592,336.004669 928.485779,335.952606 
	C929.250366,335.946930 930.038147,335.581482 930.769287,335.273773 
	C932.486389,334.551147 934.131348,333.258606 935.885498,333.103851 
	C939.687805,332.768433 943.774841,332.196533 947.307068,333.225677 
	C950.919067,334.277954 954.010986,333.159607 957.322571,332.980988 
	C962.340637,332.710205 967.427368,332.729858 972.343750,331.843323 
	C976.840942,331.032410 981.596130,329.928497 985.446777,327.629303 
	C992.553833,323.385681 999.983826,322.490540 1007.917053,322.962952 
	C1011.569519,323.180481 1015.283630,322.673676 1018.899963,323.094910 
	C1022.300476,323.490997 1025.609009,324.676178 1028.957886,325.514160 
	C1028.899658,325.999908 1028.841309,326.485657 1028.782959,326.971436 
	C1017.945190,328.519989 1007.107483,330.068573 996.269714,331.617157 
	C1009.010681,333.361481 1021.550842,332.798859 1034.567261,330.745422 
	C1033.245972,328.290558 1032.578247,327.049957 1032.229980,326.402863 
	C1037.195068,326.588257 1041.902466,326.968781 1046.588135,326.786804 
	C1047.682007,326.744324 1048.702026,324.792816 1049.755981,323.719604 
	C1046.137939,320.377716 1050.422852,320.300751 1051.696655,318.941803 
	C1052.258179,318.342773 1052.646240,317.581146 1053.401611,316.468048 
	C1048.901123,315.725525 1044.985962,315.079559 1040.639893,314.362518 
	C1041.647217,312.570831 1042.370361,311.284607 1043.093384,309.998352 
	C1042.910034,309.667999 1042.726685,309.337646 1042.543335,309.007294 
	C1039.500610,310.174591 1036.458008,311.341858 1033.415283,312.509125 
	C1035.378174,308.594391 1032.865723,306.937592 1030.742310,307.239868 
	C1026.107544,307.899689 1022.476196,306.061707 1018.520630,304.403076 
	C1016.908875,303.727295 1014.674316,304.690521 1012.741455,304.581879 
	C1010.923584,304.479706 1008.487427,304.567841 1007.446533,303.488678 
	C1004.382446,300.312103 997.585938,298.980621 994.234802,301.646362 
	C992.398743,303.106873 989.977783,304.535248 989.230896,306.511200 
	C987.803345,310.288116 989.663879,313.021759 994.009583,313.498627 
	C983.712097,323.261017 971.598022,326.940369 957.604248,327.748199 
	C958.487305,325.766357 959.026306,324.556641 958.792419,323.078918 
M1065.160156,215.381577 
	C1067.573364,214.908859 1070.179565,214.867020 1072.365479,213.887115 
	C1080.784058,210.113297 1089.477783,210.525528 1098.246826,211.708008 
	C1101.944946,212.206711 1107.241943,207.258453 1105.717163,203.849518 
	C1103.690063,199.317703 1106.678955,197.632370 1109.259644,196.096924 
	C1112.337646,194.265701 1116.028198,193.500549 1119.309448,191.965820 
	C1123.757935,189.885101 1126.274536,194.755692 1130.206177,194.720413 
	C1132.036255,194.703979 1134.733154,195.333496 1135.558594,196.619324 
	C1138.476685,201.165100 1140.285522,198.868073 1142.237305,195.757919 
	C1144.296021,197.373566 1146.145996,198.825317 1148.417603,200.607971 
	C1150.204712,193.829041 1144.007935,192.787659 1141.684937,189.074753 
	C1145.351562,185.938675 1152.305542,187.415482 1152.875488,179.523941 
	C1149.601196,180.203888 1146.544189,180.544708 1143.695312,181.503616 
	C1140.013916,182.742752 1136.494019,185.766037 1132.912842,185.753021 
	C1122.374023,185.714706 1112.101685,186.495056 1102.122192,190.054474 
	C1098.124023,191.480545 1094.156250,192.781509 1092.668579,197.467209 
	C1091.064819,202.518326 1087.247803,203.595016 1082.431641,203.028442 
	C1074.849243,202.136490 1068.110107,205.343170 1061.460449,208.132797 
	C1053.705811,211.386017 1050.573242,216.790375 1051.510132,224.258942 
	C1053.013550,223.654755 1054.528076,223.335403 1055.696533,222.520126 
	C1058.711182,220.416702 1061.572998,218.094101 1065.160156,215.381577 
M952.655151,254.960312 
	C955.130310,253.974075 957.529541,252.670319 960.093872,252.056946 
	C970.829529,249.489059 981.538696,247.983246 991.893982,253.770721 
	C992.892578,254.328842 994.542175,253.722275 995.889587,253.656357 
	C996.072021,253.105591 996.254456,252.554810 996.436951,252.004044 
	C992.812378,250.097778 989.203064,246.664429 985.559875,246.628250 
	C979.459229,246.567627 975.818054,243.766785 972.400818,239.629761 
	C972.295654,239.502396 972.209961,239.355911 972.091736,239.242950 
	C969.626404,236.887909 967.398193,238.267258 967.210449,240.656738 
	C966.872498,244.958405 963.787537,245.530457 960.957581,246.976868 
	C957.612854,248.686401 954.446350,250.752121 951.281738,252.786530 
	C951.104919,252.900208 951.648621,254.134491 952.655151,254.960312 
z"/>
<path fill="#000000" opacity="1.000000" stroke="none" 
	d="
M1201.000000,271.531342 
	C1191.547729,276.600220 1181.677734,277.081055 1171.514038,275.132507 
	C1170.740601,274.984222 1169.778076,275.822083 1168.535400,276.361237 
	C1174.428833,277.941895 1171.719238,279.048920 1169.061890,281.119293 
	C1160.064209,288.129181 1150.126099,290.344604 1139.086670,287.961517 
	C1138.055176,287.738831 1137.162842,286.916840 1136.173462,286.440613 
	C1135.097534,285.922821 1133.923950,284.971008 1132.895386,285.090515 
	C1123.420898,286.191742 1113.998291,287.866058 1104.500732,288.600891 
	C1096.834839,289.194031 1089.086548,288.721069 1081.374756,288.721069 
	C1081.258179,288.208130 1081.141479,287.695221 1081.024780,287.182281 
	C1084.645752,286.122894 1088.205933,284.707703 1091.900024,284.076050 
	C1100.333008,282.634064 1108.849365,281.687103 1117.297119,280.323151 
	C1123.105469,279.385406 1128.913696,278.312378 1134.607056,276.851868 
	C1137.476318,276.115814 1140.095825,274.395966 1142.816284,273.095734 
	C1144.003296,272.528442 1145.109619,271.754486 1146.339478,271.321564 
	C1150.861572,269.729675 1155.420288,268.241425 1159.784302,265.624817 
	C1155.148193,264.994385 1150.512207,264.363953 1145.876099,263.733490 
	C1145.926147,263.137115 1145.976196,262.540771 1146.026123,261.944397 
	C1154.935181,259.382782 1163.844116,256.821167 1172.753052,254.259567 
	C1172.869873,253.883621 1172.986572,253.507660 1173.103271,253.131714 
	C1171.757812,252.754913 1170.422729,252.095108 1169.065552,252.045822 
	C1157.634033,251.630753 1146.198364,251.332428 1134.764526,250.979752 
	C1133.954346,250.954773 1133.148926,250.777069 1132.134033,249.875916 
	C1139.350830,247.578674 1145.384399,241.544083 1154.209106,244.455414 
	C1155.571411,237.285278 1161.549072,236.804321 1166.467651,235.091446 
	C1176.016846,231.765900 1185.910034,230.206253 1196.027710,229.894257 
	C1197.429077,229.851028 1198.795288,228.666977 1200.588867,228.005539 
	C1201.000000,242.354233 1201.000000,256.708466 1201.000000,271.531342 
z"/>
<path fill="#000000" opacity="1.000000" stroke="none" 
	d="
M1.000000,305.000000 
	C1.000000,301.307098 1.000000,297.614166 1.335723,293.456543 
	C2.114731,292.939026 2.558015,292.886200 3.301740,292.989563 
	C4.123678,294.102203 4.645176,295.058624 5.156472,296.257233 
	C5.146270,296.499451 5.486320,296.845062 5.486320,296.845062 
	C5.486320,296.845062 5.971031,296.833344 6.272010,296.974945 
	C7.437549,297.749359 8.302108,298.382202 9.156469,299.257233 
	C9.146271,299.499451 9.486323,299.845062 9.486323,299.845062 
	C9.486323,299.845062 9.971037,299.833344 10.372920,299.918396 
	C14.188234,299.946777 17.601665,299.890045 21.257309,299.843506 
	C21.849014,299.675171 21.960285,299.400238 22.098202,298.675934 
	C28.507479,298.220337 34.652378,298.054321 40.795616,298.101959 
	C41.497845,298.107422 42.190800,299.308563 42.614197,300.117737 
	C42.893814,301.464569 43.447292,302.648956 44.227318,304.119202 
	C42.692261,304.603363 40.932007,304.959381 39.168816,304.974579 
	C27.112741,305.078613 15.056055,305.111084 2.670349,305.102234 
	C1.894089,305.025238 1.447044,305.012634 1.000000,305.000000 
z"/>
<path fill="#8B5580" opacity="1.000000" stroke="none" 
	d="
M3.001299,292.833344 
	C2.558015,292.886200 2.114731,292.939026 1.335723,292.995911 
	C1.000000,269.312439 1.000000,245.624878 1.000000,221.468658 
	C1.447323,221.012604 1.894647,221.025208 2.671271,221.560303 
	C3.000814,245.666321 3.001056,269.249817 3.001299,292.833344 
z"/>
<path fill="#8B5580" opacity="1.000000" stroke="none" 
	d="
M1.000000,305.444153 
	C1.447044,305.012634 1.894089,305.025238 2.670414,305.527802 
	C2.999651,308.289612 2.999609,310.561493 2.999566,312.833344 
	C2.556667,312.886169 2.113769,312.939026 1.335435,312.995911 
	C1.000000,310.629425 1.000000,308.258881 1.000000,305.444153 
z"/>
<path fill="#8B5580" opacity="1.000000" stroke="none" 
	d="
M3.464359,312.897827 
	C2.999609,310.561493 2.999651,308.289612 2.999630,305.592224 
	C15.056055,305.111084 27.112741,305.078613 39.168816,304.974579 
	C40.932007,304.959381 42.692261,304.603363 44.193871,303.779999 
	C43.585270,302.088409 43.236664,301.021851 42.888054,299.955292 
	C42.190800,299.308563 41.497845,298.107422 40.795616,298.101959 
	C34.652378,298.054321 28.507479,298.220337 21.956104,298.804108 
	C21.363266,299.460297 21.185253,299.643005 21.015097,299.833313 
	C17.601665,299.890045 14.188234,299.946777 10.244759,299.776306 
	C9.539678,299.363251 9.356995,299.185211 9.166667,299.015015 
	C8.302108,298.382202 7.437549,297.749359 6.143850,296.832825 
	C5.539676,296.363251 5.356994,296.185211 5.166671,296.015015 
	C4.645176,295.058624 4.123678,294.102203 3.301739,292.989563 
	C3.001056,269.249817 3.000814,245.666321 3.000699,221.624725 
	C6.042554,220.790405 9.084284,220.414169 12.713565,220.292175 
	C14.200719,220.419830 15.100320,220.293243 15.999922,220.166656 
	C18.710808,220.123718 21.421696,220.080780 24.708935,220.244354 
	C25.460325,220.636749 25.643009,220.814774 25.833334,220.984970 
	C25.636917,224.119736 25.440500,227.254486 25.220432,230.766739 
	C26.914938,230.845215 28.479019,230.917664 30.701366,230.985184 
	C31.359631,230.980255 31.833334,231.000458 31.833332,231.000458 
	C33.150894,231.865097 34.468452,232.729721 36.200703,233.130371 
	C37.058575,232.077515 37.501759,231.488632 37.944942,230.899750 
	C37.944939,230.899750 37.957874,230.959991 38.233406,230.776260 
	C39.658627,227.356689 40.808315,224.120834 41.958004,220.884979 
	C42.917126,220.441269 43.876244,219.997543 45.143112,219.134277 
	C45.636719,218.539688 45.814735,218.356995 45.984905,218.166656 
	C50.821800,217.441315 55.674866,216.803375 60.481464,215.914246 
	C61.402485,215.743866 62.140656,214.584991 63.086456,213.242889 
	C63.473064,212.124619 63.736401,211.645630 64.398247,211.102478 
	C65.869408,211.081070 66.942070,211.123871 68.145401,211.308578 
	C68.454361,211.636139 68.640114,211.813965 69.032394,212.293030 
	C70.543190,212.396469 71.854927,212.190872 73.308586,211.854599 
	C73.636154,211.545639 73.813995,211.359894 74.305862,211.092331 
	C75.713440,210.331360 76.799187,209.644699 78.138702,208.804840 
	C78.910240,208.067444 79.428017,207.483261 79.952560,206.929047 
	C79.959320,206.959030 79.899445,206.945190 80.067055,206.850189 
	C80.211998,206.170120 80.189331,205.585068 80.083221,204.652924 
	C78.944305,204.203903 77.888817,204.101944 76.612076,204.141937 
	C75.927193,204.800385 75.463562,205.316864 74.565094,205.897751 
	C72.081924,205.919220 70.033600,205.876282 67.854599,205.691422 
	C67.545639,205.363861 67.359886,205.186035 67.079445,204.648178 
	C63.919754,204.073349 63.305172,197.725525 58.691425,201.145401 
	C58.363880,201.454361 58.186054,201.640106 57.719902,202.013580 
	C57.620770,203.184769 57.817776,204.175705 58.145447,205.308578 
	C58.454380,205.636154 58.640118,205.813980 58.985950,206.294464 
	C59.838276,207.458847 60.537991,208.312759 60.854050,209.487091 
	C59.964199,210.241013 59.458008,210.674545 58.951813,211.108063 
	C53.421803,211.179947 47.891788,211.251816 41.955460,211.804474 
	C41.363281,212.460312 41.185265,212.643005 41.015095,212.833344 
	C36.976250,213.229523 32.937405,213.625702 28.348091,213.695679 
	C27.846407,210.546509 27.895191,207.723541 27.943977,204.900558 
	C27.943975,204.900558 27.957270,204.960663 28.208445,204.775513 
	C29.292416,203.021912 30.125212,201.453445 30.958004,199.884995 
	C31.426992,199.314285 31.895981,198.743576 32.879688,197.910675 
	C33.915623,197.060623 34.436844,196.472778 34.958069,195.884933 
	C36.576180,195.115280 38.194294,194.345627 40.131630,193.145355 
	C40.636719,192.539688 40.814735,192.356995 40.984905,192.166656 
	C42.583065,191.641907 44.181221,191.117142 46.115120,190.153564 
	C46.636719,189.539688 46.814735,189.356995 46.984905,189.166656 
	C47.560616,188.999893 48.136326,188.833145 48.856064,188.083237 
	C49.014359,187.295395 49.028633,187.090714 49.042908,186.886032 
	C51.257828,186.806717 53.472748,186.727402 56.069260,186.181396 
	C56.636719,185.539688 56.814735,185.356995 56.984905,185.166656 
	C58.345753,185.107971 59.706600,185.049271 61.783623,184.977036 
	C62.704617,184.961456 62.909431,184.959427 63.114243,184.957413 
	C64.388893,184.083572 65.663544,183.209747 66.938194,182.335907 
	C65.718681,181.558884 64.587814,180.476318 63.255054,180.089691 
	C61.887012,179.692825 60.321644,179.976196 58.278675,179.755508 
	C57.539677,179.363251 57.356991,179.185226 57.166664,179.015015 
	C55.074059,178.684586 52.981453,178.354141 50.343567,177.723846 
	C49.512657,176.250412 49.227032,175.076843 48.941410,173.903275 
	C48.941410,173.903275 48.957043,173.962570 49.223946,173.790039 
	C50.307915,172.045868 51.124985,170.474228 51.942062,168.902603 
	C51.942062,168.902603 51.956722,168.962189 52.188179,168.773514 
	C52.932278,167.685059 53.444920,166.785278 53.957561,165.885498 
	C55.730633,164.337692 57.503700,162.789886 59.830704,160.970703 
	C60.923069,160.188461 61.461502,159.677551 61.999935,159.166656 
	C63.268475,158.635971 64.537018,158.105270 66.128220,157.144653 
	C66.636742,156.539658 66.814766,156.356979 66.984955,156.166656 
	C70.031136,156.123734 73.077324,156.080826 76.704384,156.244385 
	C77.460312,156.636749 77.642998,156.814774 77.833336,156.984970 
	C81.602295,157.669296 85.371254,158.353622 89.712738,159.244415 
	C90.460312,159.636749 90.642998,159.814774 90.833336,159.984970 
	C93.316925,160.992981 95.800514,162.000977 98.784683,163.229919 
	C99.460312,163.636749 99.642998,163.814774 99.833336,163.984970 
	C100.367683,164.619583 100.902031,165.254196 101.895340,166.256378 
	C103.180656,167.082901 104.006996,167.541840 104.833336,168.000778 
	C105.039818,168.616104 105.246292,169.231415 105.869019,170.148804 
	C106.460312,170.636749 106.642998,170.814774 106.833336,170.984970 
	C106.876129,172.065338 106.918922,173.145721 106.755417,174.755676 
	C106.363258,175.460342 106.185234,175.643021 106.015045,175.833344 
	C104.934677,175.876114 103.854317,175.918915 102.244339,175.755417 
	C101.539688,175.363251 101.357002,175.185226 101.166664,175.015030 
	C96.588432,173.255463 91.982155,172.449249 85.939606,175.181763 
	C87.970146,176.065079 89.086037,176.550491 90.600647,177.467957 
	C90.999313,178.877762 90.999268,179.855560 90.999222,180.833344 
	C88.567604,182.780655 86.135979,184.727966 83.154976,187.013397 
	C82.084373,187.939377 81.563156,188.527222 81.041931,189.115067 
	C81.171448,190.013794 81.300972,190.912506 81.857880,192.131042 
	C82.460312,192.636749 82.642998,192.814774 82.833336,192.984970 
	C83.509308,193.166077 84.185272,193.347198 85.156059,193.121521 
	C85.636742,192.539658 85.814766,192.356979 85.984955,192.166656 
	C86.442413,191.836563 86.899872,191.506470 87.875862,190.912430 
	C88.915619,190.060623 89.436844,189.472778 89.958069,188.884933 
	C92.221069,188.127197 94.484070,187.369461 97.098969,186.163223 
	C97.636742,185.539658 97.814766,185.356979 97.984955,185.166656 
	C99.042549,185.103256 100.100143,185.039871 101.758148,185.009186 
	C102.920540,184.990524 103.482536,184.939178 104.044525,184.887848 
	C104.487572,184.936020 104.930611,184.984192 105.829460,185.241608 
	C106.460312,185.636749 106.642998,185.814774 106.833336,185.984970 
	C107.471497,186.437897 108.109650,186.890823 109.055061,187.870178 
	C110.185982,188.931351 111.009659,189.466064 111.833336,190.000778 
	C113.362747,191.936813 114.892166,193.872849 116.853424,196.129883 
	C117.460312,196.636749 117.642998,196.814774 117.833336,196.984970 
	C118.766060,203.857681 124.633072,206.070160 131.706970,206.970566 
	C133.165314,207.156189 134.664139,207.023788 136.714783,207.244400 
	C137.460312,207.636734 137.643005,207.814789 137.833344,207.984985 
	C139.146881,208.188095 140.460403,208.391190 142.112396,208.154510 
	C142.636734,207.539688 142.814789,207.356995 142.984985,207.166656 
	C143.915741,206.831284 144.846497,206.495895 145.777252,206.160522 
	C145.409012,205.774750 145.040756,205.388977 144.193634,204.776184 
	C143.539688,204.363266 143.356995,204.185211 143.166656,204.015015 
	C142.629745,203.695663 142.057373,203.052078 141.561295,203.106293 
	C135.460922,203.773117 129.832108,202.533249 124.339386,198.585464 
	C124.320602,194.950134 124.639305,191.917557 124.958008,188.884995 
	C132.403198,185.629974 139.827927,186.301086 147.763672,189.225967 
	C148.460312,189.636734 148.643005,189.814789 148.833344,189.984985 
	C149.676865,190.661880 150.520370,191.338776 151.824570,192.233276 
	C152.460312,192.636734 152.643005,192.814789 152.833344,192.984985 
	C153.373825,193.622650 153.914307,194.260315 154.870026,195.174408 
	C155.460312,195.636734 155.643005,195.814789 155.833344,195.984985 
	C156.663651,197.323776 157.493958,198.662582 158.804749,200.226105 
	C159.460312,200.636734 159.643005,200.814789 159.833344,200.984985 
	C160.363663,202.257996 160.893982,203.530991 161.854797,205.127411 
	C162.460312,205.636734 162.643005,205.814789 162.833344,205.984985 
	C163.187180,208.360779 164.343109,210.976624 163.719574,213.059875 
	C162.594437,216.819061 164.414581,216.898224 167.056107,217.023117 
	C170.134232,217.168655 173.202896,217.513885 176.780457,218.111664 
	C177.460312,218.636734 177.643005,218.814789 177.833344,218.984985 
	C181.292999,219.654343 184.752670,220.323685 188.748795,221.221939 
	C189.460312,221.636734 189.643005,221.814789 189.833344,221.984985 
	C192.340027,222.933456 194.846710,223.881912 197.819336,225.140610 
	C198.460312,225.636734 198.643005,225.814789 198.833344,225.984985 
	C203.285187,227.002548 207.737015,228.020111 212.737061,229.244263 
	C213.460312,229.636734 213.643005,229.814789 213.833344,229.984985 
	C215.002792,230.661423 216.172241,231.337860 217.813477,232.232574 
	C218.460312,232.636734 218.643005,232.814789 218.833344,232.984985 
	C220.357758,234.582626 221.882172,236.180267 223.845917,238.114380 
	C224.460312,238.636734 224.643005,238.814789 224.833344,238.984985 
	C225.342712,241.557831 225.852081,244.130692 226.823364,247.077194 
	C227.460312,247.636734 227.643005,247.814789 227.833344,247.984985 
	C229.158768,248.514496 230.484192,249.043991 232.253082,249.113449 
	C233.445648,247.402496 234.194748,246.151596 234.943863,244.900696 
	C234.943863,244.900696 234.958405,244.960297 235.177490,244.825211 
	C235.931046,244.182297 236.465530,243.674469 237.000015,243.166656 
	C241.367874,243.123718 245.735733,243.080765 250.694427,243.244339 
	C251.460312,243.636734 251.643005,243.814789 251.833344,243.984985 
	C254.939224,244.669327 258.045105,245.353668 261.718140,246.244431 
	C262.460297,246.636734 262.643005,246.814758 262.833344,246.984955 
	C263.361511,247.944916 263.889648,248.904892 264.851532,250.157852 
	C265.460297,250.636734 265.643005,250.814758 265.833344,250.984955 
	C266.211060,256.868073 266.211060,256.868073 270.803284,255.991699 
	C271.923126,255.188461 272.461578,254.677567 273.000000,254.166672 
	C277.367859,254.123718 281.735748,254.080780 286.694427,254.244354 
	C287.460297,254.636734 287.643005,254.814758 287.833344,254.984955 
	C291.942596,256.002625 296.051849,257.020294 300.723175,258.244415 
	C301.460297,258.636719 301.643005,258.814758 301.833344,258.984955 
	C303.388641,259.654785 305.010468,261.003082 306.485931,260.858459 
	C309.954102,260.518585 311.862854,262.139313 313.827332,265.136169 
	C314.460297,265.636719 314.643005,265.814758 314.833344,265.984955 
	C319.618347,267.118408 324.360992,268.651886 328.843414,264.863312 
	C331.158112,262.906891 341.899109,264.031555 343.963684,266.758179 
	C344.007202,267.920624 344.058289,268.483795 344.109406,269.046967 
	C343.301239,273.672516 339.628571,271.471130 337.096802,271.990082 
	C334.800293,272.460785 332.504486,272.934784 329.878754,273.846313 
	C329.363281,274.460297 329.185242,274.643005 329.015045,274.833374 
	C320.644775,274.876343 312.274536,274.919312 303.309509,274.755737 
	C302.539703,274.363281 302.356995,274.185242 302.166656,274.015045 
	C300.524231,273.472595 298.881805,272.930176 296.810913,272.862427 
	C295.935577,273.929749 295.488739,274.522400 295.041931,275.115051 
	C294.082825,275.558777 293.123718,276.002472 291.856873,276.865723 
	C291.363281,277.460297 291.185242,277.643005 291.015045,277.833344 
	C287.909332,277.958191 284.803619,278.083038 281.206329,277.878510 
	C280.539703,277.363281 280.356995,277.185242 280.166656,277.015045 
	C279.174011,276.820587 278.181335,276.626129 276.868896,276.858459 
	C276.363281,277.460297 276.185242,277.643005 276.015045,277.833344 
	C274.081146,278.693054 272.147247,279.552765 269.881226,280.848877 
	C269.363281,281.460297 269.185242,281.643005 269.015045,281.833313 
	C263.444489,282.674561 257.873962,283.515808 251.926270,284.821136 
	C251.363266,285.460297 251.185242,285.643005 251.015045,285.833344 
	C246.248749,285.962646 241.482437,286.091980 236.215454,285.885193 
	C235.539703,285.363251 235.357010,285.185211 235.166656,285.015015 
	C234.490692,284.833923 233.814728,284.652802 232.843964,284.878479 
	C232.363266,285.460297 232.185242,285.643005 232.015045,285.833344 
	C226.945633,286.222229 221.876816,286.619141 216.806488,286.995636 
	C214.993820,287.130249 213.177475,287.215393 210.955978,287.804169 
	C210.363266,288.460297 210.185242,288.643005 210.015045,288.833344 
	C207.606827,289.222198 205.202423,289.916595 202.789719,289.946716 
	C192.671387,290.072906 182.549591,289.926636 172.431473,290.061584 
	C170.376373,290.088959 168.331757,290.901886 165.915726,291.818970 
	C165.363266,292.460297 165.185242,292.643005 165.015045,292.833374 
	C152.644791,292.876343 140.274536,292.919312 127.309502,292.755737 
	C126.539703,292.363251 126.357010,292.185211 126.166664,292.015015 
	C120.666283,291.072052 115.196899,289.769470 109.656403,289.291748 
	C104.575470,288.853729 99.417816,289.305603 93.921547,289.825317 
	C93.363243,290.460297 93.185211,290.643005 93.015045,290.833344 
	C91.409706,293.710938 89.804375,296.588531 87.779396,300.218353 
	C119.690109,300.218353 152.094238,300.218353 184.987640,300.810822 
	C186.261993,301.819550 187.047073,302.235809 187.832123,302.652069 
	C187.813110,303.274292 187.794098,303.896515 187.185669,304.913879 
	C186.078186,305.910980 185.560104,306.512970 185.042038,307.114929 
	C185.327972,311.304169 183.506104,313.124512 179.184265,313.052582 
	C169.027695,312.883484 158.578369,314.478729 148.787430,312.578369 
	C138.829651,310.645599 128.940399,310.274445 119.313156,311.259125 
	C80.863312,315.191925 42.372742,311.778473 3.464359,312.897827 
M253.813141,269.465302 
	C258.638184,272.846924 269.577179,271.432739 270.479462,266.833344 
	C266.258118,266.833344 262.129272,266.833344 257.851807,266.269653 
	C257.290070,265.513092 256.728363,264.756500 255.993927,263.276306 
	C254.991043,262.795319 253.988144,262.314331 252.725113,261.548309 
	C252.547211,261.362183 252.361053,261.184753 251.919571,260.491272 
	C251.608139,260.271942 251.296707,260.052643 250.725113,259.548309 
	C250.547211,259.362183 250.361053,259.184753 249.651154,258.327057 
	C246.045212,258.556274 242.439285,258.785461 238.549515,259.276062 
	C238.363861,259.454346 238.186035,259.640106 237.358032,260.164276 
	C235.516479,261.109528 233.674911,262.054749 231.390839,263.283905 
	C230.927200,263.800385 230.463562,264.316864 229.482056,265.084229 
	C229.265823,265.394379 229.049591,265.704529 228.549515,266.276062 
	C228.363861,266.454346 228.186035,266.640106 227.140961,266.962311 
	C220.157715,267.470245 213.174469,267.978149 206.044403,268.496765 
	C208.252411,272.709686 220.209473,273.303162 229.450485,269.723938 
	C229.636139,269.545654 229.813965,269.359894 230.921829,269.037659 
	C237.909821,269.010895 244.897797,268.984100 252.527313,268.983154 
	C252.741165,268.991669 252.955002,269.000153 253.813141,269.465302 
M33.885895,270.892365 
	C33.658695,269.937225 33.389236,268.139587 33.210392,268.148529 
	C26.353281,268.492493 23.539570,261.934326 18.360638,259.377228 
	C15.365510,257.898376 13.298268,257.317200 10.731213,259.415619 
	C6.924621,262.527283 6.950889,265.181976 10.624640,270.462341 
	C9.830750,271.933716 9.132787,273.227295 8.434832,274.520874 
	C9.803074,274.117004 11.179466,273.738434 12.537149,273.301697 
	C13.770682,272.904938 14.960841,272.163300 16.209970,272.061188 
	C21.802334,271.604004 27.408943,271.321075 33.885895,270.892365 
z"/>
<path fill="#8B5580" opacity="1.000000" stroke="none" 
	d="
M420.614929,296.960785 
	C425.895233,296.882233 430.506195,296.972168 435.221191,294.411255 
	C438.194794,292.796112 442.762390,294.374298 446.538635,293.905243 
	C450.275909,293.441071 453.911224,292.178497 457.604889,291.325195 
	C458.562317,291.104065 459.570587,291.019104 460.555939,291.015961 
	C468.219116,290.991486 475.886383,291.147705 483.543823,290.936737 
	C487.010162,290.841248 488.731049,293.029694 488.723938,295.507965 
	C488.716827,297.980865 487.000946,300.310730 483.524353,300.051208 
	C480.211029,299.803864 476.857208,299.854553 473.534180,300.026123 
	C461.829834,300.630371 449.760284,299.807617 438.550903,302.514435 
	C430.037811,304.570190 421.460358,303.170685 413.501007,305.283600 
	C392.544464,310.846832 371.407166,306.488037 350.424072,307.892731 
	C348.976410,307.989624 347.281891,306.782318 345.955536,305.829010 
	C342.887695,303.624054 339.975403,301.202667 337.022308,298.886505 
	C341.541504,290.876099 350.642914,291.403046 354.109833,298.610352 
	C354.445007,299.307129 356.301117,300.097809 356.720123,299.803619 
	C362.132446,296.003754 370.219452,298.465576 374.645203,291.589325 
	C375.819519,289.764801 380.989471,290.874908 384.025391,289.795441 
	C387.992279,288.384949 388.997711,291.537537 391.423706,292.916901 
	C393.956329,294.356903 398.483856,293.862732 401.432678,292.584351 
	C404.858582,291.099060 410.010101,290.274384 413.380341,292.591736 
	C415.595245,294.114685 417.909698,295.492798 420.614929,296.960785 
z"/>
<path fill="#8B5580" opacity="1.000000" stroke="none" 
	d="
M306.219238,299.869568 
	C308.516479,299.275360 310.358734,298.370087 312.296295,298.059662 
	C315.694977,297.515228 319.208466,296.819611 322.564728,297.186249 
	C324.756622,297.425690 328.213409,299.135895 328.527771,300.703705 
	C329.119904,303.657196 326.104980,304.345490 323.327576,305.099274 
	C300.546143,311.282104 277.338806,306.392212 254.406738,308.081482 
	C251.489502,308.296387 248.699051,309.970581 245.769943,310.347290 
	C241.279846,310.924835 236.605682,312.748138 232.357498,309.106903 
	C231.385971,308.274139 229.643433,308.069366 228.248550,308.048096 
	C221.427963,307.944244 214.598892,307.827545 207.785126,308.066650 
	C203.875061,308.203827 200.721603,307.559479 198.939346,303.262634 
	C202.740097,299.826660 206.061508,296.498688 212.410721,296.790558 
	C226.856476,297.454681 241.358643,297.211487 255.826935,296.871613 
	C260.188873,296.769165 264.535919,294.278595 268.852783,294.384796 
	C277.307281,294.592865 286.161407,291.317383 294.210663,296.642883 
	C295.084167,297.220795 296.484619,297.226837 297.616058,297.147369 
	C300.744171,296.927704 303.953644,296.229523 306.219238,299.869568 
z"/>
<path fill="#8B5580" opacity="1.000000" stroke="none" 
	d="
M729.000000,341.000000 
	C720.335754,341.000000 712.171265,340.957092 704.007446,341.018890 
	C700.181458,341.047852 696.528931,340.668152 692.823059,343.232544 
	C690.664734,344.726135 685.811401,344.981201 683.806091,343.531433 
	C678.266052,339.526031 672.364258,341.782013 666.703186,340.941986 
	C664.017029,340.543365 661.422241,339.529388 658.288635,338.655457 
	C660.960022,334.048981 663.827942,332.949310 668.011353,332.892426 
	C703.150574,332.414703 738.286133,331.661957 773.422974,331.007935 
	C776.587585,330.949005 779.799194,330.676117 782.905884,331.104736 
	C785.435059,331.453705 787.839844,332.704773 790.299744,333.555817 
	C790.330505,334.321838 790.361267,335.087860 790.392029,335.853882 
	C787.107605,336.902557 783.886841,338.264404 780.528015,338.947113 
	C763.642395,342.379272 746.523315,340.599243 729.000000,341.000000 
z"/>
<path fill="#8B5580" opacity="1.000000" stroke="none" 
	d="
M621.054810,343.512482 
	C619.977600,341.866791 618.350037,340.168121 618.702454,339.165405 
	C619.168945,337.838104 621.140381,336.255005 622.541992,336.177551 
	C628.479309,335.849609 634.464417,335.775909 640.387939,336.210999 
	C642.006836,336.329895 643.471802,338.543976 644.794983,339.623291 
	C642.952515,344.171844 639.478088,344.208893 635.757629,344.035553 
	C630.973206,343.812653 626.176880,343.846161 621.054810,343.512482 
z"/>
<path fill="#8B5580" opacity="1.000000" stroke="none" 
	d="
M27.560808,204.968597 
	C27.895191,207.723541 27.846407,210.546509 27.924622,213.736877 
	C27.342579,214.313309 26.042362,214.772827 26.009516,214.695312 
	C24.561018,211.276947 23.935650,207.903137 27.560808,204.968597 
z"/>
<path fill="#8B5580" opacity="1.000000" stroke="none" 
	d="
M41.578568,220.956665 
	C40.808315,224.120834 39.658627,227.356689 38.203259,230.769897 
	C38.998096,227.640961 40.098610,224.334656 41.578568,220.956665 
z"/>
<path fill="#8B5580" opacity="1.000000" stroke="none" 
	d="
M124.576767,188.957382 
	C124.639305,191.917557 124.320602,194.950134 124.001343,198.408020 
	C120.550285,195.495651 121.323013,192.241852 124.576767,188.957382 
z"/>
<path fill="#8B5580" opacity="1.000000" stroke="none" 
	d="
M48.542095,173.979202 
	C49.227032,175.076843 49.512657,176.250412 49.924984,177.764099 
	C49.514816,179.132797 48.977947,180.161392 48.441078,181.189972 
	C47.842175,180.963821 47.243275,180.737656 46.644371,180.511490 
	C47.143841,178.359375 47.643311,176.207245 48.542095,173.979202 
z"/>
<path fill="#8B5580" opacity="1.000000" stroke="none" 
	d="
M58.999115,211.476196 
	C59.458008,210.674545 59.964199,210.241013 61.128601,209.574860 
	C62.524456,209.950348 63.262100,210.558502 63.999741,211.166656 
	C63.736401,211.645630 63.473064,212.124619 63.053177,212.828018 
	C61.613224,212.649734 60.329819,212.247040 58.999115,211.476196 
z"/>
<path fill="#8B5580" opacity="1.000000" stroke="none" 
	d="
M91.345543,180.776566 
	C90.999268,179.855560 90.999313,178.877762 90.999298,177.533325 
	C92.311409,177.641998 93.623596,178.117355 95.793587,178.903442 
	C93.874573,179.753235 92.783218,180.236511 91.345543,180.776566 
z"/>
<path fill="#8B5580" opacity="1.000000" stroke="none" 
	d="
M30.597755,199.950806 
	C30.125212,201.453445 29.292416,203.021912 28.178350,204.769043 
	C28.677223,203.304016 29.457365,201.660324 30.597755,199.950806 
z"/>
<path fill="#8B5580" opacity="1.000000" stroke="none" 
	d="
M51.581955,168.962646 
	C51.124985,170.474228 50.307915,172.045868 49.194283,173.782242 
	C49.672432,172.305557 50.447140,170.664108 51.581955,168.962646 
z"/>
<path fill="#8B5580" opacity="1.000000" stroke="none" 
	d="
M234.594666,244.958527 
	C234.194748,246.151596 233.445648,247.402496 232.431595,248.826370 
	C232.859589,247.671677 233.552521,246.344009 234.594666,244.958527 
z"/>
<path fill="#8B5580" opacity="1.000000" stroke="none" 
	d="
M344.436951,269.010834 
	C344.058289,268.483795 344.007202,267.920624 344.029663,267.152466 
	C344.678284,267.187408 345.253326,267.427307 345.828308,267.667236 
	C345.473724,268.103058 345.119141,268.538879 344.436951,269.010834 
z"/>
<path fill="#8B5580" opacity="1.000000" stroke="none" 
	d="
M15.627628,220.103180 
	C15.100320,220.293243 14.200719,220.419830 13.150940,220.356537 
	C13.752287,220.124329 14.503811,220.082001 15.627628,220.103180 
z"/>
<path fill="#8B5580" opacity="1.000000" stroke="none" 
	d="
M49.003593,186.538696 
	C49.028633,187.090714 49.014359,187.295395 48.978668,187.807129 
	C48.407547,187.254318 47.857841,186.394470 47.308136,185.534637 
	C47.860184,185.753540 48.412228,185.972458 49.003593,186.538696 
z"/>
<path fill="#8B5580" opacity="1.000000" stroke="none" 
	d="
M53.663403,166.028900 
	C53.444920,166.785278 52.932278,167.685059 52.158302,168.766525 
	C52.387730,168.022919 52.878490,167.097610 53.663403,166.028900 
z"/>
<path fill="#8B5580" opacity="1.000000" stroke="none" 
	d="
M104.789467,167.679459 
	C104.006996,167.541840 103.180656,167.082901 102.177490,166.395309 
	C102.915649,166.563828 103.830620,166.960983 104.789467,167.679459 
z"/>
<path fill="#8B5580" opacity="1.000000" stroke="none" 
	d="
M111.791245,189.681183 
	C111.009659,189.466064 110.185982,188.931351 109.201965,188.140594 
	C109.944130,188.376907 110.846642,188.869247 111.791245,189.681183 
z"/>
<path fill="#8B5580" opacity="1.000000" stroke="none" 
	d="
M272.662964,254.118317 
	C272.461578,254.677567 271.923126,255.188461 271.134644,255.828857 
	C271.365082,255.328888 271.845520,254.699417 272.662964,254.118317 
z"/>
<path fill="#8B5580" opacity="1.000000" stroke="none" 
	d="
M295.376709,275.053345 
	C295.488739,274.522400 295.935577,273.929749 296.607880,273.168884 
	C296.459381,273.664307 296.085419,274.327972 295.376709,275.053345 
z"/>
<path fill="#8B5580" opacity="1.000000" stroke="none" 
	d="
M37.610558,230.955902 
	C37.501759,231.488632 37.058575,232.077515 36.391029,232.832870 
	C36.536495,232.336929 36.906330,231.674484 37.610558,230.955902 
z"/>
<path fill="#8B5580" opacity="1.000000" stroke="none" 
	d="
M236.664307,243.118027 
	C236.465530,243.674469 235.931046,244.182297 235.147644,244.817993 
	C235.375366,244.320374 235.851990,243.694885 236.664307,243.118027 
z"/>
<path fill="#8B5580" opacity="1.000000" stroke="none" 
	d="
M61.662903,159.118301 
	C61.461502,159.677551 60.923069,160.188461 60.134621,160.828857 
	C60.365025,160.328873 60.845448,159.699417 61.662903,159.118301 
z"/>
<path fill="#8B5580" opacity="1.000000" stroke="none" 
	d="
M185.341095,307.060394 
	C185.560104,306.512970 186.078186,305.910980 186.893219,305.035400 
	C186.673523,305.509827 186.156845,306.257843 185.341095,307.060394 
z"/>
<path fill="#8B5580" opacity="1.000000" stroke="none" 
	d="
M187.651794,302.350769 
	C187.047073,302.235809 186.261993,301.819550 185.259277,301.143921 
	C185.851562,301.272888 186.661514,301.661163 187.651794,302.350769 
z"/>
<path fill="#8B5580" opacity="1.000000" stroke="none" 
	d="
M89.624252,188.945892 
	C89.436844,189.472778 88.915619,190.060623 88.139488,190.803421 
	C88.353195,190.307877 88.821815,189.657364 89.624252,188.945892 
z"/>
<path fill="#8B5580" opacity="1.000000" stroke="none" 
	d="
M103.914444,184.633163 
	C103.482536,184.939178 102.920540,184.990524 102.154045,184.968170 
	C102.561150,184.722458 103.172760,184.550461 103.914444,184.633163 
z"/>
<path fill="#8B5580" opacity="1.000000" stroke="none" 
	d="
M81.375748,189.054108 
	C81.563156,188.527222 82.084373,187.939377 82.860512,187.196579 
	C82.646805,187.692139 82.178185,188.342636 81.375748,189.054108 
z"/>
<path fill="#8B5580" opacity="1.000000" stroke="none" 
	d="
M34.624245,195.945892 
	C34.436844,196.472778 33.915623,197.060623 33.139496,197.803406 
	C33.353199,197.307861 33.821812,196.657349 34.624245,195.945892 
z"/>
<path fill="#8B5580" opacity="1.000000" stroke="none" 
	d="
M165.257263,292.843567 
	C165.185242,292.643005 165.363266,292.460297 165.691254,292.157074 
	C165.960281,292.400269 165.848984,292.675232 165.257263,292.843567 
z"/>
<path fill="#8B5580" opacity="1.000000" stroke="none" 
	d="
M93.257263,290.843536 
	C93.185211,290.643005 93.363243,290.460297 93.691231,290.157074 
	C93.960289,290.400269 93.848999,290.675232 93.257263,290.843536 
z"/>
<path fill="#8B5580" opacity="1.000000" stroke="none" 
	d="
M301.843567,258.742737 
	C301.643005,258.814758 301.460297,258.636719 301.157074,258.308777 
	C301.400269,258.039673 301.675232,258.150940 301.843567,258.742737 
z"/>
<path fill="#8B5580" opacity="1.000000" stroke="none" 
	d="
M189.843536,221.742767 
	C189.643005,221.814789 189.460312,221.636734 189.157074,221.308746 
	C189.400284,221.039703 189.675217,221.150986 189.843536,221.742767 
z"/>
<path fill="#8B5580" opacity="1.000000" stroke="none" 
	d="
M126.156464,292.257263 
	C126.357010,292.185211 126.539703,292.363251 126.842911,292.691223 
	C126.971092,292.833344 126.486359,292.845093 126.486359,292.845093 
	C126.486359,292.845093 126.146263,292.499481 126.156464,292.257263 
z"/>
<path fill="#8B5580" opacity="1.000000" stroke="none" 
	d="
M291.257263,277.843567 
	C291.185242,277.643005 291.363281,277.460297 291.691223,277.157074 
	C291.960327,277.400269 291.849060,277.675232 291.257263,277.843567 
z"/>
<path fill="#8B5580" opacity="1.000000" stroke="none" 
	d="
M210.257263,288.843567 
	C210.185242,288.643005 210.363266,288.460297 210.691254,288.157074 
	C210.960281,288.400269 210.848984,288.675232 210.257263,288.843567 
z"/>
<path fill="#8B5580" opacity="1.000000" stroke="none" 
	d="
M314.843567,265.742737 
	C314.643005,265.814758 314.460297,265.636719 314.157074,265.308777 
	C314.400269,265.039673 314.675232,265.150940 314.843567,265.742737 
z"/>
<path fill="#8B5580" opacity="1.000000" stroke="none" 
	d="
M251.257263,285.843567 
	C251.185242,285.643005 251.363266,285.460297 251.691254,285.157074 
	C251.960281,285.400269 251.848984,285.675232 251.257263,285.843567 
z"/>
<path fill="#8B5580" opacity="1.000000" stroke="none" 
	d="
M235.156464,285.257263 
	C235.357010,285.185211 235.539703,285.363251 235.842926,285.691223 
	C235.971085,285.833344 235.486374,285.845062 235.486374,285.845062 
	C235.486374,285.845062 235.146271,285.499481 235.156464,285.257263 
z"/>
<path fill="#8B5580" opacity="1.000000" stroke="none" 
	d="
M232.257263,285.843567 
	C232.185242,285.643005 232.363266,285.460297 232.691254,285.157074 
	C232.960281,285.400269 232.848984,285.675232 232.257263,285.843567 
z"/>
<path fill="#8B5580" opacity="1.000000" stroke="none" 
	d="
M302.156433,274.257263 
	C302.356995,274.185242 302.539703,274.363281 302.842926,274.691223 
	C302.971100,274.833344 302.486359,274.845123 302.486359,274.845123 
	C302.486359,274.845123 302.146240,274.499512 302.156433,274.257263 
z"/>
<path fill="#8B5580" opacity="1.000000" stroke="none" 
	d="
M329.257263,274.843567 
	C329.185242,274.643005 329.363281,274.460297 329.691223,274.157074 
	C329.960327,274.400269 329.849060,274.675232 329.257263,274.843567 
z"/>
<path fill="#8B5580" opacity="1.000000" stroke="none" 
	d="
M276.257263,277.843567 
	C276.185242,277.643005 276.363281,277.460297 276.691223,277.157074 
	C276.960327,277.400269 276.849060,277.675232 276.257263,277.843567 
z"/>
<path fill="#8B5580" opacity="1.000000" stroke="none" 
	d="
M269.257263,281.843567 
	C269.185242,281.643005 269.363281,281.460297 269.691223,281.157074 
	C269.960327,281.400269 269.849060,281.675232 269.257263,281.843567 
z"/>
<path fill="#8B5580" opacity="1.000000" stroke="none" 
	d="
M280.156433,277.257263 
	C280.356995,277.185242 280.539703,277.363281 280.842926,277.691223 
	C280.971100,277.833344 280.486359,277.845123 280.486359,277.845123 
	C280.486359,277.845123 280.146240,277.499512 280.156433,277.257263 
z"/>
<path fill="#8B5580" opacity="1.000000" stroke="none" 
	d="
M97.742737,185.156464 
	C97.814766,185.356979 97.636742,185.539658 97.308769,185.842896 
	C97.039719,185.599716 97.151001,185.324783 97.742737,185.156464 
z"/>
<path fill="#8B5580" opacity="1.000000" stroke="none" 
	d="
M159.843536,200.742767 
	C159.643005,200.814789 159.460312,200.636734 159.157074,200.308746 
	C159.400284,200.039703 159.675217,200.150986 159.843536,200.742767 
z"/>
<path fill="#8B5580" opacity="1.000000" stroke="none" 
	d="
M117.843536,196.742752 
	C117.642998,196.814774 117.460312,196.636749 117.157082,196.308762 
	C117.400276,196.039703 117.675224,196.150986 117.843536,196.742752 
z"/>
<path fill="#8B5580" opacity="1.000000" stroke="none" 
	d="
M155.843536,195.742767 
	C155.643005,195.814789 155.460312,195.636734 155.157074,195.308746 
	C155.400284,195.039703 155.675217,195.150986 155.843536,195.742767 
z"/>
<path fill="#8B5580" opacity="1.000000" stroke="none" 
	d="
M152.843536,192.742767 
	C152.643005,192.814789 152.460312,192.636734 152.157074,192.308746 
	C152.400284,192.039703 152.675217,192.150986 152.843536,192.742767 
z"/>
<path fill="#8B5580" opacity="1.000000" stroke="none" 
	d="
M85.742737,192.156464 
	C85.814766,192.356979 85.636742,192.539658 85.308769,192.842896 
	C85.039719,192.599716 85.151001,192.324783 85.742737,192.156464 
z"/>
<path fill="#8B5580" opacity="1.000000" stroke="none" 
	d="
M82.843536,192.742752 
	C82.642998,192.814774 82.460312,192.636749 82.157082,192.308762 
	C82.400276,192.039703 82.675224,192.150986 82.843536,192.742752 
z"/>
<path fill="#8B5580" opacity="1.000000" stroke="none" 
	d="
M40.742691,192.156464 
	C40.814735,192.356995 40.636719,192.539688 40.308762,192.842911 
	C40.039719,192.599747 40.150990,192.324799 40.742691,192.156464 
z"/>
<path fill="#8B5580" opacity="1.000000" stroke="none" 
	d="
M148.843536,189.742767 
	C148.643005,189.814789 148.460312,189.636734 148.157074,189.308746 
	C148.400284,189.039703 148.675217,189.150986 148.843536,189.742767 
z"/>
<path fill="#8B5580" opacity="1.000000" stroke="none" 
	d="
M46.742691,189.156464 
	C46.814735,189.356995 46.636719,189.539688 46.308762,189.842911 
	C46.039719,189.599747 46.150990,189.324799 46.742691,189.156464 
z"/>
<path fill="#8B5580" opacity="1.000000" stroke="none" 
	d="
M106.843536,185.742752 
	C106.642998,185.814774 106.460312,185.636749 106.157082,185.308762 
	C106.400276,185.039703 106.675224,185.150986 106.843536,185.742752 
z"/>
<path fill="#8B5580" opacity="1.000000" stroke="none" 
	d="
M56.742691,185.156464 
	C56.814735,185.356995 56.636719,185.539688 56.308762,185.842911 
	C56.039719,185.599747 56.150990,185.324799 56.742691,185.156464 
z"/>
<path fill="#8B5580" opacity="1.000000" stroke="none" 
	d="
M63.010101,184.730652 
	C62.909431,184.959427 62.704617,184.961456 62.192535,184.960663 
	C62.225506,184.806519 62.565731,184.655197 63.010101,184.730652 
z"/>
<path fill="#8B5580" opacity="1.000000" stroke="none" 
	d="
M57.156464,179.257248 
	C57.356991,179.185226 57.539677,179.363251 57.842873,179.691238 
	C57.971027,179.833344 57.486317,179.845078 57.486317,179.845078 
	C57.486317,179.845078 57.146263,179.499466 57.156464,179.257248 
z"/>
<path fill="#8B5580" opacity="1.000000" stroke="none" 
	d="
M106.257263,175.843536 
	C106.185234,175.643021 106.363258,175.460342 106.691231,175.157104 
	C106.960281,175.400284 106.848999,175.675217 106.257263,175.843536 
z"/>
<path fill="#8B5580" opacity="1.000000" stroke="none" 
	d="
M101.156464,175.257248 
	C101.357002,175.185226 101.539688,175.363251 101.842918,175.691238 
	C101.971100,175.833344 101.486359,175.845093 101.486359,175.845093 
	C101.486359,175.845093 101.146271,175.499466 101.156464,175.257248 
z"/>
<path fill="#8B5580" opacity="1.000000" stroke="none" 
	d="
M106.843536,170.742752 
	C106.642998,170.814774 106.460312,170.636749 106.157082,170.308762 
	C106.400276,170.039703 106.675224,170.150986 106.843536,170.742752 
z"/>
<path fill="#8B5580" opacity="1.000000" stroke="none" 
	d="
M99.843536,163.742752 
	C99.642998,163.814774 99.460312,163.636749 99.157082,163.308762 
	C99.400276,163.039703 99.675224,163.150986 99.843536,163.742752 
z"/>
<path fill="#8B5580" opacity="1.000000" stroke="none" 
	d="
M90.843536,159.742752 
	C90.642998,159.814774 90.460312,159.636749 90.157082,159.308762 
	C90.400276,159.039703 90.675224,159.150986 90.843536,159.742752 
z"/>
<path fill="#8B5580" opacity="1.000000" stroke="none" 
	d="
M77.843536,156.742752 
	C77.642998,156.814774 77.460312,156.636749 77.157082,156.308762 
	C77.400276,156.039703 77.675224,156.150986 77.843536,156.742752 
z"/>
<path fill="#8B5580" opacity="1.000000" stroke="none" 
	d="
M66.742737,156.156464 
	C66.814766,156.356979 66.636742,156.539658 66.308769,156.842896 
	C66.039719,156.599716 66.151001,156.324783 66.742737,156.156464 
z"/>
<path fill="#8B5580" opacity="1.000000" stroke="none" 
	d="
M177.843536,218.742767 
	C177.643005,218.814789 177.460312,218.636734 177.157074,218.308746 
	C177.400284,218.039703 177.675217,218.150986 177.843536,218.742767 
z"/>
<path fill="#8B5580" opacity="1.000000" stroke="none" 
	d="
M265.843567,250.742737 
	C265.643005,250.814758 265.460297,250.636734 265.157074,250.308746 
	C265.400269,250.039719 265.675232,250.151016 265.843567,250.742737 
z"/>
<path fill="#8B5580" opacity="1.000000" stroke="none" 
	d="
M227.843536,247.742767 
	C227.643005,247.814789 227.460312,247.636734 227.157074,247.308746 
	C227.400284,247.039703 227.675217,247.150986 227.843536,247.742767 
z"/>
<path fill="#8B5580" opacity="1.000000" stroke="none" 
	d="
M262.843567,246.742737 
	C262.643005,246.814758 262.460297,246.636734 262.157074,246.308746 
	C262.400269,246.039719 262.675232,246.151016 262.843567,246.742737 
z"/>
<path fill="#8B5580" opacity="1.000000" stroke="none" 
	d="
M251.843536,243.742767 
	C251.643005,243.814789 251.460312,243.636734 251.157074,243.308746 
	C251.400284,243.039703 251.675217,243.150986 251.843536,243.742767 
z"/>
<path fill="#8B5580" opacity="1.000000" stroke="none" 
	d="
M224.843536,238.742767 
	C224.643005,238.814789 224.460312,238.636734 224.157074,238.308746 
	C224.400284,238.039703 224.675217,238.150986 224.843536,238.742767 
z"/>
<path fill="#8B5580" opacity="1.000000" stroke="none" 
	d="
M218.843536,232.742767 
	C218.643005,232.814789 218.460312,232.636734 218.157074,232.308746 
	C218.400284,232.039703 218.675217,232.150986 218.843536,232.742767 
z"/>
<path fill="#8B5580" opacity="1.000000" stroke="none" 
	d="
M31.836861,230.763275 
	C31.833334,231.000458 31.359631,230.980255 31.122843,230.968658 
	C31.204166,230.813416 31.522278,230.669754 31.836861,230.763275 
z"/>
<path fill="#8B5580" opacity="1.000000" stroke="none" 
	d="
M213.843536,229.742767 
	C213.643005,229.814789 213.460312,229.636734 213.157074,229.308746 
	C213.400284,229.039703 213.675217,229.150986 213.843536,229.742767 
z"/>
<path fill="#8B5580" opacity="1.000000" stroke="none" 
	d="
M198.843536,225.742767 
	C198.643005,225.814789 198.460312,225.636734 198.157074,225.308746 
	C198.400284,225.039703 198.675217,225.150986 198.843536,225.742767 
z"/>
<path fill="#8B5580" opacity="1.000000" stroke="none" 
	d="
M25.843533,220.742752 
	C25.643009,220.814774 25.460325,220.636749 25.157124,220.308762 
	C25.400320,220.039719 25.675245,220.151016 25.843533,220.742752 
z"/>
<path fill="#8B5580" opacity="1.000000" stroke="none" 
	d="
M287.843567,254.742737 
	C287.643005,254.814758 287.460297,254.636734 287.157074,254.308746 
	C287.400269,254.039719 287.675232,254.151016 287.843567,254.742737 
z"/>
<path fill="#8B5580" opacity="1.000000" stroke="none" 
	d="
M45.742691,218.156464 
	C45.814735,218.356995 45.636719,218.539688 45.308762,218.842911 
	C45.039719,218.599747 45.150990,218.324799 45.742691,218.156464 
z"/>
<path fill="#8B5580" opacity="1.000000" stroke="none" 
	d="
M41.257309,212.843536 
	C41.185265,212.643005 41.363281,212.460312 41.691238,212.157089 
	C41.960281,212.400253 41.849010,212.675201 41.257309,212.843536 
z"/>
<path fill="#8B5580" opacity="1.000000" stroke="none" 
	d="
M142.742767,207.156464 
	C142.814789,207.356995 142.636734,207.539688 142.308746,207.842926 
	C142.039703,207.599716 142.150986,207.324783 142.742767,207.156464 
z"/>
<path fill="#8B5580" opacity="1.000000" stroke="none" 
	d="
M137.843536,207.742767 
	C137.643005,207.814789 137.460312,207.636734 137.157074,207.308746 
	C137.400284,207.039703 137.675217,207.150986 137.843536,207.742767 
z"/>
<path fill="#8B5580" opacity="1.000000" stroke="none" 
	d="
M162.843536,205.742767 
	C162.643005,205.814789 162.460312,205.636734 162.157074,205.308746 
	C162.400284,205.039703 162.675217,205.150986 162.843536,205.742767 
z"/>
<path fill="#8B5580" opacity="1.000000" stroke="none" 
	d="
M143.156464,204.257233 
	C143.356995,204.185211 143.539688,204.363266 143.842926,204.691254 
	C143.971100,204.833344 143.486359,204.845093 143.486359,204.845093 
	C143.486359,204.845093 143.146271,204.499466 143.156464,204.257233 
z"/>
<path fill="#000000" opacity="1.000000" stroke="none" 
	d="
M959.178833,323.212921 
	C959.026306,324.556641 958.487305,325.766357 957.604248,327.748199 
	C971.598022,326.940369 983.712097,323.261017 994.009583,313.498627 
	C989.663879,313.021759 987.803345,310.288116 989.230896,306.511200 
	C989.977783,304.535248 992.398743,303.106873 994.234802,301.646362 
	C997.585938,298.980621 1004.382446,300.312103 1007.446533,303.488678 
	C1008.487427,304.567841 1010.923584,304.479706 1012.741455,304.581879 
	C1014.674316,304.690521 1016.908875,303.727295 1018.520630,304.403076 
	C1022.476196,306.061707 1026.107544,307.899689 1030.742310,307.239868 
	C1032.865723,306.937592 1035.378174,308.594391 1033.415283,312.509125 
	C1036.458008,311.341858 1039.500610,310.174591 1042.543335,309.007294 
	C1042.726685,309.337646 1042.910034,309.667999 1043.093384,309.998352 
	C1042.370361,311.284607 1041.647217,312.570831 1040.639893,314.362518 
	C1044.985962,315.079559 1048.901123,315.725525 1053.401611,316.468048 
	C1052.646240,317.581146 1052.258179,318.342773 1051.696655,318.941803 
	C1050.422852,320.300751 1046.137939,320.377716 1049.755981,323.719604 
	C1048.702026,324.792816 1047.682007,326.744324 1046.588135,326.786804 
	C1041.902466,326.968781 1037.195068,326.588257 1032.229980,326.402863 
	C1032.578247,327.049957 1033.245972,328.290558 1034.567261,330.745422 
	C1021.550842,332.798859 1009.010681,333.361481 996.269714,331.617157 
	C1007.107483,330.068573 1017.945190,328.519989 1028.782959,326.971436 
	C1028.841309,326.485657 1028.899658,325.999908 1028.957886,325.514160 
	C1025.609009,324.676178 1022.300476,323.490997 1018.899963,323.094910 
	C1015.283630,322.673676 1011.569519,323.180481 1007.917053,322.962952 
	C999.983826,322.490540 992.553833,323.385681 985.446777,327.629303 
	C981.596130,329.928497 976.840942,331.032410 972.343750,331.843323 
	C967.427368,332.729858 962.340637,332.710205 957.322571,332.980988 
	C954.010986,333.159607 950.919067,334.277954 947.307068,333.225677 
	C943.774841,332.196533 939.687805,332.768433 935.885498,333.103851 
	C934.131348,333.258606 932.486389,334.551147 930.769287,335.273773 
	C930.038147,335.581482 929.250366,335.946930 928.485779,335.952606 
	C921.506592,336.004669 914.526733,335.983185 907.321411,335.983185 
	C906.999756,332.448456 908.060974,330.819214 911.577820,330.962372 
	C915.736084,331.131683 919.919922,331.214752 924.068970,330.955383 
	C932.655334,330.418579 941.228088,329.654236 949.799377,328.902802 
	C950.530457,328.838684 951.208679,328.172089 952.052917,327.707581 
	C945.553223,325.391205 938.325745,325.638794 933.469727,319.614594 
	C932.488831,318.397736 928.783508,319.256042 926.343689,319.367004 
	C923.323364,319.504333 920.312988,319.859955 917.067566,319.257965 
	C922.277466,314.356689 927.744385,310.489716 935.309998,310.968903 
	C939.586914,311.239807 944.300476,314.627075 945.770447,319.086548 
	C947.261475,318.358429 948.705444,317.653320 950.851685,316.605286 
	C948.984802,325.207031 954.954285,322.593628 959.178833,323.212921 
z"/>
<path fill="#000000" opacity="1.000000" stroke="none" 
	d="
M1064.828003,215.620300 
	C1061.572998,218.094101 1058.711182,220.416702 1055.696533,222.520126 
	C1054.528076,223.335403 1053.013550,223.654755 1051.510132,224.258942 
	C1050.573242,216.790375 1053.705811,211.386017 1061.460449,208.132797 
	C1068.110107,205.343170 1074.849243,202.136490 1082.431641,203.028442 
	C1087.247803,203.595016 1091.064819,202.518326 1092.668579,197.467209 
	C1094.156250,192.781509 1098.124023,191.480545 1102.122192,190.054474 
	C1112.101685,186.495056 1122.374023,185.714706 1132.912842,185.753021 
	C1136.494019,185.766037 1140.013916,182.742752 1143.695312,181.503616 
	C1146.544189,180.544708 1149.601196,180.203888 1152.875488,179.523941 
	C1152.305542,187.415482 1145.351562,185.938675 1141.684937,189.074753 
	C1144.007935,192.787659 1150.204712,193.829041 1148.417603,200.607971 
	C1146.145996,198.825317 1144.296021,197.373566 1142.237305,195.757919 
	C1140.285522,198.868073 1138.476685,201.165100 1135.558594,196.619324 
	C1134.733154,195.333496 1132.036255,194.703979 1130.206177,194.720413 
	C1126.274536,194.755692 1123.757935,189.885101 1119.309448,191.965820 
	C1116.028198,193.500549 1112.337646,194.265701 1109.259644,196.096924 
	C1106.678955,197.632370 1103.690063,199.317703 1105.717163,203.849518 
	C1107.241943,207.258453 1101.944946,212.206711 1098.246826,211.708008 
	C1089.477783,210.525528 1080.784058,210.113297 1072.365479,213.887115 
	C1070.179565,214.867020 1067.573364,214.908859 1064.828003,215.620300 
z"/>
<path fill="#000000" opacity="1.000000" stroke="none" 
	d="
M952.256104,254.903748 
	C951.648621,254.134491 951.104919,252.900208 951.281738,252.786530 
	C954.446350,250.752121 957.612854,248.686401 960.957581,246.976868 
	C963.787537,245.530457 966.872498,244.958405 967.210449,240.656738 
	C967.398193,238.267258 969.626404,236.887909 972.091736,239.242950 
	C972.209961,239.355911 972.295654,239.502396 972.400818,239.629761 
	C975.818054,243.766785 979.459229,246.567627 985.559875,246.628250 
	C989.203064,246.664429 992.812378,250.097778 996.436951,252.004044 
	C996.254456,252.554810 996.072021,253.105591 995.889587,253.656357 
	C994.542175,253.722275 992.892578,254.328842 991.893982,253.770721 
	C981.538696,247.983246 970.829529,249.489059 960.093872,252.056946 
	C957.529541,252.670319 955.130310,253.974075 952.256104,254.903748 
z"/>
<path fill="#8B5580" opacity="1.000000" stroke="none" 
	d="
M42.614197,300.117737 
	C43.236664,301.021851 43.585270,302.088409 43.967319,303.494141 
	C43.447292,302.648956 42.893814,301.464569 42.614197,300.117737 
z"/>
<path fill="#8B5580" opacity="1.000000" stroke="none" 
	d="
M21.257309,299.843536 
	C21.185253,299.643005 21.363266,299.460297 21.691235,299.157074 
	C21.960285,299.400238 21.849014,299.675171 21.257309,299.843536 
z"/>
<path fill="#8B5580" opacity="1.000000" stroke="none" 
	d="
M5.156468,296.257233 
	C5.356994,296.185211 5.539676,296.363251 5.842871,296.691223 
	C5.971031,296.833344 5.486320,296.845062 5.486320,296.845062 
	C5.486320,296.845062 5.146270,296.499451 5.156468,296.257233 
z"/>
<path fill="#8B5580" opacity="1.000000" stroke="none" 
	d="
M9.156468,299.257233 
	C9.356995,299.185211 9.539678,299.363251 9.842876,299.691223 
	C9.971037,299.833344 9.486323,299.845062 9.486323,299.845062 
	C9.486323,299.845062 9.146271,299.499451 9.156468,299.257233 
z"/>
<path fill="#000000" opacity="1.000000" stroke="none" 
	d="
M252.985260,261.833344 
	C253.988144,262.314331 254.991043,262.795319 256.019043,263.999939 
	C256.696259,265.426819 257.348328,266.130096 258.000397,266.833344 
	C262.129272,266.833344 266.258118,266.833344 270.479462,266.833344 
	C269.577179,271.432739 258.638184,272.846924 253.376083,269.009583 
	C252.587952,268.688385 252.236877,268.822845 251.885788,268.957306 
	C244.897797,268.984100 237.909821,269.010895 230.208542,269.094116 
	C229.144073,269.333679 229.034546,269.611938 229.166656,269.985321 
	C220.209473,273.303162 208.252411,272.709686 206.044403,268.496765 
	C213.174469,267.978149 220.157715,267.470245 227.822845,266.905884 
	C228.855927,266.666321 228.965454,266.388062 228.833344,266.014679 
	C229.049591,265.704529 229.265823,265.394379 230.079041,265.006409 
	C231.061813,264.285736 231.447586,263.642853 231.833344,262.999969 
	C233.674911,262.054749 235.516479,261.109528 237.931396,260.006866 
	C238.855927,259.666321 238.965454,259.388062 238.833344,259.014679 
	C242.439285,258.785461 246.045212,258.556274 249.900848,258.915894 
	C250.150528,259.504700 250.496552,259.850250 250.496552,259.850250 
	C250.496552,259.850250 250.985260,259.833344 250.985260,259.833344 
	C251.296707,260.052643 251.608139,260.271942 252.035049,260.997986 
	C252.150528,261.504700 252.496552,261.850250 252.496552,261.850250 
	C252.496552,261.850250 252.985260,261.833344 252.985260,261.833344 
z"/>
<path fill="#000000" opacity="1.000000" stroke="none" 
	d="
M33.448151,270.933807 
	C27.408943,271.321075 21.802334,271.604004 16.209970,272.061188 
	C14.960841,272.163300 13.770682,272.904938 12.537149,273.301697 
	C11.179466,273.738434 9.803074,274.117004 8.434828,274.520874 
	C9.132787,273.227295 9.830750,271.933716 10.624640,270.462341 
	C6.950889,265.181976 6.924621,262.527283 10.731213,259.415619 
	C13.298268,257.317200 15.365510,257.898376 18.360638,259.377228 
	C23.539570,261.934326 26.353281,268.492493 33.210392,268.148529 
	C33.389236,268.139587 33.658695,269.937225 33.448151,270.933807 
z"/>
<path fill="#000000" opacity="1.000000" stroke="none" 
	d="
M64.398247,211.102478 
	C63.262100,210.558502 62.524456,209.950348 61.512260,209.254456 
	C60.537991,208.312759 59.838276,207.458847 58.994019,206.050095 
	C58.666367,205.144089 58.388138,205.034561 58.014782,205.166656 
	C57.817776,204.175705 57.620770,203.184769 57.964256,202.021637 
	C58.855907,201.666336 58.965435,201.388092 58.833336,201.014725 
	C63.305172,197.725525 63.919754,204.073349 67.071381,204.892548 
	C67.150543,205.504745 67.496567,205.850266 67.496567,205.850266 
	C67.496567,205.850266 67.985275,205.833344 67.985275,205.833344 
	C70.033600,205.876282 72.081924,205.919220 74.903152,205.945374 
	C76.061813,205.285721 76.447578,204.642853 76.833344,203.999985 
	C77.888817,204.101944 78.944305,204.203903 80.016373,204.973755 
	C79.988449,206.076172 79.943947,206.510681 79.899445,206.945190 
	C79.899445,206.945190 79.959320,206.959030 79.619141,206.984711 
	C78.814285,207.659622 78.349609,208.308838 77.884933,208.958038 
	C76.799187,209.644699 75.713440,210.331360 74.061485,211.084259 
	C73.144104,211.333649 73.034561,211.611893 73.166664,211.985275 
	C71.854927,212.190872 70.543190,212.396469 69.040451,212.048676 
	C68.666336,211.144089 68.388092,211.034561 68.014725,211.166656 
	C66.942070,211.123871 65.869408,211.081070 64.398247,211.102478 
z"/>
<path fill="#8B5580" opacity="1.000000" stroke="none" 
	d="
M257.926086,266.551514 
	C257.348328,266.130096 256.696259,265.426819 256.105408,264.361755 
	C256.728363,264.756500 257.290070,265.513092 257.926086,266.551514 
z"/>
<path fill="#8B5580" opacity="1.000000" stroke="none" 
	d="
M231.612091,263.141937 
	C231.447586,263.642853 231.061813,264.285736 230.337982,264.880981 
	C230.463562,264.316864 230.927200,263.800385 231.612091,263.141937 
z"/>
<path fill="#8B5580" opacity="1.000000" stroke="none" 
	d="
M78.138702,208.804840 
	C78.349609,208.308838 78.814285,207.659622 79.612381,206.954742 
	C79.428017,207.483261 78.910240,208.067444 78.138702,208.804840 
z"/>
<path fill="#8B5580" opacity="1.000000" stroke="none" 
	d="
M80.067055,206.850189 
	C79.943947,206.510681 79.988449,206.076172 80.099808,205.320831 
	C80.189331,205.585068 80.211998,206.170120 80.067055,206.850189 
z"/>
<path fill="#8B5580" opacity="1.000000" stroke="none" 
	d="
M76.612076,204.141937 
	C76.447578,204.642853 76.061813,205.285721 75.337997,205.880966 
	C75.463562,205.316864 75.927193,204.800385 76.612076,204.141937 
z"/>
<path fill="#8B5580" opacity="1.000000" stroke="none" 
	d="
M252.855194,261.690826 
	C252.985260,261.833344 252.496552,261.850250 252.496552,261.850250 
	C252.496552,261.850250 252.150528,261.504700 252.158600,261.260315 
	C252.361053,261.184753 252.547211,261.362183 252.855194,261.690826 
z"/>
<path fill="#8B5580" opacity="1.000000" stroke="none" 
	d="
M250.855194,259.690826 
	C250.985260,259.833344 250.496552,259.850250 250.496552,259.850250 
	C250.496552,259.850250 250.150528,259.504700 250.158600,259.260315 
	C250.361053,259.184753 250.547211,259.362183 250.855194,259.690826 
z"/>
<path fill="#8B5580" opacity="1.000000" stroke="none" 
	d="
M238.691437,259.145386 
	C238.965454,259.388062 238.855927,259.666321 238.260376,259.841400 
	C238.186035,259.640106 238.363861,259.454346 238.691437,259.145386 
z"/>
<path fill="#8B5580" opacity="1.000000" stroke="none" 
	d="
M228.691437,266.145386 
	C228.965454,266.388062 228.855927,266.666321 228.260376,266.841400 
	C228.186035,266.640106 228.363861,266.454346 228.691437,266.145386 
z"/>
<path fill="#8B5580" opacity="1.000000" stroke="none" 
	d="
M252.206543,268.970215 
	C252.236877,268.822845 252.587952,268.688385 253.053940,268.781250 
	C252.955002,269.000153 252.741165,268.991669 252.206543,268.970215 
z"/>
<path fill="#8B5580" opacity="1.000000" stroke="none" 
	d="
M229.308563,269.854614 
	C229.034546,269.611938 229.144073,269.333679 229.739624,269.158600 
	C229.813965,269.359894 229.636139,269.545654 229.308563,269.854614 
z"/>
<path fill="#8B5580" opacity="1.000000" stroke="none" 
	d="
M58.691425,201.145401 
	C58.965435,201.388092 58.855907,201.666336 58.260395,201.841400 
	C58.186054,201.640106 58.363880,201.454361 58.691425,201.145401 
z"/>
<path fill="#8B5580" opacity="1.000000" stroke="none" 
	d="
M73.308586,211.854599 
	C73.034561,211.611893 73.144104,211.333649 73.739655,211.158600 
	C73.813995,211.359894 73.636154,211.545639 73.308586,211.854599 
z"/>
<path fill="#8B5580" opacity="1.000000" stroke="none" 
	d="
M68.145401,211.308578 
	C68.388092,211.034561 68.666336,211.144089 68.841400,211.739624 
	C68.640114,211.813965 68.454361,211.636139 68.145401,211.308578 
z"/>
<path fill="#8B5580" opacity="1.000000" stroke="none" 
	d="
M67.854599,205.691422 
	C67.985275,205.833344 67.496567,205.850266 67.496567,205.850266 
	C67.496567,205.850266 67.150543,205.504745 67.158600,205.260376 
	C67.359886,205.186035 67.545639,205.363861 67.854599,205.691422 
z"/>
<path fill="#8B5580" opacity="1.000000" stroke="none" 
	d="
M58.145447,205.308578 
	C58.388138,205.034561 58.666367,205.144089 58.841400,205.739639 
	C58.640118,205.813980 58.454380,205.636154 58.145447,205.308578 
z"/>
</svg>