<svg version="1.1" id="Layer_1" xmlns="http://www.w3.org/2000/svg" xmlns:xlink="http://www.w3.org/1999/xlink" x="0px" y="0px"
	 width="100%" viewBox="0 0 1200 600" enable-background="new 0 0 1200 600" xml:space="preserve">
<path fill="#000000" opacity="1.000000" stroke="none" 
	d="
M754.000000,601.000000 
	C502.666687,601.000000 251.833359,601.000000 1.000034,601.000000 
	C1.000022,401.000031 1.000022,201.000061 1.000011,1.000061 
	C400.999969,1.000040 800.999939,1.000040 1201.000000,1.000020 
	C1201.000000,200.999939 1201.000000,400.999878 1201.000000,600.999878 
	C1052.166626,601.000000 903.333313,601.000000 754.000000,601.000000 
M1008.139893,329.025360 
	C1002.398010,329.973389 996.656189,330.921417 990.914307,331.869446 
	C991.019775,332.451111 991.125244,333.032776 991.230713,333.614441 
	C997.153931,332.687408 1003.077148,331.760376 1009.763794,330.975983 
	C1011.216797,331.801727 1012.787476,332.474518 1014.099365,333.483765 
	C1017.191406,335.862427 1020.514587,335.455536 1023.310486,332.432159 
	C1024.263306,331.401764 1025.653442,330.287445 1026.946411,330.145569 
	C1032.153564,329.574219 1037.398315,329.298096 1042.636108,329.102173 
	C1043.428345,329.072571 1044.662842,329.855164 1045.004028,330.584320 
	C1047.019775,334.893402 1050.833008,334.074249 1054.312500,333.915894 
	C1055.315552,333.870270 1056.273315,332.831329 1057.251831,332.247742 
	C1056.731934,331.477814 1056.292236,330.636475 1055.679565,329.949402 
	C1051.157715,324.878754 1045.350830,320.710297 1044.862793,312.965973 
	C1044.707520,310.500275 1042.741577,309.457092 1040.214966,310.040222 
	C1036.325806,310.937866 1030.136597,317.690002 1029.682007,320.819458 
	C1023.363098,325.938019 1016.335571,327.972595 1008.139893,329.025360 
M559.097778,440.080750 
	C560.860168,440.688812 563.474976,440.775787 564.225037,442.002716 
	C566.468262,445.672150 569.955872,445.687836 572.862061,444.784302 
	C578.653931,442.983459 584.156128,440.251099 589.750488,437.915009 
	C592.160522,444.401703 593.904541,444.877899 600.277283,439.956055 
	C600.957397,440.585602 601.764771,441.166534 602.362427,441.914978 
	C604.969971,445.180573 607.301453,446.942932 610.554443,442.283813 
	C612.697632,439.214050 616.017334,436.974243 618.232056,433.940643 
	C618.889526,433.040070 618.115601,430.182953 617.077026,429.132080 
	C614.318237,426.340759 611.237671,423.755463 607.911499,421.689636 
	C606.494202,420.809479 603.956848,420.885162 602.260132,421.477112 
	C598.586060,422.758820 595.125854,424.653473 591.352539,426.402008 
	C590.651428,417.770020 586.156555,411.287964 581.234741,411.001129 
	C571.610535,410.440247 565.650085,415.389587 563.296143,426.084076 
	C562.365295,425.800446 561.469788,425.423401 560.537476,425.270203 
	C559.403870,425.083984 558.222534,424.923004 557.091309,425.038879 
	C554.085144,425.346741 552.174072,428.649445 553.425232,430.814270 
	C555.251648,433.974548 556.795410,437.298248 557.722595,440.023651 
	C553.602539,439.389587 549.726135,433.537720 545.203186,439.309540 
	C541.939575,434.634369 537.554321,429.948822 531.650635,431.449951 
	C528.350403,432.289062 526.155090,437.473724 522.710876,441.600159 
	C518.310974,442.288513 512.097778,443.260559 505.884644,444.232574 
	C505.873871,444.622955 505.863129,445.013336 505.852356,445.403717 
	C510.036469,445.694153 514.220581,445.984589 518.402832,446.274933 
	C518.326355,446.983673 518.240479,447.780243 518.305786,447.174683 
	C521.998779,449.566010 524.990479,451.786102 528.258179,453.470947 
	C529.456360,454.088684 532.008484,454.051544 532.717773,453.240997 
	C534.249573,451.490570 534.988892,449.046600 536.361938,446.257599 
	C537.134216,446.065735 540.552856,446.184387 541.243408,444.869843 
	C543.663757,440.263000 545.770203,441.429230 548.971619,443.852295 
	C551.169678,445.515991 554.047791,446.210815 556.358826,442.613373 
	C554.619934,442.193665 553.311707,441.877930 551.146790,441.355408 
	C554.209595,441.004089 556.333435,440.760468 559.097778,440.080750 
M820.087036,160.959885 
	C816.632141,159.963425 814.045837,157.343506 809.413513,158.539810 
	C806.421936,159.312363 802.291992,155.677109 798.876953,154.111038 
	C800.103455,148.375458 796.519653,139.523804 792.893127,139.173843 
	C787.259644,138.630219 781.655396,138.435822 776.870117,143.026901 
	C772.994385,146.745392 770.352295,152.739685 763.395264,152.075470 
	C762.962524,152.034164 762.501709,152.830734 761.979858,153.085861 
	C759.925598,154.090149 757.864319,155.810913 755.765137,155.872009 
	C743.474609,156.229568 734.880066,162.356537 731.320068,173.550217 
	C728.526184,172.715179 725.782104,171.742599 722.962219,171.105591 
	C721.064819,170.676941 718.877563,171.174500 717.137756,170.471390 
	C711.961609,168.379486 707.053223,167.753510 702.216675,171.248596 
	C700.348328,172.598755 698.480225,174.100479 696.375916,174.944473 
	C690.035889,177.487228 685.574402,181.324142 685.850159,189.926590 
	C679.234558,190.296478 672.917603,190.621613 666.604675,191.012390 
	C662.313477,191.278000 659.751648,193.919067 659.111633,197.837936 
	C658.405212,202.163101 660.979797,205.397949 665.069275,205.784393 
	C671.342163,206.377182 677.738281,206.271805 684.035156,205.815460 
	C689.159607,205.444122 694.215271,204.123337 699.733459,203.147141 
	C699.879700,205.032730 699.877319,205.825745 700.011169,206.595062 
	C700.905334,211.735764 709.768799,216.727173 713.367310,213.484268 
	C716.515015,210.647583 719.583740,211.057205 722.870911,211.037521 
	C737.367981,210.950668 751.872681,211.265839 766.361084,210.901581 
	C775.237305,210.678421 783.948425,208.910385 793.009033,210.712936 
	C797.813965,211.668854 803.192993,209.526733 808.336853,209.034058 
	C820.411804,207.877533 832.762146,211.339844 844.676147,206.176041 
	C848.699219,204.432373 853.588989,204.656952 858.095581,204.082748 
	C859.220032,203.939484 860.494385,203.916763 861.528931,204.300064 
	C867.192261,206.398514 873.727417,204.145004 875.878235,198.592438 
	C877.402161,194.658432 879.341919,196.307846 881.587646,197.257370 
	C883.073792,197.885773 885.651855,199.197769 885.984253,198.785889 
	C889.478088,194.456726 894.201172,196.029419 898.395752,196.107315 
	C904.017334,196.211716 906.412048,192.114563 908.493042,188.425522 
	C909.423889,186.775375 908.315918,182.590103 906.708069,181.177887 
	C903.238220,178.130188 898.847107,176.131409 895.656494,174.201523 
	C891.081482,176.469482 887.732056,179.124329 884.040771,179.744415 
	C877.205811,180.892578 870.170959,180.850418 863.107422,181.311325 
	C862.882568,177.977554 864.485413,176.775360 867.819641,176.952942 
	C871.641479,177.156509 875.484802,176.917465 879.314575,177.023560 
	C882.964600,177.124680 885.682190,175.813156 887.316040,172.455704 
	C887.412415,172.257751 887.881531,172.241180 888.346741,172.082275 
	C888.839111,173.065140 889.344604,174.074127 890.166016,175.713715 
	C891.774170,172.444519 892.496826,169.319244 894.425354,167.415604 
	C897.941895,163.944443 897.115112,161.117020 894.873169,157.524384 
	C891.353516,151.884384 880.787659,148.094147 875.697205,152.047836 
	C871.656372,155.186218 868.180542,154.059616 863.980652,153.599197 
	C864.163147,152.626541 864.387085,151.871918 864.434265,151.106384 
	C864.636963,147.815460 866.011780,143.812485 864.626282,141.420212 
	C863.126770,138.831009 859.223572,136.904633 856.031311,136.184021 
	C850.223511,134.872986 844.105591,134.997467 838.228516,133.916809 
	C830.793274,132.549637 825.397888,136.817902 819.658630,140.001114 
	C816.078247,141.986969 815.608704,147.681976 818.851318,150.149765 
	C821.631775,152.265869 824.987061,154.033310 828.358032,154.877838 
	C834.439758,156.401489 839.087524,160.778732 838.527527,166.011841 
	C837.117310,165.881042 834.915833,166.284943 834.395569,165.530106 
	C830.961426,160.547440 825.901550,161.044434 820.087036,160.959885 
M78.607170,280.835205 
	C77.246269,281.816956 75.991493,283.014832 74.506607,283.744141 
	C66.935829,287.462677 63.485046,293.283234 63.906815,301.866180 
	C64.330505,310.488281 64.000015,310.504730 55.374573,313.266785 
	C54.603321,313.513763 53.835964,313.775085 53.057411,313.996796 
	C46.887470,315.754028 41.965866,322.206573 42.000053,328.505554 
	C42.029625,333.953217 46.658375,340.061676 52.565807,341.918701 
	C55.224899,342.754578 58.088444,342.974884 60.875580,343.354401 
	C62.335159,343.553162 64.097282,343.001923 65.261223,343.636261 
	C69.519020,345.956726 73.764114,346.885773 78.351257,344.851379 
	C81.781586,343.330048 81.233849,339.984955 82.255356,337.204956 
	C83.048874,335.045410 85.863686,332.699249 88.161865,332.202545 
	C94.177811,330.902405 99.406296,328.621613 103.920509,324.403503 
	C105.947739,322.509277 107.876381,321.612976 110.191200,325.074036 
	C116.271683,334.165527 122.131065,334.053284 128.265671,327.477600 
	C133.985245,321.346832 139.792175,319.766571 147.619629,319.769165 
	C155.216507,319.771698 163.341568,319.182343 170.240570,316.393616 
	C175.546875,314.248688 178.812271,314.746979 183.856369,316.461609 
	C189.079590,318.237122 195.379501,317.049011 201.188065,316.754578 
	C202.628876,316.681549 204.136993,315.215057 205.361649,314.109375 
	C209.037720,310.790558 212.703934,307.842896 218.234039,308.927277 
	C220.480621,309.367767 222.885681,309.006073 225.218613,308.998840 
	C231.388626,308.979706 235.889481,305.132416 237.018219,299.007507 
	C237.204575,297.996338 237.429916,296.465118 238.094360,296.155670 
	C242.120239,294.280487 246.147568,291.904114 250.424011,291.190125 
	C256.732330,290.136902 263.262848,290.492920 269.673889,289.953552 
	C275.548157,289.459351 281.400421,288.648163 287.235107,287.790985 
	C288.264771,287.639740 289.160431,286.576019 290.117950,285.933655 
	C284.781067,285.014252 279.210266,283.601257 274.943176,285.356873 
	C269.052246,287.780640 263.428711,286.635925 257.720337,286.914581 
	C250.405502,287.271698 243.043045,286.689117 235.732208,287.085297 
	C221.757858,287.842560 207.795898,288.892242 193.850235,290.073578 
	C190.000946,290.399628 187.744675,289.089325 185.978119,285.794861 
	C184.438721,282.923920 177.027893,282.082245 174.976151,284.030701 
	C171.345749,287.478363 167.359497,289.972198 161.901505,288.158600 
	C160.820114,287.799286 159.308655,288.741333 157.993698,289.076111 
	C155.801926,289.634125 153.634186,290.470215 151.409668,290.670135 
	C148.540237,290.928040 145.624207,290.620789 142.729553,290.658386 
	C140.200714,290.691254 137.673706,290.864532 135.145905,290.975800 
	C134.920364,290.297638 134.694824,289.619446 134.469284,288.941284 
	C137.832962,287.627533 141.117828,286.033051 144.577621,285.061646 
	C150.740128,283.331451 158.268616,285.269196 162.790924,279.285828 
	C166.423538,274.479645 170.891937,273.453369 176.347107,273.963959 
	C178.659851,274.180450 181.022476,273.854431 183.337769,274.056854 
	C184.751785,274.180481 186.957581,274.443848 187.373047,275.322693 
	C190.411118,281.749268 197.447769,280.530396 202.349121,282.521179 
	C208.900833,285.182373 216.814621,284.490143 224.382065,285.262329 
	C218.058701,271.239929 205.753098,274.218201 195.189789,274.016266 
	C193.275482,270.762360 192.260529,266.782501 189.743988,265.218018 
	C184.097809,261.707977 178.312027,257.939789 170.846939,258.893677 
	C165.016876,259.638672 159.237030,258.699646 153.352829,261.440308 
	C149.403320,263.279877 144.856766,263.868713 141.494003,267.138519 
	C140.423538,268.179413 139.137268,268.998352 137.949753,269.918823 
	C136.968353,268.245148 135.824371,266.642792 135.050110,264.878204 
	C134.234024,263.018311 134.376556,260.244598 133.050140,259.186127 
	C126.915001,254.290390 119.722649,251.564468 111.863586,251.083878 
	C109.492805,250.938904 106.442215,251.010971 104.769447,252.332993 
	C99.059990,256.845245 94.360840,262.315186 93.012733,269.872742 
	C92.568459,272.363434 98.450912,279.909729 101.653191,280.817413 
	C106.638870,282.230560 111.658920,283.522400 116.674263,284.868317 
	C116.674263,286.360779 116.674263,288.106567 116.674263,288.794220 
	C113.517151,290.423279 111.161613,291.974121 108.580711,292.889954 
	C104.927658,294.186218 101.093124,294.964020 97.376579,296.096130 
	C96.825378,296.264069 96.495575,297.158813 96.063354,297.717285 
	C96.639824,298.140686 97.163498,298.801819 97.802490,298.943756 
	C99.867577,299.402405 102.002159,299.561157 104.051537,300.070496 
	C104.769844,300.249054 105.318871,301.108643 105.945190,301.657257 
	C105.220352,302.102325 104.537498,302.829865 103.763603,302.944946 
	C99.876740,303.522736 95.966080,303.940460 92.063774,304.414429 
	C92.076180,304.785309 92.088593,305.156189 92.100998,305.527069 
	C94.043701,305.823151 95.986412,306.119232 99.075714,306.590088 
	C88.931976,316.780273 77.616508,311.126434 67.265495,311.849945 
	C67.003593,311.259613 66.741684,310.669250 66.479774,310.078918 
	C73.235886,306.995605 79.991997,303.912323 85.715385,301.300323 
	C85.364868,298.939514 84.420815,296.789642 85.047966,296.127167 
	C89.355156,291.577271 93.733597,286.931000 101.020660,287.949951 
	C103.315132,288.270813 105.692322,288.000000 108.031654,288.000000 
	C99.042725,282.569702 90.001503,278.038422 78.607170,280.835205 
M693.221741,221.302856 
	C691.951294,222.191208 690.767395,223.663864 689.395386,223.867264 
	C683.267578,224.775742 677.087097,225.871765 670.923645,225.883820 
	C658.365906,225.908371 645.847473,225.675217 634.096436,231.049057 
	C632.575195,231.744736 630.360046,233.005020 630.211121,234.218048 
	C629.809692,237.486450 632.687500,236.840546 634.771057,237.014313 
	C642.958984,237.697128 651.395264,237.428543 659.264343,239.404755 
	C669.573547,241.993805 679.465637,240.327225 689.492615,239.117554 
	C694.470337,238.517044 699.316223,236.347229 704.273010,236.145416 
	C715.583191,235.684921 726.924866,236.000198 738.253784,235.999924 
	C746.583862,235.999710 754.918823,235.827896 763.241882,236.068954 
	C767.533752,236.193268 768.967896,232.920563 770.569641,230.291519 
	C771.214233,229.233582 769.858704,226.656265 768.963806,225.015640 
	C765.810852,219.234802 759.638794,219.163986 754.565857,219.208221 
	C734.404785,219.384033 714.250793,220.363235 693.221741,221.302856 
M448.094574,192.992081 
	C449.759979,192.089493 451.425354,191.186920 453.615387,190.000000 
	C446.733795,190.000000 440.405884,189.816101 434.097656,190.088531 
	C431.495544,190.200897 428.935791,191.293381 426.534332,191.895569 
	C423.738251,191.288742 420.712402,189.954849 417.816742,190.194458 
	C414.932617,190.433105 412.179169,192.250748 409.285736,193.409149 
	C409.200287,189.809814 406.119812,188.641861 403.602203,190.394073 
	C398.530212,193.924042 393.981110,195.089233 388.924652,190.892624 
	C388.694061,190.701263 388.453247,190.522217 388.372864,190.459305 
	C388.014557,187.599960 388.482483,184.329697 387.108978,182.314423 
	C385.694855,180.239487 382.603088,178.515671 380.039276,178.170944 
	C373.388550,177.276657 371.970398,178.863922 370.402710,186.779800 
	C361.375214,185.876648 350.563690,177.386749 345.214661,192.284470 
	C341.988953,193.112518 338.750031,194.217316 335.420868,194.701736 
	C333.229889,195.020569 330.895813,194.542435 328.649628,194.242905 
	C326.411530,193.944427 324.169647,192.942856 321.988190,193.094513 
	C316.510803,193.475296 311.081146,194.561798 305.603394,194.911514 
	C302.482635,195.110764 299.239075,195.267990 299.182312,198.935318 
	C299.125397,202.613358 302.280853,203.050461 305.475372,203.039703 
	C327.793732,202.964569 350.112457,203.012344 372.431000,202.982895 
	C374.945740,202.979584 376.844116,203.153519 378.731354,205.626511 
	C379.933319,207.201584 381.797363,210.686630 385.438416,208.780960 
	C388.659851,207.094879 391.909637,205.390701 395.317047,204.169144 
	C396.613708,203.704285 398.377808,204.707886 399.941132,204.781403 
	C401.992462,204.877838 404.085938,204.913284 406.105011,204.605682 
	C407.824799,204.343674 409.495239,203.014816 411.134827,203.105896 
	C416.471649,203.402390 421.371277,203.008636 424.882599,198.446884 
	C426.754364,198.956894 428.212189,198.472824 429.699799,198.111237 
	C435.624146,196.671173 440.610565,192.012924 448.094574,192.992081 
M435.604614,209.000000 
	C442.083374,209.664291 448.571991,210.941040 455.038330,210.836533 
	C462.972168,210.708328 471.047485,212.621078 478.918030,209.185867 
	C481.405853,208.100037 484.184174,207.661163 483.819427,204.671371 
	C483.491516,201.983780 481.118439,200.888428 478.128906,200.939926 
	C468.659424,201.103058 459.184357,200.933304 449.714172,201.074020 
	C448.327484,201.094620 446.997772,202.276733 445.569397,202.624649 
	C439.410950,204.124664 433.680664,208.971085 426.711548,204.250244 
	C424.946289,203.054474 421.682404,204.071060 419.107117,204.071060 
	C419.083496,204.628983 419.059845,205.186905 419.036224,205.744812 
	C424.237274,206.829880 429.438354,207.914948 435.604614,209.000000 
M303.386597,277.001434 
	C298.714386,277.137482 292.705261,280.749268 292.365967,283.906281 
	C302.557373,283.699310 312.699829,283.493317 322.842285,283.287354 
	C322.833221,282.825989 322.824188,282.364624 322.815125,281.903290 
	C316.626373,280.272003 310.437622,278.640747 303.386597,277.001434 
z"/>
<path fill="#C38890" opacity="1.000000" stroke="none" 
	d="
M820.514526,160.976807 
	C825.901550,161.044434 830.961426,160.547440 834.395569,165.530106 
	C834.915833,166.284943 837.117310,165.881042 838.527527,166.011841 
	C839.087524,160.778732 834.439758,156.401489 828.358032,154.877838 
	C824.987061,154.033310 821.631775,152.265869 818.851318,150.149765 
	C815.608704,147.681976 816.078247,141.986969 819.658630,140.001114 
	C825.397888,136.817902 830.793274,132.549637 838.228516,133.916809 
	C844.105591,134.997467 850.223511,134.872986 856.031311,136.184021 
	C859.223572,136.904633 863.126770,138.831009 864.626282,141.420212 
	C866.011780,143.812485 864.636963,147.815460 864.434265,151.106384 
	C864.387085,151.871918 864.163147,152.626541 863.980652,153.599197 
	C868.180542,154.059616 871.656372,155.186218 875.697205,152.047836 
	C880.787659,148.094147 891.353516,151.884384 894.873169,157.524384 
	C897.115112,161.117020 897.941895,163.944443 894.425354,167.415604 
	C892.496826,169.319244 891.774170,172.444519 890.166016,175.713715 
	C889.344604,174.074127 888.839111,173.065140 888.346741,172.082275 
	C887.881531,172.241180 887.412415,172.257751 887.316040,172.455704 
	C885.682190,175.813156 882.964600,177.124680 879.314575,177.023560 
	C875.484802,176.917465 871.641479,177.156509 867.819641,176.952942 
	C864.485413,176.775360 862.882568,177.977554 863.107422,181.311325 
	C870.170959,180.850418 877.205811,180.892578 884.040771,179.744415 
	C887.732056,179.124329 891.081482,176.469482 895.656494,174.201523 
	C898.847107,176.131409 903.238220,178.130188 906.708069,181.177887 
	C908.315918,182.590103 909.423889,186.775375 908.493042,188.425522 
	C906.412048,192.114563 904.017334,196.211716 898.395752,196.107315 
	C894.201172,196.029419 889.478088,194.456726 885.984253,198.785889 
	C885.651855,199.197769 883.073792,197.885773 881.587646,197.257370 
	C879.341919,196.307846 877.402161,194.658432 875.878235,198.592438 
	C873.727417,204.145004 867.192261,206.398514 861.528931,204.300064 
	C860.494385,203.916763 859.220032,203.939484 858.095581,204.082748 
	C853.588989,204.656952 848.699219,204.432373 844.676147,206.176041 
	C832.762146,211.339844 820.411804,207.877533 808.336853,209.034058 
	C803.192993,209.526733 797.813965,211.668854 793.009033,210.712936 
	C783.948425,208.910385 775.237305,210.678421 766.361084,210.901581 
	C751.872681,211.265839 737.367981,210.950668 722.870911,211.037521 
	C719.583740,211.057205 716.515015,210.647583 713.367310,213.484268 
	C709.768799,216.727173 700.905334,211.735764 700.011169,206.595062 
	C699.877319,205.825745 699.879700,205.032730 699.733459,203.147141 
	C694.215271,204.123337 689.159607,205.444122 684.035156,205.815460 
	C677.738281,206.271805 671.342163,206.377182 665.069275,205.784393 
	C660.979797,205.397949 658.405212,202.163101 659.111633,197.837936 
	C659.751648,193.919067 662.313477,191.278000 666.604675,191.012390 
	C672.917603,190.621613 679.234558,190.296478 685.850159,189.926590 
	C685.574402,181.324142 690.035889,177.487228 696.375916,174.944473 
	C698.480225,174.100479 700.348328,172.598755 702.216675,171.248596 
	C707.053223,167.753510 711.961609,168.379486 717.137756,170.471390 
	C718.877563,171.174500 721.064819,170.676941 722.962219,171.105591 
	C725.782104,171.742599 728.526184,172.715179 731.320068,173.550217 
	C734.880066,162.356537 743.474609,156.229568 755.765137,155.872009 
	C757.864319,155.810913 759.925598,154.090149 761.979858,153.085861 
	C762.501709,152.830734 762.962524,152.034164 763.395264,152.075470 
	C770.352295,152.739685 772.994385,146.745392 776.870117,143.026901 
	C781.655396,138.435822 787.259644,138.630219 792.893127,139.173843 
	C796.519653,139.523804 800.103455,148.375458 798.876953,154.111038 
	C802.291992,155.677109 806.421936,159.312363 809.413513,158.539810 
	C814.045837,157.343506 816.632141,159.963425 820.514526,160.976807 
M733.199585,200.538498 
	C736.250854,200.359024 739.299927,200.113754 742.353760,200.011917 
	C753.268127,199.647903 764.186157,199.383118 775.096863,198.936020 
	C776.491516,198.878860 777.851135,197.967667 779.285339,197.430267 
	C781.414856,201.200775 782.097046,201.068176 787.968689,195.292862 
	C786.372498,195.109344 784.932434,194.943802 783.103760,194.733551 
	C783.547241,191.122009 781.886963,189.652191 778.267456,189.911819 
	C774.771240,190.162598 771.214233,190.280472 767.739197,189.921387 
	C763.844360,189.518951 761.908630,191.051804 761.747437,194.408936 
	C752.205627,197.782928 741.750916,193.455414 733.199585,200.538498 
M794.896606,176.000000 
	C793.573486,176.000000 792.250305,176.000000 791.001648,176.000000 
	C791.340088,174.696381 791.644653,173.523300 791.977844,172.240204 
	C778.644653,171.451630 778.644653,171.451630 778.706726,165.826874 
	C774.646240,167.389801 771.072083,168.629196 767.643250,170.188309 
	C766.858032,170.545319 765.935730,172.292786 766.205811,172.888382 
	C766.627991,173.819611 768.016357,174.905396 768.989746,174.900009 
	C776.567505,174.858032 783.671021,176.911606 790.922607,178.808548 
	C796.854492,180.360275 803.191467,180.485107 809.372009,180.861572 
	C810.601135,180.936447 811.935486,179.283539 813.221252,178.427353 
	C812.973267,177.986359 812.725342,177.545364 812.477356,177.104370 
	C806.913940,176.736252 801.350586,176.368118 794.896606,176.000000 
z"/>
<path fill="#C38890" opacity="1.000000" stroke="none" 
	d="
M78.938080,280.550201 
	C90.001503,278.038422 99.042725,282.569702 108.031654,288.000000 
	C105.692322,288.000000 103.315132,288.270813 101.020660,287.949951 
	C93.733597,286.931000 89.355156,291.577271 85.047966,296.127167 
	C84.420815,296.789642 85.364868,298.939514 85.715385,301.300323 
	C79.991997,303.912323 73.235886,306.995605 66.479774,310.078918 
	C66.741684,310.669250 67.003593,311.259613 67.265495,311.849945 
	C77.616508,311.126434 88.931976,316.780273 99.075714,306.590088 
	C95.986412,306.119232 94.043701,305.823151 92.100998,305.527069 
	C92.088593,305.156189 92.076180,304.785309 92.063774,304.414429 
	C95.966080,303.940460 99.876740,303.522736 103.763603,302.944946 
	C104.537498,302.829865 105.220352,302.102325 105.945190,301.657257 
	C105.318871,301.108643 104.769844,300.249054 104.051537,300.070496 
	C102.002159,299.561157 99.867577,299.402405 97.802490,298.943756 
	C97.163498,298.801819 96.639824,298.140686 96.063347,297.717285 
	C96.495575,297.158813 96.825378,296.264069 97.376579,296.096130 
	C101.093124,294.964020 104.927658,294.186218 108.580711,292.889954 
	C111.161613,291.974121 113.517151,290.423279 116.674263,288.794220 
	C116.674263,288.106567 116.674263,286.360779 116.674263,284.868317 
	C111.658920,283.522400 106.638870,282.230560 101.653191,280.817413 
	C98.450912,279.909729 92.568459,272.363434 93.012733,269.872742 
	C94.360840,262.315186 99.059990,256.845245 104.769447,252.332993 
	C106.442215,251.010971 109.492805,250.938904 111.863586,251.083878 
	C119.722649,251.564468 126.915001,254.290390 133.050140,259.186127 
	C134.376556,260.244598 134.234024,263.018311 135.050110,264.878204 
	C135.824371,266.642792 136.968353,268.245148 137.949753,269.918823 
	C139.137268,268.998352 140.423538,268.179413 141.494003,267.138519 
	C144.856766,263.868713 149.403320,263.279877 153.352829,261.440308 
	C159.237030,258.699646 165.016876,259.638672 170.846939,258.893677 
	C178.312027,257.939789 184.097809,261.707977 189.743988,265.218018 
	C192.260529,266.782501 193.275482,270.762360 195.189789,274.016266 
	C205.753098,274.218201 218.058701,271.239929 224.382065,285.262329 
	C216.814621,284.490143 208.900833,285.182373 202.349121,282.521179 
	C197.447769,280.530396 190.411118,281.749268 187.373047,275.322693 
	C186.957581,274.443848 184.751785,274.180481 183.337769,274.056854 
	C181.022476,273.854431 178.659851,274.180450 176.347107,273.963959 
	C170.891937,273.453369 166.423538,274.479645 162.790924,279.285828 
	C158.268616,285.269196 150.740128,283.331451 144.577621,285.061646 
	C141.117828,286.033051 137.832962,287.627533 134.469284,288.941284 
	C134.694824,289.619446 134.920364,290.297638 135.145905,290.975800 
	C137.673706,290.864532 140.200714,290.691254 142.729553,290.658386 
	C145.624207,290.620789 148.540237,290.928040 151.409668,290.670135 
	C153.634186,290.470215 155.801926,289.634125 157.993698,289.076111 
	C159.308655,288.741333 160.820114,287.799286 161.901505,288.158600 
	C167.359497,289.972198 171.345749,287.478363 174.976151,284.030701 
	C177.027893,282.082245 184.438721,282.923920 185.978119,285.794861 
	C187.744675,289.089325 190.000946,290.399628 193.850235,290.073578 
	C207.795898,288.892242 221.757858,287.842560 235.732208,287.085297 
	C243.043045,286.689117 250.405502,287.271698 257.720337,286.914581 
	C263.428711,286.635925 269.052246,287.780640 274.943176,285.356873 
	C279.210266,283.601257 284.781067,285.014252 290.117950,285.933655 
	C289.160431,286.576019 288.264771,287.639740 287.235107,287.790985 
	C281.400421,288.648163 275.548157,289.459351 269.673889,289.953552 
	C263.262848,290.492920 256.732330,290.136902 250.424011,291.190125 
	C246.147568,291.904114 242.120239,294.280487 238.094360,296.155670 
	C237.429916,296.465118 237.204575,297.996338 237.018219,299.007507 
	C235.889481,305.132416 231.388626,308.979706 225.218613,308.998840 
	C222.885681,309.006073 220.480621,309.367767 218.234039,308.927277 
	C212.703934,307.842896 209.037720,310.790558 205.361649,314.109375 
	C204.136993,315.215057 202.628876,316.681549 201.188065,316.754578 
	C195.379501,317.049011 189.079590,318.237122 183.856369,316.461609 
	C178.812271,314.746979 175.546875,314.248688 170.240570,316.393616 
	C163.341568,319.182343 155.216507,319.771698 147.619629,319.769165 
	C139.792175,319.766571 133.985245,321.346832 128.265671,327.477600 
	C122.131065,334.053284 116.271683,334.165527 110.191200,325.074036 
	C107.876381,321.612976 105.947739,322.509277 103.920509,324.403503 
	C99.406296,328.621613 94.177811,330.902405 88.161865,332.202545 
	C85.863686,332.699249 83.048874,335.045410 82.255356,337.204956 
	C81.233849,339.984955 81.781586,343.330048 78.351257,344.851379 
	C73.764114,346.885773 69.519020,345.956726 65.261223,343.636261 
	C64.097282,343.001923 62.335159,343.553162 60.875580,343.354401 
	C58.088444,342.974884 55.224899,342.754578 52.565807,341.918701 
	C46.658375,340.061676 42.029625,333.953217 42.000053,328.505554 
	C41.965866,322.206573 46.887470,315.754028 53.057411,313.996796 
	C53.835964,313.775085 54.603321,313.513763 55.374573,313.266785 
	C64.000015,310.504730 64.330505,310.488281 63.906815,301.866180 
	C63.485046,293.283234 66.935829,287.462677 74.506607,283.744141 
	C75.991493,283.014832 77.246269,281.816956 78.938080,280.550201 
z"/>
<path fill="#C38890" opacity="1.000000" stroke="none" 
	d="
M693.657959,221.173843 
	C714.250793,220.363235 734.404785,219.384033 754.565857,219.208221 
	C759.638794,219.163986 765.810852,219.234802 768.963806,225.015640 
	C769.858704,226.656265 771.214233,229.233582 770.569641,230.291519 
	C768.967896,232.920563 767.533752,236.193268 763.241882,236.068954 
	C754.918823,235.827896 746.583862,235.999710 738.253784,235.999924 
	C726.924866,236.000198 715.583191,235.684921 704.273010,236.145416 
	C699.316223,236.347229 694.470337,238.517044 689.492615,239.117554 
	C679.465637,240.327225 669.573547,241.993805 659.264343,239.404755 
	C651.395264,237.428543 642.958984,237.697128 634.771057,237.014313 
	C632.687500,236.840546 629.809692,237.486450 630.211121,234.218048 
	C630.360046,233.005020 632.575195,231.744736 634.096436,231.049057 
	C645.847473,225.675217 658.365906,225.908371 670.923645,225.883820 
	C677.087097,225.871765 683.267578,224.775742 689.395386,223.867264 
	C690.767395,223.663864 691.951294,222.191208 693.657959,221.173843 
z"/>
<path fill="#C38890" opacity="1.000000" stroke="none" 
	d="
M447.666992,192.995422 
	C440.610565,192.012924 435.624146,196.671173 429.699799,198.111237 
	C428.212189,198.472824 426.754364,198.956894 424.882599,198.446884 
	C421.371277,203.008636 416.471649,203.402390 411.134827,203.105896 
	C409.495239,203.014816 407.824799,204.343674 406.105011,204.605682 
	C404.085938,204.913284 401.992462,204.877838 399.941132,204.781403 
	C398.377808,204.707886 396.613708,203.704285 395.317047,204.169144 
	C391.909637,205.390701 388.659851,207.094879 385.438416,208.780960 
	C381.797363,210.686630 379.933319,207.201584 378.731354,205.626511 
	C376.844116,203.153519 374.945740,202.979584 372.431000,202.982895 
	C350.112457,203.012344 327.793732,202.964569 305.475372,203.039703 
	C302.280853,203.050461 299.125397,202.613358 299.182312,198.935318 
	C299.239075,195.267990 302.482635,195.110764 305.603394,194.911514 
	C311.081146,194.561798 316.510803,193.475296 321.988190,193.094513 
	C324.169647,192.942856 326.411530,193.944427 328.649628,194.242905 
	C330.895813,194.542435 333.229889,195.020569 335.420868,194.701736 
	C338.750031,194.217316 341.988953,193.112518 345.214661,192.284470 
	C350.563690,177.386749 361.375214,185.876648 370.402710,186.779800 
	C371.970398,178.863922 373.388550,177.276657 380.039276,178.170944 
	C382.603088,178.515671 385.694855,180.239487 387.108978,182.314423 
	C388.482483,184.329697 388.014557,187.599960 388.372864,190.459305 
	C388.453247,190.522217 388.694061,190.701263 388.924652,190.892624 
	C393.981110,195.089233 398.530212,193.924042 403.602203,190.394073 
	C406.119812,188.641861 409.200287,189.809814 409.285736,193.409149 
	C412.179169,192.250748 414.932617,190.433105 417.816742,190.194458 
	C420.712402,189.954849 423.738251,191.288742 426.534332,191.895569 
	C428.935791,191.293381 431.495544,190.200897 434.097656,190.088531 
	C440.405884,189.816101 446.733795,190.000000 453.615387,190.000000 
	C451.425354,191.186920 449.759979,192.089493 447.666992,192.995422 
z"/>
<path fill="#C38890" opacity="1.000000" stroke="none" 
	d="
M558.459595,440.552307 
	C556.795410,437.298248 555.251648,433.974548 553.425232,430.814270 
	C552.174072,428.649445 554.085144,425.346741 557.091309,425.038879 
	C558.222534,424.923004 559.403870,425.083984 560.537476,425.270203 
	C561.469788,425.423401 562.365295,425.800446 563.296143,426.084076 
	C565.650085,415.389587 571.610535,410.440247 581.234741,411.001129 
	C586.156555,411.287964 590.651428,417.770020 591.352539,426.402008 
	C595.125854,424.653473 598.586060,422.758820 602.260132,421.477112 
	C603.956848,420.885162 606.494202,420.809479 607.911499,421.689636 
	C611.237671,423.755463 614.318237,426.340759 617.077026,429.132080 
	C618.115601,430.182953 618.889526,433.040070 618.232056,433.940643 
	C616.017334,436.974243 612.697632,439.214050 610.554443,442.283813 
	C607.301453,446.942932 604.969971,445.180573 602.362427,441.914978 
	C601.764771,441.166534 600.957397,440.585602 600.277283,439.956055 
	C593.904541,444.877899 592.160522,444.401703 589.750488,437.915009 
	C584.156128,440.251099 578.653931,442.983459 572.862061,444.784302 
	C569.955872,445.687836 566.468262,445.672150 564.225037,442.002716 
	C563.474976,440.775787 560.860168,440.688812 558.759277,440.297607 
	C558.420776,440.514435 558.459595,440.552307 558.459595,440.552307 
z"/>
<path fill="#C38890" opacity="1.000000" stroke="none" 
	d="
M1009.000366,329.166656 
	C1016.335571,327.972595 1023.363098,325.938019 1029.682007,320.819458 
	C1030.136597,317.690002 1036.325806,310.937866 1040.214966,310.040222 
	C1042.741577,309.457092 1044.707520,310.500275 1044.862793,312.965973 
	C1045.350830,320.710297 1051.157715,324.878754 1055.679565,329.949402 
	C1056.292236,330.636475 1056.731934,331.477814 1057.251831,332.247772 
	C1056.273315,332.831329 1055.315552,333.870270 1054.312500,333.915894 
	C1050.833008,334.074249 1047.019775,334.893402 1045.004028,330.584320 
	C1044.662842,329.855164 1043.428345,329.072571 1042.636108,329.102173 
	C1037.398315,329.298096 1032.153564,329.574219 1026.946411,330.145569 
	C1025.653442,330.287445 1024.263306,331.401764 1023.310486,332.432159 
	C1020.514587,335.455536 1017.191406,335.862427 1014.099365,333.483765 
	C1012.787476,332.474518 1011.216797,331.801727 1009.381836,330.626892 
	C1009.000061,329.907410 1009.000183,329.537018 1009.000366,329.166656 
z"/>
<path fill="#C38890" opacity="1.000000" stroke="none" 
	d="
M558.438965,440.515656 
	C556.333435,440.760468 554.209595,441.004089 551.146790,441.355408 
	C553.311707,441.877930 554.619934,442.193665 556.358826,442.613373 
	C554.047791,446.210815 551.169678,445.515991 548.971619,443.852295 
	C545.770203,441.429230 543.663757,440.263000 541.243408,444.869843 
	C540.552856,446.184387 537.134216,446.065735 536.361938,446.257599 
	C534.988892,449.046600 534.249573,451.490570 532.717773,453.240997 
	C532.008484,454.051544 529.456360,454.088684 528.258179,453.470947 
	C524.990479,451.786102 521.998779,449.566010 518.305786,447.174683 
	C518.240479,447.780243 518.326355,446.983673 518.402832,446.274933 
	C514.220581,445.984589 510.036469,445.694153 505.852356,445.403717 
	C505.863129,445.013336 505.873871,444.622955 505.884644,444.232574 
	C512.097778,443.260559 518.310974,442.288513 522.710876,441.600159 
	C526.155090,437.473724 528.350403,432.289062 531.650635,431.449951 
	C537.554321,429.948822 541.939575,434.634369 545.203186,439.309540 
	C549.726135,433.537720 553.602539,439.389587 558.091064,440.287964 
	C558.459595,440.552307 558.420776,440.514435 558.438965,440.515656 
z"/>
<path fill="#C38890" opacity="1.000000" stroke="none" 
	d="
M435.122009,209.000000 
	C429.438354,207.914948 424.237274,206.829880 419.036224,205.744812 
	C419.059845,205.186905 419.083496,204.628983 419.107117,204.071060 
	C421.682404,204.071060 424.946289,203.054474 426.711548,204.250244 
	C433.680664,208.971085 439.410950,204.124664 445.569397,202.624649 
	C446.997772,202.276733 448.327484,201.094620 449.714172,201.074020 
	C459.184357,200.933304 468.659424,201.103058 478.128906,200.939926 
	C481.118439,200.888428 483.491516,201.983780 483.819427,204.671371 
	C484.184174,207.661163 481.405853,208.100037 478.918030,209.185867 
	C471.047485,212.621078 462.972168,210.708328 455.038330,210.836533 
	C448.571991,210.941040 442.083374,209.664291 435.122009,209.000000 
z"/>
<path fill="#C38890" opacity="1.000000" stroke="none" 
	d="
M303.817749,277.005432 
	C310.437622,278.640747 316.626373,280.272003 322.815125,281.903290 
	C322.824188,282.364624 322.833221,282.825989 322.842285,283.287354 
	C312.699829,283.493317 302.557373,283.699310 292.365967,283.906281 
	C292.705261,280.749268 298.714386,277.137482 303.817749,277.005432 
z"/>
<path fill="#C38890" opacity="1.000000" stroke="none" 
	d="
M1008.570068,329.096008 
	C1009.000183,329.537018 1009.000061,329.907410 1009.000122,330.555542 
	C1003.077148,331.760376 997.153931,332.687408 991.230713,333.614441 
	C991.125244,333.032776 991.019775,332.451111 990.914307,331.869446 
	C996.656189,330.921417 1002.398010,329.973389 1008.570068,329.096008 
z"/>
<path fill="#000000" opacity="1.000000" stroke="none" 
	d="
M733.172302,200.116211 
	C741.750916,193.455414 752.205627,197.782928 761.747437,194.408936 
	C761.908630,191.051804 763.844360,189.518951 767.739197,189.921387 
	C771.214233,190.280472 774.771240,190.162598 778.267456,189.911819 
	C781.886963,189.652191 783.547241,191.122009 783.103760,194.733551 
	C784.932434,194.943802 786.372498,195.109344 787.968689,195.292862 
	C782.097046,201.068176 781.414856,201.200775 779.285339,197.430267 
	C777.851135,197.967667 776.491516,198.878860 775.096863,198.936020 
	C764.186157,199.383118 753.268127,199.647903 742.353760,200.011917 
	C739.299927,200.113754 736.250854,200.359024 733.172302,200.116211 
z"/>
<path fill="#000000" opacity="1.000000" stroke="none" 
	d="
M795.341919,176.000000 
	C801.350586,176.368118 806.913940,176.736252 812.477356,177.104370 
	C812.725342,177.545364 812.973267,177.986359 813.221252,178.427353 
	C811.935486,179.283539 810.601135,180.936447 809.372009,180.861572 
	C803.191467,180.485107 796.854492,180.360275 790.922607,178.808548 
	C783.671021,176.911606 776.567505,174.858032 768.989746,174.900009 
	C768.016357,174.905396 766.627991,173.819611 766.205811,172.888382 
	C765.935730,172.292786 766.858032,170.545319 767.643250,170.188309 
	C771.072083,168.629196 774.646240,167.389801 778.706726,165.826874 
	C778.644653,171.451630 778.644653,171.451630 791.977844,172.240204 
	C791.644653,173.523300 791.340088,174.696381 791.001648,176.000000 
	C792.250305,176.000000 793.573486,176.000000 795.341919,176.000000 
z"/>
</svg>