<svg version="1.1" id="Layer_1" xmlns="http://www.w3.org/2000/svg" xmlns:xlink="http://www.w3.org/1999/xlink" x="0px" y="0px"
	 width="100%" viewBox="0 0 1200 600" enable-background="new 0 0 1200 600" xml:space="preserve">
<path fill="#000000" opacity="1.000000" stroke="none" 
	d="
M1201.000000,304.000000 
	C1201.000000,402.977875 1201.000000,501.955719 1201.000000,600.966797 
	C801.111511,600.966797 401.223083,600.966797 1.000000,600.966797 
	C1.000000,470.641022 1.000000,340.281769 1.375936,209.507278 
	C2.142337,209.551392 2.733143,209.950378 2.892512,210.479340 
	C4.629284,216.243805 7.619493,221.054443 12.535217,224.746719 
	C17.878107,228.759857 22.876625,233.230103 28.198069,237.273666 
	C31.392466,239.700958 34.657944,242.531387 38.357052,243.675934 
	C43.321793,245.212082 48.754440,245.186295 53.949188,246.052979 
	C56.063118,246.405670 58.367809,246.917862 60.088303,248.088516 
	C65.907867,252.048172 71.678062,255.403015 79.039749,256.329315 
	C83.349800,256.871582 88.588043,259.225983 91.188797,262.518646 
	C100.708641,274.571075 113.574867,277.608429 127.684669,277.888763 
	C131.284332,277.960236 134.900314,276.593018 138.527786,276.003845 
	C147.017761,274.624939 155.819122,274.256256 163.917297,271.670868 
	C169.947845,269.745636 175.692139,265.634674 180.327103,261.203491 
	C182.454193,259.169922 183.865570,258.137177 186.596786,257.950745 
	C194.550430,257.407776 202.550903,257.040649 210.415054,255.835114 
	C218.991959,254.520309 225.806946,249.989639 231.316910,243.055435 
	C233.571640,240.217911 236.391251,237.717438 241.320419,237.750717 
	C252.422058,237.825653 263.730377,239.804520 274.647675,235.983658 
	C279.503845,234.284103 285.905884,233.917862 288.858337,230.542679 
	C294.050720,224.606842 299.909912,224.916412 306.288605,225.010941 
	C310.773590,225.077408 316.002960,223.842194 319.551117,225.727173 
	C323.919922,228.048126 327.983459,227.890213 332.308197,227.969101 
	C338.803864,228.087601 345.318634,228.256592 351.793396,227.870132 
	C354.309937,227.719925 356.750458,226.144775 359.206146,225.169678 
	C361.789490,224.143875 364.329651,222.204727 366.923218,222.144196 
	C380.244873,221.833313 393.577698,222.022232 406.906494,221.986038 
	C412.025360,221.972137 415.193939,219.713394 414.924683,216.041367 
	C414.578064,211.313034 410.817657,211.097809 407.306305,211.033600 
	C401.310303,210.923935 395.309692,210.930069 389.313293,211.026596 
	C385.708710,211.084625 382.214508,211.434677 380.111328,207.406311 
	C379.538147,206.308472 377.833954,205.296890 376.549591,205.157013 
	C368.616608,204.292969 360.638641,203.832245 352.713226,202.913483 
	C350.288208,202.632355 347.811401,201.636337 345.656128,200.433884 
	C341.249390,197.975266 337.144897,194.671265 331.637177,196.049301 
	C329.241119,196.648773 326.966736,197.734604 324.637268,198.599945 
	C321.914703,190.141418 308.676880,183.787109 301.087097,191.515106 
	C296.866577,187.621841 293.205597,182.696915 288.310638,180.081802 
	C280.409424,175.860596 271.787598,172.831848 262.485504,172.990341 
	C258.987671,173.049942 255.487305,172.956528 251.989334,173.011520 
	C248.014404,173.074005 243.483917,171.828476 241.648743,177.261047 
	C241.519608,177.643280 240.532898,177.852997 239.917038,177.936172 
	C229.744095,179.310150 219.572845,180.699905 209.388351,181.984177 
	C200.704010,183.079285 192.604202,187.778198 183.468933,186.181244 
	C183.011520,186.101273 182.448730,187.042191 181.877518,187.128830 
	C177.374084,187.811783 172.856674,188.402496 168.343552,189.021591 
	C168.244675,188.390167 168.145813,187.758728 168.046936,187.127289 
	C179.101944,177.654663 193.328323,181.178818 206.541916,178.568832 
	C203.608521,176.322830 200.826218,174.192490 198.043900,172.062164 
	C198.502914,171.459259 198.961929,170.856354 199.420944,170.253448 
	C205.796082,169.107071 211.390076,172.013809 217.134750,174.215240 
	C218.921860,174.900085 220.938126,176.110657 222.602234,175.791489 
	C228.689117,174.623978 234.671722,172.912888 241.572784,171.186615 
	C238.992371,169.666595 237.056534,168.792511 235.430099,167.522278 
	C228.303543,161.956314 220.149979,159.202866 211.236176,159.056473 
	C198.009354,158.839203 184.763519,159.329803 171.553024,158.817139 
	C167.064865,158.642944 162.559036,156.598633 158.260559,154.903564 
	C156.295959,154.128845 153.343582,152.092239 153.379456,150.693085 
	C153.504349,145.822815 150.540436,143.016174 147.834518,139.901062 
	C142.398056,133.642517 134.900269,128.791443 127.627365,127.557434 
	C114.606407,125.348114 100.963531,125.403275 87.718063,126.378609 
	C77.819176,127.107513 68.280327,126.625389 58.696632,124.820610 
	C57.031582,124.507065 55.483944,122.915627 54.155102,121.631813 
	C52.371563,119.908730 50.863308,117.902191 49.218922,116.033142 
	C47.762180,114.377380 46.280872,112.743240 44.810410,111.099548 
	C45.186958,110.768791 45.563511,110.438042 45.940060,110.107285 
	C50.726574,112.506477 55.787491,114.486389 60.238003,117.398994 
	C67.698471,122.281464 75.582230,120.078491 83.186592,119.091621 
	C86.848259,118.616417 91.062424,116.192001 93.423080,113.328476 
	C97.120033,108.843979 101.346672,106.765823 106.764908,107.078529 
	C111.572960,107.356018 116.332909,108.750328 121.131111,108.852531 
	C129.538986,109.031624 137.529465,111.020348 145.680283,112.741112 
	C153.341705,114.358559 159.163971,118.223778 165.063751,122.918655 
	C171.892075,128.352432 172.304367,135.263641 172.227524,143.017609 
	C172.198135,145.982651 174.229218,149.362656 176.219437,151.828751 
	C177.820755,153.813004 180.798035,152.898499 180.801636,150.152557 
	C180.810303,143.533447 182.181732,136.838425 178.980637,130.336212 
	C173.510010,119.224152 164.444214,111.800705 153.546661,107.426117 
	C146.186661,104.471588 137.890015,103.068611 129.503082,103.893143 
	C123.811462,104.452690 118.020332,104.000000 112.000519,104.000000 
	C112.000519,101.391098 111.812408,99.708847 112.031395,98.081375 
	C113.341934,88.341537 108.090157,80.822350 102.251022,74.571556 
	C95.435417,67.275444 85.975502,62.797207 76.129791,61.228912 
	C65.408401,59.521137 54.388943,59.208988 43.501789,59.236099 
	C38.699993,59.248055 33.427082,60.742504 29.216368,63.087288 
	C22.783373,66.669563 16.866810,71.308487 11.173359,76.032005 
	C8.547359,78.210655 6.967157,81.650253 4.914399,84.519287 
	C3.608057,86.345093 2.304697,88.173019 1.000000,90.000000 
	C1.000000,60.342400 1.000000,30.684799 1.000000,1.052969 
	C401.000000,1.052969 801.000000,1.052969 1201.000000,1.052969 
	C1201.000000,32.096455 1201.000000,63.086975 1200.638672,94.515045 
	C1194.721069,91.207924 1189.101562,87.553032 1183.624268,83.696342 
	C1176.380981,78.596184 1167.779053,77.527237 1159.508789,76.273628 
	C1154.280884,75.481163 1148.664429,77.432770 1143.203613,77.961800 
	C1130.541870,79.188431 1120.450073,85.742302 1111.618896,94.089066 
	C1107.585571,97.901192 1105.235718,103.463814 1101.940186,108.103065 
	C1100.668091,109.893791 1098.733521,112.823326 1097.369385,112.679916 
	C1088.001953,111.695183 1079.141846,112.334015 1069.762817,114.550156 
	C1057.950317,117.341309 1044.039185,133.140457 1044.943726,146.213486 
	C1045.338623,151.918182 1052.401611,157.598312 1058.107178,156.463196 
	C1063.057495,155.478348 1067.909058,155.170532 1071.836304,159.410568 
	C1074.537476,162.326981 1077.887939,163.633423 1081.966675,163.061768 
	C1083.223999,162.885529 1084.578003,163.397324 1086.563110,163.695541 
	C1081.726562,167.572464 1075.915527,167.429245 1072.548584,164.211472 
	C1068.925537,160.748886 1065.100952,157.576202 1059.435913,159.531448 
	C1059.110474,160.975800 1058.797241,162.365921 1058.415527,164.060333 
	C1057.218262,163.672516 1056.223877,163.540665 1055.437988,163.064621 
	C1050.815552,160.264603 1046.478271,156.842972 1041.577271,154.701004 
	C1037.594482,152.960358 1033.815186,151.589340 1030.376099,148.524948 
	C1024.674683,143.444763 1018.932983,138.342178 1010.557556,137.094040 
	C1001.536072,135.749619 993.169312,130.793732 983.588501,131.961838 
	C981.454224,132.222015 979.253113,132.121414 977.096680,131.978027 
	C969.607910,131.480042 962.885010,134.031448 956.078674,136.700348 
	C951.322449,138.565353 946.249329,140.698074 941.299255,140.744583 
	C933.565247,140.817215 927.317322,143.645004 920.943787,147.391647 
	C916.325928,150.106216 910.204346,150.800400 906.387634,154.219818 
	C899.915344,160.018417 894.233154,166.905014 889.214172,174.034973 
	C886.608765,177.736145 886.134888,182.937744 884.831238,187.042480 
	C878.432251,188.370316 871.886353,189.701904 865.359253,191.119812 
	C864.616577,191.281158 863.848633,191.804001 863.315186,192.369446 
	C860.806519,195.028671 858.319336,197.712738 855.931152,200.480026 
	C853.025879,203.846664 853.154236,215.197952 856.102966,218.242752 
	C856.756531,218.917664 857.570496,219.611725 858.438843,219.876877 
	C866.047058,222.200119 871.638916,226.568176 873.833923,234.823074 
	C877.697632,231.843018 881.489319,228.918549 883.866394,227.085190 
	C891.733337,227.085190 898.059143,227.085190 904.298889,227.085190 
	C903.576904,225.836899 902.724243,224.362732 901.871521,222.888550 
	C902.195923,222.538147 902.520325,222.187744 902.844727,221.837341 
	C904.201721,222.499893 905.577454,223.126892 906.912231,223.831589 
	C911.075256,226.029465 914.390625,230.763245 920.227966,226.075424 
	C924.037964,223.015656 924.716431,222.106674 921.137451,218.204239 
	C918.506958,215.336075 916.180847,212.188858 913.719055,209.166000 
	C914.135193,208.677948 914.551331,208.189896 914.967529,207.701828 
	C916.731506,208.854065 918.679565,209.805618 920.211670,211.210754 
	C922.011475,212.861435 923.108521,213.856506 925.430603,211.526840 
	C926.721863,210.231384 929.495728,210.413803 931.601440,209.930161 
	C931.802002,210.476578 932.002502,211.022980 932.203064,211.569382 
	C930.867126,212.735077 929.531250,213.900772 927.197266,215.937363 
	C930.662659,216.389328 932.997131,216.745010 935.343079,216.990021 
	C941.935120,217.678436 948.910767,215.188904 955.097656,219.042175 
	C958.910095,221.416534 963.034363,223.626434 964.735718,228.584473 
	C962.958984,228.669205 960.816162,228.601059 960.148621,227.574066 
	C953.527222,217.386734 936.285156,218.088943 927.861511,224.270340 
	C925.589844,225.937332 922.081787,227.248535 921.367004,229.446808 
	C919.571655,234.967743 913.876953,234.594208 910.649292,237.734711 
	C910.284058,238.090164 907.932617,236.929794 906.926270,236.008881 
	C902.854919,232.283417 897.966187,229.179718 892.709351,230.328659 
	C885.833435,231.831451 879.478882,235.249695 876.936157,242.885651 
	C876.663635,243.703979 875.519165,244.231934 874.779175,244.894592 
	C874.175232,244.081268 873.394287,243.345184 872.999695,242.440552 
	C871.665527,239.382278 870.846619,236.029953 869.114319,233.233978 
	C867.331848,230.357056 864.904968,227.784210 862.378113,225.501038 
	C860.965515,224.224762 858.794128,223.161194 856.935364,223.112198 
	C847.777954,222.870789 838.604248,222.796753 829.449768,223.087708 
	C824.992188,223.229370 820.542847,224.179352 816.126892,224.970642 
	C806.594910,226.678604 798.665527,231.314545 791.315613,237.621872 
	C783.423157,244.394897 778.920227,252.361130 778.996582,262.809448 
	C779.018555,265.815399 779.000000,268.821625 779.000000,271.799591 
	C777.725525,271.799591 777.539246,271.849487 777.399048,271.790344 
	C776.967712,271.608398 776.487488,271.462036 776.143066,271.166016 
	C767.791748,263.987762 757.861694,261.162781 747.117371,261.106110 
	C743.846497,261.088837 740.576660,262.375336 737.292969,262.993317 
	C728.082520,264.726532 721.000366,269.609406 715.091248,276.849091 
	C704.019775,290.413544 708.331482,306.802917 717.939270,315.570404 
	C728.489563,325.197937 741.772034,329.313568 756.430725,326.285431 
	C761.314209,325.276611 766.175842,324.162415 771.016846,323.063293 
	C770.986206,323.030243 770.919983,322.969055 771.063599,323.300751 
	C774.151917,325.712952 776.824097,328.767944 780.094788,329.682159 
	C788.270752,331.967499 796.649536,334.027557 805.073547,334.803680 
	C816.621887,335.867706 828.286926,335.671722 839.902527,335.996918 
	C849.801270,336.274048 858.702881,333.585052 866.603699,327.438324 
	C867.631348,326.638824 870.030212,326.802429 871.413574,327.400238 
	C876.876221,329.760895 881.954041,333.534485 887.615234,334.777893 
	C894.299866,336.246124 901.440552,335.861298 908.383057,335.854004 
	C912.986206,335.849152 917.598999,335.187134 922.188599,334.655884 
	C927.758545,334.011200 933.289185,332.930695 938.872253,332.521698 
	C945.265564,332.053314 951.710754,332.310913 958.108276,331.879425 
	C962.577026,331.578033 967.044250,329.904327 971.440857,330.144928 
	C982.887878,330.771393 993.970764,328.629761 1005.128662,326.850586 
	C1007.560669,326.462799 1010.097473,326.334076 1012.385437,325.521393 
	C1017.746521,323.617157 1023.005676,321.979828 1028.870239,322.959930 
	C1039.147583,324.677490 1049.248901,324.601196 1059.447388,321.317780 
	C1066.648315,318.999359 1074.359009,318.125916 1081.906738,317.069275 
	C1087.290894,316.315491 1092.799316,315.893402 1098.222412,316.101318 
	C1106.521729,316.419464 1114.249146,314.775879 1121.750732,311.377014 
	C1122.583374,310.999756 1124.117065,311.765228 1125.158081,312.317078 
	C1132.968018,316.456848 1141.171387,319.361969 1150.092041,318.887054 
	C1154.196777,318.668518 1158.403687,317.683899 1162.262939,316.240784 
	C1166.810181,314.540375 1171.057373,312.016846 1175.376953,309.740692 
	C1176.640137,309.074982 1177.611450,307.475159 1178.878662,307.260376 
	C1186.225708,306.015228 1193.620972,305.055969 1201.000000,304.000000 
z"/>
<path fill="#455679" opacity="1.000000" stroke="none" 
	d="
M1201.000000,303.531342 
	C1193.620972,305.055969 1186.225708,306.015228 1178.878662,307.260376 
	C1177.611450,307.475159 1176.640137,309.074982 1175.376953,309.740692 
	C1171.057373,312.016846 1166.810181,314.540375 1162.262939,316.240784 
	C1158.403687,317.683899 1154.196777,318.668518 1150.092041,318.887054 
	C1141.171387,319.361969 1132.968018,316.456848 1125.158081,312.317078 
	C1124.117065,311.765228 1122.583374,310.999756 1121.750732,311.377014 
	C1114.249146,314.775879 1106.521729,316.419464 1098.222412,316.101318 
	C1092.799316,315.893402 1087.290894,316.315491 1081.906738,317.069275 
	C1074.359009,318.125916 1066.648315,318.999359 1059.447388,321.317780 
	C1049.248901,324.601196 1039.147583,324.677490 1028.870239,322.959930 
	C1023.005676,321.979828 1017.746521,323.617157 1012.385437,325.521393 
	C1010.097473,326.334076 1007.560669,326.462799 1005.128662,326.850586 
	C993.970764,328.629761 982.887878,330.771393 971.440857,330.144928 
	C967.044250,329.904327 962.577026,331.578033 958.108276,331.879425 
	C951.710754,332.310913 945.265564,332.053314 938.872253,332.521698 
	C933.289185,332.930695 927.758545,334.011200 922.188599,334.655884 
	C917.598999,335.187134 912.986206,335.849152 908.383057,335.854004 
	C901.440552,335.861298 894.299866,336.246124 887.615234,334.777893 
	C881.954041,333.534485 876.876221,329.760895 871.413574,327.400238 
	C870.030212,326.802429 867.631348,326.638824 866.603699,327.438324 
	C858.702881,333.585052 849.801270,336.274048 839.902527,335.996918 
	C828.286926,335.671722 816.621887,335.867706 805.073547,334.803680 
	C796.649536,334.027557 788.270752,331.967499 780.094788,329.682159 
	C776.824097,328.767944 774.151917,325.712952 771.443237,323.302979 
	C775.445312,320.333893 779.071655,317.457489 783.019104,315.124603 
	C786.601929,313.007202 790.706238,312.166504 794.072632,315.463074 
	C796.552368,317.891235 799.184631,317.343842 800.524597,315.374878 
	C804.565308,309.437500 810.435425,310.833252 815.893188,310.939911 
	C820.178955,311.023682 824.448853,311.912415 829.164429,312.497986 
	C828.758667,311.352814 828.589233,310.747040 828.331177,310.181824 
	C828.067383,309.603821 827.716614,309.065552 827.595703,308.850616 
	C832.950928,306.737701 837.964966,304.759430 842.978943,302.781128 
	C843.081055,302.197296 843.183167,301.613464 843.285278,301.029602 
	C834.969543,303.723419 830.997925,296.180908 824.865845,293.729218 
	C824.379456,294.312103 823.893127,294.895020 823.406738,295.477905 
	C825.803223,298.129211 828.199646,300.780548 830.629517,303.468903 
	C829.409729,303.831024 827.896545,303.860870 827.000854,304.619629 
	C823.340698,307.719910 820.118042,307.348480 815.749573,305.354309 
	C808.824097,302.192871 799.992371,306.412079 798.147522,313.167664 
	C794.769897,311.590149 791.473511,310.050598 788.177185,308.511047 
	C788.265015,307.952209 788.352844,307.393402 788.440674,306.834564 
	C792.442017,309.548035 793.589172,306.598938 795.576477,304.350922 
	C797.337036,302.359375 800.068237,301.225891 802.370911,299.713593 
	C802.147705,299.250000 801.924438,298.786407 801.701233,298.322815 
	C800.426086,298.259644 798.971008,297.767212 797.909119,298.212524 
	C794.520813,299.633392 791.013794,301.032745 788.059448,303.148193 
	C785.451050,305.015930 783.722717,304.982239 781.040222,303.334290 
	C778.589539,301.828766 775.489380,301.380554 772.675415,300.466370 
	C771.944031,301.543182 771.212646,302.619995 770.481262,303.696777 
	C771.640381,303.950500 773.027405,303.880493 773.921692,304.510223 
	C779.926575,308.738953 779.760498,312.026794 774.217224,316.557831 
	C772.515808,317.948486 772.068848,320.873810 771.047485,323.096375 
	C766.175842,324.162415 761.314209,325.276611 756.430725,326.285431 
	C741.772034,329.313568 728.489563,325.197937 717.939270,315.570404 
	C708.331482,306.802917 704.019775,290.413544 715.091248,276.849091 
	C721.000366,269.609406 728.082520,264.726532 737.292969,262.993317 
	C740.576660,262.375336 743.846497,261.088837 747.117371,261.106110 
	C757.861694,261.162781 767.791748,263.987762 776.143066,271.166016 
	C776.487488,271.462036 776.967712,271.608398 777.399048,271.790344 
	C777.539246,271.849487 777.725525,271.799591 779.000000,271.799591 
	C779.000000,268.821625 779.018555,265.815399 778.996582,262.809448 
	C778.920227,252.361130 783.423157,244.394897 791.315613,237.621872 
	C798.665527,231.314545 806.594910,226.678604 816.126892,224.970642 
	C820.542847,224.179352 824.992188,223.229370 829.449768,223.087708 
	C838.604248,222.796753 847.777954,222.870789 856.935364,223.112198 
	C858.794128,223.161194 860.965515,224.224762 862.378113,225.501038 
	C864.904968,227.784210 867.331848,230.357056 869.114319,233.233978 
	C870.846619,236.029953 871.665527,239.382278 872.999695,242.440552 
	C873.394287,243.345184 874.175232,244.081268 874.779175,244.894592 
	C875.519165,244.231934 876.663635,243.703979 876.936157,242.885651 
	C879.478882,235.249695 885.833435,231.831451 892.709351,230.328659 
	C897.966187,229.179718 902.854919,232.283417 906.926270,236.008881 
	C907.932617,236.929794 910.284058,238.090164 910.649292,237.734711 
	C913.876953,234.594208 919.571655,234.967743 921.367004,229.446808 
	C922.081787,227.248535 925.589844,225.937332 927.861511,224.270340 
	C936.285156,218.088943 953.527222,217.386734 960.148621,227.574066 
	C960.816162,228.601059 962.958984,228.669205 964.735718,228.584473 
	C963.034363,223.626434 958.910095,221.416534 955.097656,219.042175 
	C948.910767,215.188904 941.935120,217.678436 935.343079,216.990021 
	C932.997131,216.745010 930.662659,216.389328 927.197266,215.937363 
	C929.531250,213.900772 930.867126,212.735077 932.203064,211.569382 
	C932.002502,211.022980 931.802002,210.476578 931.601440,209.930161 
	C929.495728,210.413803 926.721863,210.231384 925.430603,211.526840 
	C923.108521,213.856506 922.011475,212.861435 920.211670,211.210754 
	C918.679565,209.805618 916.731506,208.854065 914.967529,207.701828 
	C914.551331,208.189896 914.135193,208.677948 913.719055,209.166000 
	C916.180847,212.188858 918.506958,215.336075 921.137451,218.204239 
	C924.716431,222.106674 924.037964,223.015656 920.227966,226.075424 
	C914.390625,230.763245 911.075256,226.029465 906.912231,223.831589 
	C905.577454,223.126892 904.201721,222.499893 902.844727,221.837341 
	C902.520325,222.187744 902.195923,222.538147 901.871521,222.888550 
	C902.724243,224.362732 903.576904,225.836899 904.298889,227.085190 
	C898.059143,227.085190 891.733337,227.085190 883.866394,227.085190 
	C881.489319,228.918549 877.697632,231.843018 873.833923,234.823074 
	C871.638916,226.568176 866.047058,222.200119 858.438843,219.876877 
	C857.570496,219.611725 856.756531,218.917664 856.102966,218.242752 
	C853.154236,215.197952 853.025879,203.846664 855.931152,200.480026 
	C858.319336,197.712738 860.806519,195.028671 863.315186,192.369446 
	C863.848633,191.804001 864.616577,191.281158 865.359253,191.119812 
	C871.886353,189.701904 878.432251,188.370316 884.831238,187.042480 
	C886.134888,182.937744 886.608765,177.736145 889.214172,174.034973 
	C894.233154,166.905014 899.915344,160.018417 906.387634,154.219818 
	C910.204346,150.800400 916.325928,150.106216 920.943787,147.391647 
	C927.317322,143.645004 933.565247,140.817215 941.299255,140.744583 
	C946.249329,140.698074 951.322449,138.565353 956.078674,136.700348 
	C962.885010,134.031448 969.607910,131.480042 977.096680,131.978027 
	C979.253113,132.121414 981.454224,132.222015 983.588501,131.961838 
	C993.169312,130.793732 1001.536072,135.749619 1010.557556,137.094040 
	C1018.932983,138.342178 1024.674683,143.444763 1030.376099,148.524948 
	C1033.815186,151.589340 1037.594482,152.960358 1041.577271,154.701004 
	C1046.478271,156.842972 1050.815552,160.264603 1055.437988,163.064621 
	C1056.223877,163.540665 1057.218262,163.672516 1058.415527,164.060333 
	C1058.797241,162.365921 1059.110474,160.975800 1059.435913,159.531448 
	C1065.100952,157.576202 1068.925537,160.748886 1072.548584,164.211472 
	C1075.915527,167.429245 1081.726562,167.572464 1086.563110,163.695541 
	C1084.578003,163.397324 1083.223999,162.885529 1081.966675,163.061768 
	C1077.887939,163.633423 1074.537476,162.326981 1071.836304,159.410568 
	C1067.909058,155.170532 1063.057495,155.478348 1058.107178,156.463196 
	C1052.401611,157.598312 1045.338623,151.918182 1044.943726,146.213486 
	C1044.039185,133.140457 1057.950317,117.341309 1069.762817,114.550156 
	C1079.141846,112.334015 1088.001953,111.695183 1097.369385,112.679916 
	C1098.733521,112.823326 1100.668091,109.893791 1101.940186,108.103065 
	C1105.235718,103.463814 1107.585571,97.901192 1111.618896,94.089066 
	C1120.450073,85.742302 1130.541870,79.188431 1143.203613,77.961800 
	C1148.664429,77.432770 1154.280884,75.481163 1159.508789,76.273628 
	C1167.779053,77.527237 1176.380981,78.596184 1183.624268,83.696342 
	C1189.101562,87.553032 1194.721069,91.207924 1200.638672,94.976303 
	C1201.000000,104.687561 1201.000000,114.375122 1200.531982,124.531342 
	C1193.820190,125.353447 1187.576660,125.712059 1181.332397,126.056412 
	C1179.932861,126.133583 1178.527832,126.242836 1177.130005,126.197693 
	C1168.740479,125.926781 1160.352539,125.604843 1151.962402,125.363365 
	C1151.692505,125.355598 1151.403076,126.032104 1150.929443,126.636032 
	C1158.461304,128.480392 1165.811279,130.280243 1174.430298,132.390854 
	C1172.575684,134.074493 1172.074707,134.416077 1171.721313,134.872086 
	C1170.790894,136.072952 1169.729248,137.238693 1169.137695,138.599960 
	C1168.927612,139.083130 1169.922852,140.090210 1170.367920,140.858154 
	C1171.440796,139.918610 1172.501953,138.965271 1173.591675,138.045654 
	C1174.090698,137.624527 1174.730225,137.346939 1175.162720,136.873352 
	C1182.164429,129.206818 1191.709717,128.979309 1201.000000,128.000000 
	C1201.000000,186.354233 1201.000000,244.708450 1201.000000,303.531342 
M1021.505554,193.931824 
	C1024.613770,195.587708 1027.723389,197.240891 1030.829590,198.900620 
	C1032.312744,199.693146 1033.789429,200.498016 1036.054321,201.721466 
	C1035.008911,196.219177 1035.945312,193.193420 1039.764648,191.851685 
	C1046.513916,189.480698 1053.480225,186.752701 1060.476196,186.368668 
	C1066.053101,186.062515 1071.776245,189.166901 1077.498291,190.479309 
	C1080.920532,191.264252 1083.314087,196.746048 1088.093628,192.714203 
	C1072.569214,180.395157 1055.807739,180.847061 1038.436279,186.895309 
	C1039.703369,185.685638 1040.970581,184.475983 1043.350220,182.204407 
	C1037.686523,182.204407 1033.659058,181.838806 1029.733521,182.314636 
	C1026.303101,182.730484 1025.539307,186.070999 1027.582520,188.915115 
	C1028.459717,190.136002 1028.697754,191.816193 1029.572388,194.252350 
	C1026.922363,192.700729 1025.513306,191.723434 1023.982910,191.004364 
	C1014.101135,186.361221 1003.529358,186.946136 993.657837,189.500946 
	C987.947510,190.978836 987.116150,190.155624 986.870056,185.243073 
	C986.832886,184.500732 985.585510,183.819046 984.897888,183.109360 
	C984.281250,183.718994 983.483887,184.232239 983.094116,184.962906 
	C982.616577,185.858185 982.480164,186.935455 982.158813,188.065811 
	C978.390442,186.272232 975.055420,184.684937 971.720398,183.097641 
	C971.349792,183.466629 970.979187,183.835617 970.608521,184.204620 
	C971.772522,185.657578 972.851196,187.190063 974.117004,188.548096 
	C977.417603,192.089020 984.554565,192.314667 983.022583,200.475540 
	C984.880066,199.719193 986.268799,199.573944 986.959106,198.803207 
	C990.905945,194.396103 995.614746,191.125214 1001.600037,191.380493 
	C1007.994873,191.653214 1014.347534,192.912796 1021.505554,193.931824 
M902.679749,178.007446 
	C904.699280,178.526321 906.902161,178.690018 908.708252,179.622375 
	C919.473816,185.179901 927.730652,184.484985 937.015259,176.948654 
	C938.462891,175.773621 939.813599,174.479263 941.209106,173.240082 
	C940.914673,172.604141 940.620178,171.968216 940.325745,171.332275 
	C935.440918,172.253464 930.556030,173.174652 924.944641,174.232864 
	C923.867615,173.355362 921.716309,171.602509 919.095032,169.466721 
	C917.553162,171.728745 916.250793,173.639435 914.569458,176.106079 
	C913.390991,175.626785 911.527039,175.313141 910.259705,174.272781 
	C905.895752,170.690170 903.424927,171.562775 902.679749,178.007446 
M961.732178,284.459198 
	C963.780518,282.633789 966.008911,280.964935 967.794312,278.910980 
	C968.580017,278.007050 968.464600,276.319855 968.758301,274.988312 
	C967.728088,274.766205 966.653015,274.237762 965.676392,274.381042 
	C963.039124,274.767914 960.444092,275.441498 957.831909,275.999847 
	C952.183472,277.207092 946.438416,278.096252 940.931885,279.770203 
	C938.607727,280.476746 936.785889,282.835938 934.832092,284.368317 
	C936.682617,285.935913 937.789978,287.488007 939.232910,287.920349 
	C940.623413,288.336975 942.710327,288.092316 943.877136,287.268463 
	C946.894470,285.137787 949.353760,282.168793 952.478577,280.258698 
	C954.060608,279.291656 956.580505,279.468445 957.454651,282.535431 
	C957.746521,283.559357 959.817139,284.076355 961.732178,284.459198 
M1073.067017,137.499725 
	C1076.157227,135.207367 1079.247437,132.914993 1083.406250,129.830017 
	C1073.742920,127.721886 1067.603638,130.686783 1062.646729,136.642197 
	C1061.864258,137.582275 1061.065796,139.663361 1061.512573,140.215637 
	C1062.280640,141.164871 1064.256226,142.027527 1065.310059,141.677490 
	C1067.833252,140.839539 1070.114990,139.275269 1073.067017,137.499725 
z"/>
<path fill="#455679" opacity="1.000000" stroke="none" 
	d="
M1.000000,90.468658 
	C2.304697,88.173019 3.608057,86.345093 4.914399,84.519287 
	C6.967157,81.650253 8.547359,78.210655 11.173359,76.032005 
	C16.866810,71.308487 22.783373,66.669563 29.216368,63.087288 
	C33.427082,60.742504 38.699993,59.248055 43.501789,59.236099 
	C54.388943,59.208988 65.408401,59.521137 76.129791,61.228912 
	C85.975502,62.797207 95.435417,67.275444 102.251022,74.571556 
	C108.090157,80.822350 113.341934,88.341537 112.031395,98.081375 
	C111.812408,99.708847 112.000519,101.391098 112.000519,104.000000 
	C118.020332,104.000000 123.811462,104.452690 129.503082,103.893143 
	C137.890015,103.068611 146.186661,104.471588 153.546661,107.426117 
	C164.444214,111.800705 173.510010,119.224152 178.980637,130.336212 
	C182.181732,136.838425 180.810303,143.533447 180.801636,150.152557 
	C180.798035,152.898499 177.820755,153.813004 176.219437,151.828751 
	C174.229218,149.362656 172.198135,145.982651 172.227524,143.017609 
	C172.304367,135.263641 171.892075,128.352432 165.063751,122.918655 
	C159.163971,118.223778 153.341705,114.358559 145.680283,112.741112 
	C137.529465,111.020348 129.538986,109.031624 121.131111,108.852531 
	C116.332909,108.750328 111.572960,107.356018 106.764908,107.078529 
	C101.346672,106.765823 97.120033,108.843979 93.423080,113.328476 
	C91.062424,116.192001 86.848259,118.616417 83.186592,119.091621 
	C75.582230,120.078491 67.698471,122.281464 60.238003,117.398994 
	C55.787491,114.486389 50.726574,112.506477 45.940060,110.107285 
	C45.563511,110.438042 45.186958,110.768791 44.810410,111.099548 
	C46.280872,112.743240 47.762180,114.377380 49.218922,116.033142 
	C50.863308,117.902191 52.371563,119.908730 54.155102,121.631813 
	C55.483944,122.915627 57.031582,124.507065 58.696632,124.820610 
	C68.280327,126.625389 77.819176,127.107513 87.718063,126.378609 
	C100.963531,125.403275 114.606407,125.348114 127.627365,127.557434 
	C134.900269,128.791443 142.398056,133.642517 147.834518,139.901062 
	C150.540436,143.016174 153.504349,145.822815 153.379456,150.693085 
	C153.343582,152.092239 156.295959,154.128845 158.260559,154.903564 
	C162.559036,156.598633 167.064865,158.642944 171.553024,158.817139 
	C184.763519,159.329803 198.009354,158.839203 211.236176,159.056473 
	C220.149979,159.202866 228.303543,161.956314 235.430099,167.522278 
	C237.056534,168.792511 238.992371,169.666595 241.572784,171.186615 
	C234.671722,172.912888 228.689117,174.623978 222.602234,175.791489 
	C220.938126,176.110657 218.921860,174.900085 217.134750,174.215240 
	C211.390076,172.013809 205.796082,169.107071 199.420944,170.253448 
	C198.961929,170.856354 198.502914,171.459259 198.043900,172.062164 
	C200.826218,174.192490 203.608521,176.322830 206.541916,178.568832 
	C193.328323,181.178818 179.101944,177.654663 168.046936,187.127289 
	C168.145813,187.758728 168.244675,188.390167 168.343552,189.021591 
	C172.856674,188.402496 177.374084,187.811783 181.877518,187.128830 
	C182.448730,187.042191 183.011520,186.101273 183.468933,186.181244 
	C192.604202,187.778198 200.704010,183.079285 209.388351,181.984177 
	C219.572845,180.699905 229.744095,179.310150 239.917038,177.936172 
	C240.532898,177.852997 241.519608,177.643280 241.648743,177.261047 
	C243.483917,171.828476 248.014404,173.074005 251.989334,173.011520 
	C255.487305,172.956528 258.987671,173.049942 262.485504,172.990341 
	C271.787598,172.831848 280.409424,175.860596 288.310638,180.081802 
	C293.205597,182.696915 296.866577,187.621841 301.087097,191.515106 
	C308.676880,183.787109 321.914703,190.141418 324.637268,198.599945 
	C326.966736,197.734604 329.241119,196.648773 331.637177,196.049301 
	C337.144897,194.671265 341.249390,197.975266 345.656128,200.433884 
	C347.811401,201.636337 350.288208,202.632355 352.713226,202.913483 
	C360.638641,203.832245 368.616608,204.292969 376.549591,205.157013 
	C377.833954,205.296890 379.538147,206.308472 380.111328,207.406311 
	C382.214508,211.434677 385.708710,211.084625 389.313293,211.026596 
	C395.309692,210.930069 401.310303,210.923935 407.306305,211.033600 
	C410.817657,211.097809 414.578064,211.313034 414.924683,216.041367 
	C415.193939,219.713394 412.025360,221.972137 406.906494,221.986038 
	C393.577698,222.022232 380.244873,221.833313 366.923218,222.144196 
	C364.329651,222.204727 361.789490,224.143875 359.206146,225.169678 
	C356.750458,226.144775 354.309937,227.719925 351.793396,227.870132 
	C345.318634,228.256592 338.803864,228.087601 332.308197,227.969101 
	C327.983459,227.890213 323.919922,228.048126 319.551117,225.727173 
	C316.002960,223.842194 310.773590,225.077408 306.288605,225.010941 
	C299.909912,224.916412 294.050720,224.606842 288.858337,230.542679 
	C285.905884,233.917862 279.503845,234.284103 274.647675,235.983658 
	C263.730377,239.804520 252.422058,237.825653 241.320419,237.750717 
	C236.391251,237.717438 233.571640,240.217911 231.316910,243.055435 
	C225.806946,249.989639 218.991959,254.520309 210.415054,255.835114 
	C202.550903,257.040649 194.550430,257.407776 186.596786,257.950745 
	C183.865570,258.137177 182.454193,259.169922 180.327103,261.203491 
	C175.692139,265.634674 169.947845,269.745636 163.917297,271.670868 
	C155.819122,274.256256 147.017761,274.624939 138.527786,276.003845 
	C134.900314,276.593018 131.284332,277.960236 127.684669,277.888763 
	C113.574867,277.608429 100.708641,274.571075 91.188797,262.518646 
	C88.588043,259.225983 83.349800,256.871582 79.039749,256.329315 
	C71.678062,255.403015 65.907867,252.048172 60.088303,248.088516 
	C58.367809,246.917862 56.063118,246.405670 53.949188,246.052979 
	C48.754440,245.186295 43.321793,245.212082 38.357052,243.675934 
	C34.657944,242.531387 31.392466,239.700958 28.198069,237.273666 
	C22.876625,233.230103 17.878107,228.759857 12.535217,224.746719 
	C7.619493,221.054443 4.629284,216.243805 2.892512,210.479340 
	C2.733143,209.950378 2.142337,209.551392 1.375936,209.046021 
	C1.000000,204.643097 1.000000,200.286194 1.415580,195.463867 
	C4.104781,194.336517 6.374960,193.662506 8.652678,193.015015 
	C14.829463,191.259140 21.010912,189.519623 27.183411,187.748871 
	C27.462164,187.668915 27.644085,187.298050 27.917286,187.145233 
	C33.374378,184.092514 38.801006,180.982239 44.314716,178.034973 
	C47.639748,176.257629 51.083786,174.697464 54.509350,173.115509 
	C56.908627,172.007507 59.298527,170.432587 61.816593,170.142578 
	C64.895607,169.787949 65.781059,168.299561 65.962051,165.702209 
	C66.163979,162.804291 64.564224,161.818069 61.952564,162.020111 
	C59.493801,162.210327 56.896175,162.051437 54.618923,162.817200 
	C50.817532,164.095505 47.222851,165.988556 44.330292,167.272507 
	C42.759964,164.785522 41.815662,161.642197 39.720745,160.314804 
	C35.342529,157.540619 30.463264,155.439560 25.581081,153.622986 
	C22.704947,152.552841 19.428623,152.558258 16.332285,152.079941 
	C16.189259,152.779465 16.046232,153.479004 15.903207,154.178528 
	C17.791811,154.804276 19.870581,155.125076 21.511312,156.148285 
	C22.928921,157.032333 24.695192,158.627060 24.843616,160.059296 
	C25.528868,166.671799 26.532602,173.017181 32.371799,177.713074 
	C22.980095,185.485794 12.443327,188.107437 1.000000,188.000000 
	C1.000000,155.645767 1.000000,123.291542 1.000000,90.468658 
M96.821175,173.718491 
	C101.833160,176.199554 104.593140,176.230026 107.923256,173.587448 
	C106.604950,173.020737 105.479858,172.176819 104.303535,172.098068 
	C100.576675,171.848541 99.433464,169.226395 99.074211,166.314819 
	C97.972664,157.387268 97.830978,156.417831 89.307831,155.385941 
	C79.461952,154.193893 74.146370,154.178818 69.799622,164.924591 
	C73.907890,166.581970 77.930832,168.510208 82.145493,169.822830 
	C86.729660,171.250549 91.491951,172.106369 96.821175,173.718491 
z"/>
<path fill="#000000" opacity="1.000000" stroke="none" 
	d="
M1.000000,188.437500 
	C12.443327,188.107437 22.980095,185.485794 32.371799,177.713074 
	C26.532602,173.017181 25.528868,166.671799 24.843616,160.059296 
	C24.695192,158.627060 22.928921,157.032333 21.511312,156.148285 
	C19.870581,155.125076 17.791811,154.804276 15.903207,154.178528 
	C16.046232,153.479004 16.189259,152.779465 16.332285,152.079941 
	C19.428623,152.558258 22.704947,152.552841 25.581081,153.622986 
	C30.463264,155.439560 35.342529,157.540619 39.720745,160.314804 
	C41.815662,161.642197 42.759964,164.785522 44.330292,167.272507 
	C47.222851,165.988556 50.817532,164.095505 54.618923,162.817200 
	C56.896175,162.051437 59.493801,162.210327 61.952564,162.020111 
	C64.564224,161.818069 66.163979,162.804291 65.962051,165.702209 
	C65.781059,168.299561 64.895607,169.787949 61.816593,170.142578 
	C59.298527,170.432587 56.908627,172.007507 54.509350,173.115509 
	C51.083786,174.697464 47.639748,176.257629 44.314716,178.034973 
	C38.801006,180.982239 33.374378,184.092514 27.917286,187.145233 
	C27.644085,187.298050 27.462164,187.668915 27.183411,187.748871 
	C21.010912,189.519623 14.829463,191.259140 8.652678,193.015015 
	C6.374960,193.662506 4.104781,194.336517 1.415580,194.999207 
	C1.000000,192.958328 1.000000,190.916672 1.000000,188.437500 
z"/>
<path fill="#000000" opacity="1.000000" stroke="none" 
	d="
M1201.000000,127.625000 
	C1191.709717,128.979309 1182.164429,129.206818 1175.162720,136.873352 
	C1174.730225,137.346939 1174.090698,137.624527 1173.591675,138.045654 
	C1172.501953,138.965271 1171.440796,139.918610 1170.367920,140.858154 
	C1169.922852,140.090210 1168.927612,139.083130 1169.137695,138.599960 
	C1169.729248,137.238693 1170.790894,136.072952 1171.721313,134.872086 
	C1172.074707,134.416077 1172.575684,134.074493 1174.430298,132.390854 
	C1165.811279,130.280243 1158.461304,128.480392 1150.929443,126.636032 
	C1151.403076,126.032104 1151.692505,125.355598 1151.962402,125.363365 
	C1160.352539,125.604843 1168.740479,125.926781 1177.130005,126.197693 
	C1178.527832,126.242836 1179.932861,126.133583 1181.332397,126.056412 
	C1187.576660,125.712059 1193.820190,125.353447 1200.531982,125.000000 
	C1201.000000,125.750000 1201.000000,126.500000 1201.000000,127.625000 
z"/>
<path fill="#000000" opacity="1.000000" stroke="none" 
	d="
M1021.112061,193.836716 
	C1014.347534,192.912796 1007.994873,191.653214 1001.600037,191.380493 
	C995.614746,191.125214 990.905945,194.396103 986.959106,198.803207 
	C986.268799,199.573944 984.880066,199.719193 983.022583,200.475540 
	C984.554565,192.314667 977.417603,192.089020 974.117004,188.548096 
	C972.851196,187.190063 971.772522,185.657578 970.608521,184.204620 
	C970.979187,183.835617 971.349792,183.466629 971.720398,183.097641 
	C975.055420,184.684937 978.390442,186.272232 982.158813,188.065811 
	C982.480164,186.935455 982.616577,185.858185 983.094116,184.962906 
	C983.483887,184.232239 984.281250,183.718994 984.897949,183.109344 
	C985.585510,183.819046 986.832886,184.500732 986.870056,185.243073 
	C987.116150,190.155624 987.947510,190.978836 993.657837,189.500946 
	C1003.529358,186.946136 1014.101135,186.361221 1023.982910,191.004364 
	C1025.513306,191.723434 1026.922363,192.700729 1029.572388,194.252350 
	C1028.697754,191.816193 1028.459717,190.136002 1027.582520,188.915115 
	C1025.539307,186.070999 1026.303101,182.730484 1029.733521,182.314636 
	C1033.659058,181.838806 1037.686523,182.204407 1043.350220,182.204407 
	C1040.970581,184.475983 1039.703369,185.685638 1038.436279,186.895309 
	C1055.807739,180.847061 1072.569214,180.395157 1088.093628,192.714203 
	C1083.314087,196.746048 1080.920532,191.264252 1077.498291,190.479309 
	C1071.776245,189.166901 1066.053101,186.062515 1060.476196,186.368668 
	C1053.480225,186.752701 1046.513916,189.480698 1039.764648,191.851685 
	C1035.945312,193.193420 1035.008911,196.219177 1036.054321,201.721466 
	C1033.789429,200.498016 1032.312744,199.693146 1030.829590,198.900620 
	C1027.723389,197.240891 1024.613770,195.587708 1021.112061,193.836716 
z"/>
<path fill="#000000" opacity="1.000000" stroke="none" 
	d="
M771.016846,323.063293 
	C772.068848,320.873810 772.515808,317.948486 774.217224,316.557831 
	C779.760498,312.026794 779.926575,308.738953 773.921692,304.510223 
	C773.027405,303.880493 771.640381,303.950500 770.481262,303.696777 
	C771.212646,302.619995 771.944031,301.543182 772.675415,300.466370 
	C775.489380,301.380554 778.589539,301.828766 781.040222,303.334290 
	C783.722717,304.982239 785.451050,305.015930 788.059448,303.148193 
	C791.013794,301.032745 794.520813,299.633392 797.909119,298.212524 
	C798.971008,297.767212 800.426086,298.259644 801.701233,298.322815 
	C801.924438,298.786407 802.147705,299.250000 802.370911,299.713593 
	C800.068237,301.225891 797.337036,302.359375 795.576477,304.350922 
	C793.589172,306.598938 792.442017,309.548035 788.440674,306.834564 
	C788.352844,307.393402 788.265015,307.952209 788.177185,308.511047 
	C791.473511,310.050598 794.769897,311.590149 798.147522,313.167664 
	C799.992371,306.412079 808.824097,302.192871 815.749573,305.354309 
	C820.118042,307.348480 823.340698,307.719910 827.000854,304.619629 
	C827.896545,303.860870 829.409729,303.831024 830.629517,303.468903 
	C828.199646,300.780548 825.803223,298.129211 823.406738,295.477905 
	C823.893127,294.895020 824.379456,294.312103 824.865845,293.729218 
	C830.997925,296.180908 834.969543,303.723419 843.285278,301.029602 
	C843.183167,301.613464 843.081055,302.197296 842.978943,302.781128 
	C837.964966,304.759430 832.950928,306.737701 827.595703,308.850616 
	C827.716614,309.065552 828.067383,309.603821 828.331177,310.181824 
	C828.589233,310.747040 828.758667,311.352814 829.164429,312.497986 
	C824.448853,311.912415 820.178955,311.023682 815.893188,310.939911 
	C810.435425,310.833252 804.565308,309.437500 800.524597,315.374878 
	C799.184631,317.343842 796.552368,317.891235 794.072632,315.463074 
	C790.706238,312.166504 786.601929,313.007202 783.019104,315.124603 
	C779.071655,317.457489 775.445312,320.333893 771.299561,322.971313 
	C770.919983,322.969055 770.986206,323.030243 771.016846,323.063293 
z"/>
<path fill="#000000" opacity="1.000000" stroke="none" 
	d="
M902.452515,177.687836 
	C903.424927,171.562775 905.895752,170.690170 910.259705,174.272781 
	C911.527039,175.313141 913.390991,175.626785 914.569458,176.106079 
	C916.250793,173.639435 917.553162,171.728745 919.095032,169.466721 
	C921.716309,171.602509 923.867615,173.355362 924.944641,174.232864 
	C930.556030,173.174652 935.440918,172.253464 940.325745,171.332275 
	C940.620178,171.968216 940.914673,172.604141 941.209106,173.240082 
	C939.813599,174.479263 938.462891,175.773621 937.015259,176.948654 
	C927.730652,184.484985 919.473816,185.179901 908.708252,179.622375 
	C906.902161,178.690018 904.699280,178.526321 902.452515,177.687836 
z"/>
<path fill="#000000" opacity="1.000000" stroke="none" 
	d="
M961.403381,284.642151 
	C959.817139,284.076355 957.746521,283.559357 957.454651,282.535431 
	C956.580505,279.468445 954.060608,279.291656 952.478577,280.258698 
	C949.353760,282.168793 946.894470,285.137787 943.877136,287.268463 
	C942.710327,288.092316 940.623413,288.336975 939.232910,287.920349 
	C937.789978,287.488007 936.682617,285.935913 934.832092,284.368317 
	C936.785889,282.835938 938.607727,280.476746 940.931885,279.770203 
	C946.438416,278.096252 952.183472,277.207092 957.831909,275.999847 
	C960.444092,275.441498 963.039124,274.767914 965.676392,274.381042 
	C966.653015,274.237762 967.728088,274.766205 968.758301,274.988312 
	C968.464600,276.319855 968.580017,278.007050 967.794312,278.910980 
	C966.008911,280.964935 963.780518,282.633789 961.403381,284.642151 
z"/>
<path fill="#000000" opacity="1.000000" stroke="none" 
	d="
M1072.780640,137.751984 
	C1070.114990,139.275269 1067.833252,140.839539 1065.310059,141.677490 
	C1064.256226,142.027527 1062.280640,141.164871 1061.512573,140.215637 
	C1061.065796,139.663361 1061.864258,137.582275 1062.646729,136.642197 
	C1067.603638,130.686783 1073.742920,127.721886 1083.406250,129.830017 
	C1079.247437,132.914993 1076.157227,135.207367 1072.780640,137.751984 
z"/>
<path fill="#000000" opacity="1.000000" stroke="none" 
	d="
M96.498871,173.465012 
	C91.491951,172.106369 86.729660,171.250549 82.145493,169.822830 
	C77.930832,168.510208 73.907890,166.581970 69.799622,164.924591 
	C74.146370,154.178818 79.461952,154.193893 89.307831,155.385941 
	C97.830978,156.417831 97.972664,157.387268 99.074211,166.314819 
	C99.433464,169.226395 100.576675,171.848541 104.303535,172.098068 
	C105.479858,172.176819 106.604950,173.020737 107.923256,173.587448 
	C104.593140,176.230026 101.833160,176.199554 96.498871,173.465012 
z"/>
</svg>