<svg xmlns="http://www.w3.org/2000/svg" viewBox="0 -0.5 1200 600" shape-rendering="crispEdges">
<metadata>Made with Pixels to Svg https://codepen.io/shshaw/pen/XbxvNj</metadata>
<path stroke="rgba(255,255,237,0.27450980392156865)" d="M587 345h27M587 346h27M586 347h29M586 348h29M585 349h31M585 350h31M585 351h31M585 352h31M585 353h31M584 354h33M584 355h33M583 356h35M583 357h35M583 358h35M582 359h37M582 360h37M581 361h39M581 362h39M580 363h41M580 364h41M580 365h41M579 366h43M579 367h43M578 368h45M578 369h45M578 370h46M577 371h47M577 372h47M577 373h47M577 374h47M576 375h49M576 376h49M576 377h50M575 378h51M574 379h53M574 380h53M574 381h54M975 381h1M573 382h55M975 382h1M573 383h55M975 383h74M572 384h57M975 384h74M572 385h57M974 385h75M571 386h59M974 386h75M571 387h59M974 387h76M571 388h60M974 388h76M570 389h61M974 389h76M570 390h61M973 390h77M569 391h63M973 391h77M569 392h63M973 392h77M569 393h63M973 393h77M569 394h63M973 394h78M569 395h64M973 395h78M568 396h65M973 396h78M568 397h65M972 397h79M567 398h67M972 398h79M567 399h67M972 399h79M567 400h68M973 400h3M977 400h3M981 400h3M985 400h3M989 400h63M566 401h69M972 401h80M566 402h69M971 402h3M975 402h3M979 402h3M983 402h69M565 403h71M971 403h81M565 404h71M971 404h1M973 404h1M975 404h1M977 404h3M981 404h3M985 404h3M989 404h3M993 404h3M997 404h3M1001 404h3M1005 404h47M564 405h73M971 405h81M564 406h73M971 406h1M973 406h1M975 406h3M979 406h3M983 406h3M987 406h3M991 406h3M995 406h3M999 406h53M564 407h74M970 407h83M563 408h75M971 408h1M973 408h1M975 408h1M977 408h1M979 408h1M981 408h1M983 408h1M985 408h1M987 408h1M989 408h1M991 408h1M993 408h3M997 408h3M1001 408h3M1005 408h3M1009 408h3M1013 408h3M1017 408h36M563 409h75M970 409h83M562 410h77M971 410h1M973 410h1M975 410h1M977 410h1M979 410h1M981 410h1M983 410h1M985 410h1M987 410h3M991 410h3M995 410h3M999 410h3M1003 410h3M1007 410h3M1011 410h42M562 411h77M970 411h83M562 412h78M971 412h1M973 412h1M975 412h1M977 412h1M979 412h1M981 412h1M983 412h1M985 412h1M987 412h1M989 412h1M991 412h1M993 412h1M995 412h1M997 412h1M999 412h1M1001 412h1M1003 412h1M1005 412h1M1007 412h1M1009 412h3M1013 412h3M1017 412h3M1021 412h3M1025 412h3M1029 412h3M1033 412h20M561 413h79M970 413h3M974 413h3M978 413h3M982 413h3M986 413h67M561 414h79M969 414h1M971 414h1M973 414h1M975 414h1M977 414h1M979 414h1M981 414h1M983 414h1M985 414h1M987 414h1M989 414h1M991 414h1M993 414h1M995 414h1M997 414h1M999 414h1M1001 414h1M1003 414h3M1007 414h3M1011 414h3M1015 414h3M1019 414h3M1023 414h3M1027 414h26M561 415h79M969 415h2M972 415h3M976 415h3M980 415h74M561 416h79M969 416h1M971 416h1M973 416h1M975 416h1M977 416h1M979 416h1M981 416h1M983 416h1M985 416h1M987 416h1M989 416h1M991 416h1M993 416h1M995 416h1M997 416h1M999 416h1M1001 416h1M1003 416h1M1005 416h1M1007 416h1M1009 416h1M1011 416h1M1013 416h1M1015 416h1M1017 416h1M1019 416h1M1021 416h1M1023 416h1M1025 416h3M1029 416h3M1033 416h3M1037 416h3M1041 416h3M1045 416h3M1049 416h5M560 417h81M968 417h1M970 417h1M972 417h1M974 417h3M978 417h3M982 417h3M986 417h3M990 417h3M994 417h3M998 417h56M560 418h81M969 418h1M971 418h1M973 418h1M975 418h1M977 418h1M979 418h1M981 418h1M983 418h1M985 418h1M987 418h1M989 418h1M991 418h1M993 418h1M995 418h1M997 418h1M999 418h1M1001 418h1M1003 418h1M1005 418h1M1007 418h1M1009 418h1M1011 418h1M1013 418h1M1015 418h1M1017 418h1M1019 418h3M1023 418h3M1027 418h3M1031 418h3M1035 418h3M1039 418h3M1043 418h11M560 419h82M968 419h3M972 419h3M976 419h3M980 419h3M984 419h3M988 419h3M992 419h62M559 420h83M969 420h1M971 420h1M973 420h1M975 420h1M977 420h1M979 420h1M981 420h1M983 420h1M985 420h1M987 420h1M989 420h1M991 420h1M993 420h1M995 420h1M997 420h1M999 420h1M1001 420h1M1003 420h1M1005 420h1M1007 420h1M1009 420h1M1011 420h1M1013 420h1M1015 420h1M1017 420h1M1019 420h1M1021 420h1M1023 420h1M1025 420h1M1027 420h1M1029 420h1M1031 420h1M1033 420h1M1035 420h1M1037 420h3M1041 420h3M1045 420h3M1049 420h3M1053 420h1M559 421h84M968 421h1M970 421h1M972 421h1M974 421h1M976 421h1M978 421h1M980 421h1M982 421h1M984 421h1M986 421h1M988 421h1M990 421h3M994 421h3M998 421h3M1002 421h3M1006 421h3M1010 421h3M1014 421h41M558 422h85M969 422h1M971 422h1M973 422h1M975 422h1M977 422h1M979 422h1M981 422h1M983 422h1M985 422h1M987 422h1M989 422h1M991 422h1M993 422h1M995 422h1M997 422h1M999 422h1M1001 422h1M1003 422h1M1005 422h1M1007 422h1M1009 422h1M1011 422h1M1013 422h1M1015 422h1M1017 422h1M1019 422h1M1021 422h1M1023 422h1M1025 422h1M1027 422h1M1029 422h1M1031 422h3M1035 422h3M1039 422h3M1043 422h3M1047 422h3M1051 422h3M558 423h85M968 423h1M970 423h1M972 423h1M974 423h1M976 423h1M978 423h1M980 423h1M982 423h1M984 423h3M988 423h3M992 423h3M996 423h3M1000 423h3M1004 423h3M1008 423h47M558 424h86M967 424h1M971 424h1M975 424h1M977 424h1M979 424h1M981 424h1M983 424h1M985 424h1M987 424h1M989 424h1M991 424h1M993 424h1M995 424h1M997 424h1M999 424h1M1001 424h1M1003 424h1M1005 424h1M1007 424h1M1009 424h1M1011 424h1M1013 424h1M1015 424h1M1017 424h1M1019 424h1M1021 424h1M1023 424h1M1025 424h1M1027 424h1M1029 424h1M1031 424h1M1033 424h1M1035 424h1M1037 424h1M1039 424h1M1041 424h1M1043 424h1M1045 424h1M1047 424h1M1049 424h1M1051 424h1M1053 424h2M557 425h87M968 425h1M970 425h1M972 425h1M974 425h1M976 425h1M978 425h1M980 425h1M982 425h1M984 425h1M986 425h1M988 425h1M990 425h1M992 425h1M994 425h1M996 425h1M998 425h1M1000 425h1M1002 425h1M1004 425h1M1006 425h3M1010 425h3M1014 425h3M1018 425h3M1022 425h3M1026 425h3M1030 425h25M557 426h88M969 426h1M971 426h1M973 426h1M975 426h1M977 426h1M979 426h1M981 426h1M983 426h1M985 426h1M987 426h1M989 426h1M991 426h1M993 426h1M995 426h1M997 426h1M999 426h1M1001 426h1M1003 426h1M1005 426h1M1007 426h1M1009 426h1M1011 426h1M1013 426h1M1015 426h1M1017 426h1M1019 426h1M1021 426h1M1023 426h1M1025 426h1M1027 426h1M1029 426h1M1031 426h1M1033 426h1M1035 426h1M1037 426h1M1039 426h1M1041 426h1M1043 426h1M1045 426h1M1047 426h3M1051 426h3M556 427h89M968 427h1M970 427h1M972 427h1M974 427h1M976 427h1M978 427h1M980 427h1M982 427h1M984 427h1M986 427h1M988 427h1M990 427h1M992 427h1M994 427h1M996 427h1M998 427h1M1000 427h3M1004 427h3M1008 427h3M1012 427h3M1016 427h3M1020 427h3M1024 427h31M556 428h89M967 428h1M971 428h1M975 428h1M979 428h1M983 428h1M987 428h1M989 428h1M991 428h1M993 428h1M995 428h1M997 428h1M999 428h1M1001 428h1M1003 428h1M1005 428h1M1007 428h1M1009 428h1M1011 428h1M1013 428h1M1015 428h1M1017 428h1M1019 428h1M1021 428h1M1023 428h1M1025 428h1M1027 428h1M1029 428h1M1031 428h1M1033 428h1M1035 428h1M1037 428h1M1039 428h1M1041 428h1M1043 428h1M1045 428h1M1047 428h1M1049 428h1M1051 428h1M1053 428h1M1055 428h1M555 429h91M966 429h1M968 429h1M970 429h1M972 429h1M974 429h1M976 429h1M978 429h1M980 429h1M982 429h1M984 429h1M986 429h1M988 429h1M990 429h1M992 429h1M994 429h1M996 429h1M998 429h1M1000 429h1M1002 429h1M1004 429h1M1006 429h1M1008 429h1M1010 429h1M1012 429h1M1014 429h1M1016 429h1M1018 429h3M1022 429h3M1026 429h3M1030 429h3M1034 429h3M1038 429h3M1042 429h14M555 430h91M969 430h1M973 430h1M977 430h1M981 430h1M983 430h1M985 430h1M987 430h1M989 430h1M991 430h1M993 430h1M995 430h1M997 430h1M999 430h1M1001 430h1M1003 430h1M1005 430h1M1007 430h1M1009 430h1M1011 430h1M1013 430h1M1015 430h1M1017 430h1M1019 430h1M1021 430h1M1023 430h1M1025 430h1M1027 430h1M1029 430h1M1031 430h1M1033 430h1M1035 430h1M1037 430h1M1039 430h1M1041 430h1M1043 430h1M1045 430h1M1047 430h1M1049 430h1M1051 430h1M1053 430h1M1055 430h1M555 431h92M966 431h1M968 431h1M970 431h1M972 431h1M974 431h1M976 431h1M978 431h1M980 431h1M982 431h1M984 431h1M986 431h1M988 431h1M990 431h1M992 431h1M994 431h1M996 431h1M998 431h1M1000 431h1M1002 431h1M1004 431h1M1006 431h1M1008 431h1M1010 431h1M1012 431h3M1016 431h3M1020 431h3M1024 431h3M1028 431h3M1032 431h3M1036 431h3M1040 431h16M554 432h2M557 432h3M561 432h3M565 432h3M569 432h3M573 432h3M577 432h3M581 432h66M979 432h1M983 432h1M987 432h1M991 432h1M995 432h1M999 432h1M1003 432h1M1005 432h1M1007 432h1M1009 432h1M1011 432h1M1013 432h1M1015 432h1M1017 432h1M1019 432h1M1021 432h1M1023 432h1M1025 432h1M1027 432h1M1029 432h1M1031 432h1M1033 432h1M1035 432h1M1037 432h1M1039 432h1M1041 432h1M1043 432h1M1045 432h1M1047 432h1M1049 432h1M1051 432h1M1053 432h1M1055 432h1M554 433h94M966 433h1M968 433h1M970 433h1M972 433h1M974 433h1M976 433h1M978 433h1M980 433h1M982 433h1M984 433h1M986 433h1M988 433h1M990 433h1M992 433h1M994 433h1M996 433h1M998 433h1M1000 433h1M1002 433h1M1004 433h1M1006 433h1M1008 433h1M1010 433h1M1012 433h1M1014 433h1M1016 433h1M1018 433h1M1020 433h1M1022 433h1M1024 433h1M1026 433h1M1028 433h1M1030 433h1M1032 433h1M1034 433h3M1038 433h3M1042 433h3M1046 433h3M1050 433h3M1054 433h2M553 434h95M973 434h1M977 434h1M981 434h1M985 434h1M989 434h1M993 434h1M997 434h1M999 434h1M1001 434h1M1003 434h1M1005 434h1M1007 434h1M1009 434h1M1011 434h1M1013 434h1M1015 434h1M1017 434h1M1019 434h1M1021 434h1M1023 434h1M1025 434h1M1027 434h1M1029 434h1M1031 434h1M1033 434h1M1035 434h1M1037 434h1M1039 434h1M1041 434h1M1043 434h1M1045 434h1M1047 434h1M1049 434h1M1051 434h1M1053 434h1M1055 434h1M553 435h95M966 435h1M968 435h1M970 435h1M972 435h1M974 435h1M976 435h1M978 435h1M980 435h1M982 435h1M984 435h1M986 435h1M988 435h1M990 435h1M992 435h1M994 435h1M996 435h1M998 435h1M1000 435h1M1002 435h1M1004 435h1M1006 435h1M1008 435h1M1010 435h1M1012 435h1M1014 435h1M1016 435h1M1018 435h1M1020 435h1M1022 435h1M1024 435h1M1026 435h1M1028 435h3M1032 435h3M1036 435h3M1040 435h3M1044 435h3M1048 435h3M1052 435h5M553 436h3M557 436h3M561 436h3M565 436h3M569 436h3M573 436h3M577 436h3M581 436h3M585 436h3M589 436h3M593 436h3M597 436h3M601 436h3M605 436h3M609 436h3M613 436h3M617 436h3M621 436h3M625 436h3M629 436h3M633 436h3M637 436h3M641 436h3M645 436h3M995 436h1M999 436h1M1003 436h1M1007 436h1M1011 436h1M1015 436h1M1019 436h1M1021 436h1M1023 436h1M1025 436h1M1027 436h1M1029 436h1M1031 436h1M1033 436h1M1035 436h1M1037 436h1M1039 436h1M1041 436h1M1043 436h1M1045 436h1M1047 436h1M1049 436h1M1051 436h1M1053 436h1M1055 436h1M553 437h95M966 437h1M970 437h1M972 437h1M974 437h1M976 437h1M978 437h1M980 437h1M982 437h1M984 437h1M986 437h1M988 437h1M990 437h1M992 437h1M994 437h1M996 437h1M998 437h1M1000 437h1M1002 437h1M1004 437h1M1006 437h1M1008 437h1M1010 437h1M1012 437h1M1014 437h1M1016 437h1M1018 437h1M1020 437h1M1022 437h1M1024 437h1M1026 437h1M1028 437h1M1030 437h1M1032 437h1M1034 437h1M1036 437h1M1038 437h1M1040 437h1M1042 437h1M1044 437h1M1046 437h1M1048 437h1M1050 437h3M1054 437h3M553 438h96M989 438h1M993 438h1M997 438h1M1001 438h1M1005 438h1M1009 438h1M1013 438h1M1015 438h1M1017 438h1M1019 438h1M1021 438h1M1023 438h1M1025 438h1M1027 438h1M1029 438h1M1031 438h1M1033 438h1M1035 438h1M1037 438h1M1039 438h1M1041 438h1M1043 438h1M1045 438h1M1047 438h1M1049 438h1M1051 438h1M1053 438h1M1055 438h1M552 439h97M966 439h1M968 439h1M970 439h1M972 439h1M974 439h1M976 439h1M978 439h1M980 439h1M982 439h1M984 439h1M986 439h1M988 439h1M990 439h1M992 439h1M994 439h1M996 439h1M998 439h1M1000 439h1M1002 439h1M1004 439h1M1006 439h1M1008 439h1M1010 439h1M1012 439h1M1014 439h1M1016 439h1M1018 439h1M1020 439h1M1022 439h1M1024 439h1M1026 439h1M1028 439h1M1030 439h1M1032 439h1M1034 439h1M1036 439h1M1038 439h1M1040 439h1M1042 439h1M1044 439h3M1048 439h3M1052 439h3M1056 439h1M553 440h3M557 440h3M561 440h3M565 440h3M569 440h3M573 440h3M577 440h3M581 440h3M585 440h3M589 440h3M593 440h3M597 440h3M601 440h3M605 440h3M609 440h3M613 440h3M617 440h3M621 440h3M625 440h3M629 440h3M633 440h3M637 440h3M641 440h3M645 440h3M649 440h1M1007 440h1M1011 440h1M1015 440h1M1019 440h1M1023 440h1M1027 440h1M1031 440h1M1035 440h1M1037 440h1M1039 440h1M1041 440h1M1043 440h1M1045 440h1M1047 440h1M1049 440h1M1051 440h1M1053 440h1M1055 440h1M551 441h99M966 441h1M970 441h1M974 441h1M978 441h1M982 441h1M986 441h1M988 441h1M990 441h1M992 441h1M994 441h1M996 441h1M998 441h1M1000 441h1M1002 441h1M1004 441h1M1006 441h1M1008 441h1M1010 441h1M1012 441h1M1014 441h1M1016 441h1M1018 441h1M1020 441h1M1022 441h1M1024 441h1M1026 441h1M1028 441h1M1030 441h1M1032 441h1M1034 441h1M1036 441h1M1038 441h1M1040 441h1M1042 441h1M1044 441h1M1046 441h1M1048 441h1M1050 441h1M1052 441h1M1054 441h1M1056 441h1M551 442h3M555 442h3M559 442h3M563 442h3M567 442h3M571 442h3M575 442h3M579 442h3M583 442h3M587 442h3M591 442h3M595 442h3M599 442h3M603 442h3M607 442h3M611 442h3M615 442h35M1005 442h1M1009 442h1M1013 442h1M1017 442h1M1021 442h1M1025 442h1M1029 442h1M1031 442h1M1033 442h1M1035 442h1M1037 442h1M1039 442h1M1041 442h1M1043 442h1M1045 442h1M1047 442h1M1049 442h1M1051 442h1M1053 442h1M1055 442h1M1057 442h1M551 443h100M964 443h1M968 443h1M972 443h1M976 443h1M980 443h1M982 443h1M984 443h1M986 443h1M988 443h1M990 443h1M992 443h1M994 443h1M996 443h1M998 443h1M1000 443h1M1002 443h1M1004 443h1M1006 443h1M1008 443h1M1010 443h1M1012 443h1M1014 443h1M1016 443h1M1018 443h1M1020 443h1M1022 443h1M1024 443h1M1026 443h1M1028 443h1M1030 443h1M1032 443h1M1034 443h1M1036 443h1M1038 443h1M1040 443h1M1042 443h1M1044 443h1M1046 443h1M1048 443h1M1050 443h1M1052 443h1M1054 443h1M1056 443h1M550 444h2M553 444h3M557 444h3M561 444h3M565 444h3M569 444h3M573 444h3M577 444h3M581 444h3M585 444h3M589 444h3M593 444h3M597 444h3M601 444h3M605 444h3M609 444h3M613 444h3M617 444h3M621 444h3M625 444h3M629 444h3M633 444h3M637 444h3M641 444h3M645 444h3M649 444h2M1023 444h1M1027 444h1M1031 444h1M1035 444h1M1039 444h1M1043 444h1M1047 444h1M1049 444h1M1051 444h1M1053 444h1M1055 444h1M1057 444h1M550 445h102M963 445h1M974 445h1M978 445h1M982 445h1M986 445h1M990 445h1M994 445h1M998 445h1M1000 445h1M1002 445h1M1004 445h1M1006 445h1M1008 445h1M1010 445h1M1012 445h1M1014 445h1M1016 445h1M1018 445h1M1020 445h1M1022 445h1M1024 445h1M1026 445h1M1028 445h1M1030 445h1M1032 445h1M1034 445h1M1036 445h1M1038 445h1M1040 445h1M1042 445h1M1044 445h1M1046 445h1M1048 445h1M1050 445h1M1052 445h1M1054 445h1M1056 445h1M549 446h1M551 446h3M555 446h3M559 446h3M563 446h3M567 446h3M571 446h3M575 446h3M579 446h3M583 446h3M587 446h3M591 446h3M595 446h3M599 446h3M603 446h3M607 446h3M611 446h3M615 446h3M619 446h3M623 446h3M627 446h3M631 446h3M635 446h3M639 446h3M643 446h3M647 446h3M651 446h1M963 446h1M965 446h2M1017 446h1M1021 446h1M1025 446h1M1029 446h1M1033 446h1M1037 446h1M1041 446h1M1043 446h1M1045 446h1M1047 446h1M1049 446h1M1051 446h1M1053 446h1M1055 446h1M1057 446h1M549 447h103M967 447h3M972 447h1M976 447h1M980 447h1M984 447h1M988 447h1M992 447h1M994 447h1M996 447h1M998 447h1M1000 447h1M1002 447h1M1004 447h1M1006 447h1M1008 447h1M1010 447h1M1012 447h1M1014 447h1M1016 447h1M1018 447h1M1020 447h1M1022 447h1M1024 447h1M1026 447h1M1028 447h1M1030 447h1M1032 447h1M1034 447h1M1036 447h1M1038 447h1M1040 447h1M1042 447h1M1044 447h1M1046 447h1M1048 447h1M1050 447h1M1052 447h1M1054 447h1M1056 447h1M549 448h1M551 448h1M553 448h1M555 448h1M557 448h1M559 448h1M561 448h1M563 448h1M565 448h1M567 448h1M569 448h1M571 448h1M573 448h1M575 448h1M577 448h3M581 448h3M585 448h3M589 448h3M593 448h3M597 448h3M601 448h3M605 448h3M609 448h3M613 448h3M617 448h3M621 448h3M625 448h3M629 448h3M633 448h3M637 448h3M641 448h3M645 448h3M649 448h3M963 448h1M965 448h7M1039 448h1M1043 448h1M1047 448h1M1051 448h1M1055 448h1M548 449h106M964 449h11M990 449h1M994 449h1M998 449h1M1002 449h1M1006 449h1M1010 449h1M1014 449h1M1016 449h1M1018 449h1M1020 449h1M1022 449h1M1024 449h1M1026 449h1M1028 449h1M1030 449h1M1032 449h1M1034 449h1M1036 449h1M1038 449h1M1040 449h1M1042 449h1M1044 449h1M1046 449h1M1048 449h1M1050 449h1M1052 449h1M1054 449h1M1056 449h1M1058 449h1M547 450h3M551 450h3M555 450h3M559 450h3M563 450h3M567 450h3M571 450h3M575 450h3M579 450h3M583 450h3M587 450h3M591 450h3M595 450h3M599 450h3M603 450h3M607 450h3M611 450h3M615 450h3M619 450h3M623 450h3M627 450h3M631 450h3M635 450h3M639 450h3M643 450h3M647 450h3M651 450h3M964 450h1M967 450h3M971 450h3M975 450h2M1033 450h1M1037 450h1M1041 450h1M1045 450h1M1049 450h1M1053 450h1M1057 450h1M547 451h108M969 451h2M972 451h3M977 451h3M984 451h1M988 451h1M992 451h1M996 451h1M1000 451h1M1004 451h1M1008 451h1M1010 451h1M1012 451h1M1014 451h1M1016 451h1M1018 451h1M1020 451h1M1022 451h1M1024 451h1M1026 451h1M1028 451h1M1030 451h1M1032 451h1M1034 451h1M1036 451h1M1038 451h1M1040 451h1M1042 451h1M1044 451h1M1046 451h1M1048 451h1M1050 451h1M1052 451h1M1054 451h1M1056 451h1M1058 451h1M547 452h1M549 452h1M551 452h1M553 452h1M555 452h1M557 452h1M559 452h1M561 452h1M563 452h1M565 452h1M567 452h1M569 452h1M571 452h1M573 452h1M575 452h1M577 452h1M579 452h1M581 452h1M583 452h1M585 452h1M587 452h1M589 452h1M591 452h1M593 452h1M595 452h1M597 452h1M599 452h1M601 452h1M603 452h1M605 452h1M607 452h1M609 452h1M611 452h1M613 452h1M615 452h1M617 452h1M619 452h1M621 452h1M623 452h1M625 452h1M627 452h1M629 452h1M631 452h1M633 452h1M635 452h1M637 452h1M639 452h1M641 452h1M643 452h1M645 452h1M647 452h1M649 452h1M651 452h1M653 452h2M969 452h2M973 452h5M979 452h1M982 452h1M1055 452h1M546 453h109M982 453h3M1006 453h1M1010 453h1M1014 453h1M1018 453h1M1022 453h1M1026 453h1M1030 453h1M1032 453h1M1034 453h1M1036 453h1M1038 453h1M1040 453h1M1042 453h1M1044 453h1M1046 453h1M1048 453h1M1050 453h1M1052 453h1M1054 453h1M1056 453h1M1058 453h1M547 454h3M551 454h3M555 454h3M559 454h3M563 454h3M567 454h3M571 454h3M575 454h3M579 454h3M583 454h3M587 454h3M591 454h3M595 454h3M599 454h3M603 454h3M607 454h3M611 454h3M615 454h3M619 454h3M623 454h3M627 454h3M631 454h3M635 454h3M639 454h3M643 454h3M647 454h3M651 454h5M981 454h1M986 454h2M1049 454h1M1053 454h1M1057 454h1M545 455h111M1000 455h1M1004 455h1M1008 455h1M1012 455h1M1016 455h1M1020 455h1M1024 455h1M1026 455h1M1028 455h1M1030 455h1M1032 455h1M1034 455h1M1036 455h1M1038 455h1M1040 455h1M1042 455h1M1044 455h1M1046 455h1M1048 455h1M1050 455h1M1052 455h1M1054 455h1M1056 455h1M1058 455h1M545 456h1M547 456h1M549 456h1M551 456h1M553 456h1M555 456h1M557 456h1M559 456h1M561 456h1M563 456h1M565 456h1M567 456h1M569 456h1M571 456h1M573 456h1M575 456h1M577 456h1M579 456h1M581 456h1M583 456h1M585 456h1M587 456h1M589 456h1M591 456h1M593 456h1M595 456h1M597 456h1M599 456h1M601 456h1M603 456h1M605 456h1M607 456h1M609 456h1M611 456h1M613 456h1M615 456h1M617 456h1M619 456h1M621 456h1M623 456h1M625 456h1M627 456h1M629 456h1M631 456h1M633 456h1M635 456h1M637 456h1M639 456h1M641 456h1M643 456h1M645 456h1M647 456h1M649 456h1M651 456h1M653 456h3M545 457h111M1018 457h1M1022 457h1M1026 457h1M1030 457h1M1034 457h1M1038 457h1M1042 457h1M1044 457h1M1046 457h1M1048 457h1M1050 457h1M1052 457h1M1054 457h1M1056 457h1M1058 457h1M545 458h1M547 458h1M549 458h1M551 458h1M553 458h1M555 458h1M557 458h1M559 458h1M561 458h1M563 458h1M565 458h1M567 458h1M569 458h1M571 458h1M573 458h1M575 458h1M577 458h1M579 458h1M581 458h1M583 458h1M585 458h1M587 458h1M589 458h1M591 458h1M593 458h1M595 458h1M597 458h1M599 458h1M601 458h1M603 458h1M605 458h1M607 458h1M609 458h1M611 458h3M615 458h3M619 458h3M623 458h3M627 458h3M631 458h3M635 458h3M639 458h3M643 458h3M647 458h3M651 458h3M655 458h2M544 459h113M1020 459h1M1024 459h1M1028 459h1M1032 459h1M1036 459h1M1040 459h1M1042 459h1M1044 459h1M1046 459h1M1048 459h1M1050 459h1M1052 459h1M1054 459h1M1056 459h1M1058 459h1M545 460h1M547 460h1M549 460h1M551 460h1M553 460h1M555 460h1M557 460h1M559 460h1M561 460h1M563 460h1M565 460h1M567 460h1M569 460h1M571 460h1M573 460h1M575 460h1M577 460h1M579 460h1M581 460h1M583 460h1M585 460h1M587 460h1M589 460h1M591 460h1M593 460h1M595 460h1M597 460h1M599 460h1M601 460h1M603 460h1M605 460h1M607 460h1M609 460h1M611 460h1M613 460h1M615 460h1M617 460h1M619 460h1M621 460h1M623 460h1M625 460h1M627 460h1M629 460h1M631 460h1M633 460h1M635 460h1M637 460h1M639 460h1M641 460h1M643 460h1M645 460h1M647 460h1M649 460h1M651 460h1M653 460h1M655 460h1M544 461h114M1034 461h1M1038 461h1M1042 461h1M1046 461h1M1050 461h1M1054 461h1M1058 461h1M543 462h1M545 462h1M547 462h1M549 462h1M551 462h1M553 462h1M555 462h1M557 462h1M559 462h1M561 462h1M563 462h1M565 462h1M567 462h1M569 462h1M571 462h1M573 462h1M575 462h1M577 462h1M579 462h1M581 462h1M583 462h1M585 462h1M587 462h1M589 462h1M591 462h1M593 462h1M595 462h1M597 462h1M599 462h1M601 462h1M603 462h1M605 462h1M607 462h1M609 462h1M611 462h1M613 462h1M615 462h1M617 462h1M619 462h1M621 462h1M623 462h1M625 462h1M627 462h1M629 462h1M631 462h1M633 462h1M635 462h1M637 462h1M639 462h1M641 462h1M643 462h1M645 462h1M647 462h1M649 462h1M651 462h1M653 462h1M655 462h1M657 462h1M543 463h116M1044 463h1M1048 463h1M1052 463h1M1054 463h1M1056 463h1M1058 463h1M1060 463h1M543 464h1M545 464h1M547 464h1M549 464h1M551 464h1M553 464h1M555 464h1M557 464h1M559 464h1M561 464h1M563 464h1M565 464h1M567 464h1M569 464h1M571 464h1M573 464h1M575 464h1M577 464h1M579 464h1M581 464h1M583 464h1M585 464h1M587 464h1M589 464h1M591 464h1M593 464h1M595 464h1M597 464h1M599 464h1M601 464h1M603 464h1M605 464h1M607 464h1M609 464h1M611 464h1M613 464h1M615 464h1M617 464h1M619 464h1M621 464h1M623 464h1M625 464h1M627 464h1M629 464h1M631 464h1M633 464h1M635 464h1M637 464h1M639 464h1M641 464h1M643 464h1M645 464h1M647 464h1M649 464h1M651 464h1M653 464h1M655 464h1M657 464h1M542 465h3M546 465h3M550 465h3M554 465h3M558 465h3M562 465h3M566 465h3M570 465h3M574 465h3M578 465h3M582 465h3M586 465h74M1054 465h1M1058 465h1M543 466h1M545 466h1M547 466h1M549 466h1M551 466h1M553 466h1M555 466h1M557 466h1M559 466h1M561 466h1M563 466h1M565 466h1M567 466h1M569 466h1M571 466h1M573 466h1M575 466h1M577 466h1M579 466h1M581 466h1M583 466h1M585 466h1M587 466h1M589 466h1M591 466h1M593 466h1M595 466h1M597 466h1M599 466h1M601 466h1M603 466h1M605 466h1M607 466h1M609 466h1M611 466h1M613 466h1M615 466h1M617 466h1M619 466h1M621 466h1M623 466h1M625 466h1M627 466h1M629 466h1M631 466h1M633 466h1M635 466h1M637 466h1M639 466h1M641 466h1M643 466h1M645 466h1M647 466h1M649 466h1M651 466h1M653 466h1M655 466h1M657 466h1M659 466h1M541 467h119M541 468h1M543 468h1M545 468h1M547 468h1M549 468h1M551 468h1M553 468h1M555 468h1M557 468h1M559 468h1M561 468h1M563 468h1M565 468h1M567 468h1M569 468h1M571 468h1M573 468h1M575 468h1M577 468h1M579 468h1M581 468h1M583 468h1M585 468h1M587 468h1M589 468h1M591 468h1M593 468h1M595 468h1M597 468h1M599 468h1M601 468h1M603 468h1M605 468h1M607 468h1M609 468h1M611 468h1M613 468h1M615 468h1M617 468h1M619 468h1M621 468h1M623 468h1M625 468h1M627 468h1M629 468h1M631 468h1M633 468h1M635 468h1M637 468h1M639 468h1M641 468h1M643 468h1M645 468h1M647 468h1M649 468h1M651 468h1M653 468h1M655 468h1M657 468h1M659 468h1M540 469h1M542 469h3M546 469h3M550 469h3M554 469h3M558 469h3M562 469h3M566 469h3M570 469h3M574 469h3M578 469h3M582 469h3M586 469h3M590 469h3M594 469h3M598 469h3M602 469h3M606 469h3M610 469h3M614 469h3M618 469h3M622 469h3M626 469h3M630 469h3M634 469h3M638 469h3M642 469h3M646 469h3M650 469h3M654 469h3M658 469h3M541 470h1M543 470h1M545 470h1M547 470h1M549 470h1M551 470h1M553 470h1M555 470h1M557 470h1M559 470h1M561 470h1M563 470h1M565 470h1M567 470h1M569 470h1M571 470h1M573 470h1M575 470h1M577 470h1M579 470h1M581 470h1M583 470h1M585 470h1M587 470h1M589 470h1M591 470h1M593 470h1M595 470h1M597 470h1M599 470h1M601 470h1M603 470h1M605 470h1M607 470h1M609 470h1M611 470h1M613 470h1M615 470h1M617 470h1M619 470h1M621 470h1M623 470h1M625 470h1M627 470h1M629 470h1M631 470h1M633 470h1M635 470h1M637 470h1M639 470h1M641 470h1M643 470h1M645 470h1M647 470h1M649 470h1M651 470h1M653 470h1M655 470h1M657 470h1M659 470h1M661 470h1M540 471h122M539 472h1M541 472h1M543 472h1M545 472h1M547 472h1M549 472h1M551 472h1M553 472h1M555 472h1M557 472h1M559 472h1M561 472h1M563 472h1M565 472h1M567 472h1M569 472h1M571 472h1M573 472h1M575 472h1M577 472h1M579 472h1M581 472h1M583 472h1M585 472h1M587 472h1M589 472h1M591 472h1M593 472h1M595 472h1M597 472h1M599 472h1M601 472h1M603 472h1M605 472h1M607 472h1M609 472h1M611 472h1M613 472h1M615 472h1M617 472h1M619 472h1M621 472h1M623 472h1M625 472h1M627 472h1M629 472h1M631 472h1M633 472h1M635 472h1M637 472h1M639 472h1M641 472h1M643 472h1M645 472h1M647 472h1M649 472h1M651 472h1M653 472h1M655 472h1M657 472h1M659 472h1M661 472h1M539 473h2M542 473h3M546 473h3M550 473h3M554 473h3M558 473h3M562 473h3M566 473h3M570 473h3M574 473h3M578 473h3M582 473h3M586 473h3M590 473h3M594 473h3M598 473h3M602 473h3M606 473h3M610 473h3M614 473h3M618 473h3M622 473h3M626 473h3M630 473h3M634 473h3M638 473h3M642 473h3M646 473h3M650 473h3M654 473h3M658 473h3M662 473h1M539 474h1M541 474h1M543 474h1M545 474h1M547 474h1M549 474h1M551 474h1M553 474h1M555 474h1M557 474h1M559 474h1M561 474h1M563 474h1M565 474h1M567 474h1M569 474h1M571 474h1M573 474h1M575 474h1M577 474h1M579 474h1M581 474h1M583 474h1M585 474h1M587 474h1M589 474h1M591 474h1M593 474h1M595 474h1M597 474h1M599 474h1M601 474h1M603 474h1M605 474h1M607 474h1M609 474h1M611 474h1M613 474h1M615 474h1M617 474h1M619 474h1M621 474h1M623 474h1M625 474h1M627 474h1M629 474h1M631 474h1M633 474h1M635 474h1M637 474h1M639 474h1M641 474h1M643 474h1M645 474h1M647 474h1M649 474h1M651 474h1M653 474h1M655 474h1M657 474h1M659 474h1M661 474h1M538 475h1M540 475h3M544 475h3M548 475h3M552 475h3M556 475h3M560 475h3M564 475h3M568 475h3M572 475h3M576 475h3M580 475h3M584 475h3M588 475h3M592 475h3M596 475h3M600 475h3M604 475h3M608 475h3M612 475h3M616 475h3M620 475h43M539 476h1M541 476h1M543 476h1M545 476h1M547 476h1M549 476h1M551 476h1M553 476h1M555 476h1M557 476h1M559 476h1M561 476h1M563 476h1M565 476h1M567 476h1M569 476h1M571 476h1M573 476h1M575 476h1M577 476h1M579 476h1M581 476h1M583 476h1M585 476h1M587 476h1M589 476h1M591 476h1M593 476h1M595 476h1M597 476h1M599 476h1M601 476h1M603 476h1M605 476h1M607 476h1M609 476h1M611 476h1M613 476h1M615 476h1M617 476h1M619 476h1M621 476h1M623 476h1M625 476h1M627 476h1M629 476h1M631 476h1M633 476h1M635 476h1M637 476h1M639 476h1M641 476h1M643 476h1M645 476h1M647 476h1M649 476h1M651 476h1M653 476h1M655 476h1M657 476h1M659 476h1M661 476h1M538 477h3M542 477h3M546 477h3M550 477h3M554 477h3M558 477h3M562 477h3M566 477h3M570 477h3M574 477h3M578 477h3M582 477h3M586 477h3M590 477h3M594 477h3M598 477h3M602 477h3M606 477h3M610 477h3M614 477h3M618 477h3M622 477h3M626 477h3M630 477h3M634 477h3M638 477h3M642 477h3M646 477h3M650 477h3M654 477h3M658 477h3M662 477h2M539 478h1M541 478h1M543 478h1M545 478h1M547 478h1M549 478h1M551 478h1M553 478h1M555 478h1M557 478h1M559 478h1M561 478h1M563 478h1M565 478h1M567 478h1M569 478h1M571 478h1M573 478h1M575 478h1M577 478h1M579 478h1M581 478h1M583 478h1M585 478h1M587 478h1M589 478h1M591 478h1M593 478h1M595 478h1M597 478h1M599 478h1M601 478h1M603 478h1M605 478h1M607 478h1M609 478h1M611 478h1M613 478h1M615 478h1M617 478h1M619 478h1M621 478h1M623 478h1M625 478h1M627 478h1M629 478h1M631 478h1M633 478h1M635 478h1M637 478h1M639 478h1M641 478h1M643 478h1M645 478h1M647 478h1M649 478h1M651 478h1M653 478h1M655 478h1M657 478h1M659 478h1M661 478h1M663 478h1M537 479h2M540 479h3M544 479h3M548 479h3M552 479h3M556 479h3M560 479h3M564 479h3M568 479h3M572 479h3M576 479h3M580 479h3M584 479h3M588 479h3M592 479h3M596 479h3M600 479h3M604 479h3M608 479h3M612 479h3M616 479h3M620 479h3M624 479h3M628 479h3M632 479h3M636 479h3M640 479h3M644 479h3M648 479h3M652 479h3M656 479h3M660 479h3M537 480h1M539 480h1M541 480h1M543 480h1M545 480h1M547 480h1M549 480h1M551 480h1M553 480h1M555 480h1M557 480h1M559 480h1M561 480h1M563 480h1M565 480h1M567 480h1M569 480h1M571 480h1M573 480h1M575 480h1M577 480h1M579 480h1M581 480h1M583 480h1M585 480h1M587 480h1M589 480h1M591 480h1M593 480h1M595 480h1M597 480h1M599 480h1M601 480h1M603 480h1M605 480h1M607 480h1M609 480h1M611 480h1M613 480h1M615 480h1M617 480h1M619 480h1M621 480h1M623 480h1M625 480h1M627 480h1M629 480h1M631 480h1M633 480h1M635 480h1M637 480h1M639 480h1M641 480h1M643 480h1M645 480h1M647 480h1M649 480h1M651 480h1M653 480h1M655 480h1M657 480h1M659 480h1M661 480h1M663 480h1M536 481h1M538 481h1M540 481h1M542 481h1M544 481h1M546 481h1M548 481h1M550 481h1M552 481h1M554 481h1M556 481h1M558 481h1M560 481h1M562 481h1M564 481h1M566 481h1M568 481h1M570 481h1M572 481h1M574 481h1M576 481h1M578 481h3M582 481h3M586 481h3M590 481h3M594 481h3M598 481h3M602 481h3M606 481h3M610 481h3M614 481h3M618 481h3M622 481h3M626 481h3M630 481h3M634 481h3M638 481h3M642 481h3M646 481h3M650 481h3M654 481h3M658 481h3M662 481h3M537 482h1M539 482h1M541 482h1M543 482h1M545 482h1M547 482h1M549 482h1M551 482h1M553 482h1M555 482h1M557 482h1M559 482h1M561 482h1M563 482h1M565 482h1M567 482h1M569 482h1M571 482h1M573 482h1M575 482h1M577 482h1M579 482h1M581 482h1M583 482h1M585 482h1M587 482h1M589 482h1M591 482h1M593 482h1M595 482h1M597 482h1M599 482h1M601 482h1M603 482h1M605 482h1M607 482h1M609 482h1M611 482h1M613 482h1M615 482h1M617 482h1M619 482h1M621 482h1M623 482h1M625 482h1M627 482h1M629 482h1M631 482h1M633 482h1M635 482h1M637 482h1M639 482h1M641 482h1M643 482h1M645 482h1M647 482h1M649 482h1M651 482h1M653 482h1M655 482h1M657 482h1M659 482h1M661 482h1M663 482h1M665 482h1M536 483h3M540 483h3M544 483h3M548 483h3M552 483h3M556 483h3M560 483h3M564 483h3M568 483h3M572 483h3M576 483h3M580 483h3M584 483h3M588 483h3M592 483h3M596 483h3M600 483h3M604 483h3M608 483h3M612 483h3M616 483h3M620 483h3M624 483h3M628 483h3M632 483h3M636 483h3M640 483h3M644 483h3M648 483h3M652 483h3M656 483h3M660 483h3M664 483h2M535 484h1M537 484h1M539 484h1M541 484h1M543 484h1M545 484h1M547 484h1M549 484h1M551 484h1M553 484h1M555 484h1M557 484h1M559 484h1M561 484h1M563 484h1M565 484h1M567 484h1M569 484h1M571 484h1M573 484h1M575 484h1M577 484h1M579 484h1M581 484h1M583 484h1M585 484h1M587 484h1M589 484h1M591 484h1M593 484h1M595 484h1M597 484h1M599 484h1M601 484h1M603 484h1M605 484h1M607 484h1M609 484h1M611 484h1M613 484h1M615 484h1M617 484h1M619 484h1M621 484h1M623 484h1M625 484h1M627 484h1M629 484h1M631 484h1M633 484h1M635 484h1M637 484h1M639 484h1M641 484h1M643 484h1M645 484h1M647 484h1M649 484h1M651 484h1M653 484h1M655 484h1M657 484h1M659 484h1M661 484h1M663 484h1M665 484h1M536 485h1M538 485h1M540 485h1M542 485h1M544 485h1M546 485h1M548 485h1M550 485h1M552 485h1M554 485h1M556 485h1M558 485h1M560 485h1M562 485h1M564 485h1M566 485h1M568 485h1M570 485h1M572 485h1M574 485h1M576 485h1M578 485h1M580 485h1M582 485h1M584 485h1M586 485h1M588 485h1M590 485h1M592 485h1M594 485h1M596 485h1M598 485h1M600 485h1M602 485h1M604 485h1M606 485h1M608 485h1M610 485h1M612 485h1M614 485h1M616 485h1M618 485h1M620 485h1M622 485h1M624 485h1M626 485h1M628 485h1M630 485h1M632 485h1M634 485h1M636 485h1M638 485h1M640 485h1M642 485h1M644 485h1M646 485h1M648 485h1M650 485h1M652 485h1M654 485h1M656 485h1M658 485h3M662 485h3M666 485h1M535 486h1M537 486h1M539 486h1M541 486h1M543 486h1M545 486h1M547 486h1M549 486h1M551 486h1M553 486h1M555 486h1M557 486h1M559 486h1M561 486h1M563 486h1M565 486h1M567 486h1M569 486h1M571 486h1M573 486h1M575 486h1M577 486h1M579 486h1M581 486h1M583 486h1M585 486h1M587 486h1M589 486h1M591 486h1M593 486h1M595 486h1M597 486h1M599 486h1M601 486h1M603 486h1M605 486h1M607 486h1M609 486h1M611 486h1M613 486h1M615 486h1M617 486h1M619 486h1M621 486h1M623 486h1M625 486h1M627 486h1M629 486h1M631 486h1M633 486h1M635 486h1M637 486h1M639 486h1M641 486h1M643 486h1M645 486h1M647 486h1M649 486h1M651 486h1M653 486h1M655 486h1M657 486h1M659 486h1M661 486h1M663 486h1M665 486h1M534 487h1M536 487h3M540 487h3M544 487h3M548 487h3M552 487h3M556 487h3M560 487h3M564 487h3M568 487h3M572 487h3M576 487h3M580 487h3M584 487h3M588 487h3M592 487h3M596 487h3M600 487h3M604 487h3M608 487h3M612 487h3M616 487h3M620 487h3M624 487h3M628 487h3M632 487h3M636 487h3M640 487h3M644 487h3M648 487h3M652 487h3M656 487h3M660 487h3M664 487h3M533 488h1M535 488h1M537 488h1M539 488h1M541 488h1M543 488h1M545 488h1M547 488h1M549 488h1M551 488h1M553 488h1M555 488h1M557 488h1M559 488h1M561 488h1M563 488h1M565 488h1M567 488h1M569 488h1M571 488h1M573 488h1M575 488h1M577 488h1M579 488h1M581 488h1M583 488h1M585 488h1M587 488h1M589 488h1M591 488h1M593 488h1M595 488h1M597 488h1M599 488h1M601 488h1M603 488h1M605 488h1M607 488h1M609 488h1M611 488h1M613 488h1M615 488h1M617 488h1M619 488h1M621 488h1M623 488h1M625 488h1M627 488h1M629 488h1M631 488h1M633 488h1M635 488h1M637 488h1M639 488h1M641 488h1M643 488h1M645 488h1M647 488h1M649 488h1M651 488h1M653 488h1M655 488h1M657 488h1M659 488h1M661 488h1M663 488h1M665 488h1M667 488h1M534 489h1M536 489h1M538 489h1M540 489h1M542 489h1M544 489h1M546 489h1M548 489h1M550 489h1M552 489h1M554 489h1M556 489h1M558 489h1M560 489h1M562 489h1M564 489h1M566 489h1M568 489h1M570 489h1M572 489h1M574 489h1M576 489h1M578 489h1M580 489h1M582 489h1M584 489h1M586 489h1M588 489h1M590 489h1M592 489h1M594 489h1M596 489h1M598 489h1M600 489h1M602 489h1M604 489h1M606 489h1M608 489h1M610 489h1M612 489h1M614 489h1M616 489h1M618 489h1M620 489h1M622 489h1M624 489h1M626 489h1M628 489h1M630 489h1M632 489h1M634 489h1M636 489h1M638 489h1M640 489h1M642 489h1M644 489h1M646 489h1M648 489h1M650 489h1M652 489h1M654 489h1M656 489h1M658 489h1M660 489h1M662 489h1M664 489h1M666 489h1M668 489h1M533 490h1M535 490h1M537 490h1M539 490h1M541 490h1M543 490h1M545 490h1M547 490h1M549 490h1M551 490h1M553 490h1M555 490h1M557 490h1M559 490h1M561 490h1M563 490h1M565 490h1M567 490h1M569 490h1M571 490h1M573 490h1M575 490h1M577 490h1M579 490h1M581 490h1M583 490h1M585 490h1M587 490h1M589 490h1M591 490h1M593 490h1M595 490h1M597 490h1M599 490h1M601 490h1M603 490h1M605 490h1M607 490h1M609 490h1M611 490h1M613 490h1M615 490h1M617 490h1M619 490h1M621 490h1M623 490h1M625 490h1M627 490h1M629 490h1M631 490h1M633 490h1M635 490h1M637 490h1M639 490h1M641 490h1M643 490h1M645 490h1M647 490h1M649 490h1M651 490h1M653 490h1M655 490h1M657 490h1M659 490h1M661 490h1M663 490h1M665 490h1M667 490h1M532 491h1M534 491h1M536 491h1M538 491h1M540 491h1M542 491h1M544 491h1M546 491h1M548 491h1M550 491h1M552 491h1M554 491h1M556 491h1M558 491h1M560 491h1M562 491h1M564 491h1M566 491h1M568 491h1M570 491h1M572 491h1M574 491h1M576 491h1M578 491h1M580 491h1M582 491h1M584 491h1M586 491h1M588 491h1M590 491h1M592 491h1M594 491h1M596 491h1M598 491h1M600 491h1M602 491h1M604 491h1M606 491h1M608 491h1M610 491h1M612 491h1M614 491h1M616 491h3M620 491h3M624 491h3M628 491h3M632 491h3M636 491h3M640 491h3M644 491h3M648 491h3M652 491h3M656 491h3M660 491h3M664 491h3M668 491h2M533 492h1M535 492h1M537 492h1M539 492h1M541 492h1M543 492h1M545 492h1M547 492h1M549 492h1M551 492h1M553 492h1M555 492h1M557 492h1M559 492h1M561 492h1M563 492h1M565 492h1M567 492h1M569 492h1M571 492h1M573 492h1M575 492h1M577 492h1M579 492h1M581 492h1M583 492h1M585 492h1M587 492h1M589 492h1M591 492h1M593 492h1M595 492h1M597 492h1M599 492h1M601 492h1M603 492h1M605 492h1M607 492h1M609 492h1M611 492h1M613 492h1M615 492h1M617 492h1M619 492h1M621 492h1M623 492h1M625 492h1M627 492h1M629 492h1M631 492h1M633 492h1M635 492h1M637 492h1M639 492h1M641 492h1M643 492h1M645 492h1M647 492h1M649 492h1M651 492h1M653 492h1M655 492h1M657 492h1M659 492h1M661 492h1M663 492h1M665 492h1M667 492h1M669 492h1M532 493h1M534 493h1M536 493h1M538 493h1M540 493h1M542 493h1M544 493h1M546 493h1M548 493h1M550 493h1M552 493h1M554 493h1M556 493h1M558 493h1M560 493h1M562 493h1M564 493h1M566 493h1M568 493h1M570 493h1M572 493h1M574 493h1M576 493h1M578 493h1M580 493h1M582 493h1M584 493h1M586 493h1M588 493h1M590 493h1M592 493h1M594 493h1M596 493h1M598 493h1M600 493h1M602 493h1M604 493h1M606 493h1M608 493h1M610 493h1M612 493h1M614 493h1M616 493h1M618 493h1M620 493h1M622 493h1M624 493h1M626 493h1M628 493h1M630 493h1M632 493h1M634 493h1M636 493h1M638 493h1M640 493h1M642 493h1M644 493h1M646 493h1M648 493h1M650 493h1M652 493h1M654 493h1M656 493h1M658 493h1M660 493h1M662 493h1M664 493h1M666 493h1M668 493h1M531 494h1M533 494h1M535 494h1M537 494h1M539 494h1M541 494h1M543 494h1M545 494h1M547 494h1M549 494h1M551 494h1M553 494h1M555 494h1M557 494h1M559 494h1M561 494h1M563 494h1M565 494h1M567 494h1M569 494h1M571 494h1M573 494h1M575 494h1M577 494h1M579 494h1M581 494h1M583 494h1M585 494h1M587 494h1M589 494h1M591 494h1M593 494h1M595 494h1M597 494h1M599 494h1M601 494h1M603 494h1M605 494h1M607 494h1M609 494h1M611 494h1M613 494h1M615 494h1M617 494h1M619 494h1M621 494h1M623 494h1M625 494h1M627 494h1M629 494h1M631 494h1M633 494h1M635 494h1M637 494h1M639 494h1M641 494h1M643 494h1M645 494h1M647 494h1M649 494h1M651 494h1M653 494h1M655 494h1M657 494h1M659 494h1M661 494h1M663 494h1M665 494h1M667 494h1M669 494h1M530 495h1M532 495h1M534 495h1M536 495h1M538 495h1M540 495h1M542 495h1M544 495h1M546 495h1M548 495h1M550 495h1M552 495h1M554 495h1M556 495h1M558 495h1M560 495h1M562 495h1M564 495h1M566 495h1M568 495h1M570 495h1M572 495h1M574 495h1M576 495h1M578 495h1M580 495h1M582 495h1M584 495h1M586 495h1M588 495h1M590 495h1M592 495h1M594 495h1M596 495h1M598 495h1M600 495h1M602 495h1M604 495h1M606 495h1M608 495h1M610 495h1M612 495h1M614 495h1M616 495h1M618 495h1M620 495h1M622 495h1M624 495h1M626 495h1M628 495h1M630 495h1M632 495h1M634 495h1M636 495h1M638 495h1M640 495h1M642 495h1M644 495h1M646 495h1M648 495h1M650 495h1M652 495h1M654 495h1M656 495h1M658 495h1M660 495h1M662 495h1M664 495h1M666 495h1M668 495h1M670 495h1M531 496h1M535 496h1M539 496h1M543 496h1M547 496h1M551 496h1M553 496h1M555 496h1M557 496h1M559 496h1M561 496h1M563 496h1M565 496h1M567 496h1M569 496h1M571 496h1M573 496h1M575 496h1M577 496h1M579 496h1M581 496h1M583 496h1M585 496h1M587 496h1M589 496h1M591 496h1M593 496h1M595 496h1M597 496h1M599 496h1M601 496h1M603 496h1M605 496h1M607 496h1M609 496h1M611 496h1M613 496h1M615 496h1M617 496h1M619 496h1M621 496h1M623 496h1M625 496h1M627 496h1M629 496h1M631 496h1M633 496h1M635 496h1M637 496h1M639 496h1M641 496h1M643 496h1M645 496h1M647 496h1M649 496h1M651 496h1M653 496h1M655 496h1M657 496h1M659 496h1M661 496h1M663 496h1M665 496h1M667 496h1M669 496h1M530 497h1M532 497h1M534 497h1M536 497h1M538 497h1M540 497h1M542 497h1M544 497h1M546 497h1M548 497h1M550 497h1M552 497h1M554 497h1M556 497h1M558 497h1M560 497h1M562 497h1M564 497h1M566 497h1M568 497h1M570 497h1M572 497h1M574 497h1M576 497h1M578 497h1M580 497h1M582 497h1M584 497h1M586 497h1M588 497h1M590 497h1M592 497h1M594 497h1M596 497h1M598 497h1M600 497h1M602 497h1M604 497h1M606 497h1M608 497h1M610 497h1M612 497h1M614 497h1M616 497h1M618 497h1M620 497h1M622 497h1M624 497h1M626 497h1M628 497h1M630 497h1M632 497h1M634 497h1M636 497h1M638 497h1M640 497h1M642 497h1M644 497h1M646 497h1M648 497h1M650 497h1M652 497h1M654 497h1M656 497h1M658 497h1M660 497h1M662 497h1M664 497h1M666 497h1M668 497h1M670 497h1M531 498h1M533 498h1M535 498h1M537 498h1M539 498h1M541 498h1M543 498h1M545 498h1M547 498h1M549 498h1M551 498h1M553 498h1M555 498h1M557 498h1M559 498h1M561 498h1M563 498h1M565 498h1M567 498h1M569 498h1M571 498h1M573 498h1M575 498h1M577 498h1M579 498h1M581 498h1M583 498h1M585 498h1M587 498h1M589 498h1M591 498h1M593 498h1M595 498h1M597 498h1M599 498h1M601 498h1M603 498h1M605 498h1M607 498h1M609 498h1M611 498h1M613 498h1M615 498h1M617 498h1M619 498h1M621 498h1M623 498h1M625 498h1M627 498h1M629 498h1M631 498h1M633 498h1M635 498h1M637 498h1M639 498h1M641 498h1M643 498h1M645 498h1M647 498h1M649 498h1M651 498h1M653 498h1M655 498h1M657 498h1M659 498h1M661 498h1M663 498h1M665 498h1M667 498h1M669 498h1M530 499h1M532 499h1M534 499h1M536 499h1M538 499h1M540 499h1M542 499h1M544 499h1M546 499h1M548 499h1M550 499h1M552 499h1M554 499h1M556 499h1M558 499h1M560 499h1M562 499h1M564 499h1M566 499h1M568 499h1M570 499h1M572 499h1M574 499h1M576 499h1M578 499h1M580 499h1M582 499h1M584 499h1M586 499h1M588 499h1M590 499h1M592 499h1M594 499h1M596 499h1M598 499h1M600 499h1M602 499h1M604 499h1M606 499h1M608 499h1M610 499h1M612 499h1M614 499h1M616 499h1M618 499h1M620 499h1M622 499h1M624 499h1M626 499h1M628 499h1M630 499h1M632 499h1M634 499h1M636 499h1M638 499h1M640 499h1M642 499h1M644 499h1M646 499h1M648 499h1M650 499h1M652 499h1M654 499h1M656 499h1M658 499h1M660 499h1M662 499h1M664 499h1M666 499h1M668 499h1M670 499h1M531 500h1M535 500h1M539 500h1M543 500h1M547 500h1M551 500h1M555 500h1M559 500h1M563 500h1M567 500h1M571 500h1M575 500h1M579 500h1M583 500h1M587 500h1M591 500h1M595 500h1M599 500h1M603 500h1M607 500h1M611 500h1M615 500h1M619 500h1M623 500h1M627 500h1M631 500h1M633 500h1M635 500h1M637 500h1M639 500h1M641 500h1M643 500h1M645 500h1M647 500h1M649 500h1M651 500h1M653 500h1M655 500h1M657 500h1M659 500h1M661 500h1M663 500h1M665 500h1M667 500h1M669 500h1M671 500h1M530 501h1M532 501h1M534 501h1M536 501h1M538 501h1M540 501h1M542 501h1M544 501h1M546 501h1M548 501h1M550 501h1M552 501h1M554 501h1M556 501h1M558 501h1M560 501h1M562 501h1M564 501h1M566 501h1M568 501h1M570 501h1M572 501h1M574 501h1M576 501h1M578 501h1M580 501h1M582 501h1M584 501h1M586 501h1M588 501h1M590 501h1M592 501h1M594 501h1M596 501h1M598 501h1M600 501h1M602 501h1M604 501h1M606 501h1M608 501h1M610 501h1M612 501h1M614 501h1M616 501h1M618 501h1M620 501h1M622 501h1M624 501h1M626 501h1M628 501h1M630 501h1M632 501h1M634 501h1M636 501h1M638 501h1M640 501h1M642 501h1M644 501h1M646 501h1M648 501h1M650 501h1M652 501h1M654 501h1M656 501h1M658 501h1M660 501h1M662 501h1M664 501h1M666 501h1M668 501h1M670 501h1M672 501h1M529 502h1M531 502h1M533 502h1M535 502h1M537 502h1M539 502h1M541 502h1M543 502h1M545 502h1M547 502h1M549 502h1M551 502h1M553 502h1M555 502h1M557 502h1M559 502h1M561 502h1M563 502h1M565 502h1M567 502h1M569 502h1M571 502h1M573 502h1M575 502h1M577 502h1M579 502h1M581 502h1M583 502h1M585 502h1M587 502h1M589 502h1M591 502h1M593 502h1M595 502h1M597 502h1M599 502h1M601 502h1M603 502h1M605 502h1M607 502h1M609 502h1M611 502h1M613 502h1M615 502h1M617 502h1M619 502h1M621 502h1M623 502h1M625 502h1M627 502h1M629 502h1M631 502h1M633 502h1M635 502h1M637 502h1M639 502h1M641 502h1M643 502h1M645 502h1M647 502h1M649 502h1M651 502h1M653 502h1M655 502h1M657 502h1M659 502h1M661 502h1M663 502h1M665 502h1M667 502h1M669 502h1M671 502h1M528 503h1M530 503h1M532 503h1M534 503h1M536 503h1M538 503h1M540 503h1M542 503h1M544 503h1M546 503h1M548 503h1M550 503h1M552 503h1M554 503h1M556 503h1M558 503h1M560 503h1M562 503h1M564 503h1M566 503h1M568 503h1M570 503h1M572 503h1M574 503h1M576 503h1M578 503h1M580 503h1M582 503h1M584 503h1M586 503h1M588 503h1M590 503h1M592 503h1M594 503h1M596 503h1M598 503h1M600 503h1M602 503h1M604 503h1M606 503h1M608 503h1M610 503h1M612 503h1M614 503h1M616 503h1M618 503h1M620 503h1M622 503h1M624 503h1M626 503h1M628 503h1M630 503h1M632 503h1M634 503h1M636 503h1M638 503h1M640 503h1M642 503h1M644 503h1M646 503h1M648 503h1M650 503h1M652 503h1M654 503h1M656 503h1M658 503h1M660 503h1M662 503h1M664 503h1M666 503h1M668 503h1M670 503h1M672 503h1M531 504h1M535 504h1M539 504h1M543 504h1M547 504h1M551 504h1M555 504h1M559 504h1M563 504h1M567 504h1M571 504h1M575 504h1M579 504h1M583 504h1M587 504h1M591 504h1M595 504h1M599 504h1M603 504h1M607 504h1M611 504h1M615 504h1M619 504h1M623 504h1M627 504h1M631 504h1M635 504h1M639 504h1M643 504h1M647 504h1M651 504h1M655 504h1M659 504h1M663 504h1M667 504h1M671 504h1M528 505h1M530 505h1M532 505h1M534 505h1M536 505h1M538 505h1M540 505h1M542 505h1M544 505h1M546 505h1M548 505h1M550 505h1M552 505h1M554 505h1M556 505h1M558 505h1M560 505h1M562 505h1M564 505h1M566 505h1M568 505h1M570 505h1M572 505h1M574 505h1M576 505h1M578 505h1M580 505h1M582 505h1M584 505h1M586 505h1M588 505h1M590 505h1M592 505h1M594 505h1M596 505h1M598 505h1M600 505h1M602 505h1M604 505h1M606 505h1M608 505h1M610 505h1M612 505h1M614 505h1M616 505h1M618 505h1M620 505h1M622 505h1M624 505h1M626 505h1M628 505h1M630 505h1M632 505h1M634 505h1M636 505h1M638 505h1M640 505h1M642 505h1M644 505h1M646 505h1M648 505h1M650 505h1M652 505h1M654 505h1M656 505h1M658 505h1M660 505h1M662 505h1M664 505h1M666 505h1M668 505h1M670 505h1M672 505h1M529 506h1M533 506h1M537 506h1M541 506h1M545 506h1M549 506h1M553 506h1M557 506h1M561 506h1M565 506h1M569 506h1M573 506h1M577 506h1M581 506h1M585 506h1M587 506h1M589 506h1M591 506h1M593 506h1M595 506h1M597 506h1M599 506h1M601 506h1M603 506h1M605 506h1M607 506h1M609 506h1M611 506h1M613 506h1M615 506h1M617 506h1M619 506h1M621 506h1M623 506h1M625 506h1M627 506h1M629 506h1M631 506h1M633 506h1M635 506h1M637 506h1M639 506h1M641 506h1M643 506h1M645 506h1M647 506h1M649 506h1M651 506h1M653 506h1M655 506h1M657 506h1M659 506h1M661 506h1M663 506h1M665 506h1M667 506h1M669 506h1M671 506h1M673 506h1M526 507h1M528 507h1M530 507h1M532 507h1M534 507h1M536 507h1M538 507h1M540 507h1M542 507h1M544 507h1M546 507h1M548 507h1M550 507h1M552 507h1M554 507h1M556 507h1M558 507h1M560 507h1M562 507h1M564 507h1M566 507h1M568 507h1M570 507h1M572 507h1M574 507h1M576 507h1M578 507h1M580 507h1M582 507h1M584 507h1M586 507h1M588 507h1M590 507h1M592 507h1M594 507h1M596 507h1M598 507h1M600 507h1M602 507h1M604 507h1M606 507h1M608 507h1M610 507h1M612 507h1M614 507h1M616 507h1M618 507h1M620 507h1M622 507h1M624 507h1M626 507h1M628 507h1M630 507h1M632 507h1M634 507h1M636 507h1M638 507h1M640 507h1M642 507h1M644 507h1M646 507h1M648 507h1M650 507h1M652 507h1M654 507h1M656 507h1M658 507h1M660 507h1M662 507h1M664 507h1M666 507h1M668 507h1M670 507h1M672 507h1M674 507h1M527 508h1M531 508h1M535 508h1M539 508h1M543 508h1M547 508h1M551 508h1M555 508h1M559 508h1M563 508h1M567 508h1M571 508h1M575 508h1M579 508h1M583 508h1M587 508h1M591 508h1M595 508h1M599 508h1M603 508h1M607 508h1M611 508h1M615 508h1M619 508h1M623 508h1M627 508h1M631 508h1M635 508h1M639 508h1M643 508h1M647 508h1M651 508h1M655 508h1M659 508h1M663 508h1M667 508h1M671 508h1M675 508h1M526 509h1M528 509h1M530 509h1M532 509h1M534 509h1M536 509h1M538 509h1M540 509h1M542 509h1M544 509h1M546 509h1M548 509h1M550 509h1M552 509h1M554 509h1M556 509h1M558 509h1M560 509h1M562 509h1M564 509h1M566 509h1M568 509h1M570 509h1M572 509h1M574 509h1M576 509h1M578 509h1M580 509h1M582 509h1M584 509h1M586 509h1M588 509h1M590 509h1M592 509h1M594 509h1M596 509h1M598 509h1M600 509h1M602 509h1M604 509h1M606 509h1M608 509h1M610 509h1M612 509h1M614 509h1M616 509h1M618 509h1M620 509h1M622 509h1M624 509h1M626 509h1M628 509h1M630 509h1M632 509h1M634 509h1M636 509h1M638 509h1M640 509h1M642 509h1M644 509h1M646 509h1M648 509h1M650 509h1M652 509h1M654 509h1M656 509h1M658 509h1M660 509h1M662 509h1M664 509h1M666 509h1M668 509h1M670 509h1M672 509h1M674 509h1M525 510h1M529 510h1M533 510h1M537 510h1M541 510h1M545 510h1M549 510h1M553 510h1M557 510h1M561 510h1M565 510h1M569 510h1M573 510h1M577 510h1M581 510h1M585 510h1M589 510h1M593 510h1M597 510h1M601 510h1M605 510h1M609 510h1M613 510h1M617 510h1M621 510h1M625 510h1M629 510h1M633 510h1M637 510h1M641 510h1M645 510h1M649 510h1M653 510h1M657 510h1M661 510h1M665 510h1M667 510h1M669 510h1M671 510h1M673 510h1M675 510h1M526 511h1M528 511h1M530 511h1M532 511h1M534 511h1M536 511h1M538 511h1M540 511h1M542 511h1M544 511h1M546 511h1M548 511h1M550 511h1M552 511h1M554 511h1M556 511h1M558 511h1M560 511h1M562 511h1M564 511h1M566 511h1M568 511h1M570 511h1M572 511h1M574 511h1M576 511h1M578 511h1M580 511h1M582 511h1M584 511h1M586 511h1M588 511h1M590 511h1M592 511h1M594 511h1M596 511h1M598 511h1M600 511h1M602 511h1M604 511h1M606 511h1M608 511h1M610 511h1M612 511h1M614 511h1M616 511h1M618 511h1M620 511h1M622 511h1M624 511h1M626 511h1M628 511h1M630 511h1M632 511h1M634 511h1M636 511h1M638 511h1M640 511h1M642 511h1M644 511h1M646 511h1M648 511h1M650 511h1M652 511h1M654 511h1M656 511h1M658 511h1M660 511h1M662 511h1M664 511h1M666 511h1M668 511h1M670 511h1M672 511h1M674 511h1M676 511h1M543 512h1M547 512h1M551 512h1M555 512h1M559 512h1M563 512h1M567 512h1M571 512h1M575 512h1M579 512h1M583 512h1M587 512h1M591 512h1M595 512h1M599 512h1M603 512h1M607 512h1M611 512h1M615 512h1M619 512h1M623 512h1M627 512h1M631 512h1M635 512h1M639 512h1M643 512h1M647 512h1M651 512h1M655 512h1M659 512h1M663 512h1M667 512h1M671 512h1M675 512h1M524 513h1M526 513h1M528 513h1M530 513h1M532 513h1M534 513h1M536 513h1M538 513h1M540 513h1M542 513h1M544 513h1M546 513h1M548 513h1M550 513h1M552 513h1M554 513h1M556 513h1M558 513h1M560 513h1M562 513h1M564 513h1M566 513h1M568 513h1M570 513h1M572 513h1M574 513h1M576 513h1M578 513h1M580 513h1M582 513h1M584 513h1M586 513h1M588 513h1M590 513h1M592 513h1M594 513h1M596 513h1M598 513h1M600 513h1M602 513h1M604 513h1M606 513h1M608 513h1M610 513h1M612 513h1M614 513h1M616 513h1M618 513h1M620 513h1M622 513h1M624 513h1M626 513h1M628 513h1M630 513h1M632 513h1M634 513h1M636 513h1M638 513h1M640 513h1M642 513h1M644 513h1M646 513h1M648 513h1M650 513h1M652 513h1M654 513h1M656 513h1M658 513h1M660 513h1M662 513h1M664 513h1M666 513h1M668 513h1M670 513h1M672 513h1M674 513h1M676 513h1M525 514h1M529 514h1M533 514h1M537 514h1M541 514h1M545 514h1M549 514h1M553 514h1M557 514h1M561 514h1M565 514h1M569 514h1M573 514h1M577 514h1M581 514h1M585 514h1M589 514h1M593 514h1M597 514h1M601 514h1M605 514h1M609 514h1M613 514h1M617 514h1M621 514h1M625 514h1M629 514h1M633 514h1M637 514h1M641 514h1M645 514h1M649 514h1M653 514h1M657 514h1M661 514h1M665 514h1M669 514h1M673 514h1M677 514h1M524 515h1M526 515h1M528 515h1M530 515h1M532 515h1M534 515h1M536 515h1M538 515h1M540 515h1M542 515h1M544 515h1M546 515h1M548 515h1M550 515h1M552 515h1M554 515h1M556 515h1M558 515h1M560 515h1M562 515h1M564 515h1M566 515h1M568 515h1M570 515h1M572 515h1M574 515h1M576 515h1M578 515h1M580 515h1M582 515h1M584 515h1M586 515h1M588 515h1M590 515h1M592 515h1M594 515h1M596 515h1M598 515h1M600 515h1M602 515h1M604 515h1M606 515h1M608 515h1M610 515h1M612 515h1M614 515h1M616 515h1M618 515h1M620 515h1M622 515h1M624 515h1M626 515h1M628 515h1M630 515h1M632 515h1M634 515h1M636 515h1M638 515h1M640 515h1M642 515h1M644 515h1M646 515h1M648 515h1M650 515h1M652 515h1M654 515h1M656 515h1M658 515h1M660 515h1M662 515h1M664 515h1M666 515h1M668 515h1M670 515h1M672 515h1M674 515h1M676 515h1M678 515h1M623 516h1M627 516h1M631 516h1M635 516h1M639 516h1M643 516h1M647 516h1M651 516h1M655 516h1M659 516h1M663 516h1M667 516h1M671 516h1M675 516h1M522 517h1M524 517h1M526 517h1M528 517h1M530 517h1M532 517h1M534 517h1M536 517h1M538 517h1M540 517h1M542 517h1M544 517h1M546 517h1M548 517h1M550 517h1M552 517h1M554 517h1M556 517h1M558 517h1M560 517h1M562 517h1M564 517h1M566 517h1M568 517h1M570 517h1M572 517h1M574 517h1M576 517h1M578 517h1M580 517h1M582 517h1M584 517h1M586 517h1M588 517h1M590 517h1M592 517h1M594 517h1M596 517h1M598 517h1M600 517h1M602 517h1M604 517h1M606 517h1M608 517h1M610 517h1M612 517h1M614 517h1M616 517h1M618 517h1M620 517h1M622 517h1M624 517h1M626 517h1M628 517h1M630 517h1M632 517h1M634 517h1M636 517h1M638 517h1M640 517h1M642 517h1M644 517h1M646 517h1M648 517h1M650 517h1M652 517h1M654 517h1M656 517h1M658 517h1M660 517h1M662 517h1M664 517h1M666 517h1M668 517h1M670 517h1M672 517h1M674 517h1M676 517h1M678 517h1M525 518h1M529 518h1M533 518h1M537 518h1M541 518h1M545 518h1M549 518h1M553 518h1M557 518h1M561 518h1M565 518h1M569 518h1M573 518h1M577 518h1M581 518h1M585 518h1M589 518h1M593 518h1M597 518h1M601 518h1M605 518h1M609 518h1M613 518h1M617 518h1M621 518h1M625 518h1M629 518h1M633 518h1M637 518h1M641 518h1M645 518h1M649 518h1M653 518h1M657 518h1M661 518h1M665 518h1M669 518h1M673 518h1M677 518h1M522 519h1M524 519h1M526 519h1M528 519h1M530 519h1M532 519h1M534 519h1M536 519h1M538 519h1M540 519h1M542 519h1M544 519h1M546 519h1M548 519h1M550 519h1M552 519h1M554 519h1M556 519h1M558 519h1M560 519h1M562 519h1M564 519h1M566 519h1M568 519h1M570 519h1M572 519h1M574 519h1M576 519h1M578 519h1M580 519h1M582 519h1M584 519h1M586 519h1M588 519h1M590 519h1M592 519h1M594 519h1M596 519h1M598 519h1M600 519h1M602 519h1M604 519h1M606 519h1M608 519h1M610 519h1M612 519h1M614 519h1M616 519h1M618 519h1M620 519h1M622 519h1M624 519h1M626 519h1M628 519h1M630 519h1M632 519h1M634 519h1M636 519h1M638 519h1M640 519h1M642 519h1M644 519h1M646 519h1M648 519h1M650 519h1M652 519h1M654 519h1M656 519h1M658 519h1M660 519h1M662 519h1M664 519h1M666 519h1M668 519h1M670 519h1M672 519h1M674 519h1M676 519h1M678 519h1M522 521h1M524 521h1M526 521h1M528 521h1M530 521h1M532 521h1M534 521h1M536 521h1M538 521h1M540 521h1M542 521h1M544 521h1M546 521h1M548 521h1M550 521h1M552 521h1M554 521h1M556 521h1M558 521h1M560 521h1M562 521h1M564 521h1M566 521h1M568 521h1M570 521h1M572 521h1M574 521h1M576 521h1M578 521h1M580 521h1M582 521h1M584 521h1M586 521h1M588 521h1M590 521h1M592 521h1M594 521h1M596 521h1M598 521h1M600 521h1M602 521h1M604 521h1M606 521h1M608 521h1M610 521h1M612 521h1M614 521h1M616 521h1M618 521h1M620 521h1M622 521h1M624 521h1M626 521h1M628 521h1M630 521h1M632 521h1M634 521h1M636 521h1M638 521h1M640 521h1M642 521h1M644 521h1M646 521h1M648 521h1M650 521h1M652 521h1M654 521h1M656 521h1M658 521h1M660 521h1M662 521h1M664 521h1M666 521h1M668 521h1M670 521h1M672 521h1M674 521h1M676 521h1M678 521h1M680 521h1M581 522h1M585 522h1M589 522h1M593 522h1M597 522h1M601 522h1M605 522h1M609 522h1M613 522h1M617 522h1M621 522h1M625 522h1M629 522h1M633 522h1M637 522h1M641 522h1M645 522h1M649 522h1M653 522h1M657 522h1M661 522h1M665 522h1M669 522h1M673 522h1M677 522h1M520 523h1M522 523h1M524 523h1M526 523h1M528 523h1M530 523h1M532 523h1M534 523h1M536 523h1M538 523h1M540 523h1M542 523h1M544 523h1M546 523h1M548 523h1M550 523h1M552 523h1M554 523h1M556 523h1M558 523h1M560 523h1M562 523h1M564 523h1M566 523h1M568 523h1M570 523h1M572 523h1M574 523h1M576 523h1M578 523h1M580 523h1M582 523h1M584 523h1M586 523h1M588 523h1M590 523h1M592 523h1M594 523h1M596 523h1M598 523h1M600 523h1M602 523h1M604 523h1M606 523h1M608 523h1M610 523h1M612 523h1M614 523h1M616 523h1M618 523h1M620 523h1M622 523h1M624 523h1M626 523h1M628 523h1M630 523h1M632 523h1M634 523h1M636 523h1M638 523h1M640 523h1M642 523h1M644 523h1M646 523h1M648 523h1M650 523h1M652 523h1M654 523h1M656 523h1M658 523h1M660 523h1M662 523h1M664 523h1M666 523h1M668 523h1M670 523h1M672 523h1M674 523h1M676 523h1M678 523h1M680 523h1M520 525h1M522 525h1M524 525h1M526 525h1M528 525h1M530 525h1M532 525h1M534 525h1M536 525h1M538 525h1M540 525h1M542 525h1M544 525h1M546 525h1M548 525h1M550 525h1M552 525h1M554 525h1M556 525h1M558 525h1M560 525h1M562 525h1M564 525h1M566 525h1M568 525h1M570 525h1M572 525h1M574 525h1M576 525h1M578 525h1M580 525h1M582 525h1M584 525h1M586 525h1M588 525h1M590 525h1M592 525h1M594 525h1M596 525h1M598 525h1M600 525h1M602 525h1M604 525h1M606 525h1M608 525h1M610 525h1M612 525h1M614 525h1M616 525h1M618 525h1M620 525h1M622 525h1M624 525h1M626 525h1M628 525h1M630 525h1M632 525h1M634 525h1M636 525h1M638 525h1M640 525h1M642 525h1M644 525h1M646 525h1M648 525h1M650 525h1M652 525h1M654 525h1M656 525h1M658 525h1M660 525h1M662 525h1M664 525h1M666 525h1M668 525h1M670 525h1M672 525h1M674 525h1M676 525h1M678 525h1M680 525h1M661 526h1M665 526h1M669 526h1M673 526h1M677 526h1M681 526h1M520 527h1M522 527h1M524 527h1M526 527h1M528 527h1M530 527h1M532 527h1M534 527h1M536 527h1M538 527h1M540 527h1M542 527h1M544 527h1M546 527h1M548 527h1M550 527h1M552 527h1M554 527h1M556 527h1M558 527h1M560 527h1M562 527h1M564 527h1M566 527h1M568 527h1M570 527h1M572 527h1M574 527h1M576 527h1M578 527h1M580 527h1M582 527h1M584 527h1M586 527h1M588 527h1M590 527h1M592 527h1M594 527h1M596 527h1M598 527h1M600 527h1M602 527h1M604 527h1M606 527h1M608 527h1M610 527h1M612 527h1M614 527h1M616 527h1M618 527h1M620 527h1M622 527h1M624 527h1M626 527h1M628 527h1M630 527h1M632 527h1M634 527h1M636 527h1M638 527h1M640 527h1M642 527h1M644 527h1M646 527h1M648 527h1M650 527h1M652 527h1M654 527h1M656 527h1M658 527h1M660 527h1M662 527h1M664 527h1M666 527h1M668 527h1M670 527h1M672 527h1M674 527h1M676 527h1M678 527h1M680 527h1M682 527h1M595 528h1M518 529h1M522 529h1M526 529h1M530 529h1M534 529h1M538 529h1M542 529h1M546 529h1M550 529h1M554 529h1M556 529h1M558 529h1M560 529h1M562 529h1M564 529h1M566 529h1M568 529h1M570 529h1M572 529h1M574 529h1M576 529h1M578 529h1M580 529h1M582 529h1M584 529h1M586 529h1M588 529h1M590 529h1M592 529h1M594 529h1M596 529h1M598 529h1M600 529h1M602 529h1M604 529h1M606 529h1M608 529h1M610 529h1M612 529h1M614 529h1M616 529h1M618 529h1M620 529h1M622 529h1M624 529h1M626 529h1M628 529h1M630 529h1M632 529h1M634 529h1M636 529h1M638 529h1M640 529h1M642 529h1M644 529h1M646 529h1M648 529h1M650 529h1M652 529h1M654 529h1M656 529h1M658 529h1M660 529h1M662 529h1M664 529h1M666 529h1M668 529h1M670 529h1M672 529h1M674 529h1M676 529h1M678 529h1M680 529h1M682 529h1M595 530h1M518 531h1M520 531h1M522 531h1M524 531h1M526 531h1M528 531h1M530 531h1M532 531h1M534 531h1M536 531h1M538 531h1M540 531h1M542 531h1M544 531h1M546 531h1M548 531h1M550 531h1M552 531h1M554 531h1M556 531h1M558 531h1M560 531h1M562 531h1M564 531h1M566 531h1M568 531h1M570 531h1M572 531h1M574 531h1M576 531h1M578 531h1M580 531h1M582 531h1M584 531h1M586 531h1M588 531h1M590 531h1M592 531h1M594 531h1M596 531h1M598 531h1M600 531h1M602 531h1M604 531h1M606 531h1M608 531h1M610 531h1M612 531h1M614 531h1M616 531h1M618 531h1M620 531h1M622 531h1M624 531h1M626 531h1M628 531h1M630 531h1M632 531h1M634 531h1M636 531h1M638 531h1M640 531h1M642 531h1M644 531h1M646 531h1M648 531h1M650 531h1M652 531h1M654 531h1M656 531h1M658 531h1M660 531h1M662 531h1M664 531h1M666 531h1M668 531h1M670 531h1M672 531h1M674 531h1M676 531h1M678 531h1M680 531h1M682 531h1M684 531h1M518 533h1M522 533h1M526 533h1M530 533h1M534 533h1M538 533h1M542 533h1M546 533h1M550 533h1M554 533h1M558 533h1M562 533h1M566 533h1M570 533h1M574 533h1M578 533h1M582 533h1M586 533h1M590 533h1M594 533h1M598 533h1M602 533h1M606 533h1M610 533h1M614 533h1M618 533h1M622 533h1M626 533h1M630 533h1M634 533h1M636 533h1M638 533h1M640 533h1M642 533h1M644 533h1M646 533h1M648 533h1M650 533h1M652 533h1M654 533h1M656 533h1M658 533h1M660 533h1M662 533h1M664 533h1M666 533h1M668 533h1M670 533h1M672 533h1M674 533h1M676 533h1M678 533h1M680 533h1M682 533h1M684 533h1M516 535h1M518 535h1M520 535h1M522 535h1M524 535h1M526 535h1M528 535h1M530 535h1M532 535h1M534 535h1M536 535h1M538 535h1M540 535h1M542 535h1M544 535h1M546 535h1M548 535h1M550 535h1M552 535h1M554 535h1M556 535h1M558 535h1M560 535h1M562 535h1M564 535h1M566 535h1M568 535h1M570 535h1M572 535h1M574 535h1M576 535h1M578 535h1M580 535h1M582 535h1M584 535h1M586 535h1M588 535h1M590 535h1M592 535h1M594 535h1M596 535h1M598 535h1M600 535h1M602 535h1M604 535h1M606 535h1M608 535h1M610 535h1M612 535h1M614 535h1M616 535h1M618 535h1M620 535h1M622 535h1M624 535h1M626 535h1M628 535h1M630 535h1M632 535h1M634 535h1M636 535h1M638 535h1M640 535h1M642 535h1M644 535h1M646 535h1M648 535h1M650 535h1M652 535h1M654 535h1M656 535h1M658 535h1M660 535h1M662 535h1M664 535h1M666 535h1M668 535h1M670 535h1M672 535h1M674 535h1M676 535h1M678 535h1M680 535h1M682 535h1M684 535h1M686 535h1M514 537h1M518 537h1M522 537h1M526 537h1M530 537h1M534 537h1M538 537h1M542 537h1M546 537h1M550 537h1M554 537h1M558 537h1M562 537h1M566 537h1M570 537h1M574 537h1M578 537h1M582 537h1M586 537h1M590 537h1M594 537h1M596 537h1M598 537h1M602 537h1M606 537h1M610 537h1M614 537h1M618 537h1M622 537h1M626 537h1M630 537h1M634 537h1M638 537h1M642 537h1M646 537h1M650 537h1M654 537h1M658 537h1M662 537h1M666 537h1M670 537h1M674 537h1M678 537h1M682 537h1M686 537h1M516 539h1M520 539h1M524 539h1M528 539h1M532 539h1M536 539h1M540 539h1M544 539h1M548 539h1M552 539h1M556 539h1M560 539h1M564 539h1M568 539h1M572 539h1M576 539h1M580 539h1M584 539h1M588 539h1M592 539h1M594 539h1M596 539h1M598 539h1M600 539h1M602 539h1M604 539h1M606 539h1M608 539h1M610 539h1M612 539h1M614 539h1M616 539h1M618 539h1M620 539h1M622 539h1M624 539h1M626 539h1M628 539h1M630 539h1M632 539h1M634 539h1M636 539h1M638 539h1M640 539h1M642 539h1M644 539h1M646 539h1M648 539h1M650 539h1M652 539h1M654 539h1M656 539h1M658 539h1M660 539h1M662 539h1M664 539h1M666 539h1M668 539h1M670 539h1M672 539h1M674 539h1M676 539h1M678 539h1M680 539h1M682 539h1M684 539h1M686 539h1M514 541h1M518 541h1M522 541h1M526 541h1M530 541h1M534 541h1M538 541h1M542 541h1M546 541h1M550 541h1M554 541h1M558 541h1M562 541h1M566 541h1M570 541h1M574 541h1M578 541h1M582 541h1M586 541h1M590 541h1M594 541h1M596 541h1M598 541h1M602 541h1M606 541h1M610 541h1M614 541h1M618 541h1M622 541h1M626 541h1M630 541h1M634 541h1M638 541h1M642 541h1M646 541h1M650 541h1M654 541h1M658 541h1M662 541h1M666 541h1M670 541h1M674 541h1M678 541h1M682 541h1M686 541h1M516 543h1M520 543h1M524 543h1M528 543h1M532 543h1M536 543h1M540 543h1M544 543h1M548 543h1M552 543h1M556 543h1M560 543h1M564 543h1M568 543h1M572 543h1M576 543h1M580 543h1M584 543h1M588 543h1M592 543h1M594 543h1M596 543h1M600 543h1M604 543h1M608 543h1M612 543h1M616 543h1M620 543h1M624 543h1M628 543h1M632 543h1M636 543h1M640 543h1M644 543h1M648 543h1M652 543h1M656 543h1M660 543h1M664 543h1M668 543h1M672 543h1M674 543h1M676 543h1M678 543h1M680 543h1M682 543h1M684 543h1M686 543h1M688 543h1M550 545h1M554 545h1M558 545h1M562 545h1M566 545h1M570 545h1M574 545h1M578 545h1M582 545h1M586 545h1M590 545h1M594 545h1M598 545h1M602 545h1M606 545h1M610 545h1M614 545h1M618 545h1M622 545h1M626 545h1M630 545h1M634 545h1M638 545h1M642 545h1M646 545h1M650 545h1M654 545h1M658 545h1M662 545h1M666 545h1M670 545h1M674 545h1M678 545h1M682 545h1M686 545h1M512 547h1M516 547h1M520 547h1M524 547h1M528 547h1M532 547h1M536 547h1M540 547h1M544 547h1M548 547h1M552 547h1M556 547h1M560 547h1M564 547h1M568 547h1M572 547h1M576 547h1M580 547h1M584 547h1M588 547h1M592 547h1M596 547h1M600 547h1M604 547h1M608 547h1M612 547h1M616 547h1M620 547h1M624 547h1M628 547h1M632 547h1M636 547h1M640 547h1M644 547h1M648 547h1M652 547h1M656 547h1M660 547h1M664 547h1M668 547h1M672 547h1M676 547h1M680 547h1M684 547h1M688 547h1M630 549h1M634 549h1M638 549h1M642 549h1M646 549h1M650 549h1M654 549h1M658 549h1M662 549h1M666 549h1M670 549h1M674 549h1M678 549h1M682 549h1M686 549h1M690 549h1" />
</svg>