<svg xmlns="http://www.w3.org/2000/svg" viewBox="0 -0.5 1200 600" shape-rendering="crispEdges">
<metadata>Made with Pixels to Svg https://codepen.io/shshaw/pen/XbxvNj</metadata>
<path stroke="#8b5580" d="M1179 127h18M1179 128h18M1174 129h26M1171 130h29M1167 131h33M1167 132h33M1166 133h34M1162 134h38M1160 135h40M1160 136h40M1159 137h41M1159 138h41M1157 139h43M1157 140h43M1155 141h45M1155 142h45M1154 143h46M1154 144h46M1155 145h45M1121 146h27M1157 146h43M1116 147h36M1160 147h40M1116 148h36M1160 148h40M1112 149h42M1162 149h38M1109 150h46M1164 150h36M1105 151h52M1166 151h34M1105 152h52M1166 152h34M1102 153h55M1167 153h33M1100 154h59M1172 154h28M65 155h12M1097 155h63M1176 155h24M65 156h12M1097 156h63M1176 156h24M62 157h18M1095 157h64M1178 157h22M59 158h31M1093 158h62M1179 158h21M59 159h31M1092 159h63M1181 159h19M58 160h35M1092 160h63M1181 160h19M56 161h40M1090 161h60M1181 161h19M55 162h44M1088 162h62M1159 162h10M1181 162h19M55 163h44M1086 163h86M1181 163h19M53 164h48M1086 164h86M1181 164h19M52 165h51M1085 165h89M1181 165h19M51 166h53M1083 166h91M1181 166h19M51 167h53M1083 167h93M1181 167h19M49 168h55M1083 168h93M1181 168h19M49 169h57M1081 169h95M1181 169h19M49 170h57M1080 170h96M1179 170h21M48 171h58M1080 171h120M48 172h42M94 172h13M1080 172h120M46 173h40M100 173h7M1078 173h122M46 174h40M100 174h7M1078 174h122M46 175h40M102 175h5M1076 175h124M46 176h45M102 176h5M1076 176h124M46 177h3M56 177h38M1076 177h124M46 178h3M56 178h38M1076 178h124M46 179h3M65 179h26M1074 179h69M1152 179h48M64 180h23M1074 180h69M1152 180h48M64 181h23M1045 181h93M1152 181h48M61 182h25M1040 182h96M1150 182h50M61 183h23M98 183h7M1037 183h98M1150 183h50M46 184h2M55 184h28M96 184h10M1037 184h98M1150 184h50M46 185h2M55 185h28M96 185h10M1033 185h81M1147 185h53M43 186h39M91 186h17M127 186h15M1031 186h80M1143 186h57M43 187h39M89 187h21M124 187h21M1028 187h77M1141 187h59M40 188h40M87 188h24M122 188h26M1028 188h77M1141 188h59M40 189h40M87 189h24M122 189h26M1026 189h74M1141 189h59M37 190h43M86 190h27M121 190h28M1024 190h73M1143 190h57M37 191h45M84 191h30M121 191h31M1023 191h72M1116 191h8M1145 191h55M34 192h48M84 192h30M121 192h31M1023 192h72M1116 192h8M1145 192h55M33 193h82M121 193h32M1021 193h72M1114 193h15M1147 193h53M33 194h82M121 194h34M1019 194h73M1109 194h24M1147 194h53M32 195h85M121 195h34M1018 195h74M1107 195h28M1148 195h52M30 196h87M121 196h34M1018 196h74M1107 196h28M1148 196h52M30 197h87M122 197h34M1018 197h72M1105 197h31M1148 197h52M30 198h87M124 198h32M1016 198h74M1104 198h37M1148 198h52M28 199h30M62 199h56M128 199h31M1014 199h76M1104 199h96M28 200h30M62 200h56M128 200h31M1014 200h76M1104 200h96M27 201h29M63 201h57M129 201h31M1014 201h74M1104 201h96M27 202h29M66 202h10M79 202h42M142 202h18M1012 202h62M1105 202h95M27 203h29M66 203h10M79 203h42M142 203h18M1012 203h57M1105 203h95M25 204h33M66 204h10M79 204h45M145 204h17M1012 204h57M1105 204h95M25 205h33M79 205h49M145 205h17M1011 205h53M1105 205h95M24 206h35M77 206h60M141 206h22M1011 206h51M1104 206h96M24 207h35M77 207h60M141 207h22M1011 207h48M1102 207h98M24 208h37M76 208h87M1011 208h48M1102 208h98M24 209h38M75 209h88M1011 209h46M1102 209h98M24 210h17M58 210h10M72 210h91M1011 210h44M1080 210h17M1100 210h100M24 211h17M58 211h10M72 211h91M1011 211h43M1073 211h127M24 212h7M62 212h101M1011 212h43M1073 212h127M25 213h4M62 213h100M964 213h16M1011 213h41M1069 213h131M25 214h4M62 214h100M959 214h28M1011 214h41M1064 214h132M1199 214h1M56 215h107M956 215h36M1011 215h39M1061 215h135M7 216h13M48 216h127M956 216h36M1011 216h39M1061 216h134M5 217h16M44 217h133M952 217h45M1011 217h39M1059 217h136M5 218h18M44 218h133M950 218h49M1012 218h38M1057 218h138M1199 218h1M3 219h22M41 219h145M947 219h53M1014 219h36M1055 219h141M1198 219h2M0 220h25M39 220h150M947 220h53M1014 220h36M1055 220h141M1198 220h2M0 221h25M39 221h150M945 221h57M1014 221h36M1055 221h145M0 222h25M38 222h155M944 222h58M1016 222h34M1054 222h146M0 223h25M38 223h158M942 223h62M1016 223h12M1031 223h169M0 224h25M38 224h160M942 224h62M1016 224h12M1031 224h169M0 225h25M38 225h160M942 225h62M1016 225h12M1031 225h169M0 226h24M38 226h165M940 226h69M1018 226h10M1033 226h167M0 227h24M38 227h169M938 227h71M1021 227h7M1035 227h162M0 228h24M37 228h176M938 228h71M1021 228h7M1035 228h162M0 229h24M37 229h176M938 229h73M1024 229h4M1035 229h153M0 230h31M35 230h180M937 230h75M1035 230h144M0 231h32M35 231h183M935 231h79M1045 231h127M0 232h32M35 232h183M935 232h79M1045 232h127M0 233h221M935 233h81M1047 233h122M0 234h222M933 234h88M1047 234h117M0 235h222M933 235h90M1045 235h115M0 236h222M933 236h90M1045 236h115M0 237h224M932 237h36M971 237h69M1061 237h92M1156 237h1M0 238h224M932 238h34M971 238h72M1064 238h86M0 239h225M932 239h34M973 239h70M1067 239h83M0 240h225M932 240h34M973 240h70M1067 240h84M0 241h225M930 241h36M975 241h67M1071 241h80M0 242h225M234 242h17M930 242h36M975 242h67M1074 242h77M0 243h225M234 243h17M930 243h34M976 243h62M1047 243h15M1074 243h67M0 244h225M232 244h19M930 244h34M976 244h62M1047 244h15M1074 244h67M0 245h225M232 245h30M930 245h31M985 245h52M1045 245h21M1076 245h62M0 246h227M231 246h31M930 246h27M990 246h45M1045 246h24M1078 246h60M0 247h227M231 247h31M930 247h27M990 247h45M1040 247h31M1080 247h51M0 248h229M231 248h31M930 248h27M990 248h45M1040 248h31M1080 248h51M0 249h265M930 249h26M966 249h15M992 249h43M1038 249h35M1080 249h51M0 250h265M930 250h22M961 250h26M995 250h40M1038 250h36M1080 250h70M0 251h265M930 251h20M957 251h33M995 251h81M1080 251h87M0 252h265M930 252h20M957 252h33M995 252h81M1080 252h83M0 253h265M270 253h17M914 253h36M954 253h208M0 254h265M270 254h17M909 254h253M0 255h265M270 255h20M901 255h261M0 256h293M895 256h267M0 257h10M17 257h221M249 257h52M895 257h267M0 258h10M17 258h221M249 258h52M892 258h260M0 259h7M19 259h217M251 259h52M889 259h261M0 260h7M21 260h211M251 260h59M885 260h260M0 261h7M23 261h208M255 261h57M885 261h260M0 262h7M23 262h208M255 262h57M331 262h9M882 262h263M0 263h7M25 263h206M255 263h57M328 263h14M880 263h268M0 264h7M25 264h203M255 264h59M327 264h17M876 264h279M0 265h7M27 265h201M255 265h59M327 265h18M876 265h279M0 266h7M30 266h191M270 266h75M875 266h272M0 267h7M34 267h171M270 267h75M871 267h273M0 268h10M34 268h171M228 268h25M269 268h27M300 268h44M870 268h274M0 269h10M34 269h171M228 269h25M269 269h25M300 269h42M870 269h281M0 270h10M23 270h184M221 270h72M299 270h43M868 270h277M0 271h7M15 271h278M302 271h32M866 271h277M0 272h7M13 272h283M303 272h26M866 272h275M1195 272h2M1199 272h1M0 273h7M11 273h264M278 273h18M304 273h25M866 273h275M1195 273h5M0 274h274M279 274h15M864 274h274M1190 274h10M0 275h274M279 275h12M863 275h272M1173 275h4M1184 275h1M1187 275h13M0 276h276M279 276h12M863 276h265M1171 276h6M1180 276h20M0 277h274M281 277h8M863 277h265M1171 277h29M0 278h272M861 278h265M1171 278h29M0 279h269M861 279h255M1171 279h29M0 280h269M862 280h243M1167 280h33M0 281h262M862 281h243M1167 281h33M0 282h256M861 282h1M866 282h231M1167 282h33M0 283h251M868 283h220M1164 283h36M0 284h251M839 284h17M868 284h215M1129 284h6M1160 284h40M0 285h229M236 285h9M839 285h17M868 285h215M1129 285h6M1160 285h40M0 286h99M111 286h99M833 286h23M868 286h212M1112 286h24M1155 286h45M0 287h96M119 287h91M818 287h39M868 287h212M1104 287h36M1150 287h50M0 288h93M119 288h88M385 288h2M813 288h44M868 288h8M899 288h301M0 289h93M119 289h48M379 289h2M385 289h2M813 289h46M866 289h6M874 289h2M899 289h301M0 290h91M125 290h40M373 290h14M401 290h11M456 290h30M810 290h49M868 290h4M899 290h301M0 291h91M125 291h40M373 291h17M401 291h11M456 291h29M806 291h53M868 291h5M899 291h3M909 291h291M3 292h88M343 292h5M373 292h17M401 292h13M452 292h33M794 292h67M909 292h291M4 293h86M267 293h24M339 293h11M370 293h1M373 293h26M401 293h16M433 293h55M794 293h66M909 293h291M4 294h86M267 294h24M339 294h11M370 294h1M373 294h44M433 294h53M787 294h73M885 294h7M904 294h296M4 295h85M262 295h29M338 295h14M367 295h51M429 295h57M761 295h17M780 295h82M868 295h332M6 296h83M204 296h103M318 296h7M338 296h14M363 296h123M758 296h20M780 296h72M859 296h3M868 296h332M8 297h13M42 297h44M201 297h126M338 297h14M357 297h128M758 297h94M859 297h4M868 297h332M8 298h13M42 298h44M201 298h127M338 298h15M358 298h127M744 298h107M866 298h334M11 299h7M44 299h140M199 299h129M340 299h14M358 299h99M741 299h107M850 299h1M864 299h135M1004 299h196M44 300h142M199 300h129M340 300h113M739 300h57M804 300h44M864 300h129M1006 300h194M44 301h143M198 301h129M342 301h93M739 301h57M804 301h44M863 301h130M1006 301h194M42 302h145M198 302h129M342 302h93M737 302h53M806 302h42M859 302h131M1006 302h194M42 303h145M198 303h127M345 303h86M736 303h54M806 303h43M856 303h134M1007 303h5M1018 303h158M1178 303h22M0 304h186M201 304h118M345 304h65M736 304h56M813 304h15M834 304h8M854 304h134M1021 304h155M1178 304h22M0 305h186M203 305h116M346 305h64M734 305h58M813 305h15M835 305h7M854 305h134M1021 305h17M1040 305h160M0 306h184M203 306h111M346 306h59M732 306h62M815 306h12M835 306h5M852 306h136M1023 306h3M1031 306h7M1040 306h160M0 307h184M232 307h13M730 307h69M844 307h144M1033 307h167M0 308h184M232 308h13M730 308h83M842 308h146M1033 308h5M1045 308h155M0 309h184M232 309h13M730 309h83M842 309h146M1033 309h5M1045 309h155M0 310h114M144 310h38M730 310h198M938 310h50M1033 310h4M1045 310h155M0 311h114M145 311h37M711 311h214M940 311h50M1045 311h155M710 312h213M940 312h50M1045 312h155M710 313h213M940 313h50M1045 313h155M665 314h254M944 314h46M1047 314h153M663 315h255M944 315h46M1052 315h148M663 316h253M950 316h38M1052 316h146M661 317h255M950 317h38M1052 317h146M661 318h255M925 318h8M950 318h33M1049 318h144M658 319h275M950 319h33M1049 319h125M658 320h277M950 320h31M1049 320h125M658 321h277M950 321h31M1049 321h125M658 322h2M662 322h3M696 322h242M959 322h21M993 322h30M1049 322h125M658 323h2M662 323h3M698 323h240M959 323h19M992 323h30M1049 323h125M698 324h6M794 324h151M957 324h11M988 324h34M1024 324h1M1047 324h127M698 325h6M796 325h149M957 325h11M988 325h40M1047 325h127M699 326h4M796 326h20M818 326h132M957 326h4M985 326h38M1033 326h141M818 327h132M983 327h35M1033 327h141M818 328h88M908 328h29M980 328h24M1033 328h139M818 329h10M832 329h74M908 329h29M980 329h24M1033 329h139M716 330h69M832 330h74M973 330h22M1031 330h141M715 331h72M832 331h74M961 331h34M1016 331h156M661 332h128M842 332h1M845 332h61M930 332h20M952 332h219M662 333h127M842 333h1M846 333h60M930 333h20M952 333h219M662 334h125M846 334h60M930 334h241M620 335h21M662 335h122M846 335h323M618 336h24M658 336h126M847 336h322M619 337h21M658 337h127M847 337h322M619 338h21M660 338h113M852 338h315M619 339h21M661 339h110M856 339h310M619 340h22M680 340h59M918 340h42M962 340h204M618 341h24M680 341h59M918 341h42M962 341h204M620 342h21M682 342h31M921 342h39M964 342h200M964 343h198M964 344h196M964 345h196M973 346h184M975 347h180M997 348h155M997 349h155M1000 350h148M1002 351h143M1006 352h135M1006 353h135M1009 354h129M1014 355h121M1023 356h80M1106 356h25M1023 357h80M1107 357h24M1028 358h75M1107 358h19M1031 359h66M1031 360h55M1088 360h1M1031 361h10M1043 361h43M1033 362h8M1043 362h44M1038 363h3M1044 363h34M1038 364h3M1044 364h34M1038 365h3M1046 365h32M1046 366h23M1046 367h23M1050 368h14M1050 369h14" />
<path stroke="#8b557e" d="M1196 214h3M1196 215h4M1195 216h5M1195 217h5M1195 218h4M1196 219h2M1196 220h2M1153 237h3M1150 238h7M1150 239h7M1151 240h2M1151 241h2M1151 242h2M1167 251h3M1163 252h7M1162 253h8M1155 264h7M1155 265h7M1147 266h15M1144 267h18M296 268h4M1144 268h13M294 269h6M1151 269h6M293 270h6M1197 270h3M293 271h4M1197 271h3M1187 272h8M1197 272h2M275 273h3M1179 273h16M274 274h5M1179 274h11M274 275h5M1171 275h2M1177 275h7M1185 275h2M1177 276h3M861 280h1M861 281h1M862 282h4M862 283h6M864 284h4M864 285h4M864 286h4M857 287h2M866 287h2M381 288h4M857 288h2M866 288h2M381 289h4M387 289h3M872 289h2M387 290h3M872 290h3M897 290h2M485 291h2M873 291h2M897 291h2M485 292h2M350 293h2M371 293h2M860 293h3M350 294h2M371 294h2M486 294h2M860 294h4M486 295h2M778 295h2M862 295h2M352 296h2M486 296h2M778 296h2M862 296h2M352 297h5M485 297h3M353 298h5M485 298h2M338 299h2M354 299h4M848 299h2M338 300h2M848 300h2M340 301h2M848 301h2M340 302h2M848 302h4M343 303h2M734 303h2M849 303h3M1176 303h2M343 304h2M734 304h2M1176 304h2M344 305h2M1038 305h2M344 306h2M1038 306h2M724 309h6M724 310h6M661 315h2M661 316h2M660 317h1M660 318h1M660 322h2M665 322h3M1023 322h4M660 323h2M665 323h3M696 323h2M1022 323h6M696 324h2M1022 324h2M1025 324h3M696 325h2M794 325h2M794 326h2M816 326h2M816 327h2M816 328h2M906 328h2M816 329h2M828 329h4M906 329h2M827 330h5M827 331h5M843 332h2M950 332h2M660 333h2M843 333h3M950 333h2M658 334h4M787 334h2M844 334h2M658 335h4M784 335h5M844 335h2M784 336h3M617 337h2M640 337h3M617 338h2M640 338h3M617 339h2M640 339h3M617 340h2M641 340h2M960 340h2M960 341h2M960 342h4M1103 356h3M1103 357h4M1103 358h4M1086 360h2M1041 361h2M1086 361h3M1041 362h2M1087 362h2M1041 363h3M1041 364h3M1041 365h5M1044 366h2M1044 367h2" />
</svg>